<svg width="28" height="28" viewBox="0 0 28 28" fill="none" xmlns="http://www.w3.org/2000/svg">
<path d="M17 7.66667H17.0133M13.6667 25H5C3.93913 25 2.92172 24.5786 2.17157 23.8284C1.42143 23.0783 1 22.0609 1 21V5C1 3.93913 1.42143 2.92172 2.17157 2.17157C2.92172 1.42143 3.93913 1 5 1H21C22.0609 1 23.0783 1.42143 23.8284 2.17157C24.5786 2.92172 25 3.93913 25 5V13.6667" stroke="#F36B14" stroke-width="2" stroke-linecap="round" stroke-linejoin="round"/>
<path d="M1 18.3331L7.66667 11.6664C8.904 10.4758 10.4293 10.4758 11.6667 11.6664L17 16.9998" stroke="#F36B14" stroke-width="2" stroke-linecap="round" stroke-linejoin="round"/>
<path d="M15.667 15.6666L17.0003 14.3333C17.8937 13.4746 18.9337 13.2346 19.9097 13.6133M18.3337 22.3333H26.3337M22.3337 18.3333V26.3333" stroke="#F36B14" stroke-width="2" stroke-linecap="round" stroke-linejoin="round"/>
</svg>
