<svg width="109" height="80" viewBox="0 0 109 80" fill="none" xmlns="http://www.w3.org/2000/svg">
<path fill-rule="evenodd" clip-rule="evenodd" d="M7.0453 67.8044C7.10492 67.8141 7.16431 67.8237 7.22344 67.8332C8.2377 67.9969 9.17589 68.1483 9.86146 68.4063C15.7616 70.5442 22.8105 73.1814 27.7849 77.0908C28.3207 77.4941 28.4268 78.3147 27.9844 78.868C27.5428 79.4207 26.7639 79.564 26.169 79.0732C21.5961 75.5071 15.1315 73.0975 9.54209 71.014C9.34725 70.9414 9.15349 70.8692 8.96089 70.7973C8.24715 70.5586 7.14536 70.3912 6.02995 70.2218C5.56617 70.1513 5.10003 70.0805 4.65845 70.0041C3.35233 69.738 2.2029 69.366 1.4469 68.7289C0.993804 68.3973 0.637229 67.4907 1.26906 66.2999C2.03538 64.9386 4.54572 62.4879 5.56582 61.492C5.77751 61.2853 5.92502 61.1413 5.97945 61.0827C9.19554 57.639 11.9545 54.5038 12.1129 49.5538C12.1635 48.8825 12.7729 48.3442 13.4258 48.2862C14.1378 48.3157 14.7157 48.9458 14.6643 49.6177C14.4649 55.2325 11.5402 58.9893 7.85058 62.8799C7.63631 63.0244 6.33898 64.205 5.18018 65.4794C24.639 63.3092 50.785 56.7502 62.4984 40.2918C63.8933 38.3314 65.2686 35.7466 66.3625 32.9696C65.8487 33.1887 65.2768 33.3195 64.7058 33.4498C64.5757 33.4874 64.4447 33.5254 64.313 33.5636C61.4289 34.3997 58.1485 35.3507 55.1185 35.2006C50.9403 34.9601 48.2783 33.3148 46.7066 30.9337C44.4973 27.5808 44.6486 22.5088 46.5951 18.137C48.511 13.786 52.0948 10.0937 56.3439 9.1394C59.2394 8.46085 62.5058 9.06152 65.8232 11.667C69.6006 14.5994 71.0114 18.8732 70.9581 23.4973C70.9672 25.2755 70.6915 26.9906 70.3161 28.7732C71.9203 28.0735 73.5387 27.3647 75.1771 26.642C80.4334 24.1161 85.5797 20.9001 90.2246 17.3847C96.4261 12.8194 101.641 7.38906 105.882 0.959976C106.309 0.417279 107.11 0.25956 107.689 0.633881C108.267 1.00879 108.421 1.79653 108.053 2.42682C103.639 9.10008 98.2431 14.78 91.7911 19.5143C86.9469 23.0366 81.7139 26.4379 76.2593 28.9701C73.9837 29.9952 71.7459 30.995 69.4716 31.8918C68.2342 35.6578 66.4133 39.1803 64.6106 41.7982C52.8113 58.3349 26.9608 65.38 7.0453 67.8044ZM64.0346 30.9714C65.1994 30.6955 66.3075 30.3297 67.3629 29.8727C67.9937 27.7904 68.3812 25.6174 68.3762 23.4541C68.4593 19.702 67.3548 16.1145 64.209 13.6481C61.6643 11.6686 59.1854 11.1735 56.9257 11.678C53.3817 12.4117 50.5441 15.6004 48.9744 19.2081C47.3754 22.7082 47.0367 26.7597 48.8984 29.5823C50.0626 31.346 52.1356 32.4977 55.2831 32.6688C57.6124 32.7508 60.0945 32.0595 62.4279 31.4096C62.9729 31.2578 63.5097 31.1083 64.0346 30.9714Z" fill="#FFA903"/>
</svg>
