<svg width="99" height="65" viewBox="0 0 99 65" fill="none" xmlns="http://www.w3.org/2000/svg">
<path fill-rule="evenodd" clip-rule="evenodd" d="M6.27435 11.7188C6.32545 11.7068 6.37637 11.6949 6.42706 11.683C7.29633 11.4797 8.10042 11.2915 8.67905 11.0263C13.6639 8.81551 19.6143 6.10217 23.6893 2.41185C24.1293 2.0298 24.1716 1.31207 23.7545 0.859235C23.3382 0.406864 22.6543 0.329871 22.1684 0.791435C18.4206 4.15977 12.9629 6.64043 8.24413 8.78522C8.07964 8.85999 7.91606 8.93434 7.75347 9.00831C7.14924 9.25851 6.20432 9.47038 5.24771 9.68487C4.84996 9.77405 4.45018 9.86369 4.07204 9.95672C2.95598 10.2665 1.98216 10.6587 1.36545 11.2567C0.99279 11.5717 0.738647 12.3791 1.35852 13.3731C2.10531 14.5066 4.4299 16.4788 5.37453 17.2803C5.57056 17.4466 5.70717 17.5625 5.7579 17.61C8.75447 20.4002 11.3361 22.9507 11.7734 27.2319C11.858 27.8108 12.4189 28.2404 12.9883 28.2511C13.6037 28.1824 14.0665 27.6012 13.9812 27.0218C13.468 22.1668 10.705 19.0876 7.27093 15.9387C7.07642 15.8264 5.8803 14.8817 4.79857 13.8473C21.7977 14.549 44.8595 18.6497 56.0108 32.2064C57.3388 33.8213 58.6876 35.9784 59.8041 38.3193C59.3455 38.1606 58.8418 38.0818 58.3389 38.0035C58.2239 37.9788 58.1081 37.9538 57.9915 37.9287C55.4408 37.3787 52.5396 36.7532 49.9222 37.067C46.315 37.5288 44.1072 39.1163 42.8891 41.2756C41.1773 44.3159 41.6158 48.7034 43.5682 52.375C45.4927 56.0305 48.823 59.0138 52.5641 59.5835C55.1152 59.9962 57.9102 59.2775 60.6279 56.8179C63.7246 54.0471 64.6884 50.2568 64.362 46.2517C64.262 44.7098 63.9191 43.2398 63.4856 41.7173C64.9186 42.2266 66.3645 42.7429 67.8285 43.2701C72.538 45.1409 77.1939 47.6168 81.4334 50.3825C87.0858 53.964 91.9358 58.355 96.0017 63.671C96.4044 64.1155 97.1084 64.2037 97.5874 63.8441C98.0656 63.4841 98.1513 62.7919 97.7945 62.2678C93.5639 56.7508 88.542 52.1543 82.6622 48.4415C78.2496 45.6819 73.5073 43.0507 68.6255 41.1864C66.5908 40.4357 64.5903 39.7047 62.5646 39.0652C61.2637 35.8757 59.4718 32.9326 57.7504 30.7726C46.52 17.1532 23.6848 12.6132 6.27435 11.7188ZM57.9074 40.1925C58.9338 40.3611 59.9165 40.611 60.8591 40.9432C61.5321 42.71 61.9997 44.5702 62.1265 46.4457C62.426 49.6931 61.686 52.8699 59.1086 55.1984C57.0227 57.0686 54.9039 57.6481 52.9146 57.3477C49.798 56.9265 47.1451 54.3345 45.5657 51.3023C43.9675 48.3652 43.4282 44.8738 44.871 42.3142C45.7732 40.7148 47.5004 39.5907 50.2183 39.2516C52.2326 39.0394 54.426 39.4882 56.4881 39.9101C56.9697 40.0086 57.4441 40.1057 57.9074 40.1925Z" fill="#2937B1"/>
</svg>
