<svg width="32" height="32" viewBox="0 0 32 32" fill="none" xmlns="http://www.w3.org/2000/svg">
<path d="M26.6667 5.33325H8.00004C6.52937 5.33325 5.33337 6.52925 5.33337 7.99992V14.6666H8.00004V10.6666L16.5334 17.0666C16.7642 17.2397 17.0449 17.3333 17.3334 17.3333C17.6219 17.3333 17.9026 17.2397 18.1334 17.0666L26.6667 10.6666V22.6666H16V25.3333H26.6667C28.1374 25.3333 29.3334 24.1373 29.3334 22.6666V7.99992C29.3334 6.52925 28.1374 5.33325 26.6667 5.33325ZM17.3334 14.3333L8.88804 7.99992H25.7787L17.3334 14.3333Z" fill="#F36B14"/>
<path d="M2.66663 16H12V18.6667H2.66663V16ZM5.33329 20H13.3333V22.6667H5.33329V20ZM9.33329 24H14.6666V26.6667H9.33329V24Z" fill="#F36B14"/>
</svg>
