<svg width="57" height="56" viewBox="0 0 57 56" fill="none" xmlns="http://www.w3.org/2000/svg">
<path d="M3.89196 36.7771C2.57405 36.7771 1.48511 37.8652 1.48511 39.1832V52.7457C1.48511 54.0636 2.57405 55.1518 3.89196 55.1518H16.7376C16.9696 55.1518 17.1921 55.0597 17.3562 54.8958C17.5203 54.7318 17.6126 54.5093 17.6128 54.2774C17.6128 54.1624 17.5902 54.0486 17.5462 53.9424C17.5022 53.8362 17.4378 53.7397 17.3565 53.6584C17.2752 53.5771 17.1787 53.5127 17.0725 53.4687C16.9663 53.4247 16.8525 53.4021 16.7376 53.4021H3.89196C3.51326 53.4021 3.23554 53.1244 3.23554 52.7457V39.1832C3.23554 38.8044 3.51326 38.5275 3.89196 38.5275H34.0795C34.4582 38.5275 34.7351 38.8045 34.7351 39.1832V52.7457C34.7351 53.1244 34.4582 53.4021 34.0795 53.4021H26.5321C26.3001 53.4023 26.0776 53.4946 25.9136 53.6587C25.7496 53.8228 25.6576 54.0453 25.6576 54.2774C25.6578 54.5092 25.75 54.7315 25.9139 54.8955C26.0779 55.0594 26.3002 55.1516 26.5321 55.1518H34.0795C35.3975 55.1518 36.4856 54.0637 36.4856 52.7457V39.1832C36.4856 37.8652 35.3975 36.7771 34.0795 36.7771H3.89196ZM31.1229 17.6016C29.8107 17.6016 28.4986 18.1 27.5025 19.096L22.4999 24.0986C22.4187 24.1799 22.3542 24.2764 22.3102 24.3826C22.2662 24.4888 22.2435 24.6026 22.2435 24.7175C22.2435 24.8325 22.2662 24.9463 22.3102 25.0524C22.3542 25.1586 22.4187 25.2551 22.4999 25.3364L28.5029 31.3393C28.5841 31.4206 28.6806 31.4851 28.7868 31.5291C28.893 31.5731 29.0068 31.5957 29.1217 31.5957C29.2367 31.5957 29.3505 31.5731 29.4567 31.5291C29.5629 31.4851 29.6594 31.4206 29.7406 31.3393L34.7432 26.3367C36.7353 24.3446 36.7353 21.0881 34.7432 19.096C33.7472 18.1 32.435 17.6016 31.1229 17.6016ZM31.1229 19.3407C31.9834 19.3407 32.8438 19.6721 33.5055 20.3338C34.8288 21.6571 34.8288 23.7757 33.5055 25.099L29.1213 29.4823L24.3561 24.7171L28.7403 20.3338C29.4019 19.6721 30.2623 19.3407 31.1229 19.3407Z" fill="white"/>
<path d="M23.7853 24.5095C23.5534 24.5095 23.331 24.6016 23.1669 24.7655L18.4977 29.4346C18.4164 29.5159 18.352 29.6124 18.308 29.7185C18.264 29.8247 18.2413 29.9385 18.2413 30.0535C18.2413 30.1684 18.264 30.2822 18.308 30.3884C18.352 30.4946 18.4164 30.5911 18.4977 30.6723L23.1669 35.3415C23.2481 35.4228 23.3446 35.4873 23.4508 35.5313C23.557 35.5753 23.6708 35.5979 23.7857 35.5979C23.9007 35.5979 24.0145 35.5753 24.1207 35.5313C24.2269 35.4873 24.3234 35.4228 24.4046 35.3415L29.0738 30.6723C29.1551 30.5911 29.2196 30.4946 29.2635 30.3884C29.3075 30.2822 29.3302 30.1684 29.3302 30.0535C29.3302 29.9385 29.3075 29.8247 29.2635 29.7185C29.2196 29.6123 29.1551 29.5159 29.0738 29.4346C28.9925 29.3533 28.896 29.2888 28.7898 29.2448C28.6837 29.2008 28.5698 29.1782 28.4549 29.1782C28.34 29.1782 28.2262 29.2008 28.12 29.2448C28.0138 29.2888 27.9173 29.3533 27.836 29.4346L23.7862 33.4853L20.3539 30.0531L24.4046 26.0032C24.4859 25.9219 24.5504 25.8255 24.5944 25.7193C24.6384 25.6131 24.6611 25.4993 24.6611 25.3843C24.6611 25.2694 24.6384 25.1556 24.5944 25.0494C24.5504 24.9432 24.4859 24.8467 24.4046 24.7655C24.3233 24.6842 24.2267 24.6198 24.1205 24.5759C24.0142 24.5319 23.9003 24.5094 23.7853 24.5095Z" fill="white"/>
<path d="M19.8315 30.7684L13.567 37.0329C13.4857 37.1142 13.4212 37.2106 13.3772 37.3168C13.3332 37.423 13.3105 37.5368 13.3105 37.6518C13.3105 37.7667 13.3332 37.8805 13.3772 37.9867C13.4212 38.0929 13.4857 38.1894 13.567 38.2706C13.6482 38.3519 13.7447 38.4164 13.8509 38.4604C13.9571 38.5044 14.0709 38.5271 14.1858 38.5271C14.3008 38.5271 14.4146 38.5044 14.5208 38.4604C14.627 38.4164 14.7234 38.3519 14.8047 38.2706L20.4508 32.6245L21.2146 33.3883L17.5692 37.0329C17.4879 37.1142 17.4234 37.2106 17.3794 37.3168C17.3354 37.423 17.3128 37.5368 17.3128 37.6518C17.3128 37.7667 17.3354 37.8805 17.3794 37.9867C17.4234 38.0929 17.4879 38.1894 17.5692 38.2706C17.6505 38.3519 17.7469 38.4164 17.8531 38.4604C17.9593 38.5044 18.0731 38.5271 18.1881 38.5271C18.303 38.5271 18.4168 38.5044 18.523 38.4604C18.6292 38.4164 18.7257 38.3519 18.807 38.2706L23.07 34.0068C23.2339 33.8427 23.326 33.6203 23.326 33.3883C23.326 33.1564 23.2339 32.934 23.07 32.7699L21.0692 30.7684C20.988 30.6871 20.8915 30.6226 20.7853 30.5786C20.6791 30.5346 20.5653 30.512 20.4504 30.512C20.3355 30.512 20.2216 30.5346 20.1155 30.5786C20.0093 30.6226 19.9128 30.6871 19.8315 30.7684Z" fill="white"/>
<path d="M9.94819 28.0273C8.72585 28.0277 7.53104 28.3858 6.51354 29.0575C6.39276 29.1373 6.29364 29.2457 6.22506 29.3732C6.15649 29.5006 6.12059 29.6431 6.12059 29.7878C6.12059 29.9326 6.15649 30.075 6.22506 30.2025C6.29364 30.3299 6.39276 30.4384 6.51354 30.5181C7.74778 31.3328 8.4827 32.6943 8.48274 34.1522C8.48274 35.225 8.07973 36.261 7.34998 37.0636C7.27268 37.1487 7.21289 37.2481 7.17401 37.3562C7.13514 37.4644 7.11795 37.5791 7.12342 37.6939C7.1289 37.8087 7.15693 37.9213 7.20592 38.0252C7.2549 38.1292 7.32389 38.2225 7.40893 38.2998C7.49396 38.3771 7.59339 38.4369 7.70153 38.4757C7.80967 38.5146 7.92441 38.5318 8.03919 38.5263C8.15398 38.5208 8.26656 38.4928 8.37051 38.4438C8.47446 38.3948 8.56774 38.3259 8.64503 38.2408C9.66386 37.1202 10.2324 35.6637 10.2324 34.1522C10.2323 32.5943 9.62666 31.1195 8.58286 30.0014C9.02274 29.8606 9.48048 29.7772 9.94819 29.7769C12.4185 29.7769 14.3921 31.7317 14.3921 34.1522C14.392 35.2258 13.9917 36.2615 13.2642 37.0645C13.1869 37.1496 13.1273 37.2491 13.0885 37.3573C13.0498 37.4655 13.0327 37.5803 13.0384 37.695C13.044 37.8098 13.0722 37.9224 13.1213 38.0263C13.1704 38.1302 13.2395 38.2234 13.3247 38.3006C13.4099 38.3777 13.5094 38.4373 13.6176 38.476C13.7259 38.5147 13.8407 38.5317 13.9555 38.526C14.0703 38.5203 14.1828 38.492 14.2867 38.4428C14.3905 38.3936 14.4837 38.3244 14.5608 38.2392C15.5775 37.1171 16.1416 35.6614 16.1417 34.1522C16.1417 30.7737 13.3521 28.0273 9.94819 28.0273ZM49.1179 12.61L44.4778 17.2501L50.43 23.2023C51.3619 24.1342 52.9013 24.1342 53.8332 23.2023L55.5358 21.4991C56.0015 21.0327 56.0018 19.4939 55.07 18.5622L49.1179 12.61ZM36.3539 2.62998L34.4977 4.48618C33.5658 5.41811 33.5532 6.96722 34.506 7.8966L35.5645 8.92925C35.9104 9.26642 36.4641 9.25956 36.8015 8.91392C38.5004 7.21494 39.8457 5.83485 40.8234 4.89229C41.1608 4.54666 41.1543 3.99301 40.8089 3.65537L39.7496 2.62272C39.2826 2.16711 38.6672 1.93551 38.0514 1.93482C37.4355 1.93399 36.8199 2.16399 36.3539 2.62998ZM20.3676 47.6066C10.1701 47.1219 2.2279 52.6366 2.2279 52.6366C2.03777 52.7696 1.90825 52.9727 1.86782 53.2012C1.82739 53.4296 1.87937 53.6648 2.01232 53.855C2.14531 54.0451 2.34838 54.1746 2.57686 54.2151C2.80534 54.2555 3.04052 54.2035 3.23068 54.0705C3.23068 54.0705 18.8772 43.0415 34.086 54.467C34.2715 54.6062 34.5048 54.6661 34.7345 54.6334C34.9642 54.6007 35.1715 54.4781 35.3108 54.2926C35.4501 54.1071 35.5101 53.8739 35.4776 53.6442C35.445 53.4146 35.3226 53.2072 35.1372 53.0678C30.1043 49.2869 25.0028 47.8269 20.3676 47.6066ZM2.36435 42.998C2.24941 42.9979 2.13559 43.0206 2.02939 43.0645C1.92319 43.1085 1.8267 43.173 1.74542 43.2543C1.66414 43.3355 1.59967 43.432 1.5557 43.5382C1.51173 43.6444 1.48911 43.7582 1.48914 43.8732C1.48911 43.9881 1.51173 44.102 1.5557 44.2082C1.59967 44.3144 1.66414 44.4109 1.74542 44.4921C1.8267 44.5734 1.92319 44.6379 2.02939 44.6818C2.13559 44.7258 2.24941 44.7484 2.36435 44.7484H23.0271C23.142 44.7484 23.2559 44.7258 23.3621 44.6818C23.4683 44.6379 23.5648 44.5734 23.646 44.4921C23.7273 44.4109 23.7918 44.3144 23.8358 44.2082C23.8797 44.102 23.9024 43.9881 23.9023 43.8732C23.9024 43.7582 23.8797 43.6444 23.8358 43.5382C23.7918 43.432 23.7273 43.3355 23.646 43.2543C23.5648 43.173 23.4683 43.1085 23.3621 43.0645C23.2559 43.0206 23.142 42.9979 23.0271 42.998H2.36435ZM28.5255 42.998C28.2935 42.9981 28.071 43.0904 27.9071 43.2545C27.7431 43.4187 27.651 43.6412 27.6511 43.8732C27.651 44.1052 27.7431 44.3277 27.9071 44.4918C28.071 44.6559 28.2935 44.7482 28.5255 44.7484H35.4682C35.5832 44.7484 35.697 44.7258 35.8032 44.6818C35.9094 44.6379 36.0059 44.5734 36.0871 44.4921C36.1684 44.4109 36.2329 44.3144 36.2769 44.2082C36.3208 44.102 36.3435 43.9881 36.3434 43.8732C36.3435 43.7582 36.3208 43.6444 36.2769 43.5382C36.2329 43.432 36.1684 43.3355 36.0871 43.2543C36.0059 43.173 35.9094 43.1085 35.8032 43.0645C35.697 43.0206 35.5832 42.9979 35.4682 42.998H28.5255Z" fill="white"/>
<path d="M20.8545 54.2719C20.8545 54.5045 20.7621 54.7276 20.5976 54.892C20.4332 55.0565 20.2101 55.1489 19.9775 55.1489C19.8624 55.1489 19.7483 55.1262 19.6419 55.0821C19.5356 55.038 19.4389 54.9735 19.3574 54.892C19.276 54.8106 19.2114 54.7139 19.1673 54.6075C19.1233 54.5011 19.1006 54.3871 19.1006 54.2719C19.1006 54.1568 19.1233 54.0427 19.1673 53.9364C19.2114 53.83 19.276 53.7333 19.3574 53.6518C19.4389 53.5704 19.5356 53.5058 19.6419 53.4618C19.7483 53.4177 19.8624 53.395 19.9775 53.395C20.2101 53.395 20.4332 53.4874 20.5976 53.6519C20.7621 53.8163 20.8545 54.0394 20.8545 54.2719ZM24.1338 54.2719C24.1338 54.5045 24.0414 54.7276 23.8769 54.892C23.7125 55.0565 23.4894 55.1489 23.2568 55.1489C23.0243 55.1489 22.8012 55.0565 22.6368 54.892C22.4723 54.7276 22.3799 54.5045 22.3799 54.2719C22.3799 54.0394 22.4723 53.8163 22.6368 53.6519C22.8012 53.4874 23.0243 53.395 23.2568 53.395C23.4894 53.395 23.7125 53.4874 23.8769 53.6519C24.0414 53.8163 24.1338 54.0394 24.1338 54.2719Z" fill="white"/>
<path d="M33.4153 10.5185C32.4834 11.4504 32.4829 12.9898 33.4153 13.9217L37.7469 18.2532C38.6787 19.1851 40.2182 19.1845 41.15 18.2528L50.1214 9.28147C51.0533 8.34956 51.0533 6.81075 50.1214 5.87884L45.7899 1.54732C44.8579 0.615411 43.3192 0.615411 42.3872 1.54732L33.4153 10.5185Z" fill="white"/>
</svg>
