<svg width="120" height="120" viewBox="0 0 120 120" fill="none" xmlns="http://www.w3.org/2000/svg">
<path d="M120 91.776H0V91.836H120V91.776Z" fill="#EBEBEB"/>
<path d="M107.976 95.6376H100.027V95.6976H107.976V95.6376Z" fill="#EBEBEB"/>
<path d="M79.4928 96.2904H77.4072V96.3504H79.4928V96.2904Z" fill="#EBEBEB"/>
<path d="M99.7872 93.4104H95.1816V93.4704H99.7872V93.4104Z" fill="#EBEBEB"/>
<path d="M22.9564 93.8136H12.5908V93.8736H22.9564V93.8136Z" fill="#EBEBEB"/>
<path d="M26.6139 93.8136H25.0947V93.8736H26.6139V93.8136Z" fill="#EBEBEB"/>
<path d="M54.0359 94.8264H31.5527V94.8864H54.0359V94.8264Z" fill="#EBEBEB"/>
<path d="M56.8795 81.072H10.5379C10.1749 81.0714 9.82694 80.9267 9.57045 80.6698C9.31397 80.4128 9.16992 80.0646 9.16992 79.7016V14.5584C9.17308 14.1975 9.31853 13.8523 9.57467 13.598C9.83081 13.3436 10.177 13.2006 10.5379 13.2H56.8795C57.243 13.2 57.5915 13.3444 57.8485 13.6014C58.1055 13.8584 58.2499 14.207 58.2499 14.5704V79.7016C58.2499 80.0651 58.1055 80.4136 57.8485 80.6706C57.5915 80.9276 57.243 81.072 56.8795 81.072ZM10.5379 13.248C10.1908 13.2486 9.85811 13.387 9.61288 13.6327C9.36765 13.8783 9.22992 14.2113 9.22992 14.5584V79.7016C9.22992 80.0487 9.36765 80.3817 9.61288 80.6274C9.85811 80.873 10.1908 81.0114 10.5379 81.012H56.8795C57.2269 81.0114 57.5598 80.8731 57.8054 80.6275C58.051 80.3819 58.1893 80.049 58.1899 79.7016V14.5584C58.1893 14.2111 58.051 13.8781 57.8054 13.6325C57.5598 13.3869 57.2269 13.2486 56.8795 13.248H10.5379Z" fill="#EBEBEB"/>
<path d="M108.794 81.072H62.4505C62.0872 81.0714 61.739 80.9268 61.4822 80.6699C61.2253 80.4131 61.0807 80.0649 61.0801 79.7016V14.5584C61.0839 14.1972 61.2298 13.8521 61.4864 13.5978C61.7429 13.3436 62.0893 13.2006 62.4505 13.2H108.794C109.155 13.2013 109.501 13.3446 109.756 13.5988C110.012 13.8531 110.157 14.1979 110.16 14.5584V79.7016C110.16 80.0642 110.016 80.4121 109.76 80.6689C109.504 80.9258 109.157 81.0707 108.794 81.072ZM62.4505 13.248C62.1031 13.2486 61.7702 13.3869 61.5246 13.6325C61.279 13.8781 61.1407 14.2111 61.1401 14.5584V79.7016C61.1407 80.049 61.279 80.3819 61.5246 80.6275C61.7702 80.8731 62.1031 81.0114 62.4505 81.012H108.794C109.142 81.0114 109.475 80.8731 109.72 80.6275C109.966 80.3819 110.104 80.049 110.105 79.7016V14.5584C110.104 14.2111 109.966 13.8781 109.72 13.6325C109.475 13.3869 109.142 13.2486 108.794 13.248H62.4505Z" fill="#EBEBEB"/>
<path d="M64.2674 91.776H72.6914V60.4008H64.2674V91.776Z" fill="#E6E6E6"/>
<path d="M65.6692 91.776H64.2676V88.9512H67.1404L65.6692 91.776Z" fill="#F0F0F0"/>
<path d="M98.5535 91.776H106.978V60.4008H98.5535V91.776Z" fill="#E6E6E6"/>
<path d="M64.2669 90.6912H99.7773V60.4008H64.2669V90.6912Z" fill="#F0F0F0"/>
<path d="M65.3568 70.0488H98.6904V61.7424H65.3568V70.0488Z" fill="#E6E6E6"/>
<path d="M80.4479 64.32H83.5967C84.9647 64.32 86.2727 63.2952 87.2135 61.4856H76.8311C77.7719 63.3 79.0799 64.32 80.4479 64.32Z" fill="#F0F0F0"/>
<path d="M98.3765 91.776H99.7781V88.9512H96.9053L98.3765 91.776Z" fill="#F0F0F0"/>
<path d="M65.3568 79.6992H98.6904V71.3928H65.3568V79.6992Z" fill="#E6E6E6"/>
<path d="M80.4479 73.9728H83.5967C84.9647 73.9728 86.2727 72.948 87.2135 71.1384H76.8311C77.7719 72.96 79.0799 73.9728 80.4479 73.9728Z" fill="#F0F0F0"/>
<path d="M65.3568 89.3496H98.6904V81.0432H65.3568V89.3496Z" fill="#E6E6E6"/>
<path d="M80.4479 83.6232H83.5967C84.9647 83.6232 86.2727 82.5984 87.2135 80.7888H76.8311C77.7719 82.5984 79.0799 83.6232 80.4479 83.6232Z" fill="#F0F0F0"/>
<path d="M18.7171 53.2848L50.8867 53.2848L50.8867 20.7336L18.7171 20.7336L18.7171 53.2848Z" fill="#E6E6E6"/>
<path d="M16.4827 53.2848L50.2939 53.2848L50.2939 20.7336L16.4827 20.7336L16.4827 53.2848Z" fill="#F0F0F0"/>
<path d="M47.4648 50.4528V23.5656H19.32V50.4528H47.4648Z" fill="white"/>
<path d="M33.1968 27.12L28.032 32.2944C26.7839 33.5456 26.083 35.2408 26.083 37.008C26.083 38.7753 26.7839 40.4704 28.032 41.7216L33.1968 46.8888C33.222 46.9141 33.2519 46.9341 33.2849 46.9478C33.3178 46.9615 33.3531 46.9685 33.3888 46.9685C33.4245 46.9685 33.4598 46.9615 33.4927 46.9478C33.5257 46.9341 33.5556 46.9141 33.5808 46.8888L38.748 41.7216C39.9961 40.4704 40.697 38.7753 40.697 37.008C40.697 35.2408 39.9961 33.5456 38.748 32.2944L33.5832 27.12C33.5316 27.0695 33.4622 27.0411 33.39 27.0411C33.3177 27.0411 33.2484 27.0695 33.1968 27.12ZM28.416 41.328C27.2701 40.179 26.6265 38.6224 26.6265 36.9996C26.6265 35.3768 27.2701 33.8203 28.416 32.6712V41.328ZM38.364 41.328V32.6808C39.5099 33.8299 40.1534 35.3864 40.1534 37.0092C40.1534 38.632 39.5099 40.1886 38.364 41.3376V41.328Z" fill="#F0F0F0"/>
<path d="M97.6439 49.2H79.6703L78.6455 59.8128H96.6191L97.6439 49.2Z" fill="#E6E6E6"/>
<path d="M96.6193 59.8128L96.5473 60.4008H78.5713L78.6457 59.8128H96.6193Z" fill="#E6E6E6"/>
<path d="M97.0916 49.2H79.118L78.0908 59.8128H96.0644L97.0916 49.2Z" fill="#F0F0F0"/>
<path d="M95.7026 59.1216L96.4538 49.92C96.4557 49.8894 96.4514 49.8587 96.4411 49.8298C96.4308 49.8009 96.4147 49.7744 96.3938 49.752C96.373 49.7295 96.3477 49.7115 96.3196 49.6991C96.2916 49.6868 96.2613 49.6803 96.2306 49.68H79.7066C79.6499 49.6798 79.5953 49.7009 79.5535 49.7391C79.5117 49.7774 79.4858 49.8299 79.481 49.8864L78.7202 59.0856C78.7182 59.1164 78.7226 59.1473 78.733 59.1764C78.7435 59.2054 78.7598 59.232 78.7809 59.2545C78.8021 59.277 78.8276 59.2949 78.856 59.3072C78.8843 59.3194 78.9149 59.3257 78.9458 59.3256H95.4698C95.5274 59.3283 95.5839 59.3085 95.6273 59.2705C95.6707 59.2325 95.6977 59.1791 95.7026 59.1216Z" fill="white"/>
<path d="M91.3824 59.8128L91.3104 60.4008H71.5176L71.5896 59.8128H91.3824Z" fill="#F0F0F0"/>
<path d="M67.2215 43.5264L100.973 43.5264V21.0888L67.2215 21.0888V43.5264Z" fill="#E6E6E6"/>
<path d="M66.4724 43.5264L100.224 43.5264V21.0888L66.4724 21.0888V43.5264Z" fill="#F5F5F5"/>
<path d="M98.8779 42.0144V22.6032L67.8195 22.6032V42.0144H98.8779Z" fill="white"/>
<path d="M68.3828 42.012V22.6008H67.8164V42.012H68.3828Z" fill="#E6E6E6"/>
<path d="M67.0294 39.4392L99.667 39.4392V37.4088L67.0294 37.4088V39.4392Z" fill="#F5F5F5"/>
<path d="M65.0037 18.588H102.444C102.498 18.5886 102.55 18.6106 102.589 18.6492C102.628 18.6877 102.65 18.7399 102.65 18.7944C102.65 18.8492 102.628 18.9017 102.59 18.9404C102.551 18.9791 102.498 19.0008 102.444 19.0008H65.0037C64.9764 19.0011 64.9493 18.996 64.924 18.9858C64.8987 18.9756 64.8756 18.9604 64.8562 18.9412C64.8368 18.922 64.8214 18.8992 64.8109 18.874C64.8003 18.8488 64.7949 18.8217 64.7949 18.7944C64.7956 18.7395 64.8178 18.687 64.8569 18.6483C64.896 18.6097 64.9488 18.588 65.0037 18.588Z" fill="#E6E6E6"/>
<path d="M64.2793 18.7944C64.2793 18.8968 64.3096 18.997 64.3665 19.0822C64.4234 19.1674 64.5042 19.2338 64.5988 19.2731C64.6934 19.3124 64.7975 19.3228 64.898 19.303C64.9985 19.2832 65.0908 19.2341 65.1634 19.1618C65.236 19.0896 65.2856 18.9974 65.3058 18.897C65.3261 18.7966 65.3162 18.6924 65.2773 18.5977C65.2385 18.5029 65.1724 18.4218 65.0875 18.3645C65.0025 18.3073 64.9025 18.2765 64.8001 18.276C64.7318 18.2757 64.6641 18.2889 64.601 18.3148C64.5378 18.3407 64.4804 18.3788 64.432 18.427C64.3836 18.4752 64.3452 18.5324 64.319 18.5955C64.2928 18.6585 64.2793 18.7261 64.2793 18.7944Z" fill="#E6E6E6"/>
<path d="M100.692 19.956C100.766 19.956 100.837 19.9271 100.889 19.8755C100.942 19.8238 100.972 19.7536 100.973 19.68V19.08C100.973 19.0055 100.944 18.9341 100.891 18.8814C100.838 18.8288 100.767 18.7992 100.692 18.7992C100.656 18.7992 100.619 18.8065 100.585 18.8206C100.551 18.8348 100.521 18.8555 100.495 18.8816C100.469 18.9077 100.448 18.9387 100.435 18.9727C100.421 19.0068 100.414 19.0432 100.414 19.08V19.68C100.415 19.7532 100.445 19.8231 100.497 19.8746C100.549 19.9262 100.619 19.9554 100.692 19.956Z" fill="#E6E6E6"/>
<path d="M68.1288 19.956C68.2006 19.953 68.2686 19.9228 68.3189 19.8715C68.3693 19.8203 68.3983 19.7518 68.4 19.68V19.08C68.4 19.0055 68.3704 18.9341 68.3178 18.8814C68.2651 18.8288 68.1937 18.7992 68.1192 18.7992C68.0825 18.7992 68.0461 18.8065 68.0121 18.8206C67.9782 18.8348 67.9474 18.8555 67.9215 18.8816C67.8956 18.9077 67.8752 18.9387 67.8613 18.9727C67.8475 19.0068 67.8405 19.0432 67.8408 19.08V19.68C67.8415 19.7171 67.8494 19.7537 67.8643 19.7877C67.8791 19.8216 67.9005 19.8524 67.9273 19.878C67.9541 19.9037 67.9857 19.9238 68.0203 19.9372C68.0549 19.9506 68.0918 19.957 68.1288 19.956Z" fill="#E6E6E6"/>
<path opacity="0.4" d="M65.071 40.5936L99.667 40.5936V18.7944L65.071 18.7944V40.5936Z" fill="#E0E0E0"/>
<path d="M96.8428 18.7944C96.8428 18.8969 96.8732 18.9972 96.9301 19.0824C96.9871 19.1677 97.0681 19.2341 97.1628 19.2733C97.2575 19.3126 97.3617 19.3228 97.4623 19.3028C97.5629 19.2828 97.6552 19.2335 97.7277 19.161C97.8002 19.0885 97.8496 18.9961 97.8696 18.8955C97.8896 18.795 97.8793 18.6907 97.8401 18.596C97.8009 18.5013 97.7344 18.4203 97.6492 18.3634C97.5639 18.3064 97.4637 18.276 97.3612 18.276C97.2237 18.276 97.0918 18.3306 96.9946 18.4278C96.8974 18.5251 96.8428 18.6569 96.8428 18.7944Z" fill="#E6E6E6"/>
<path d="M47.8799 90.2208H50.6543V66.156H47.8799V90.2208Z" fill="#F0F0F0"/>
<path d="M17.7841 91.7448H49.5889V90.2208H17.7841V91.7448Z" fill="#F0F0F0"/>
<path d="M47.8803 66.156H16.7188V90.2208H47.8803V66.156Z" fill="#F5F5F5"/>
<path d="M43.99 69.1176H20.6092C19.6654 69.1176 18.9004 69.8827 18.9004 70.8264V75.3C18.9004 76.2438 19.6654 77.0088 20.6092 77.0088H43.99C44.9337 77.0088 45.6988 76.2438 45.6988 75.3V70.8264C45.6988 69.8827 44.9337 69.1176 43.99 69.1176Z" fill="#F0F0F0"/>
<path d="M43.99 79.3656H20.6092C19.6654 79.3656 18.9004 80.1307 18.9004 81.0744V85.548C18.9004 86.4917 19.6654 87.2568 20.6092 87.2568H43.99C44.9337 87.2568 45.6988 86.4917 45.6988 85.548V81.0744C45.6988 80.1307 44.9337 79.3656 43.99 79.3656Z" fill="#F0F0F0"/>
<path d="M26.4936 73.6056H38.1048C38.2482 73.6056 38.3858 73.5488 38.4875 73.4476C38.5891 73.3464 38.6465 73.209 38.6472 73.0656C38.6465 72.9219 38.5892 72.7843 38.4876 72.6828C38.386 72.5812 38.2484 72.5238 38.1048 72.5232H26.4936C26.3499 72.5238 26.2123 72.5812 26.1107 72.6828C26.0092 72.7843 25.9518 72.9219 25.9512 73.0656C25.9518 73.209 26.0092 73.3464 26.1109 73.4476C26.2125 73.5488 26.3501 73.6056 26.4936 73.6056Z" fill="#F5F5F5"/>
<path d="M26.4936 83.8536H38.1048C38.2482 83.8536 38.3858 83.7968 38.4875 83.6956C38.5891 83.5944 38.6465 83.457 38.6472 83.3136C38.6465 83.1699 38.5892 83.0323 38.4876 82.9307C38.386 82.8292 38.2484 82.7718 38.1048 82.7712H26.4936C26.3499 82.7718 26.2123 82.8292 26.1107 82.9307C26.0092 83.0323 25.9518 83.1699 25.9512 83.3136C25.9518 83.457 26.0092 83.5944 26.1109 83.6956C26.2125 83.7968 26.3501 83.8536 26.4936 83.8536Z" fill="#F5F5F5"/>
<path d="M60.0004 102.614C85.7002 102.614 106.534 101.398 106.534 99.8976C106.534 98.3971 85.7002 97.1808 60.0004 97.1808C34.3006 97.1808 13.4668 98.3971 13.4668 99.8976C13.4668 101.398 34.3006 102.614 60.0004 102.614Z" fill="#F5F5F5"/>
<path d="M70.2836 24.348H25.9316L29.378 84.7488H73.7276L70.2836 24.348Z" fill="#263238"/>
<path d="M71.145 24.348H26.793L30.2394 84.7488H74.5914L71.145 24.348Z" fill="#F36B14"/>
<path opacity="0.5" d="M68.0901 26.3784H28.8213L31.6365 81.0528H71.9253L68.0901 26.3784Z" fill="black"/>
<path d="M28.8213 26.3784C31.7397 44.604 29.7381 62.8296 32.6613 81.0528H72.9453C70.0269 62.8296 72.0285 44.604 69.1053 26.3784H28.8213Z" fill="white"/>
<g opacity="0.3">
<path d="M37.0579 42.7608C37.9475 42.7679 38.8005 43.1162 39.4408 43.7338C40.0812 44.3514 40.4601 45.1912 40.4995 46.08C40.5174 46.5076 40.4481 46.9343 40.2959 47.3342C40.1436 47.7341 39.9116 48.0989 39.6139 48.4062C39.3161 48.7136 38.959 48.9572 38.5641 49.1221C38.1693 49.2871 37.745 49.3699 37.3171 49.3656C36.4329 49.3583 35.5855 49.011 34.9505 48.3957C34.3156 47.7804 33.9418 46.9443 33.9067 46.0608C33.8882 45.6345 33.9558 45.2089 34.1055 44.8093C34.2552 44.4097 34.4838 44.0444 34.7779 43.7352C35.0728 43.4288 35.4271 43.1856 35.8191 43.0206C36.2111 42.8555 36.6326 42.772 37.0579 42.7752M37.0339 42.0816C36.5166 42.0784 36.004 42.1807 35.5276 42.3823C35.0512 42.5839 34.6209 42.8806 34.263 43.2541C33.9052 43.6277 33.6273 44.0704 33.4463 44.555C33.2654 45.0397 33.1852 45.5561 33.2107 46.0728C33.2526 47.1395 33.7035 48.1491 34.4698 48.8922C35.2362 49.6354 36.2592 50.055 37.3267 50.064C37.8463 50.0683 38.3615 49.9671 38.8409 49.7665C39.3203 49.5658 39.754 49.27 40.1157 48.8968C40.4774 48.5237 40.7596 48.081 40.9452 47.5956C41.1308 47.1101 41.2159 46.5921 41.1955 46.0728C41.1439 45.0015 40.6838 43.9907 39.9097 43.2483C39.1356 42.5059 38.1064 42.0884 37.0339 42.0816Z" fill="#F36B14"/>
</g>
<path d="M59.3326 72.7008H46.6126C46.5174 72.6992 46.423 72.7179 46.3357 72.7556C46.2483 72.7934 46.17 72.8493 46.1059 72.9197C46.0419 72.9901 45.9936 73.0733 45.9642 73.1639C45.9349 73.2544 45.9252 73.3502 45.9358 73.4448C45.959 73.6471 46.0546 73.8342 46.2051 73.9714C46.3555 74.1086 46.5506 74.1867 46.7542 74.1912H59.4742C59.5694 74.1929 59.6639 74.1742 59.7512 74.1363C59.8386 74.0983 59.9168 74.0421 59.9805 73.9713C60.0442 73.9005 60.092 73.8169 60.1206 73.7261C60.1492 73.6352 60.1579 73.5393 60.1462 73.4448C60.1236 73.2433 60.0287 73.0569 59.8791 72.92C59.7294 72.7832 59.5353 72.7053 59.3326 72.7008Z" fill="#E0E0E0"/>
<path d="M66.1368 69.5688H46.356C46.2602 69.567 46.1652 69.5855 46.0771 69.623C45.9891 69.6605 45.9099 69.7162 45.8449 69.7864C45.7798 69.8567 45.7304 69.9399 45.6997 70.0306C45.6691 70.1213 45.658 70.2175 45.6672 70.3128C45.6844 70.5145 45.776 70.7025 45.9241 70.8405C46.0723 70.9784 46.2664 71.0563 46.4688 71.0592H66.24C66.3358 71.0619 66.4312 71.0444 66.5198 71.0076C66.6084 70.9708 66.6882 70.9157 66.754 70.8459C66.8197 70.776 66.8699 70.6931 66.9013 70.6024C66.9327 70.5118 66.9445 70.4155 66.936 70.32C66.9204 70.1177 66.8298 69.9284 66.682 69.7895C66.5341 69.6505 66.3397 69.5718 66.1368 69.5688Z" fill="#E0E0E0"/>
<g opacity="0.3">
<path d="M37.4635 55.68C38.3466 55.6863 39.1931 56.0337 39.826 56.6496C40.4589 57.2655 40.8292 58.1022 40.8595 58.9848C40.8757 59.4121 40.8056 59.8382 40.6534 60.2378C40.5013 60.6373 40.2702 61.0022 39.9739 61.3104C39.6774 61.6175 39.3215 61.8609 38.9279 62.026C38.5342 62.191 38.1111 62.2742 37.6843 62.2704C36.7991 62.2644 35.9502 61.9177 35.3138 61.3023C34.6774 60.6869 34.3025 59.8501 34.2667 58.9656C34.2521 58.5377 34.3242 58.1113 34.4786 57.7119C34.6329 57.3126 34.8664 56.9485 35.165 56.6416C35.4636 56.3348 35.8211 56.0914 36.2161 55.9261C36.6111 55.7609 37.0354 55.6772 37.4635 55.68ZM37.4635 54.984C36.9435 54.9808 36.4282 55.0827 35.9485 55.2835C35.4688 55.4843 35.0346 55.78 34.672 56.1527C34.3093 56.5254 34.0257 56.9675 33.8381 57.4526C33.6505 57.9376 33.5628 58.4555 33.5803 58.9752C33.6229 60.0448 34.0762 61.0568 34.846 61.8006C35.6158 62.5445 36.6427 62.9629 37.7131 62.9688C38.2316 62.9709 38.7451 62.8679 39.2227 62.6661C39.7003 62.4643 40.1321 62.1679 40.492 61.7947C40.852 61.4215 41.1326 60.9793 41.317 60.4948C41.5015 60.0102 41.5858 59.4933 41.5651 58.9752C41.5292 57.909 41.0821 56.8981 40.3176 56.1541C39.553 55.4102 38.5303 54.9909 37.4635 54.984Z" fill="#F36B14"/>
</g>
<path d="M52.2715 45.2376H45.4675C45.2676 45.2359 45.0759 45.1576 44.9321 45.0187C44.7883 44.8798 44.7033 44.6909 44.6947 44.4912C44.6915 44.3946 44.7078 44.2984 44.7425 44.2083C44.7772 44.1181 44.8298 44.0359 44.8969 43.9665C44.9641 43.8971 45.0446 43.8419 45.1335 43.8042C45.2225 43.7665 45.3181 43.7471 45.4147 43.7472H52.2163C52.4164 43.7488 52.6082 43.8266 52.7527 43.9649C52.8973 44.1032 52.9835 44.2914 52.9939 44.4912C52.9975 44.5881 52.9814 44.6848 52.9467 44.7754C52.9119 44.866 52.8593 44.9486 52.7918 45.0183C52.7243 45.088 52.6435 45.1434 52.5541 45.1811C52.4646 45.2188 52.3686 45.238 52.2715 45.2376Z" fill="#E0E0E0"/>
<path d="M60.1248 45.2376H55.5168C55.3166 45.236 55.1247 45.1577 54.9805 45.0188C54.8363 44.88 54.7508 44.6912 54.7416 44.4912C54.7384 44.3946 54.7546 44.2984 54.7894 44.2083C54.8241 44.1181 54.8766 44.0359 54.9438 43.9665C55.011 43.8971 55.0915 43.8419 55.1804 43.8042C55.2694 43.7665 55.365 43.7471 55.4616 43.7472H60.072C60.2718 43.7488 60.4634 43.8267 60.6075 43.9651C60.7517 44.1034 60.8374 44.2917 60.8472 44.4912C60.8508 44.5881 60.8347 44.6848 60.8 44.7754C60.7652 44.866 60.7125 44.9486 60.6451 45.0183C60.5776 45.088 60.4967 45.1434 60.4073 45.1811C60.3179 45.2188 60.2218 45.238 60.1248 45.2376Z" fill="#E0E0E0"/>
<path d="M63.8395 48.3696H45.5755C45.3756 48.3685 45.1839 48.2903 45.0403 48.1512C44.8968 48.0121 44.8125 47.8229 44.8051 47.6232C44.8019 47.5267 44.8181 47.4304 44.8528 47.3403C44.8876 47.2502 44.9401 47.1679 45.0073 47.0985C45.0745 47.0291 45.1549 46.9739 45.2439 46.9362C45.3329 46.8985 45.4285 46.8792 45.5251 46.8792H63.7867C63.9859 46.8803 64.177 46.9583 64.3201 47.0969C64.4632 47.2356 64.5473 47.4241 64.5547 47.6232C64.5582 47.7196 64.5424 47.8156 64.5081 47.9057C64.4738 47.9958 64.4217 48.0781 64.355 48.1478C64.2883 48.2174 64.2083 48.2729 64.1198 48.311C64.0312 48.3491 63.9359 48.369 63.8395 48.3696Z" fill="#E0E0E0"/>
<g opacity="0.3">
<path d="M37.9845 68.5824C38.8798 68.6 39.7371 68.9471 40.3925 69.5573C41.0478 70.1675 41.4552 70.9979 41.5365 71.8896C41.5796 72.3074 41.5354 72.7296 41.407 73.1295C41.2785 73.5294 41.0684 73.8983 40.7901 74.2128C40.5094 74.5219 40.1659 74.7675 39.7827 74.933C39.3994 75.0986 38.9851 75.1804 38.5677 75.1728C37.6647 75.1582 36.798 74.8143 36.1307 74.2058C35.4634 73.5972 35.0413 72.7659 34.9437 71.868C34.9025 71.4471 34.951 71.0223 35.0858 70.6214C35.2207 70.2206 35.4389 69.8529 35.7261 69.5424C36.0151 69.2342 36.3652 68.9896 36.7541 68.8243C37.1429 68.659 37.562 68.5766 37.9845 68.5824ZM37.9509 67.8888C37.4369 67.8788 36.9266 67.9774 36.4534 68.1784C35.9803 68.3793 35.5549 68.678 35.2052 69.0549C34.8556 69.4317 34.5895 69.8782 34.4245 70.3651C34.2595 70.852 34.1992 71.3682 34.2477 71.88C34.4325 74.0832 36.4317 75.8712 38.6349 75.8712C40.8381 75.8712 42.4173 74.0832 42.2349 71.88C42.1397 70.8036 41.6497 69.8004 40.8592 69.0636C40.0688 68.3268 39.0337 67.9083 37.9533 67.8888H37.9509Z" fill="#F36B14"/>
</g>
<path d="M66.9598 59.7912H45.8854C45.7888 59.7911 45.6932 59.8105 45.6042 59.8482C45.5153 59.8859 45.4348 59.941 45.3676 60.0105C45.3005 60.0799 45.2479 60.1621 45.2132 60.2523C45.1785 60.3424 45.1622 60.4386 45.1654 60.5352C45.174 60.7343 45.2588 60.9225 45.4021 61.0609C45.5455 61.1994 45.7365 61.2775 45.9358 61.2792H67.0198C67.1164 61.2792 67.2121 61.2598 67.301 61.2222C67.39 61.1845 67.4704 61.1293 67.5376 61.0599C67.6048 60.9905 67.6573 60.9082 67.6921 60.8181C67.7268 60.7279 67.7431 60.6317 67.7398 60.5352C67.7323 60.334 67.6466 60.1437 67.501 60.0047C67.3553 59.8658 67.1611 59.7892 66.9598 59.7912Z" fill="#E0E0E0"/>
<path d="M61.9649 56.6568H45.7937C45.6969 56.6567 45.6011 56.6762 45.512 56.714C45.4228 56.7518 45.3423 56.8072 45.275 56.8769C45.2078 56.9466 45.1554 57.0291 45.1208 57.1196C45.0862 57.21 45.0702 57.3064 45.0737 57.4032C45.0805 57.6021 45.1641 57.7906 45.3068 57.9293C45.4495 58.068 45.6403 58.1461 45.8393 58.1472H62.0129C62.1095 58.1473 62.2052 58.1279 62.2941 58.0902C62.3831 58.0525 62.4635 57.9973 62.5307 57.9279C62.5979 57.8585 62.6504 57.7762 62.6852 57.6861C62.7199 57.596 62.7362 57.4997 62.7329 57.4032C62.7273 57.2033 62.6439 57.0134 62.5005 56.8741C62.3571 56.7347 62.1649 56.6567 61.9649 56.6568Z" fill="#E0E0E0"/>
<path d="M37.423 48.4128L37.1398 47.9472C36.5182 46.932 35.2198 46.0272 34.7734 45.7608L35.1094 45.1656C35.991 45.6992 36.7764 46.3775 37.4326 47.172C38.4526 45.8016 39.943 44.3928 41.9614 42.8712L42.3958 43.4328C40.2358 45.0576 38.7046 46.5528 37.723 47.976C37.6246 48.1224 37.5238 48.2688 37.423 48.4128Z" fill="#F36B14"/>
<path d="M37.7829 61.3248C37.6893 61.1688 37.5933 61.0128 37.4973 60.8592C36.8733 59.844 35.5773 58.9392 35.1357 58.6704L35.4765 58.0752C36.3536 58.6103 37.1348 59.2885 37.7877 60.0816C38.8101 58.7136 40.3125 57.3024 42.3621 55.7808L42.7869 56.3424C40.5981 57.9672 39.0573 59.4624 38.0805 60.8856L37.7829 61.3248Z" fill="#F36B14"/>
<path d="M38.6059 74.2656L38.289 73.8C37.5978 72.7848 36.2587 71.88 35.7979 71.6136L36.1099 71.0184C37.0168 71.5558 37.8339 72.232 38.5315 73.0224C39.4723 71.6544 40.9027 70.2432 42.8899 68.724L43.3387 69.2856C41.2171 70.9104 39.7602 72.4056 38.8746 73.8288L38.6059 74.2656Z" fill="#F36B14"/>
<path d="M53.7838 30.96C53.3614 31.8816 52.9286 32.8024 52.4854 33.7224C53.399 34.1769 54.1802 34.859 54.7535 35.7031C55.3269 36.5472 55.6732 37.5248 55.759 38.5416H58.9486C58.7373 35.28 56.6398 32.4408 53.7838 30.96Z" fill="#F36B14"/>
<path d="M41.632 38.5464H44.8216C44.7434 37.6442 44.9078 36.7375 45.2977 35.9202C45.6876 35.1028 46.2889 34.4046 47.0392 33.8976C46.4184 32.976 45.788 32.0544 45.148 31.1328C42.82 32.64 41.428 35.4024 41.632 38.5464Z" fill="#263238"/>
<path d="M49.4684 29.8896C47.9381 29.8745 46.4366 30.3065 45.1484 31.1328C45.7884 32.0544 46.4188 32.976 47.0396 33.8976C47.8712 33.3542 48.8447 33.0687 49.838 33.0768C50.757 33.0821 51.6617 33.305 52.478 33.7272C52.9196 32.8056 53.3524 31.8848 53.7764 30.9648C52.4468 30.2678 50.9697 29.8992 49.4684 29.8896Z" fill="#F36B14"/>
<path opacity="0.5" d="M49.4684 29.8896C47.9381 29.8745 46.4366 30.3065 45.1484 31.1328C45.7884 32.0544 46.4188 32.976 47.0396 33.8976C47.8712 33.3542 48.8447 33.0687 49.838 33.0768C50.757 33.0821 51.6617 33.305 52.478 33.7272C52.9196 32.8056 53.3524 31.8848 53.7764 30.9648C52.4468 30.2678 50.9697 29.8992 49.4684 29.8896Z" fill="#263238"/>
<path d="M53.366 36.3624C53.366 36.3624 50.1452 37.68 49.8044 37.92C49.723 37.9817 49.6548 38.059 49.6037 38.1474C49.5526 38.2358 49.5197 38.3335 49.507 38.4348C49.4942 38.5361 49.5019 38.6389 49.5295 38.7372C49.557 38.8356 49.604 38.9273 49.6676 39.0072C49.7878 39.178 49.9698 39.2952 50.1749 39.3342C50.3801 39.3732 50.5923 39.3308 50.7668 39.216C51.1196 38.9616 53.3708 36.3624 53.366 36.3624ZM49.982 38.7624C49.9507 38.7231 49.9275 38.6779 49.9139 38.6296C49.9003 38.5812 49.8966 38.5305 49.9028 38.4807C49.9091 38.4308 49.9253 38.3827 49.9504 38.3392C49.9755 38.2956 50.0091 38.2576 50.0492 38.2272C50.1356 38.1716 50.2401 38.1513 50.341 38.1705C50.4419 38.1897 50.5317 38.247 50.5916 38.3304C50.6229 38.3697 50.6461 38.4149 50.6597 38.4633C50.6733 38.5117 50.677 38.5623 50.6708 38.6122C50.6645 38.6621 50.6483 38.7102 50.6232 38.7537C50.5981 38.7972 50.5645 38.8353 50.5244 38.8656C50.4391 38.9222 50.3354 38.9441 50.2346 38.9267C50.1337 38.9093 50.0434 38.8539 49.982 38.772V38.7624Z" fill="#263238"/>
<path d="M57.1843 34.8384C57.2 34.9829 57.1848 35.129 57.1395 35.2671C57.0943 35.4052 57.0202 35.5321 56.9221 35.6393C56.824 35.7465 56.7041 35.8315 56.5706 35.8888C56.437 35.946 56.2928 35.9741 56.1475 35.9712C55.8396 35.9651 55.5446 35.8466 55.3182 35.6378C55.0918 35.4291 54.9497 35.1447 54.9187 34.8384C54.9023 34.6947 54.9167 34.5492 54.9611 34.4115C55.0054 34.2739 55.0787 34.1473 55.176 34.0403C55.2732 33.9333 55.3922 33.8482 55.525 33.7909C55.6578 33.7336 55.8013 33.7053 55.9459 33.708C56.2546 33.7132 56.5508 33.8309 56.7788 34.0391C57.0068 34.2472 57.151 34.5315 57.1843 34.8384Z" fill="white"/>
<path d="M55.7801 34.5792C55.7825 34.602 55.78 34.6251 55.7729 34.6468C55.7657 34.6686 55.7541 34.6886 55.7387 34.7056C55.7233 34.7226 55.7045 34.7362 55.6835 34.7454C55.6625 34.7546 55.6398 34.7593 55.6169 34.7592C55.5676 34.7588 55.5203 34.7402 55.4839 34.707C55.4476 34.6738 55.4248 34.6282 55.4201 34.5792C55.4173 34.5563 55.4195 34.5331 55.4265 34.5112C55.4335 34.4892 55.4451 34.469 55.4606 34.452C55.4761 34.4349 55.4951 34.4213 55.5162 34.4122C55.5374 34.4031 55.5603 34.3987 55.5833 34.3992C55.6326 34.3996 55.6799 34.4182 55.7163 34.4514C55.7526 34.4847 55.7754 34.5302 55.7801 34.5792Z" fill="#263238"/>
<path d="M56.6399 34.5792C56.6423 34.6022 56.6398 34.6255 56.6325 34.6474C56.6252 34.6694 56.6134 34.6895 56.5977 34.7065C56.582 34.7236 56.5629 34.7371 56.5417 34.7461C56.5204 34.7552 56.4975 34.7597 56.4743 34.7592C56.4254 34.7578 56.3786 34.7389 56.3424 34.7058C56.3063 34.6728 56.2833 34.6278 56.2775 34.5792C56.2747 34.5561 56.277 34.5327 56.2841 34.5106C56.2912 34.4885 56.3031 34.4681 56.3188 34.451C56.3346 34.4339 56.3538 34.4204 56.3753 34.4115C56.3968 34.4025 56.4199 34.3984 56.4431 34.3992C56.4924 34.3996 56.5398 34.4182 56.5761 34.4514C56.6124 34.4847 56.6352 34.5302 56.6399 34.5792Z" fill="#263238"/>
<path d="M56.1049 35.52C55.8675 35.5181 55.6392 35.4284 55.4641 35.268C55.4477 35.2514 55.4385 35.229 55.4385 35.2056C55.4385 35.1823 55.4477 35.1598 55.4641 35.1432C55.4722 35.1348 55.4818 35.1281 55.4926 35.1235C55.5033 35.1189 55.5148 35.1166 55.5265 35.1166C55.5382 35.1166 55.5497 35.1189 55.5604 35.1235C55.5711 35.1281 55.5808 35.1348 55.5889 35.1432C55.7309 35.2741 55.9165 35.3477 56.1097 35.3496C56.1994 35.3516 56.2885 35.3347 56.3712 35.3C56.4539 35.2652 56.5283 35.2135 56.5897 35.148C56.6059 35.1308 56.6283 35.1208 56.6519 35.1201C56.6636 35.1198 56.6753 35.1218 56.6862 35.1259C56.6972 35.1301 56.7072 35.1364 56.7157 35.1444C56.7242 35.1525 56.731 35.1621 56.7358 35.1728C56.7406 35.1835 56.7433 35.195 56.7436 35.2067C56.7439 35.2184 56.742 35.23 56.7378 35.241C56.7336 35.2519 56.7273 35.2619 56.7193 35.2704C56.6402 35.353 56.5446 35.4179 56.4388 35.4609C56.3329 35.5039 56.2191 35.524 56.1049 35.52Z" fill="#263238"/>
<path d="M50.7883 31.464C50.8082 31.6068 50.7968 31.7522 50.7549 31.8902C50.713 32.0282 50.6417 32.1554 50.5459 32.2631C50.45 32.3708 50.3319 32.4564 50.1998 32.5141C50.0676 32.5717 49.9245 32.5999 49.7803 32.5968C49.4699 32.5895 49.1723 32.4713 48.9416 32.2635C48.7108 32.0556 48.5622 31.772 48.5227 31.464C48.5013 31.3218 48.5113 31.1767 48.5519 31.0388C48.5926 30.9009 48.663 30.7736 48.7582 30.6659C48.8534 30.5581 48.971 30.4725 49.1028 30.4151C49.2346 30.3577 49.3774 30.3299 49.5211 30.3336C49.8322 30.3409 50.1304 30.4586 50.3626 30.6657C50.5948 30.8728 50.7457 31.1558 50.7883 31.464Z" fill="white"/>
<path d="M49.3775 31.2C49.3806 31.2226 49.3788 31.2455 49.3722 31.2673C49.3657 31.2891 49.3545 31.3092 49.3395 31.3263C49.3245 31.3433 49.3059 31.357 49.2851 31.3663C49.2644 31.3755 49.2418 31.3802 49.2191 31.38C49.1696 31.3788 49.1222 31.36 49.0852 31.327C49.0483 31.2941 49.0243 31.249 49.0175 31.2C49.014 31.1774 49.0154 31.1543 49.0218 31.1323C49.0282 31.1104 49.0394 31.0901 49.0545 31.0729C49.0696 31.0557 49.0883 31.0421 49.1093 31.0329C49.1303 31.0238 49.153 31.0194 49.1759 31.02C49.2255 31.0208 49.2732 31.0394 49.3102 31.0724C49.3473 31.1055 49.3711 31.1508 49.3775 31.2Z" fill="#263238"/>
<path d="M50.234 31.2C50.2371 31.2227 50.2353 31.2459 50.2286 31.2679C50.2219 31.2898 50.2105 31.3101 50.1952 31.3272C50.1799 31.3443 50.1611 31.3579 50.14 31.367C50.119 31.3761 50.0962 31.3806 50.0732 31.38C50.0239 31.3783 49.9767 31.3594 49.9398 31.3265C49.903 31.2936 49.8789 31.2488 49.8716 31.2C49.8685 31.1773 49.8703 31.1541 49.877 31.1322C49.8837 31.1102 49.8951 31.09 49.9104 31.0728C49.9257 31.0557 49.9445 31.0421 49.9656 31.033C49.9867 31.0239 50.0095 31.0194 50.0324 31.02C50.0819 31.0212 50.1293 31.04 50.1663 31.073C50.2032 31.106 50.2272 31.151 50.234 31.2Z" fill="#263238"/>
<path d="M50.2582 31.92H49.135C49.1137 31.9165 49.0943 31.9055 49.0803 31.889C49.0663 31.8725 49.0586 31.8516 49.0586 31.83C49.0586 31.8084 49.0663 31.7874 49.0803 31.7709C49.0943 31.7545 49.1137 31.7435 49.135 31.74H50.2582C50.2796 31.7435 50.299 31.7545 50.313 31.7709C50.327 31.7874 50.3347 31.8084 50.3347 31.83C50.3347 31.8516 50.327 31.8725 50.313 31.889C50.299 31.9055 50.2796 31.9165 50.2582 31.92Z" fill="#263238"/>
<path d="M45.0886 34.8384C45.1043 34.9829 45.089 35.129 45.0438 35.2671C44.9986 35.4052 44.9245 35.5321 44.8264 35.6393C44.7283 35.7465 44.6084 35.8315 44.4749 35.8888C44.3413 35.946 44.1971 35.9741 44.0518 35.9712C43.7439 35.9651 43.4489 35.8466 43.2225 35.6378C42.9961 35.4291 42.854 35.1447 42.823 34.8384C42.8065 34.6947 42.821 34.5492 42.8654 34.4115C42.9097 34.2739 42.983 34.1473 43.0803 34.0403C43.1775 33.9333 43.2965 33.8482 43.4293 33.7909C43.5621 33.7336 43.7056 33.7053 43.8502 33.708C44.1587 33.7137 44.4546 33.8316 44.6825 34.0397C44.9105 34.2477 45.0548 34.5317 45.0886 34.8384Z" fill="white"/>
<path d="M43.6795 34.5792C43.6819 34.602 43.6794 34.6251 43.6723 34.6468C43.6651 34.6686 43.6535 34.6886 43.6381 34.7056C43.6227 34.7226 43.6039 34.7362 43.5829 34.7454C43.5619 34.7546 43.5392 34.7593 43.5163 34.7592C43.4671 34.7588 43.4197 34.7402 43.3833 34.707C43.347 34.6738 43.3243 34.6282 43.3195 34.5792C43.3168 34.5563 43.319 34.5331 43.3259 34.5112C43.3329 34.4892 43.3446 34.469 43.36 34.452C43.3755 34.4349 43.3945 34.4213 43.4156 34.4122C43.4368 34.4031 43.4597 34.3987 43.4827 34.3992C43.532 34.3996 43.5793 34.4182 43.6157 34.4514C43.652 34.4847 43.6748 34.5302 43.6795 34.5792Z" fill="#263238"/>
<path d="M44.5389 34.5792C44.5416 34.6021 44.5395 34.6253 44.5325 34.6472C44.5255 34.6692 44.5138 34.6894 44.4984 34.7065C44.4829 34.7235 44.4639 34.7371 44.4428 34.7462C44.4216 34.7553 44.3987 34.7597 44.3757 34.7592C44.3267 34.7578 44.2799 34.7389 44.2438 34.7058C44.2077 34.6728 44.1846 34.6278 44.1789 34.5792C44.1761 34.5563 44.1783 34.5331 44.1853 34.5112C44.1923 34.4892 44.2039 34.469 44.2194 34.452C44.2349 34.4349 44.2538 34.4213 44.275 34.4122C44.2962 34.4031 44.3191 34.3987 44.3421 34.3992C44.3915 34.399 44.4392 34.4174 44.4756 34.4508C44.5121 34.4841 44.5347 34.53 44.5389 34.5792Z" fill="#263238"/>
<path d="M43.4401 35.52C43.429 35.5202 43.418 35.5182 43.4077 35.514C43.3974 35.5099 43.388 35.5038 43.3801 35.496C43.3637 35.4794 43.3545 35.457 43.3545 35.4336C43.3545 35.4103 43.3637 35.3879 43.3801 35.3712C43.458 35.2885 43.5521 35.2227 43.6566 35.1781C43.7611 35.1335 43.8737 35.111 43.9873 35.112C44.225 35.1146 44.4534 35.2052 44.6281 35.3664C44.6365 35.3745 44.6432 35.3842 44.6478 35.3949C44.6524 35.4056 44.6548 35.4172 44.6548 35.4288C44.6548 35.4405 44.6524 35.452 44.6478 35.4628C44.6432 35.4735 44.6365 35.4832 44.6281 35.4912C44.6108 35.5073 44.5881 35.5162 44.5645 35.5162C44.5409 35.5162 44.5182 35.5073 44.5009 35.4912C44.3589 35.3588 44.1719 35.285 43.9777 35.2848C43.8883 35.2828 43.7993 35.2995 43.7167 35.3338C43.634 35.3681 43.5595 35.4193 43.4977 35.484C43.4837 35.5028 43.4631 35.5157 43.4401 35.52Z" fill="#263238"/>
<path d="M61.6173 26.5344C60.8685 24.9576 59.1213 23.9136 57.2373 23.9136H53.3973C53.1336 23.9252 52.8716 23.867 52.6377 23.7448C52.4037 23.6226 52.2063 23.4407 52.0653 23.2176C51.5301 22.2144 50.2533 21.4992 48.8037 21.4992C47.3541 21.4992 46.1637 22.2192 45.7413 23.2176C45.5661 23.64 45.0645 23.9136 44.4885 23.9136H40.6485C38.7645 23.9136 37.1349 24.9576 36.5685 26.5344C36.5475 26.5894 36.5393 26.6485 36.5445 26.7072C36.5506 26.8303 36.6039 26.9463 36.6933 27.0312C36.7826 27.1161 36.9012 27.1634 37.0245 27.1632H61.2357C61.3097 27.1634 61.3824 27.1444 61.447 27.1082C61.5115 27.072 61.5655 27.0197 61.6039 26.9565C61.6423 26.8932 61.6637 26.8211 61.666 26.7472C61.6684 26.6733 61.6516 26.6 61.6173 26.5344ZM48.9597 24.348C48.6732 24.3421 48.3994 24.2292 48.192 24.0316C47.9846 23.8339 47.8586 23.5658 47.8389 23.28C47.8293 23.1423 47.8483 23.0042 47.8947 22.8742C47.9412 22.7443 48.0141 22.6254 48.1088 22.525C48.2035 22.4247 48.318 22.3451 48.445 22.2912C48.5721 22.2373 48.7089 22.2103 48.8469 22.212C49.1352 22.215 49.4117 22.3266 49.6213 22.5246C49.8308 22.7226 49.958 22.9924 49.9773 23.28C49.987 23.4185 49.9677 23.5575 49.9207 23.6881C49.8737 23.8187 49.7999 23.9381 49.7042 24.0386C49.6084 24.1391 49.4927 24.2185 49.3645 24.2718C49.2364 24.3251 49.0985 24.351 48.9597 24.348Z" fill="#263238"/>
<path d="M86.5001 98.1864C86.3123 98.2095 86.1226 98.1625 85.9673 98.0544C85.9468 98.029 85.9344 97.9982 85.9314 97.9657C85.9284 97.9333 85.935 97.9007 85.9505 97.872C85.962 97.8473 85.979 97.8256 86.0002 97.8085C86.0214 97.7915 86.0463 97.7795 86.0729 97.7736C86.3561 97.6944 87.0113 98.0448 87.0329 98.0616C87.0411 98.0652 87.0478 98.0713 87.0522 98.0792C87.0565 98.087 87.0582 98.096 87.0569 98.1048C87.0565 98.1128 87.0535 98.1205 87.0482 98.1265C87.043 98.1326 87.0359 98.1368 87.0281 98.1384C86.8538 98.1694 86.6771 98.1855 86.5001 98.1864ZM86.1833 97.8456C86.157 97.8417 86.1303 97.8417 86.1041 97.8456C86.0877 97.8486 86.0723 97.8554 86.0589 97.8654C86.0456 97.8754 86.0348 97.8883 86.0273 97.9032C86.0033 97.956 86.0273 97.9824 86.0273 97.9968C86.1233 98.1096 86.5697 98.112 86.8913 98.0664C86.6704 97.9509 86.4306 97.8761 86.1833 97.8456Z" fill="#F36B14"/>
<path d="M87.0282 98.1384H87.0114C86.7882 98.0424 86.3226 97.6584 86.3322 97.4616C86.3322 97.4136 86.361 97.356 86.4762 97.344C86.5624 97.3367 86.6482 97.3624 86.7162 97.416C86.8957 97.6041 87.0173 97.8399 87.0666 98.0952C87.0695 98.1012 87.0711 98.1077 87.0711 98.1144C87.0711 98.1211 87.0695 98.1276 87.0666 98.1336C87.0611 98.1375 87.0547 98.14 87.048 98.1408C87.0413 98.1417 87.0345 98.1408 87.0282 98.1384ZM86.517 97.4184H86.493C86.4186 97.4184 86.4162 97.4544 86.4162 97.464C86.4162 97.584 86.7306 97.884 86.9634 98.0136C86.9178 97.8087 86.8155 97.6207 86.6682 97.4712C86.6247 97.4385 86.5714 97.4216 86.517 97.4232V97.4184Z" fill="#F36B14"/>
<path d="M88.9626 98.0976H87.1986L86.5674 94.0128H88.3314L88.9626 98.0976Z" fill="#FFC3BD"/>
<path d="M87.1873 97.8936H89.1073C89.1435 97.8946 89.1785 97.9066 89.2077 97.9281C89.2369 97.9495 89.2588 97.9794 89.2705 98.0136L89.7937 99.5808C89.8048 99.6159 89.8077 99.6531 89.8021 99.6895C89.7965 99.7259 89.7826 99.7605 89.7615 99.7907C89.7404 99.8208 89.7126 99.8457 89.6803 99.8634C89.648 99.8812 89.6121 99.8912 89.5753 99.8928C88.8793 99.8928 87.8713 99.8424 86.9977 99.8424C85.9777 99.8424 86.0689 99.8976 84.8713 99.8976C84.1513 99.8976 83.8657 99.1656 84.1513 99.0984C85.4977 98.7984 85.6537 98.7648 86.7625 98.0304C86.8867 97.9423 87.035 97.8945 87.1873 97.8936Z" fill="#263238"/>
<path opacity="0.2" d="M86.5674 94.0152L86.8938 96.12H88.6578L88.3314 94.0152H86.5674Z" fill="black"/>
<path d="M88.7615 54.108L87.5615 55.32L89.3999 55.9704C89.3999 55.9704 90.1199 54.9816 89.6135 54.3048L88.7615 54.108Z" fill="#FFC3BD"/>
<path d="M87.1582 57.0144L88.9942 57.2832L89.4046 55.9704L87.5662 55.32L87.1582 57.0144Z" fill="#FFC3BD"/>
<path d="M89.5632 39.1848C89.7192 39.5208 89.844 39.8064 89.9688 40.1184C90.0936 40.4304 90.2088 40.7304 90.3288 41.0376C90.5568 41.6544 90.7608 42.2832 90.9504 42.9192C91.1434 43.5627 91.3036 44.2155 91.4304 44.8752L91.5216 45.3792L91.596 45.8928C91.6224 46.0632 91.6392 46.2408 91.6536 46.416C91.668 46.5912 91.692 46.7496 91.692 46.9704V47.2824V47.5584L91.6776 47.8296L91.6512 48.0864C91.62 48.432 91.5744 48.756 91.5312 49.0848C91.4352 49.7328 91.3248 50.3664 91.2024 51.0048C90.948 52.26 90.6696 53.4864 90.3336 54.7224L88.1472 54.2904C88.2864 53.0712 88.4304 51.8328 88.5456 50.6136C88.6008 50.004 88.6608 49.3968 88.6944 48.8016C88.7088 48.5088 88.7256 48.2112 88.7256 47.9304V47.7192V47.5248V47.3304L88.7088 47.172C88.6979 47.0456 88.6803 46.9198 88.656 46.7952C88.6344 46.6608 88.6152 46.5264 88.584 46.3896L88.4952 45.9792L88.392 45.5664C88.2432 45.0144 88.0752 44.46 87.8832 43.9056C87.6912 43.3512 87.4776 42.7992 87.252 42.252C87.1416 41.976 87.0264 41.7024 86.9064 41.4336C86.7864 41.1648 86.6664 40.884 86.5488 40.6512L89.5632 39.1848Z" fill="#263238"/>
<path d="M81.2754 53.2488C81.2754 53.2488 81.5682 66.7464 82.3602 72.1224C83.1858 77.7144 86.2002 95.712 86.2002 95.712H89.1858C89.1858 95.712 88.1154 78.5832 87.7746 73.08C87.4026 67.08 87.4842 53.2488 87.4842 53.2488H81.2754Z" fill="#F36B14"/>
<path d="M85.4829 94.5216C85.4685 94.5216 85.7901 95.7624 85.7901 95.7624H89.4237L89.3973 94.656L85.4829 94.5216Z" fill="#263238"/>
<path d="M80.6026 31.3678C80.6118 31.2183 80.5399 31.0922 80.442 31.0862C80.3441 31.0801 80.2573 31.1965 80.2481 31.346C80.2389 31.4955 80.3108 31.6215 80.4087 31.6275C80.5066 31.6336 80.5934 31.5173 80.6026 31.3678Z" fill="#263238"/>
<path d="M80.5289 31.6272C80.3343 32.0848 80.0792 32.5142 79.7705 32.904C79.8713 32.9772 79.9871 33.0272 80.1095 33.0505C80.2319 33.0737 80.3579 33.0696 80.4785 33.0384L80.5289 31.6272Z" fill="#ED847E"/>
<path d="M81.1632 30.528C81.1446 30.5281 81.1264 30.5231 81.1104 30.5136C81.0245 30.446 80.9235 30.4003 80.8161 30.3802C80.7087 30.3602 80.5981 30.3664 80.4936 30.3984C80.4829 30.4026 80.4714 30.4047 80.4599 30.4044C80.4484 30.4042 80.4371 30.4016 80.4266 30.3969C80.4161 30.3923 80.4066 30.3855 80.3987 30.3771C80.3909 30.3687 80.3848 30.3588 80.3808 30.348C80.377 30.337 80.3754 30.3253 80.3761 30.3137C80.3769 30.302 80.3799 30.2907 80.385 30.2802C80.3901 30.2697 80.3973 30.2603 80.406 30.2526C80.4148 30.2449 80.4249 30.239 80.436 30.2352C80.5675 30.1924 80.7075 30.1823 80.8438 30.2057C80.9801 30.2291 81.1087 30.2854 81.2184 30.3696C81.2365 30.3838 81.2484 30.4046 81.2515 30.4274C81.2547 30.4503 81.2488 30.4734 81.2352 30.492C81.2267 30.5031 81.2158 30.5121 81.2034 30.5184C81.1909 30.5246 81.1771 30.5279 81.1632 30.528Z" fill="#263238"/>
<path d="M85.2718 33.0048C84.9742 34.296 84.6382 36.66 85.5118 37.5192C85.5118 37.5192 85.1134 38.8272 82.7158 38.8272C80.0758 38.8272 81.5038 37.5192 81.5038 37.5192C82.9438 37.176 82.9558 36.1104 82.7398 35.1072L85.2718 33.0048Z" fill="#FFC3BD"/>
<path d="M86.4407 38.124C86.6999 37.5984 86.9855 36.9936 86.4407 36.8064C85.8455 36.5976 82.5551 36.3864 81.4007 36.7752C81.0923 36.8538 80.8277 37.0517 80.6652 37.3254C80.5028 37.599 80.4556 37.926 80.5343 38.2344L86.4407 38.124Z" fill="#F36B14"/>
<path d="M88.9652 38.0256C90.4844 38.7264 91.2572 44.04 91.2572 44.04L88.1972 45C87.6506 43.5941 87.207 42.1503 86.87 40.68C86.3996 38.4624 87.41 37.3104 88.9652 38.0256Z" fill="#263238"/>
<path d="M70.1593 46.2936L68.7481 45.0792L67.4785 46.9272C67.4785 46.9272 68.6185 47.8416 69.8785 47.4672L70.1593 46.2936Z" fill="#FFC3BD"/>
<path d="M66.8878 44.4912L66.6934 46.3176L67.4782 46.9272L68.7478 45.0792L66.8878 44.4912Z" fill="#FFC3BD"/>
<path d="M85.5956 31.0392C85.418 32.8728 85.406 33.9528 84.446 34.8936C84.1368 35.1999 83.7501 35.4163 83.3274 35.5197C82.9046 35.6232 82.4617 35.6097 82.046 35.4807C81.6303 35.3518 81.2575 35.1122 80.9675 34.7877C80.6775 34.4632 80.4812 34.0659 80.3996 33.6384C80.0636 31.992 80.3996 29.2704 82.2308 28.5408C82.6206 28.3727 83.0478 28.3101 83.4694 28.3591C83.8911 28.4082 84.2924 28.5672 84.6333 28.8202C84.9741 29.0733 85.2424 29.4115 85.4113 29.801C85.5802 30.1904 85.6438 30.6174 85.5956 31.0392Z" fill="#FFC3BD"/>
<path d="M81.8393 31.6272C81.6785 30.36 81.7049 29.88 82.3817 29.5992C81.6785 29.46 81.0689 29.4408 80.7785 29.0304C80.4881 28.62 80.4185 27.5712 81.8297 27.0912C81.7001 27.3312 82.1105 27.8304 83.4089 27.3792C84.7073 26.928 86.5985 26.88 86.7689 28.2C87.4553 27.96 88.6049 30.0792 87.2489 31.6272C86.1185 32.9232 85.3649 33.8184 85.1417 34.5072C85.1313 34.5395 85.1141 34.5691 85.0914 34.5943C85.0686 34.6194 85.0408 34.6395 85.0097 34.6531C84.9786 34.6667 84.945 34.6735 84.9111 34.6732C84.8772 34.6729 84.8438 34.6654 84.8129 34.6512C84.3449 34.4328 83.5073 34.62 83.1329 34.7208C83.0802 34.7345 83.0244 34.7298 82.9747 34.7075C82.925 34.6853 82.8843 34.6468 82.8593 34.5984C82.6169 34.0992 81.9617 32.6736 81.8393 31.6272Z" fill="#263238"/>
<path d="M86.5146 28.3608C86.5146 28.3608 87.0714 27.576 88.1394 28.1592C87.5903 28.1336 87.0409 28.2018 86.5146 28.3608Z" fill="#263238"/>
<path d="M86.6064 28.5288C86.6064 28.5288 87.3817 28.0488 86.7769 27.144C86.8139 27.6123 86.756 28.0834 86.6064 28.5288Z" fill="#263238"/>
<path d="M82.7376 31.68C82.6533 32.1337 82.4283 32.5494 82.0944 32.868C81.6504 33.288 81.2664 32.9904 81.2544 32.4504C81.2424 31.9704 81.4584 31.1592 81.9744 30.9432C82.4904 30.7272 82.8288 31.1376 82.7376 31.68Z" fill="#FFC3BD"/>
<path opacity="0.3" d="M81.5234 60.7488C81.6962 64.776 81.9674 69.4512 82.361 72.1224C82.5122 73.14 82.733 74.5656 82.997 76.2192C84.0578 70.4304 84.6914 62.9712 81.5234 60.7488Z" fill="black"/>
<path d="M80.2006 98.1864C79.975 98.1864 79.7566 98.1552 79.687 98.0544C79.6689 98.0274 79.6592 97.9957 79.6592 97.9632C79.6592 97.9307 79.6689 97.8989 79.687 97.872C79.7192 97.8237 79.7678 97.7888 79.8238 97.7736C80.119 97.6944 80.7238 98.0448 80.7502 98.0616C80.7577 98.0657 80.7634 98.0722 80.7665 98.0801C80.7696 98.088 80.7698 98.0968 80.767 98.1048C80.7653 98.1131 80.7613 98.1207 80.7553 98.1266C80.7493 98.1326 80.7417 98.1367 80.7334 98.1384C80.5575 98.1691 80.3793 98.1852 80.2006 98.1864ZM79.9342 97.8456C79.9072 97.8417 79.8797 97.8417 79.8526 97.8456C79.8354 97.8489 79.8191 97.8557 79.8046 97.8656C79.7902 97.8755 79.7779 97.8883 79.7686 97.9032C79.7374 97.956 79.747 97.9824 79.7566 97.9968C79.8358 98.1096 80.2798 98.112 80.611 98.0664C80.4021 97.9491 80.1721 97.8741 79.9342 97.8456Z" fill="#F36B14"/>
<path d="M80.7357 98.1384H80.7189C80.5101 98.0424 80.0997 97.6584 80.1405 97.4616C80.1405 97.4136 80.1837 97.356 80.2989 97.344C80.3417 97.3386 80.3852 97.3422 80.4265 97.3546C80.4679 97.367 80.5061 97.3879 80.5389 97.416C80.7573 97.6008 80.7789 98.076 80.7789 98.0952C80.7787 98.1026 80.7769 98.1099 80.7736 98.1165C80.7703 98.1232 80.7656 98.129 80.7597 98.1336C80.7523 98.1373 80.744 98.139 80.7357 98.1384ZM80.3301 97.4184H80.3061C80.2293 97.4184 80.2245 97.4544 80.2221 97.464C80.1981 97.584 80.4741 97.884 80.6877 98.0136C80.6745 97.815 80.5998 97.6255 80.4741 97.4712C80.4333 97.4387 80.3823 97.4217 80.3301 97.4232V97.4184Z" fill="#F36B14"/>
<path d="M82.6751 98.0976H80.9135L80.8799 94.0128H82.6439L82.6751 98.0976Z" fill="#FFC3BD"/>
<path d="M80.93 97.8936H82.85C82.8844 97.8931 82.9178 97.9049 82.9442 97.9269C82.9706 97.9489 82.9883 97.9797 82.994 98.0136L83.2892 99.5808C83.2959 99.6194 83.294 99.659 83.2837 99.6968C83.2733 99.7345 83.2548 99.7696 83.2293 99.7994C83.2039 99.8292 83.1722 99.853 83.1365 99.8691C83.1008 99.8853 83.062 99.8933 83.0228 99.8928C82.3292 99.8928 81.326 99.8424 80.4548 99.8424C79.4324 99.8424 78.5492 99.8976 77.3516 99.8976C76.6316 99.8976 76.454 99.1656 76.7588 99.0984C78.1484 98.7984 79.2764 98.7648 80.4932 98.0304C80.6237 97.946 80.7747 97.8987 80.93 97.8936Z" fill="#263238"/>
<path opacity="0.2" d="M80.8818 94.0152L80.8962 96.12H82.6602L82.6458 94.0152H80.8818Z" fill="black"/>
<path d="M78.1296 53.2488C78.1296 53.2488 77.4096 66.432 77.424 71.808C77.424 77.4 80.256 95.712 80.256 95.712H83.2416C83.2416 95.712 82.464 77.7264 82.8 72.24C83.1576 66.24 84.8904 53.2536 84.8904 53.2536L78.1296 53.2488Z" fill="#F36B14"/>
<path d="M79.7227 94.5216C79.7083 94.5216 79.8451 95.7624 79.8451 95.7624H83.4787L83.6179 94.656L79.7227 94.5216Z" fill="#263238"/>
<path d="M78.7727 38.0088C78.7727 38.0088 75.7679 45.6 77.0759 58.7208H88.0487C88.1639 57.2808 87.0167 44.7384 88.6535 37.9176C87.6153 37.7166 86.565 37.5835 85.5095 37.5192C84.1746 37.4423 82.8364 37.4423 81.5015 37.5192C80.5806 37.6118 79.6683 37.7755 78.7727 38.0088Z" fill="#263238"/>
<path opacity="0.2" d="M77.2199 44.88C77.0567 46.08 76.9223 47.4504 76.8359 48.96C78.9671 47.0016 79.6967 42.1224 79.6967 42.1224L77.2199 44.88Z" fill="black"/>
<path d="M79.9032 41.6232C79.4712 42.7464 79.0344 43.8288 78.5544 44.916C78.0744 46.0032 77.5776 47.076 77.0184 48.1512L76.8 48.552L76.6896 48.7536C76.644 48.8352 76.6488 48.84 76.524 49.0488C76.3088 49.3872 76.0105 49.6648 75.6576 49.8552C75.3657 50.0086 75.0472 50.1048 74.7192 50.1384C74.2683 50.1797 73.8137 50.1431 73.3752 50.0304C73.0285 49.9445 72.6884 49.8339 72.3576 49.6992C71.7638 49.4533 71.1886 49.1646 70.6368 48.8352C70.3656 48.6792 70.1064 48.5112 69.8496 48.3552C69.5928 48.1992 69.36 48 69.084 47.808L70.38 45.8208C71.31 46.3333 72.2863 46.7567 73.296 47.0856C73.5103 47.1518 73.7293 47.2015 73.9512 47.2344C74.0778 47.2613 74.2086 47.2613 74.3352 47.2344C74.3496 47.2344 74.304 47.22 74.2248 47.2608C74.1283 47.3099 74.0458 47.3826 73.9848 47.472C73.9344 47.556 73.9992 47.4312 74.0208 47.3832L74.1072 47.1936L74.28 46.8168C74.736 45.7992 75.1584 44.7456 75.5688 43.6968C75.9792 42.648 76.3776 41.5536 76.7448 40.4952L79.9032 41.6232Z" fill="#263238"/>
<path d="M81.0958 38.8056C81.6574 40.3752 77.683 46.6944 77.683 46.6944L75.3262 44.3592C75.3262 44.3592 75.9286 42.3744 76.723 39.984C77.5054 37.6344 80.5606 37.3056 81.0958 38.8056Z" fill="#263238"/>
</svg>
