<svg width="90" height="105" viewBox="0 0 90 105" fill="none" xmlns="http://www.w3.org/2000/svg">
<path d="M68.7785 0L68.2657 2.47158C66.5886 10.5528 59.4656 16.8764 50.3623 18.3651L47.5785 18.8208L50.3623 19.2764C59.4656 20.7651 66.5886 27.0887 68.2657 35.1699L68.7785 37.6415L69.2913 35.1699C70.9684 27.0887 78.0914 20.7651 87.1948 19.2764L89.9785 18.8208L87.1948 18.3651C78.0914 16.8764 70.9684 10.5528 69.2913 2.47158L68.7785 0Z" fill="#18150D"/>
<path d="M15.2206 45.566L14.8698 47.257C13.7222 52.7863 8.84869 57.1133 2.62004 58.1319L0.715355 58.4434L2.62004 58.7549C8.84869 59.7735 13.7222 64.1005 14.8698 69.6298L15.2206 71.3208L15.5715 69.6298C16.719 64.1005 21.5926 59.7735 27.8212 58.7549L29.7259 58.4434L27.8212 58.1319C21.5926 57.1133 16.719 52.7863 15.5715 47.257L15.2206 45.566Z" fill="#18150D"/>
<path d="M56.2889 90.1918L56.5048 89.1509L56.7207 90.1918C57.4269 93.594 60.426 96.2571 64.2591 96.8839L65.4311 97.0755L64.2591 97.267C60.426 97.8938 57.4269 100.557 56.7207 103.959L56.5048 105L56.2889 103.959C55.5827 100.557 52.5836 97.8938 48.7506 97.267L47.5785 97.0755L48.7506 96.8839C52.5836 96.2571 55.5827 93.594 56.2889 90.1918Z" fill="#18150D"/>
</svg>
