<svg width="32" height="32" viewBox="0 0 32 32" fill="none" xmlns="http://www.w3.org/2000/svg">
<path d="M22.79 17.895L20 17.08V19.5C20 19.2348 19.8946 18.9804 19.7071 18.7929C19.5196 18.6054 19.2652 18.5 19 18.5C18.7348 18.5 18.4804 18.6054 18.2929 18.7929C18.1054 18.9804 18 19.2348 18 19.5V18L16 19.5L14 18V19.5C14 19.2348 13.8946 18.9804 13.7071 18.7929C13.5196 18.6054 13.2652 18.5 13 18.5C12.7348 18.5 12.4804 18.6054 12.2929 18.7929C12.1054 18.9804 12 19.2348 12 19.5V17.08L9.21 17.895C8.57563 18.0693 8.01593 18.4469 7.61674 18.9698C7.21755 19.4927 7.00089 20.1321 7 20.79V28.5C7 29.0304 7.21071 29.5392 7.58579 29.9142C7.96086 30.2893 8.46957 30.5 9 30.5H25V20.79C24.9991 20.1321 24.7825 19.4927 24.3833 18.9698C23.9841 18.4469 23.4244 18.0693 22.79 17.895Z" fill="#3D9AE2"/>
<path d="M12.5 23.5V27.5H15.5V30.5H21.5V23.5H12.5Z" fill="#E6E7E8"/>
<path d="M20 17.08V19.5C20 19.2348 19.8946 18.9804 19.7071 18.7929C19.5196 18.6054 19.2652 18.5 19 18.5C18.7348 18.5 18.4804 18.6054 18.2929 18.7929C18.1054 18.9804 18 19.2348 18 19.5V16.5L20 17.08Z" fill="#1E81CE"/>
<path d="M17 27.5C17.3978 27.5 17.7794 27.658 18.0607 27.9393C18.342 28.2206 18.5 28.6022 18.5 29C18.5 29.3978 18.342 29.7794 18.0607 30.0607C17.7794 30.342 17.3978 30.5 17 30.5H15.5V27.5H17Z" fill="#FFC477"/>
<path d="M14 18V19.5C14 19.2348 13.8946 18.9804 13.7071 18.7929C13.5196 18.6054 13.2652 18.5 13 18.5C12.7348 18.5 12.4804 18.6054 12.2929 18.7929C12.1054 18.9804 12 19.2348 12 19.5V17.08L14 16.5V18Z" fill="#1E81CE"/>
<path d="M21.5 8C21.5003 8.21861 21.4284 8.43118 21.2955 8.60476C21.1626 8.77833 20.9761 8.9032 20.765 8.96C20.6796 8.98827 20.59 9.0018 20.5 9H11.5C11.4101 9.0018 11.3204 8.98827 11.235 8.96C11.0667 8.91947 10.9138 8.83087 10.795 8.705C10.701 8.61332 10.6264 8.50365 10.5758 8.38252C10.5251 8.2614 10.4993 8.1313 10.5 8C10.5008 7.73503 10.6064 7.48113 10.7938 7.29377C10.9811 7.1064 11.235 7.00079 11.5 7H20.5C20.7646 7.00196 21.0178 7.10795 21.205 7.29506C21.3921 7.48217 21.4981 7.73539 21.5 8Z" fill="#F7910C"/>
<path d="M16.5 1.5H15.5C15.3674 1.5 15.2402 1.55268 15.1464 1.64645C15.0527 1.74021 15 1.86739 15 2V7H17V2C17 1.86739 16.9473 1.74021 16.8536 1.64645C16.7598 1.55268 16.6326 1.5 16.5 1.5Z" fill="#FFA733"/>
<path d="M18 14.5V18L16 19.5L14 18V14.5H18Z" fill="#FFC477"/>
<path d="M18 14.5V16.03C17.3786 16.3391 16.694 16.5 16 16.5C15.306 16.5 14.6214 16.3391 14 16.03V14.5H18Z" fill="#FFB655"/>
<path d="M20.5 9V11C20.4998 11.7658 20.3042 12.5188 19.9317 13.1879C19.5592 13.857 19.0221 14.4199 18.3712 14.8234C17.7204 15.227 16.9773 15.4577 16.2124 15.4939C15.4475 15.53 14.686 15.3703 14 15.03C13.2504 14.6563 12.6196 14.0815 12.1781 13.3698C11.7366 12.658 11.5018 11.8375 11.5 11V9H20.5Z" fill="#FFC477"/>
<path d="M11.5 9H20.5V10H11.5V9Z" fill="#FFB655"/>
<path d="M19.82 4.62999C19.528 4.14818 19.1441 3.72855 18.69 3.39499C18.1879 3.01786 17.6121 2.75042 17 2.60999V6.99999H20.5C20.5028 6.16147 20.267 5.33946 19.82 4.62999ZM12.18 4.62999C11.7331 5.33946 11.4972 6.16147 11.5 6.99999H15V2.60999C14.3879 2.75042 13.8122 3.01786 13.31 3.39499C12.856 3.72855 12.472 4.14818 12.18 4.62999Z" fill="#FF9811"/>
<path d="M21.5 23.5H22.5V30.5H21.5V23.5Z" fill="#1E81CE"/>
<path d="M18 12H17C17 12.2652 16.8946 12.5196 16.7071 12.7071C16.5196 12.8946 16.2652 13 16 13C15.7348 13 15.4804 12.8946 15.2929 12.7071C15.1054 12.5196 15 12.2652 15 12H14C14 12.5304 14.2107 13.0391 14.5858 13.4142C14.9609 13.7893 15.4696 14 16 14C16.5304 14 17.0391 13.7893 17.4142 13.4142C17.7893 13.0391 18 12.5304 18 12Z" fill="black"/>
<path d="M22.93 17.415L18.5 16.125V15.325C19.2586 14.8857 19.8886 14.2551 20.3273 13.4962C20.766 12.7373 20.9979 11.8766 21 11V9.41C21.2938 9.3071 21.5481 9.11494 21.7273 8.86039C21.9065 8.60584 22.0017 8.30165 21.9995 7.99035C21.9972 7.67906 21.8978 7.37624 21.715 7.12426C21.5322 6.87227 21.2752 6.68373 20.98 6.585C20.9044 5.59355 20.5321 4.64783 19.9113 3.87104C19.2906 3.09426 18.4504 2.52241 17.5 2.23V2C17.4992 1.73503 17.3936 1.48113 17.2062 1.29377C17.0189 1.1064 16.765 1.00079 16.5 1H15.5C15.235 1.00079 14.9811 1.1064 14.7938 1.29377C14.6064 1.48113 14.5008 1.73503 14.5 2V2.23C13.5496 2.52241 12.7094 3.09426 12.0887 3.87104C11.4679 4.64783 11.0956 5.59355 11.02 6.585C10.7248 6.68373 10.4678 6.87227 10.285 7.12426C10.1022 7.37624 10.0028 7.67906 10.0005 7.99035C9.99834 8.30165 10.0935 8.60584 10.2727 8.86039C10.4519 9.11494 10.7062 9.3071 11 9.41V11C11.0021 11.8766 11.234 12.7373 11.6727 13.4962C12.1114 14.2551 12.7414 14.8857 13.5 15.325V16.125L9.075 17.415C8.33618 17.6193 7.68452 18.0598 7.21955 18.6692C6.75458 19.2786 6.50187 20.0235 6.5 20.79V28.5C6.5 29.163 6.76339 29.7989 7.23223 30.2678C7.70107 30.7366 8.33696 31 9 31H25C25.1326 31 25.2598 30.9473 25.3536 30.8536C25.4473 30.7598 25.5 30.6326 25.5 30.5V20.79C25.4982 20.0242 25.2461 19.2799 24.7821 18.6706C24.3182 18.0613 23.6678 17.6204 22.93 17.415ZM19.5 17.46V18.085C19.1757 17.975 18.8243 17.975 18.5 18.085V17.165L19.5 17.46ZM17.5 3.29C18.1561 3.56221 18.7291 4.00202 19.1617 4.56539C19.5943 5.12875 19.8714 5.79589 19.965 6.5H17.5V3.29ZM15.5 2H16.5V6.5H15.5V2ZM14.5 3.29V6.5H12.035C12.1286 5.79589 12.4057 5.12875 12.8383 4.56539C13.2709 4.00202 13.8439 3.56221 14.5 3.29ZM11 8C11 7.86739 11.0527 7.74021 11.1464 7.64645C11.2402 7.55268 11.3674 7.5 11.5 7.5H20.5C20.6326 7.5 20.7598 7.55268 20.8536 7.64645C20.9473 7.74021 21 7.86739 21 8C21 8.13261 20.9473 8.25979 20.8536 8.35355C20.7598 8.44732 20.6326 8.5 20.5 8.5H11.5C11.3674 8.5 11.2402 8.44732 11.1464 8.35355C11.0527 8.25979 11 8.13261 11 8ZM12 11V9.5H20V11C20 12.0609 19.5786 13.0783 18.8284 13.8284C18.0783 14.5786 17.0609 15 16 15C14.9391 15 13.9217 14.5786 13.1716 13.8284C12.4214 13.0783 12 12.0609 12 11ZM17.5 15.77V17.75L16 18.875L14.5 17.75V15.77C15.4765 16.0767 16.5235 16.0767 17.5 15.77ZM12.5 17.46L13.5 17.165V18.085C13.1757 17.975 12.8243 17.975 12.5 18.085V17.46ZM17 30H16V28H17C17.2652 28 17.5196 28.1054 17.7071 28.2929C17.8946 28.4804 18 28.7348 18 29C18 29.2652 17.8946 29.5196 17.7071 29.7071C17.5196 29.8946 17.2652 30 17 30ZM21 30H18.72C18.9019 29.698 18.9986 29.3525 19 29C19 28.4696 18.7893 27.9609 18.4142 27.5858C18.0391 27.2107 17.5304 27 17 27H13V24H21V30ZM24.5 30H22V22H21V23H12.5C12.3674 23 12.2402 23.0527 12.1464 23.1464C12.0527 23.2402 12 23.3674 12 23.5V27H11.5C11.3674 27 11.2402 26.9473 11.1464 26.8536C11.0527 26.7598 11 26.6326 11 26.5V22H10V26.5C10.0012 26.8975 10.1596 27.2783 10.4407 27.5593C10.7217 27.8404 11.1025 27.9988 11.5 28H15V30H9C8.60254 29.9988 8.2217 29.8404 7.94065 29.5593C7.6596 29.2783 7.50119 28.8975 7.5 28.5V20.79C7.50271 20.2408 7.68496 19.7075 8.01897 19.2715C8.35297 18.8354 8.82041 18.5206 9.35 18.375L11.5 17.75V19.5C11.5 19.6326 11.5527 19.7598 11.6464 19.8536C11.7402 19.9473 11.8674 20 12 20C12.1326 20 12.2598 19.9473 12.3536 19.8536C12.4473 19.7598 12.5 19.6326 12.5 19.5C12.5 19.3674 12.5527 19.2402 12.6464 19.1464C12.7402 19.0527 12.8674 19 13 19C13.1326 19 13.2598 19.0527 13.3536 19.1464C13.4473 19.2402 13.5 19.3674 13.5 19.5C13.5 19.6326 13.5527 19.7598 13.6464 19.8536C13.7402 19.9473 13.8674 20 14 20C14.1326 20 14.2598 19.9473 14.3536 19.8536C14.4473 19.7598 14.5 19.6326 14.5 19.5V19L15.7 19.9C15.7865 19.9649 15.8918 20 16 20C16.1082 20 16.2135 19.9649 16.3 19.9L17.5 19V19.5C17.5 19.6326 17.5527 19.7598 17.6464 19.8536C17.7402 19.9473 17.8674 20 18 20C18.1326 20 18.2598 19.9473 18.3536 19.8536C18.4473 19.7598 18.5 19.6326 18.5 19.5C18.5 19.3674 18.5527 19.2402 18.6464 19.1464C18.7402 19.0527 18.8674 19 19 19C19.1326 19 19.2598 19.0527 19.3536 19.1464C19.4473 19.2402 19.5 19.3674 19.5 19.5C19.5 19.6326 19.5527 19.7598 19.6464 19.8536C19.7402 19.9473 19.8674 20 20 20C20.1326 20 20.2598 19.9473 20.3536 19.8536C20.4473 19.7598 20.5 19.6326 20.5 19.5V17.75L22.655 18.375C23.1835 18.5218 23.6497 18.837 23.9827 19.2729C24.3157 19.7088 24.4974 20.2415 24.5 20.79V30Z" fill="black"/>
<path d="M13.5 10H14.5V11H13.5V10ZM17.5 10H18.5V11H17.5V10Z" fill="black"/>
</svg>
