<svg width="108" height="108" viewBox="0 0 108 108" fill="none" xmlns="http://www.w3.org/2000/svg">
<path d="M17.2621 1.02004C16.2928 2.08389 16.3165 9.98007 17.2858 10.6657C17.8295 11.0912 18.657 11.0439 19.0352 10.5947C19.4844 10.051 19.508 1.35102 19.0589 0.901834C18.6097 0.429008 17.735 0.499932 17.2621 1.02004Z" fill="#F36B14"/>
<path d="M49.9815 0.972862C40.8797 1.89487 32.0615 5.3465 24.6145 10.9022C21.7539 13.0535 17.0966 17.6872 15.1107 20.3587L13.6923 22.25L12.1556 22.3918C6.8363 22.8646 2.01349 26.8837 0.689579 31.8956C0.50045 32.6758 0.334961 34.2834 0.334961 35.56C0.334961 39.0116 1.20969 41.8958 3.21919 44.9456L4.42489 46.7896L4.47218 51.9906C4.5431 60.8088 6.10342 67.8539 9.67325 75.3955C14.1651 84.9465 20.8555 92.2516 30.2411 97.8546C30.5012 98.0201 29.5792 97.9965 27.7351 97.7837C25.7256 97.5473 21.5411 97.4291 14.4724 97.4054C4.33033 97.3818 4.1412 97.3818 3.47924 97.8783C1.80072 99.1312 2.43903 101.472 4.80315 102.677C6.4344 103.529 17.9004 105.822 24.2599 106.602C33.5982 107.713 45.9625 107.618 56.4829 106.342C65.8684 105.207 75.5141 102.157 80.7151 98.7057C86.9801 94.5212 89.1787 92.7954 92.3466 89.6511C100.597 81.4003 106.059 70.2653 107.453 58.8939C107.619 57.3808 107.69 54.8276 107.595 51.6833C107.453 46.0094 106.933 43.007 105.184 37.8059L104.144 34.6853L104.735 32.8176C105.491 30.4535 105.586 27.4274 104.947 25.2051C103.647 20.666 99.4626 17.5927 94.5453 17.5927H93.1031L91.3537 15.7959C83.4102 7.7579 73.0317 2.62775 61.7312 1.16199C59.2016 0.831017 52.3693 0.73645 49.9815 0.972862ZM62.3223 3.9753C72.0624 5.48834 81.3535 10.0747 88.1858 16.7179L89.6515 18.1128L88.0676 18.9166C86.1053 19.8859 83.623 21.9426 81.8972 23.9994L80.6206 25.5597L79.7695 24.5195C78.7529 23.2665 76.8616 21.8481 75.2067 21.0679C71.4951 19.3421 67.2396 19.4603 63.3625 21.4225C60.5019 22.8646 57.4285 26.6472 56.9321 29.3423C56.8611 29.7679 56.7666 30.1225 56.7429 30.1225C56.7193 30.1225 56.0573 29.9097 55.3008 29.626C54.1424 29.2241 53.5277 29.1532 51.991 29.2478C50.9508 29.3187 49.887 29.4369 49.6033 29.5315C49.1541 29.6733 49.0832 29.5788 48.965 28.5858C48.8704 27.9712 48.4685 26.7891 48.0902 25.9616C45.2769 20.0986 37.0025 18.231 30.7139 22.0372C29.39 22.841 26.0093 25.9616 24.9928 27.3328L24.5199 27.9475L22.7705 26.269C21.1629 24.7323 19.7917 23.8576 17.3803 22.8883C16.8365 22.6519 16.8365 22.6282 18.255 20.9024C20.0754 18.6329 23.8343 14.9921 26.1039 13.2899C33.3618 7.85247 41.6362 4.56633 50.5016 3.64433C53.1495 3.36063 59.509 3.54976 62.3223 3.9753ZM97.6423 20.9497C99.7463 21.7535 101.567 23.6448 102.205 25.7252C103.316 29.3423 102.394 32.9358 99.2971 37.0967C97.2876 39.7681 95.751 41.3284 91.4719 45.0165C86.8146 49.0355 84.5687 50.8086 82.6064 51.9906L81.2116 52.8417L78.3037 51.7306C71.8733 49.2955 66.8377 46.5059 64.2136 43.8817C57.7831 37.4513 57.5467 28.5858 63.6935 24.4959C67.0269 22.2736 70.6913 21.9663 74.072 23.6448C76.0578 24.6377 78.02 26.3872 78.8002 27.9475C79.4149 29.1296 80.2187 29.7442 80.8806 29.4842C81.1407 29.366 82.0154 28.4203 82.8192 27.3565C85.6089 23.6448 88.6586 21.2807 91.661 20.5242C93.2923 20.0986 95.8928 20.2878 97.6423 20.9497ZM41.5416 23.4793C43.1965 24.1176 44.9223 25.7489 45.7025 27.4038C46.3881 28.8459 46.6245 31.6355 46.1989 33.4796C45.5133 36.482 43.2911 39.91 39.6976 43.4798C35.9387 47.1915 28.1843 53.5746 25.9384 54.7567L24.9691 55.2768L21.9194 54.142C11.3991 50.1703 6.38712 46.2931 3.92843 40.241C3.07734 38.1369 2.77001 35.7018 3.10098 33.7633C4.04663 28.3021 9.43683 24.354 14.8034 25.1815C17.9713 25.6543 21.3757 28.0184 22.6759 30.5953C23.6925 32.6285 24.7563 32.4866 26.4585 30.0989C28.8936 26.6945 32.6289 23.6921 35.2294 23.0538C36.7425 22.6755 40.0049 22.8883 41.5416 23.4793ZM55.1826 32.6048L56.2938 33.1722L56.5538 35.0635C57.594 42.3687 63.0079 48.208 72.6771 52.4162C76.2942 53.9765 80.7861 55.655 81.4007 55.655C83.6703 55.655 98.0205 43.7635 101.118 39.3426C101.33 39.0352 101.567 38.8225 101.614 38.8934C101.921 39.2007 102.962 45.2765 103.198 48.1371C104.569 65.017 95.9874 82.3696 81.5426 91.897C75.5613 95.8451 67.6888 98.5875 60.0291 99.4149C56.8848 99.7459 50.7853 99.5568 47.6174 99.0367C31.7305 96.3889 18.5151 86.4123 11.6591 71.8493C8.89309 65.9626 7.47461 60.0287 7.26184 53.3382L7.11999 49.4847L8.98765 50.8322C11.3045 52.4871 16.8129 55.1822 21.4466 56.9317C23.3852 57.6645 25.0637 58.2556 25.2292 58.2556C25.6784 58.2556 28.7281 56.3643 30.9504 54.6857C33.8819 52.5107 40.0522 47.1678 42.0381 45.1583C45.5843 41.4703 48.2085 37.2858 48.8231 34.2124C49.1068 32.8649 49.2014 32.723 49.9579 32.3921C50.4307 32.2029 51.0218 31.9902 51.2818 31.9192C52.1802 31.7065 54.0715 32.0374 55.1826 32.6048Z" fill="#F36B14"/>
<path d="M74.4974 35.0399C72.3933 37.1439 71.9678 37.6877 71.9678 38.3024C71.9678 39.2007 72.346 39.579 73.268 39.579C73.8827 39.579 74.4028 39.1771 76.5305 37.0021C77.9726 35.5363 79.0601 34.2597 79.0601 33.9996C79.0601 33.2195 78.3745 32.4866 77.689 32.4866C77.1925 32.4866 76.4832 33.054 74.4974 35.0399Z" fill="#F36B14"/>
<path d="M82.7955 36.5529C80.6678 38.7988 80.0295 39.6026 80.0059 40.0991C80.0059 40.9502 80.9751 41.6358 81.7553 41.3284C82.6064 40.9975 87.5711 35.6545 87.5711 35.1108C87.5711 34.4488 86.7673 33.6687 86.1053 33.6687C85.727 33.6687 84.7341 34.5434 82.7955 36.5529Z" fill="#F36B14"/>
<path d="M15.7254 39.1298C13.2667 42.1795 13.1485 42.4395 13.6449 43.2197C14.236 44.0944 15.1816 44.0471 16.1036 43.0542C17.9949 41.0211 19.4843 38.917 19.4843 38.2314C19.4843 37.3567 19.1061 36.9784 18.184 36.9784C17.5457 36.9784 17.2384 37.2385 15.7254 39.1298Z" fill="#F36B14"/>
<path d="M24.4963 40.4537C21.7539 43.3852 21.2101 44.5909 22.274 45.4184C23.0778 46.0567 23.6688 45.773 25.1109 43.9999C25.8911 43.0779 26.8604 41.9904 27.2623 41.6121C28.468 40.4537 28.0897 38.8697 26.624 38.8697C26.1511 38.8697 25.6074 39.2716 24.4963 40.4537Z" fill="#F36B14"/>
<path d="M63.9065 54.7094C63.6701 54.8513 63.0082 55.9388 62.4171 57.1681C61.1405 59.7923 59.2256 61.8727 57.1215 62.9129C55.9631 63.4803 55.4903 63.5749 53.7644 63.5749C52.0859 63.5749 51.5658 63.4803 50.5965 62.9839C49.0362 62.2037 47.4522 60.5724 46.4357 58.7048C45.7264 57.4045 45.49 57.1917 44.8753 57.1208C44.0479 57.0499 43.3623 57.57 43.3623 58.2792C43.3623 59.1067 44.8044 61.6127 46.0101 62.8893C47.2867 64.2605 48.8944 65.348 50.2419 65.8208C51.093 66.1281 51.1166 66.1518 51.2585 67.6885C51.8495 74.1898 55.5375 78.9653 60.5495 79.7691C63.1973 80.1947 65.4432 79.4381 67.2163 77.5232C68.4693 76.1757 69.0367 74.9227 69.3913 72.7477C69.935 69.4143 68.6584 65.8681 65.6087 62.3455L63.9302 60.407L64.8758 58.4684C65.9633 56.2225 66.0579 55.3714 65.3014 54.8513C64.6867 54.4257 64.4503 54.4021 63.9065 54.7094ZM63.2919 63.9295C65.8451 66.7664 66.8617 69.0596 66.7198 71.6365C66.5071 74.7808 64.7576 76.9085 62.1807 77.1213C59.7693 77.3104 56.7905 75.3719 55.443 72.724C54.9465 71.7311 54.1427 68.9414 53.9299 67.452L53.8117 66.601L54.8992 66.4591C55.5139 66.3645 56.2231 66.2463 56.4832 66.1754C56.8614 66.0809 57.1451 66.3173 57.7598 67.2629C58.7764 68.7523 59.8639 69.6034 60.7622 69.6034C62.4881 69.6034 62.4881 68.3031 60.7386 66.4355C60.0294 65.6789 59.4383 64.9934 59.462 64.8988C59.4856 64.7333 61.8497 62.7947 62.0862 62.7711C62.1571 62.7474 62.7008 63.2912 63.2919 63.9295Z" fill="#F36B14"/>
<path d="M6.41083 6.43402C5.72524 7.1669 5.96165 7.80521 7.42741 9.4601C8.18393 10.3348 9.22414 11.8479 9.69697 12.8172C10.6899 14.8267 11.3282 15.2758 12.2739 14.6612C12.6758 14.4011 12.8649 14.0701 12.8649 13.621C12.8649 12.2261 10.5008 8.30168 8.72767 6.765C7.78203 5.91391 6.97822 5.79571 6.41083 6.43402Z" fill="#F36B14"/>
<path d="M1.75327 13.7391C1.23316 13.9283 0.807617 14.5429 0.807617 15.134C0.807617 15.5359 1.42229 16.1742 3.12446 17.569C5.41766 19.413 5.70135 19.5785 6.52879 19.5076C7.09618 19.484 7.68721 18.5147 7.52173 17.9C7.35624 17.2853 2.76984 13.55 2.22609 13.5973C2.15517 13.5973 1.9424 13.6682 1.75327 13.7391Z" fill="#F36B14"/>
</svg>
