<svg width="112" height="102" viewBox="0 0 112 102" fill="none" xmlns="http://www.w3.org/2000/svg">
<path d="M16.5539 0.728706C16.2904 0.824509 15.9551 1.06401 15.8593 1.23167C15.7396 1.39932 15.5959 2.93215 15.5001 4.65658C15.3085 8.22519 15.5001 8.8479 16.7215 8.8479C17.9191 8.8479 18.0867 8.46469 18.2544 4.92003C18.446 1.56697 18.3262 0.872409 17.4879 0.656856C17.2484 0.585004 16.8413 0.608954 16.5539 0.728706Z" fill="#F36B14"/>
<path d="M7.18906 3.38723C6.47055 4.32129 6.61425 4.68055 9.0572 8.34496C11.572 12.0812 12.0749 12.5363 13.1048 11.9854C14.2305 11.3627 14.0389 10.6921 11.8115 7.33905C10.6619 5.59067 9.4883 3.93809 9.22485 3.62673C8.69794 3.05192 7.57227 2.90822 7.18906 3.38723Z" fill="#F36B14"/>
<path d="M26.7089 5.59063C23.8827 6.59655 22.1343 9.06344 21.6314 12.7039L21.4877 13.8056L19.4758 13.9493C16.2186 14.1888 14.2068 15.3624 13.0332 17.7095C11.8117 20.1285 8.84186 38.283 6.18336 59.5509C5.5367 64.82 4.98584 69.2987 4.98584 69.4664C4.98584 70.3286 13.129 78.3281 15.045 79.3819C15.7635 79.7651 21.9188 80.3399 29.2955 80.6991C32.0738 80.8428 36.6483 81.1063 39.4744 81.2979C52.8867 82.232 62.0357 82.6152 70.6339 82.6152H75.8312L75.9988 84.4594C76.4299 89.0339 77.9867 92.2672 81.6751 96.3148C83.7109 98.5183 86.1059 99.9792 89.0997 100.817C91.4948 101.488 95.3987 101.488 97.9853 100.841C104.524 99.1649 109.505 93.5845 110.727 86.567C111.158 84.0762 111.182 82.9265 110.823 80.6273C109.817 74.1367 105.051 68.221 99.4703 66.4965L97.7219 65.9696L97.5782 63.5746C97.5063 62.2573 97.3387 53.4196 97.195 43.9352C96.8357 19.8651 96.7399 18.931 94.776 15.9372C93.9138 14.6439 93.0755 13.9972 91.2313 13.2548C90.1056 12.7758 89.459 12.68 87.1118 12.68H84.3336L84.0222 11.5782C83.6151 10.1652 82.1062 7.88987 81.0284 7.07555C79.5675 5.94988 78.2741 5.49483 76.5257 5.49483C74.5379 5.49483 73.4601 5.92593 72.0949 7.24321C70.8495 8.44073 70.4423 9.15924 69.7717 11.3627L69.2448 13.0392H64.8858H60.5029L60.0958 11.7219C59.521 9.9017 58.994 8.96764 57.8444 7.72221C56.3116 6.06964 55.0662 5.44693 52.9825 5.30322C50.779 5.15952 49.4857 5.61458 48.0966 6.9558C46.8991 8.12937 45.7734 10.3807 45.5818 12.0812L45.4142 13.3266L43.9771 13.4943C43.1628 13.5661 41.1989 13.638 39.5942 13.638H36.6722L36.5046 12.632C36.0495 9.758 33.391 6.47679 30.8523 5.66248C29.3674 5.18347 27.9543 5.15952 26.7089 5.59063ZM54.7309 8.63233C55.7607 9.27899 56.6469 10.4286 57.1978 11.9135L57.6528 13.1111L56.7667 13.2548C56.2876 13.3266 54.18 13.3985 52.1203 13.3985H48.3361V12.68C48.3361 11.1232 49.6534 8.96764 51.0186 8.27308C52.0005 7.77012 53.5812 7.91382 54.7309 8.63233ZM30.9002 8.82394C32.0498 9.54245 32.9599 10.8358 33.5826 12.5842L33.9179 13.5661L31.3792 13.7338C29.9901 13.8056 27.8585 13.8775 26.6131 13.8775H24.3857V13.1829C24.3857 12.2967 24.9605 10.6681 25.6072 9.758C26.8765 7.98567 28.9842 7.62641 30.9002 8.82394ZM77.9867 8.51258C78.4657 8.70419 79.1842 9.15924 79.5435 9.5185C80.2141 10.1412 81.3877 12.177 81.3877 12.68C81.3877 12.8237 79.807 12.9195 76.8371 12.9195C74.3463 12.9195 72.2865 12.8237 72.2865 12.7039C72.2865 12.5842 72.4542 12.0333 72.6458 11.4585C73.6277 8.70419 75.7114 7.55457 77.9867 8.51258ZM90.3451 15.9851C90.7283 16.2246 91.2553 16.7036 91.5427 17.0629C92.0217 17.6856 92.0696 18.1886 92.2612 24.2001C92.3809 27.7448 92.4288 30.6907 92.3809 30.7625C92.3091 30.8104 80.262 30.9781 65.5804 31.1218C50.8988 31.2655 33.6066 31.481 27.1639 31.6008C20.7213 31.7445 15.4043 31.7924 15.3564 31.7445C15.1887 31.5768 14.9732 20.871 15.1408 20.0327C15.3324 18.955 16.5299 17.5179 17.6077 17.0868C18.1586 16.8473 20.5297 16.7036 26.2778 16.6078L34.2054 16.4402L34.0617 17.2545C33.7982 18.8352 32.936 20.9907 32.1456 22.0685C31.4511 23.0505 31.2595 23.1702 30.4451 23.1702C29.7266 23.1702 29.4153 23.3379 28.8644 23.9367C28.2417 24.6552 28.1698 24.8468 28.2656 26.0203C28.4094 27.7448 29.2955 28.7267 30.7086 28.7267C32.1935 28.7028 32.936 27.9124 33.0557 26.3077C33.0797 25.7808 33.391 25.1342 33.9179 24.5354C35.4268 22.7391 36.8399 19.0987 36.8399 16.991V16.2725H41.2228C43.6418 16.2725 48.408 16.2007 51.8089 16.1049L57.9881 15.9612L57.8444 17.1347C57.6528 18.7634 56.8385 20.871 55.9044 22.0925C55.2578 22.9307 54.9943 23.0984 54.2519 23.1223C53.0543 23.1702 52.24 23.769 51.9047 24.8947C51.3299 26.8107 52.5035 28.7267 54.2519 28.7267C54.7069 28.7267 55.2817 28.607 55.5691 28.4633C56.096 28.1759 56.7188 26.8826 56.7188 26.0682C56.7188 25.7808 57.102 25.1102 57.581 24.6073C58.8024 23.2421 60.0479 20.4638 60.5029 18.0928L60.8861 16.057L62.5627 15.9372C63.4967 15.8654 68.2389 15.7456 73.1008 15.6738L81.9385 15.5301L81.8188 17.1826C81.699 18.9071 80.9087 20.9907 79.8549 22.3799C79.3519 23.0026 79.1603 23.1223 78.4418 23.0265C77.7951 22.9547 77.4598 23.0744 76.8611 23.6253C74.969 25.3018 76.1425 28.7267 78.6094 28.7267C79.5435 28.7267 80.6692 27.5771 80.8368 26.4514C80.9326 25.8766 81.2919 25.1342 81.7469 24.6073C83.3995 22.6673 84.7407 19.0508 84.7407 16.6078V15.578L86.4891 15.4822C88.6447 15.3864 89.459 15.4822 90.3451 15.9851ZM92.6444 35.361C92.6444 36.8699 93.1234 53.8747 93.4108 63.6225L93.4827 65.5625L91.8061 65.8259C85.8425 66.7121 80.5734 70.3526 77.9867 75.3342L77.2203 76.8192L75.3043 76.9629C60.6227 78.1125 52.8148 78.3999 40.3127 78.2322C31.3074 78.1125 24.0743 77.7772 18.0388 77.1545L16.3623 76.9868L15.8354 55.9105C15.548 44.3185 15.3564 34.8101 15.3803 34.7622C15.548 34.6185 37.4147 34.2353 59.5928 33.9958C72.9571 33.8521 84.7647 33.7084 85.8185 33.6845C86.8723 33.6366 88.8363 33.5887 90.2014 33.5647L92.6444 33.5168V35.361ZM13.0092 52.4137C13.2008 60.3652 13.3206 66.9277 13.2487 66.9995C13.0811 67.1911 8.291 67.5743 8.1473 67.4067C7.93174 67.1911 10.8537 44.8214 12.4584 34.4269C12.5302 33.9479 12.626 36.798 13.0092 52.4137ZM97.3387 69.8017C101.027 70.9513 104.117 73.6817 105.817 77.2263C106.895 79.4777 107.254 81.0344 107.254 83.4055C107.254 88.004 104.667 92.6983 100.716 95.3089C97.171 97.6321 92.5246 98.2069 88.5728 96.8417C86.0101 95.9556 84.1659 94.7341 82.4415 92.842C80.1183 90.2554 78.7531 86.7586 78.7531 83.3337C78.7531 77.4898 82.6092 71.9572 88.0459 69.9933C91.2553 68.8197 94.1054 68.7718 97.3387 69.8017ZM13.4882 72.1009C13.5601 73.2985 13.608 74.3044 13.5601 74.3523C13.5122 74.4002 12.4584 73.514 11.2129 72.3644L8.96161 70.2807L10.1591 70.137C10.8058 70.0652 11.7878 69.9694 12.3147 69.9694L13.2966 69.9215L13.4882 72.1009Z" fill="#F36B14"/>
<path d="M72.3342 43.3365C70.2505 43.6478 70.2984 43.576 70.49 48.1266C70.6577 52.246 70.8972 53.7549 71.4001 53.9226C71.5438 53.9944 74.0347 53.9705 76.9087 53.8986C81.7228 53.7549 82.1778 53.707 82.4892 53.2998C82.7526 52.9406 82.8245 51.8628 82.8245 48.5098C82.8245 46.1147 82.7287 44.031 82.6089 43.8394C82.4892 43.6718 81.9383 43.4323 81.3635 43.3125C80.0702 43.073 74.0826 43.097 72.3342 43.3365ZM79.8067 45.995C79.8786 46.0668 79.9744 47.2404 79.9983 48.6295L80.0702 51.1204L76.8129 51.1922L73.5557 51.2641L73.388 50.4976C73.3162 50.0905 73.2443 48.893 73.2443 47.8631V45.995L74.1544 45.8992C75.328 45.7555 79.663 45.8273 79.8067 45.995Z" fill="#F36B14"/>
<path d="M49.5334 43.9352C49.3418 43.9831 48.767 44.0789 48.2641 44.1747C46.7552 44.4142 46.6833 44.7256 46.9947 49.7312C47.1863 52.5813 47.3779 54.2099 47.5695 54.4015C47.809 54.641 49.0784 54.6889 52.8146 54.6171C57.6287 54.5452 58.7783 54.4015 59.1615 53.8028C59.2573 53.6351 59.3531 51.5754 59.3531 49.1803C59.3531 43.552 59.7603 43.9831 54.1319 43.9113C51.8087 43.8633 49.725 43.8873 49.5334 43.9352Z" fill="#F36B14"/>
<path d="M27.9779 44.7974C25.1997 45.1807 25.2476 45.037 25.5589 50.2581C25.7026 52.6532 25.9421 54.8327 26.0858 55.1201C26.3493 55.5991 26.4691 55.5991 31.5465 55.5033C34.3966 55.4314 36.9114 55.2877 37.127 55.1919C37.8695 54.8806 38.0611 53.4196 37.8695 49.2762L37.6779 45.3723L37.0072 45.0609C36.169 44.6537 30.373 44.4861 27.9779 44.7974ZM35.1631 50.0426V52.6771H31.8339H28.5288L28.3851 51.0485C28.1456 48.6535 28.1935 47.6954 28.5288 47.5757C28.6725 47.5038 30.2532 47.432 32.0016 47.432L35.1631 47.408V50.0426Z" fill="#F36B14"/>
<path d="M61.1496 60.8203C59.7366 61.0838 59.042 61.7783 59.2096 62.7124C59.2815 63.0477 59.3773 64.7961 59.4731 66.5684C59.6407 70.4244 59.7366 71.0711 60.2635 71.3106C60.479 71.4303 62.9459 71.4543 65.7242 71.3824C70.2508 71.2627 70.8495 71.1908 71.3046 70.7837C71.7836 70.3526 71.8076 70.0891 71.8076 65.9696C71.8076 60.3173 72.2147 60.7245 66.5864 60.6526C64.2392 60.6287 61.8202 60.7005 61.1496 60.8203ZM68.1431 63.359L68.8617 63.5027L69.0054 65.9217C69.1251 67.6941 69.0772 68.3886 68.8617 68.5323C68.694 68.6281 67.1372 68.7239 65.4128 68.7239H62.2274V66.8319C62.2274 65.802 62.1555 64.6284 62.0837 64.2213C61.94 63.5027 61.9639 63.4788 62.8501 63.383C64.4548 63.2393 67.4007 63.2153 68.1431 63.359Z" fill="#F36B14"/>
<path d="M38.0612 61.5149C36.5044 61.7783 36.3128 62.1855 36.4805 64.8919C36.8158 70.5442 36.9116 71.3585 37.199 71.7417C37.4624 72.1249 37.9414 72.1728 41.8933 72.1249C46.9947 72.0531 48.1922 71.9333 48.6233 71.4064C48.8628 71.143 48.9347 69.8736 48.9347 66.7121C48.9347 63.0477 48.8628 62.3292 48.5275 61.9221C48.1683 61.443 47.8569 61.4191 43.6177 61.3712C41.1508 61.3472 38.636 61.4191 38.0612 61.5149ZM45.7972 64.0776C46.1085 64.1973 46.1804 64.6524 46.1804 66.6882V69.1551L42.8992 69.2509C41.0789 69.3227 39.5701 69.3467 39.5701 69.3467C39.5461 69.3227 39.4503 68.1731 39.3545 66.76L39.1869 64.2213L39.8814 64.1015C40.9831 63.9339 45.39 63.9099 45.7972 64.0776Z" fill="#F36B14"/>
<path d="M98.7036 79.8848C95.1829 82.5433 92.3567 84.8665 91.3508 85.9443C90.9437 86.3514 90.5605 86.6867 90.4647 86.6867C90.3928 86.6867 89.4108 85.4892 88.3091 84.0522C87.0158 82.3277 86.1057 81.3458 85.7225 81.25C84.7165 81.0105 83.8304 81.8727 84.0938 82.8786C84.1896 83.19 85.4111 84.9623 86.8242 86.8065C88.9079 89.4889 89.5545 90.1835 90.0814 90.2314C90.6084 90.3032 91.1592 89.92 93.0752 88.1956C95.8535 85.6808 98.1527 83.7887 101.338 81.4416C103.35 79.9567 103.661 79.6213 103.661 79.0226C103.661 78.1843 103.11 77.5856 102.32 77.5856C101.961 77.5856 100.596 78.4478 98.7036 79.8848Z" fill="#F36B14"/>
<path d="M1.24943 10.6442C0.578823 11.674 0.962029 12.3446 2.80621 13.2787C3.71633 13.7338 5.34496 14.6918 6.42273 15.4342C8.48246 16.8234 9.22493 17.015 9.84764 16.3204C10.3985 15.6977 10.3506 14.9552 9.72788 14.3565C8.21901 12.9195 3.11757 10.0454 2.1356 10.0454C1.87215 10.0454 1.46499 10.3089 1.24943 10.6442Z" fill="#F36B14"/>
</svg>
