<svg width="113" height="107" viewBox="0 0 113 107" fill="none" xmlns="http://www.w3.org/2000/svg">
<path fill-rule="evenodd" clip-rule="evenodd" d="M85.0274 65.7589C85.9602 69.4203 85.3736 73.1242 85.1292 75.4361C84.6608 79.978 83.6075 83.4508 82.2632 84.5351C82.0557 84.6997 81.7075 84.982 81.3194 85.2967C80.9837 85.5689 80.6181 85.8653 80.2876 86.131C77.8842 88.0746 75.4197 91.7163 74.442 94.8261L74.0958 95.89L75.0123 96.7902C76.0715 97.8541 76.4992 99.2453 76.2751 100.8C75.9493 103.051 74.7272 104.626 72.4053 105.772C71.2036 106.365 70.7555 106.467 69.1465 106.529C67.8429 106.59 66.9468 106.529 66.2135 106.304C65.2359 106.017 65.0118 106.017 63.2806 106.406C60.5921 106.979 54.5021 107.143 52.1599 106.692C48.7992 106.058 46.7217 104.626 46.1107 102.519C45.52 100.514 46.1107 98.6111 47.8216 96.9948L48.7381 96.1151L48.3919 94.642C48.0456 93.2508 47.9641 93.1075 46.8236 92.146C42.4853 88.5247 38.9413 82.2642 37.76 76.1878C36.6978 70.9091 37.3094 65.9127 39.2875 61.0275C39.6745 60.1682 40.3467 58.8997 40.7947 58.2041C41.7316 56.7515 44.7461 53.5803 45.1738 53.5803C45.4182 53.5803 45.4589 53.3348 45.3367 52.1891C44.8479 46.972 44.7664 45.0488 44.8683 40.1795C44.9905 34.4714 45.5608 28.6201 46.1311 26.881C47.2309 23.628 48.8807 22.0731 51.223 22.0731C52.6691 22.0731 53.8504 22.6255 55.1539 23.9145C56.763 25.5512 57.4962 27.2493 58.7386 32.2004C60.0625 37.4585 60.5921 42.4914 60.4495 48.5883L60.3477 52.9461L60.979 52.6187C61.3253 52.4346 62.3029 52.2505 63.138 52.1891C65.1544 52.0868 66.6616 52.6188 68.0466 53.9691C69.0039 54.9102 69.0446 54.9102 69.5946 54.6238C69.9612 54.4396 70.7351 54.3169 71.6924 54.3169C73.5662 54.2964 74.7476 54.7874 76.0307 56.0968C76.6825 56.772 77.1102 57.0379 77.7416 57.1402C79.0655 57.3857 80.8986 58.3473 81.9373 59.3908C82.4669 59.9227 82.8946 60.4342 82.8946 60.5365C82.8946 60.5529 82.9019 60.5661 82.9156 60.5763C83.2541 61.2236 84.4876 63.6403 85.0274 65.7589ZM55.3983 32.446C54.5225 28.0472 53.8096 26.2673 52.6691 25.5717C50.062 23.9349 48.9011 26.7992 48.453 36.0877C48.1882 41.7958 48.29 44.6192 49.0844 51.248C49.7361 56.6697 49.7972 57.8972 49.5121 58.4496C49.3899 58.6747 49.4713 59.3294 49.7361 60.3319C49.9398 61.1707 50.1842 62.9302 50.2453 64.2396L50.3675 66.6333L49.8176 66.9811C49.3899 67.2676 49.1251 67.3085 48.7177 67.1653C47.9845 66.8993 47.5568 65.4467 46.9254 61.0684C46.6606 59.1657 46.3144 57.1402 46.1718 56.5674L45.8866 55.524L44.375 56.5674C42.3179 59.7386 40.5146 64.035 39.9239 67.1653C39.5166 69.2521 39.8752 73.4515 40.2418 75.4361C41.1177 80.0189 43.8091 83.3485 48.1882 87.9314C50.836 90.7343 51.1211 91.123 51.1211 91.9414C51.1211 92.2892 51.2637 92.7802 51.447 93.0462C51.6507 93.3121 51.9562 94.0487 52.1395 94.6829C52.4858 95.7877 52.5265 95.8491 53.5245 96.1764C55.6224 96.8925 57.9443 97.0562 62.4863 96.7902C64.8082 96.647 67.4356 96.5447 68.3521 96.5447H70.0019L70.2463 95.1739C71.0407 90.7957 74.0754 86.2742 77.8434 83.7781L79.3506 82.7961L80.3079 78.8679C81.4689 74.1418 81.6929 72.1164 81.4485 68.7202C81.1837 64.6692 80.2875 62.0505 78.597 60.3728L77.7212 59.4726L77.4972 60.1273C77.2528 60.8434 76.3362 61.764 75.8678 61.764C75.2568 61.764 74.3809 60.7411 74.1365 59.759C73.6681 57.7745 72.6293 56.8538 70.8981 56.8538H70.063V57.9791C70.063 60.025 69.0039 61.2935 67.7411 60.7206C67.293 60.516 67.1097 60.1477 66.6616 58.7361C65.6432 55.4217 64.0138 54.5215 61.2642 55.7695C60.144 56.2605 60.0014 56.4037 59.5533 57.4471C58.6368 59.534 57.7202 60.025 56.6815 58.9816C56.1723 58.4701 56.1723 58.4087 56.2741 56.3832C56.3352 55.2375 56.4982 53.6008 56.6204 52.762C56.763 51.9231 56.8648 49.1611 56.8852 46.6242C56.9055 41.3457 56.6 38.4814 55.3983 32.446ZM64.5638 99.9C58.0665 100.268 55.9686 100.186 53.6263 99.4294C52.9746 99.2249 52.3024 98.9998 52.1191 98.918C51.9562 98.8361 51.7525 98.8361 51.6711 98.918C51.5896 98.9998 51.1822 99.1226 50.7749 99.1839C50.2046 99.2862 49.8991 99.4908 49.5528 100.002C48.4326 101.68 49.3899 102.826 52.4043 103.399C55.215 103.93 56.987 103.951 62.4252 103.521C68.1892 103.051 70.1241 102.723 71.224 102.048C72.0183 101.537 72.7108 100.555 72.7108 99.8796C72.7108 98.7543 72.1201 98.4883 71.1221 99.1839C70.6537 99.5113 69.7779 99.6136 64.5638 99.9Z" fill="#F36B14"/>
<path d="M107.216 6.85322C106.632 7.51804 106.194 8.40883 106.246 8.81276C106.279 9.02933 106.382 9.15792 106.604 9.28182C106.869 9.42183 107.002 9.42251 107.379 9.261C107.721 9.10285 107.961 8.87352 108.473 8.18184C109.247 7.147 109.296 7.03418 109.154 6.50703C109.057 6.16824 108.999 6.08934 108.737 6.04032C108.28 5.9594 107.747 6.23406 107.216 6.85322Z" fill="#F36B14"/>
<path d="M109.037 9.8307C108.369 10.3286 108.153 10.6937 108.303 11.0434C108.442 11.3674 108.919 11.5061 109.155 11.2937C109.23 11.2314 109.661 10.9458 110.109 10.6732C110.728 10.2974 110.943 10.1144 111.018 9.92069C111.141 9.5753 111.018 9.36584 110.635 9.23709C110.262 9.10424 109.764 9.28713 109.037 9.8307Z" fill="#F36B14"/>
<path d="M109.343 13.2003C109.259 13.6233 109.569 13.8891 110.125 13.8721C110.775 13.8592 111.983 13.5632 112.196 13.3614C112.433 13.1379 112.472 12.745 112.288 12.503C112.052 12.1945 110.827 12.2879 109.913 12.6792C109.476 12.8666 109.395 12.9456 109.343 13.2003Z" fill="#F36B14"/>
<path fill-rule="evenodd" clip-rule="evenodd" d="M65.5715 35.0979C65.3638 35.1152 65.1158 35.1291 64.8339 35.1403C64.9906 35.1551 65.1897 35.1355 65.4508 35.1097C65.4897 35.1059 65.5299 35.102 65.5715 35.0979Z" fill="#F36B14"/>
<path fill-rule="evenodd" clip-rule="evenodd" d="M35.0402 3.62135C35.7888 2.35772 36.6664 1.60986 37.9313 1.14568C38.4476 0.965157 43.6103 0.861996 53.0065 0.861996C67.0234 0.836208 67.359 0.836208 68.4432 1.37776C69.7597 2.02247 70.9213 3.33768 71.3343 4.67867C71.7215 5.99387 71.7473 32.7621 71.3343 34.1805C70.7664 36.2435 68.5722 37.8682 66.1199 38.0229C63.5933 38.2171 61.0278 38.1871 58.4637 38.1174L57.732 35.1506L57.962 35.1528C60.5981 35.1778 63.2517 35.203 64.8339 35.1403C64.9906 35.1551 65.1897 35.1355 65.4508 35.1097C65.4897 35.1059 65.5299 35.102 65.5715 35.0979C65.6283 35.0932 65.6821 35.0883 65.7327 35.0831C66.8169 34.9799 67.2041 34.7994 67.7978 34.1289L68.5206 33.3295V19.4296C68.5206 5.83914 68.5206 5.52968 68.0043 4.88498C67.6946 4.49815 67.0234 4.08553 66.5071 3.93081C65.2939 3.59556 40.332 3.62134 39.1446 3.95659C38.6283 4.11132 38.112 4.52394 37.8022 5.0397C37.3118 5.83914 37.286 6.40648 37.286 19.3522C37.286 31.7275 37.2679 33.6125 38.1821 34.3651C38.3614 34.5127 38.5766 34.6167 38.8348 34.7478C39.4543 35.0573 40.7708 35.1346 46.011 35.1346L45.6496 37.9713C39.8415 37.9713 38.396 37.894 37.5957 37.5845C36.3825 37.0688 35.5823 36.2951 34.8853 35.0057C34.3174 33.9742 34.3174 33.8194 34.3174 19.4038V4.83339L35.0402 3.62135Z" fill="#F36B14"/>
<path d="M62.0193 10.6224C61.7272 10.7772 59.2581 13.073 56.5235 15.7042L51.5587 20.5022L48.7975 17.871C45.8771 15.1109 45.1602 14.7497 44.2841 15.7042C43.3283 16.7102 43.6734 17.2777 47.3373 20.8375C49.9923 23.4171 51.0277 24.2683 51.5322 24.2683C52.0632 24.2683 53.5499 22.9527 58.2492 18.3869C64.6743 12.1444 65.0194 11.6543 63.6919 10.7514C63.0016 10.2613 62.7361 10.2613 62.0193 10.6224Z" fill="#F36B14"/>
<path d="M82.4716 11.6702C81.9509 11.9565 81.2741 12.6594 80.9617 13.18C80.4411 14.1432 80.415 14.4556 80.415 24.6341V35.1249L81.0658 36.2182C82.2112 38.1967 82.0811 38.1706 94.1338 38.1706C104.26 38.1706 104.781 38.1446 105.614 37.65C106.082 37.3636 106.681 36.7649 106.968 36.2963C107.462 35.4633 107.488 34.9427 107.488 24.6341V13.8308L106.863 12.8937C105.64 11.0975 105.64 11.0975 93.8996 11.0975C83.6951 11.0975 83.3827 11.1235 82.4716 11.6702ZM104.104 14.4816C104.599 14.9762 104.625 15.3407 104.625 24.6341C104.625 33.9274 104.599 34.2919 104.104 34.7865C103.609 35.2811 103.245 35.3071 94.0037 35.3071C86.1421 35.3071 84.3198 35.229 83.9033 34.9427C83.4347 34.5782 83.4087 34.1357 83.3306 25.363C83.2785 20.3128 83.3306 15.7832 83.4087 15.3146C83.5128 14.768 83.7732 14.3775 84.1376 14.2213C84.45 14.0911 88.9535 13.987 94.1599 13.987C103.245 13.961 103.609 13.987 104.104 14.4816Z" fill="#F36B14"/>
<path d="M91.3384 20.1838C89.7504 20.9138 88.4143 22.978 88.4648 24.6646C88.5404 28.2141 92.1451 30.4041 95.4221 28.9189C98.573 27.484 98.8755 22.5753 95.9514 20.6369C94.7415 19.8566 92.5232 19.63 91.3384 20.1838ZM94.4894 23.3556C94.7667 23.6326 94.9936 24.1864 94.9936 24.6143C94.9936 25.0422 94.7667 25.5961 94.4894 25.873C93.4307 26.9302 91.4645 26.175 91.4645 24.6898C91.4645 23.1543 93.4307 22.2984 94.4894 23.3556Z" fill="#F36B14"/>
<path d="M3.24943 25.2665C2.88672 25.4215 2.31676 25.7831 2.00587 26.093C0.658691 27.3328 0.658691 27.307 0.658691 38.4133C0.658691 50.1137 0.658691 50.0362 2.54993 51.276L3.61213 51.9733L13.5087 52.0508C23.8458 52.1283 24.8561 52.0508 26.1515 51.0435C27.7319 49.8037 27.7319 49.8812 27.7319 38.4133C27.7319 28.0818 27.7319 27.9527 27.1619 27.0487C26.851 26.5321 26.1256 25.8606 25.5816 25.5506C24.5712 24.9824 24.4157 24.9824 14.2341 25.0082C8.01638 25.0082 3.63804 25.1115 3.24943 25.2665ZM24.4934 28.5726C24.6489 28.9084 24.7525 32.5244 24.7525 38.5683C24.7525 47.0401 24.7007 48.099 24.3121 48.5381C23.9235 48.9772 23.2758 49.003 14.26 49.003C6.35831 49.003 4.54479 48.9256 4.13028 48.6414C3.66394 48.2798 3.63804 47.8666 3.63804 38.5941C3.63804 30.7938 3.71576 28.8567 4.00074 28.5209C4.31163 28.1335 5.34792 28.0818 14.286 28.0818C23.8458 28.0818 24.2344 28.1077 24.4934 28.5726Z" fill="#F36B14"/>
<path d="M12.2619 34.2177C7.62197 36.3042 9.03413 43.2926 14.0776 43.2926C16.2462 43.2926 17.7845 42.3122 18.5662 40.452C20.2305 36.4299 16.1958 32.4329 12.2619 34.2177ZM15.4141 37.2594C16.8514 38.6923 15.1871 41.0804 13.4219 40.1503C12.2367 39.547 12.035 38.2901 12.9428 37.3348C13.6236 36.6058 14.7332 36.5807 15.4141 37.2594Z" fill="#F36B14"/>
</svg>
