<svg width="32" height="24" viewBox="0 0 32 24" fill="none" xmlns="http://www.w3.org/2000/svg">
<path d="M8.86621 7.06665H11.7329V21.9333H8.86621V7.06665Z" fill="#DEBB7E"/>
<path d="M8.86621 17.4C9.13288 17.5333 9.39954 17.6 9.73288 17.6C10.5329 17.6 11.2662 17.0666 11.5995 16.4C11.6662 16.4 11.7329 16.4 11.7329 16.4667V7.06665H8.86621V17.4Z" fill="#B89558"/>
<path d="M8.86621 7.06665H11.7329V21.9333H8.86621V7.06665Z" stroke="#45413C" stroke-miterlimit="10" stroke-linecap="round" stroke-linejoin="round"/>
<path d="M10.2665 0.533325C6.59987 0.533325 3.59987 3.39999 3.3332 6.99999C1.66654 7.66666 0.533203 9.26666 0.533203 11.1333C0.533203 13.6 2.5332 15.5333 4.9332 15.5333C6.19987 15.5333 7.3332 15 8.1332 14.1333C8.79987 14.3333 9.5332 14.4667 10.2665 14.4667C14.1332 14.4667 17.1999 11.3333 17.1999 7.53332C17.1999 3.73332 14.1332 0.533325 10.2665 0.533325Z" fill="#6DD627"/>
<path d="M3.3332 8.86664C3.59987 5.26664 6.59987 2.39998 10.2665 2.39998C13.7999 2.39998 16.7332 4.99998 17.1332 8.46664C17.1999 8.13331 17.1999 7.86664 17.1999 7.53331C17.1999 3.66664 14.0665 0.599976 10.2665 0.599976C6.59987 0.599976 3.59987 3.46664 3.3332 7.06664C1.66654 7.73331 0.533203 9.33331 0.533203 11.2C0.533203 11.5333 0.59987 11.8666 0.666536 12.1333C0.933203 10.6 1.9332 9.39997 3.3332 8.86664Z" fill="#9CEB60"/>
<path d="M10.2665 0.533325C6.59987 0.533325 3.59987 3.39999 3.3332 6.99999C1.66654 7.66666 0.533203 9.26666 0.533203 11.1333C0.533203 13.6 2.5332 15.5333 4.9332 15.5333C6.19987 15.5333 7.3332 15 8.1332 14.1333C8.79987 14.3333 9.5332 14.4667 10.2665 14.4667C14.1332 14.4667 17.1999 11.3333 17.1999 7.53332C17.1999 3.73332 14.1332 0.533325 10.2665 0.533325Z" stroke="#45413C" stroke-miterlimit="10" stroke-linecap="round" stroke-linejoin="round"/>
<path d="M10.2665 10.6L17.9998 6.06669C18.3332 5.86669 18.7998 5.86669 19.1332 6.06669L26.9332 10.6C27.3998 10.8667 27.5332 11.4 27.3332 11.8667C27.0665 12.4 26.4665 12.6 25.9332 12.2667L18.5998 8.00002L11.2665 12.2667C10.7332 12.5334 10.1332 12.3334 9.86651 11.8667C9.59984 11.4 9.79984 10.8667 10.2665 10.6Z" fill="#FF6242"/>
<path d="M9.93329 12C9.99996 11.8667 10.1333 11.8 10.2666 11.7334L18 7.20002C18.3333 7.00002 18.8 7.00002 19.1333 7.20002L26.9333 11.7334C27.0666 11.8 27.2 11.9334 27.2666 12C27.2666 11.9334 27.3333 11.9334 27.3333 11.8667C27.5333 11.4 27.4 10.8667 26.9333 10.6L19.1333 6.06669C18.8 5.86669 18.3333 5.86669 18 6.06669L10.2 10.6C9.73329 10.8667 9.59996 11.4 9.79996 11.8667C9.86663 11.9334 9.86663 12 9.93329 12Z" fill="#FF866E"/>
<path d="M10.2665 10.6L17.9998 6.06669C18.3332 5.86669 18.7998 5.86669 19.1332 6.06669L26.9332 10.6C27.3998 10.8667 27.5332 11.4 27.3332 11.8667C27.0665 12.4 26.4665 12.6 25.9332 12.2667L18.5998 8.00002L11.2665 12.2667C10.7332 12.5334 10.1332 12.3334 9.86651 11.8667C9.59984 11.4 9.79984 10.8667 10.2665 10.6Z" stroke="#45413C" stroke-miterlimit="10" stroke-linecap="round" stroke-linejoin="round"/>
<path opacity="0.15" d="M17.4668 23.4667C25.1988 23.4667 31.4668 23.019 31.4668 22.4667C31.4668 21.9144 25.1988 21.4667 17.4668 21.4667C9.73481 21.4667 3.4668 21.9144 3.4668 22.4667C3.4668 23.019 9.73481 23.4667 17.4668 23.4667Z" fill="#45413C"/>
<path d="M25.4667 21.9333H11.7334V12L18.6001 8L25.4667 12V21.9333Z" fill="#FFFACF"/>
<path d="M18.6001 8L11.7334 12V13.6L18.6001 9.6L25.4667 13.6V12L18.6001 8Z" fill="#FFF48C"/>
<path d="M25.4667 21.9333H11.7334V12L18.6001 8L25.4667 12V21.9333Z" stroke="#45413C" stroke-miterlimit="10" stroke-linecap="round" stroke-linejoin="round"/>
<path d="M19.4662 21.9333H12.8662V21.0667C12.8662 20.7333 13.1329 20.4667 13.4662 20.4667H18.9329C19.2662 20.4667 19.5329 20.7333 19.5329 21.0667V21.9333H19.4662Z" fill="#E0E0E0" stroke="#45413C" stroke-miterlimit="10" stroke-linecap="round" stroke-linejoin="round"/>
<path d="M18.0667 13.6H14.3334C14.0001 13.6 13.7334 13.8666 13.7334 14.2V20.4666H18.6001V14.2C18.6001 13.8666 18.3334 13.6 18.0667 13.6Z" fill="#BF8256"/>
<path d="M18.0667 13.6H14.3334C14.0001 13.6 13.7334 13.8666 13.7334 14.2V15.3333C13.7334 15 14.0001 14.7333 14.3334 14.7333H18.0667C18.4001 14.7333 18.6667 15 18.6667 15.3333V14.2C18.6001 13.8666 18.3334 13.6 18.0667 13.6Z" fill="#915E3A"/>
<path d="M18.0667 13.6H14.3334C14.0001 13.6 13.7334 13.8666 13.7334 14.2V20.4666H18.6001V14.2C18.6001 13.8666 18.3334 13.6 18.0667 13.6Z" stroke="#45413C" stroke-miterlimit="10" stroke-linecap="round" stroke-linejoin="round"/>
<path d="M23.1997 17.0666H20.933C20.5997 17.0666 20.333 16.8 20.333 16.4666V14.2C20.333 13.8666 20.5997 13.6 20.933 13.6H23.1997C23.533 13.6 23.7997 13.8666 23.7997 14.2V16.4666C23.733 16.8 23.533 17.0666 23.1997 17.0666Z" fill="#00B8F0"/>
<path d="M23.1997 13.6H20.933C20.5997 13.6 20.333 13.8666 20.333 14.2V16.4666C20.333 16.8 20.5997 17.0666 20.933 17.0666H21.333L23.333 13.6666C23.2663 13.6666 23.1997 13.6 23.1997 13.6Z" fill="#4ACFFF"/>
<path d="M16.8662 17.3333H15.4662C15.1329 17.3333 14.8662 17.0667 14.8662 16.7333V15.3333C14.8662 15 15.1329 14.7333 15.4662 14.7333H16.8662C17.1995 14.7333 17.4662 15 17.4662 15.3333V16.7333C17.4662 17.0667 17.1995 17.3333 16.8662 17.3333Z" fill="#00B8F0"/>
<path d="M16.8662 14.7333H15.4662C15.1329 14.7333 14.8662 15 14.8662 15.3333V16.7333C14.8662 17.0667 15.1329 17.3333 15.4662 17.3333H15.5995L17.0662 14.8C16.9995 14.8 16.9329 14.7333 16.8662 14.7333Z" fill="#4ACFFF"/>
<path d="M23.1997 17.0666H20.933C20.5997 17.0666 20.333 16.8 20.333 16.4666V14.2C20.333 13.8666 20.5997 13.6 20.933 13.6H23.1997C23.533 13.6 23.7997 13.8666 23.7997 14.2V16.4666C23.733 16.8 23.533 17.0666 23.1997 17.0666Z" stroke="#45413C" stroke-miterlimit="10" stroke-linecap="round" stroke-linejoin="round"/>
<path d="M16.8662 17.3333H15.4662C15.1329 17.3333 14.8662 17.0667 14.8662 16.7333V15.3333C14.8662 15 15.1329 14.7333 15.4662 14.7333H16.8662C17.1995 14.7333 17.4662 15 17.4662 15.3333V16.7333C17.4662 17.0667 17.1995 17.3333 16.8662 17.3333Z" stroke="#45413C" stroke-miterlimit="10" stroke-linecap="round" stroke-linejoin="round"/>
<path d="M30.3335 21.9334C30.6668 21.6667 30.9335 21.2667 30.9335 20.8C30.9335 20 30.2668 19.4 29.5335 19.4C29.2001 19.4 28.8668 19.5334 28.6001 19.7334C28.3335 18.5334 27.3335 17.6667 26.0668 17.6667C24.6668 17.6667 23.4668 18.8 23.4668 20.2667C23.4668 20.9334 23.7335 21.5334 24.1335 22H30.3335V21.9334Z" fill="#6DD627"/>
<path d="M26.0665 18.8C27.3332 18.8 28.3332 19.6667 28.5999 20.8667C28.8665 20.6667 29.1332 20.5334 29.5332 20.5334C30.1332 20.5334 30.5999 20.8667 30.8665 21.4C30.9332 21.2 30.9999 21.0667 30.9999 20.8C30.9999 20 30.3332 19.4 29.5999 19.4C29.2665 19.4 28.9332 19.5334 28.6665 19.7334C28.3999 18.5334 27.3999 17.6667 26.1332 17.6667C24.7332 17.6667 23.5332 18.8 23.5332 20.2667C23.5332 20.4667 23.5332 20.6667 23.5999 20.8667C23.7999 19.6667 24.7999 18.8 26.0665 18.8Z" fill="#9CEB60"/>
<path d="M30.3335 21.9334C30.6668 21.6667 30.9335 21.2667 30.9335 20.8C30.9335 20 30.2668 19.4 29.5335 19.4C29.2001 19.4 28.8668 19.5334 28.6001 19.7334C28.3335 18.5334 27.3335 17.6667 26.0668 17.6667C24.6668 17.6667 23.4668 18.8 23.4668 20.2667C23.4668 20.9334 23.7335 21.5334 24.1335 22H30.3335V21.9334Z" stroke="#45413C" stroke-miterlimit="10" stroke-linecap="round" stroke-linejoin="round"/>
</svg>
