<svg width="72" height="72" viewBox="0 0 72 72" fill="none" xmlns="http://www.w3.org/2000/svg">
<path d="M33.1594 5.86403C25.3828 11.1234 18.5344 13.725 10.9688 14.2875C9.39376 14.4 8.74689 14.6672 8.28283 15.4265L7.94533 15.9609L7.90314 23.3437C7.86095 31.275 7.98751 34.8609 8.43751 37.5187C10.5047 49.6828 18.1406 59.9906 29.1094 65.4468C32.4 67.0781 33.3844 67.3875 35.5781 67.4718C36.8719 67.514 37.5891 67.4718 38.3063 67.3031C39.6422 66.9937 43.65 65.3765 45.4219 64.4484C50.5547 61.7484 54.8719 57.839 58.1484 52.9453C59.4703 50.9625 61.2703 47.264 62.0578 44.9297C63.9 39.4172 64.1672 36.675 64.0969 24.0468L64.0547 15.9609L63.7172 15.4265C63.2531 14.6672 62.6063 14.4 61.0313 14.2875C58.8375 14.1187 56.8125 13.7953 54.7453 13.289C49.2469 11.925 44.5641 9.74529 38.8406 5.86403C36.8578 4.5281 36.8016 4.49997 36 4.49997C35.1985 4.49997 35.1422 4.5281 33.1594 5.86403ZM37.3781 10.5187C44.1844 15.089 51.0047 17.7047 58.8375 18.7734L59.5125 18.8718L59.4422 27.2531C59.3859 34.8187 59.3578 35.8312 59.0906 37.4765C58.2047 43.0875 56.1656 47.9531 52.8891 52.2422C51.9328 53.4937 49.3172 56.1515 47.9531 57.2343C45.4922 59.189 42.9469 60.6093 39.375 62.0156C37.7297 62.6625 37.3078 62.775 36.2813 62.8312C34.8047 62.9015 34.0735 62.6765 31.275 61.3125C26.0297 58.739 21.5156 54.7593 18.2531 49.8515C16.0875 46.6031 14.1469 42.0609 13.3594 38.4609C12.6844 35.325 12.6281 34.4812 12.5578 26.4797L12.4875 18.8718L13.1625 18.7734C19.0266 18 24.0891 16.3828 29.3203 13.6547C31.2188 12.6562 34.6219 10.6312 35.3672 10.0406C35.5922 9.85778 35.8734 9.70309 35.9719 9.70309C36.0703 9.70309 36.7031 10.0687 37.3781 10.5187Z" fill="#141414"/>
<path d="M45.914 27.6468C45.689 27.7593 42.6797 30.6703 39.2343 34.1015L32.9765 40.3593L29.7422 37.125C27.9703 35.339 26.3109 33.7921 26.0718 33.6796C24.975 33.1593 23.6109 33.5531 23.0203 34.5656C22.7109 35.1 22.6547 36.1968 22.9218 36.7171C23.1609 37.1812 31.4718 45.5343 31.95 45.7875C32.4422 46.0406 33.5109 46.0406 34.0031 45.7875C34.214 45.675 37.6875 42.2718 41.7234 38.2218C48.4172 31.5281 49.0781 30.8109 49.2047 30.2625C49.3453 29.5734 49.2047 28.7859 48.839 28.2937C48.2343 27.4921 46.8281 27.1687 45.914 27.6468Z" fill="#141414"/>
</svg>
