<svg width="72" height="72" viewBox="0 0 72 72" fill="none" xmlns="http://www.w3.org/2000/svg">
<g clip-path="url(#clip0_12_2091)">
<path d="M28.3641 0.295273C27.2954 1.09683 27.3094 2.58746 28.3922 3.3609C28.786 3.64215 28.9829 3.65621 32.3297 3.65621H35.8594V7.01714V10.364L34.636 10.4625C29.5032 10.8562 23.3297 13.2609 19.1391 16.4953C17.8735 17.4656 15.9047 19.2375 15.6516 19.6453C15.5251 19.8281 15.4407 20.2781 15.4407 20.6578C15.4407 21.8953 16.2563 22.6125 17.5079 22.4578C18.0563 22.4015 18.3094 22.2468 19.2376 21.4171C23.5829 17.4937 28.5469 15.1312 34.1016 14.3296C35.9297 14.0625 39.9516 14.1046 41.7657 14.4C47.7704 15.3843 52.8047 17.9578 56.9813 22.1765C61.0875 26.3109 63.6891 31.5703 64.561 37.4765C64.8141 39.1078 64.8141 43.2984 64.575 44.9296C63.3516 53.1562 58.5985 60.2578 51.4688 64.5046C45.4922 68.0625 37.9829 69.1453 31.2329 67.4296C26.6766 66.2765 22.5282 64.0406 19.336 61.0171C18.1969 59.9484 17.9719 59.85 16.8469 59.8921C16.3126 59.9062 15.6376 60.539 15.4688 61.1859C15.2297 62.0859 15.4829 62.7046 16.4391 63.6046C21.3751 68.1609 27.0422 70.875 33.5813 71.775C35.4094 72.0281 39.5438 72.0703 41.3438 71.8593C47.011 71.1703 52.6079 68.8359 57.0235 65.3203C58.4297 64.1953 60.6235 62.0156 61.8047 60.539C67.4719 53.4937 69.75 44.2687 68.0485 35.2968C67.0641 30.1218 64.3922 24.539 61.2844 21.164L60.8907 20.7281L62.7891 18.8437L64.6875 16.9453L65.7704 18.0281C66.9938 19.2375 67.4438 19.4625 68.3016 19.3359C69.3844 19.1812 70.0454 18.0843 69.736 16.9453C69.6094 16.4812 68.9766 15.764 66.0516 12.839C62.9579 9.75933 62.4375 9.29527 61.9735 9.19683C60.8204 8.99996 59.8079 9.63277 59.6672 10.6593C59.5407 11.5875 59.7235 11.939 60.8907 13.1484L62.0016 14.2875L60.1313 16.1578L58.2469 18.0421L57.1219 17.114C52.5094 13.3734 46.7297 10.9968 40.7813 10.4343L39.7266 10.3359L39.6844 6.98902L39.6563 3.65621H43.2282H46.8141L47.3063 3.17809C48.136 2.33434 48.136 1.32184 47.3063 0.478088L46.8141 -3.8147e-05H37.786C28.8704 0.0140228 28.7579 0.0140228 28.3641 0.295273Z" fill="#141414"/>
<path d="M36.8578 18.3936C35.9859 18.8577 35.8594 19.3077 35.8594 21.867C35.8594 23.8358 35.8875 24.1733 36.1266 24.5249C36.7172 25.4249 37.7297 25.692 38.6578 25.1999C39.5156 24.7358 39.6562 24.2717 39.6562 21.7967C39.6562 19.8702 39.6281 19.5608 39.375 19.153C38.7984 18.2108 37.7719 17.9014 36.8578 18.3936Z" fill="#141414"/>
<path d="M50.9063 25.5235C50.6109 25.6641 48.4453 27.7032 45.5625 30.6L40.7109 35.4375L39.8953 35.1563C38.6719 34.7203 37.6172 34.6641 36.3938 34.9313C33.3563 35.6063 31.3594 38.0953 31.3594 41.175C31.3594 44.0578 33.075 46.3922 35.8594 47.3203C36.7172 47.6016 38.6859 47.6438 39.4734 47.3907C42.3422 46.4485 44.1563 44.0297 44.1563 41.1328C44.1563 40.261 43.9031 39.1219 43.5938 38.5453C43.425 38.2219 43.6359 37.9969 48.3469 33.2719C51.0469 30.5578 53.3391 28.1953 53.4234 28.0266C53.775 27.3235 53.4797 26.1141 52.8328 25.6922C52.2984 25.3407 51.4828 25.2703 50.9063 25.5235ZM38.8125 38.8407C40.1625 39.5438 40.6969 40.9078 40.1063 42.2157C38.9953 44.7188 35.1563 43.9594 35.1563 41.2313C35.1563 40.1344 35.7328 39.2766 36.7734 38.7985C37.5188 38.4469 38.0672 38.461 38.8125 38.8407Z" fill="#141414"/>
<path d="M3.07976 27.8858C1.82819 28.7155 1.87038 30.3046 3.13601 31.078C3.57194 31.3452 3.90944 31.3593 12.4173 31.3593C22.0782 31.3593 21.7407 31.3874 22.3454 30.5296C22.7391 29.9811 22.7391 28.9405 22.3454 28.3921C21.7407 27.5343 22.0782 27.5624 12.4032 27.5624H3.55788L3.07976 27.8858Z" fill="#141414"/>
<path d="M7.875 39.3187C6.94687 39.6422 6.46875 40.275 6.46875 41.2031C6.46875 41.9062 6.77812 42.4828 7.3125 42.8062C7.66406 43.0031 8.62031 43.0312 16.6641 43.0312C25.4109 43.0312 25.6359 43.0312 26.0859 42.75C26.5641 42.4547 27 41.7234 27 41.2172C27 40.6828 26.6203 39.9937 26.1422 39.6422L25.6641 39.3047L16.875 39.2766C12.0375 39.2625 7.9875 39.2906 7.875 39.3187Z" fill="#141414"/>
<path d="M54.9141 39.3328C54.1406 39.5297 53.4375 40.4297 53.4375 41.2172C53.4375 41.7234 53.8875 42.4828 54.3375 42.7641C54.7172 43.0031 55.0688 43.0312 57.1359 43.0312C59.3156 43.0312 59.5406 43.0031 59.9203 42.7359C61.1156 41.8922 60.9891 40.1484 59.7094 39.5156C59.1891 39.2766 58.8656 39.2344 57.15 39.2484C56.0813 39.2625 55.0688 39.3047 54.9141 39.3328Z" fill="#141414"/>
<path d="M2.99533 51.3422C1.7719 52.1297 1.89846 53.9156 3.24846 54.5906C3.6844 54.8297 4.41564 54.8438 12.2485 54.8438C16.9453 54.8438 20.9813 54.8016 21.2344 54.7594C21.4875 54.7031 21.9094 54.45 22.1625 54.1828C22.5844 53.775 22.6406 53.6203 22.6406 53.0016C22.6406 52.1859 22.3594 51.6094 21.7969 51.2719C21.4453 51.075 20.4891 51.0469 12.4172 51.0469C3.65627 51.0469 3.43127 51.0609 2.99533 51.3422Z" fill="#141414"/>
<path d="M49.2047 51.9469C48.4875 52.3547 48.1359 53.2547 48.375 54.1125C48.5718 54.886 51.6093 57.8672 52.3265 57.9938C53.5781 58.2188 54.5625 57.375 54.5625 56.0672V55.3641L52.8187 53.6063L51.075 51.8485L50.3297 51.7922C49.8375 51.7641 49.4437 51.8203 49.2047 51.9469Z" fill="#141414"/>
<path d="M36.6609 57.2484C35.9438 57.7828 35.8594 58.1484 35.8594 60.5671C35.8594 62.9999 35.9719 63.4078 36.7734 63.9281C37.6172 64.4765 38.9672 64.0828 39.4453 63.1406C39.7688 62.5218 39.7406 58.6546 39.4172 57.9796C38.9531 56.9953 37.5188 56.6156 36.6609 57.2484Z" fill="#141414"/>
</g>
<defs>
<clipPath id="clip0_12_2091">
<rect width="72" height="72" fill="white"/>
</clipPath>
</defs>
</svg>
