<svg width="72" height="72" viewBox="0 0 72 72" fill="none" xmlns="http://www.w3.org/2000/svg">
<path d="M33.7219 4.83741C32.4703 5.28741 32.1469 5.51241 30.0234 7.59366C27.5203 10.0546 27.5766 10.0265 24.1875 10.139C20.8266 10.2374 20.1516 10.4202 18.5906 11.6718C17.7609 12.3187 17.0016 13.3733 16.5656 14.4983C16.3125 15.1452 16.2563 15.6655 16.1719 17.9999C16.0594 21.5437 16.0875 21.4874 13.5281 24.103C12.0094 25.6499 11.4891 26.2827 11.1375 26.9999C10.1109 29.1374 10.2375 31.6546 11.5031 33.6796C11.7 33.989 12.6984 35.0999 13.725 36.1546C14.7656 37.2093 15.6094 38.1796 15.6094 38.3202C15.6094 38.4468 13.2047 41.878 10.2516 45.928C7.31251 49.978 4.80938 53.5218 4.69688 53.789C4.0922 55.2515 4.90782 57.178 6.37032 57.7124C6.69376 57.839 8.4797 58.1905 10.3219 58.4858C12.1781 58.7952 13.7391 59.1046 13.7953 59.1608C13.8516 59.2171 14.5828 60.5671 15.3984 62.1562C17.2828 65.7702 17.4375 65.9952 18.3234 66.4452C19.3922 66.9796 20.5734 66.8812 21.5438 66.2062C21.7547 66.0655 23.9625 63.1265 26.4516 59.6952L30.9797 53.4515L31.5141 53.9155C33.1875 55.3358 35.6063 55.8983 37.7297 55.3358C38.7141 55.0827 39.4031 54.7452 40.2609 54.0843L40.9219 53.5921L45.2672 59.6671C47.6578 62.9999 49.7953 65.9108 50.0063 66.1077C50.6531 66.6983 51.0609 66.853 52.0453 66.853C52.7906 66.853 53.0859 66.7827 53.6063 66.4733C54.3797 66.0233 54.3375 66.0937 56.3344 62.339C57.2203 60.6515 57.9656 59.2593 57.9797 59.2452C58.0078 59.2312 59.4703 58.9921 61.2422 58.7249C63.0281 58.4437 64.8 58.1202 65.2078 58.0077C66.1781 57.7124 66.9938 56.8124 67.2328 55.7718C67.5281 54.4077 67.4719 54.3093 61.875 46.4624C59.0625 42.5249 56.6438 39.1358 56.4891 38.939C56.1094 38.4187 56.236 38.2358 58.3594 36.0702C59.3438 35.0577 60.3281 33.9608 60.5391 33.6233C61.7625 31.6546 61.8891 29.1233 60.8625 26.9999C60.511 26.2827 59.9906 25.6499 58.4719 24.103C55.9125 21.4733 55.9406 21.5437 55.8281 17.9999C55.7578 15.6655 55.6875 15.1452 55.4344 14.4983C54.6469 12.5015 53.0578 10.9968 51.1172 10.4062C50.8078 10.3077 49.3172 10.1952 47.8125 10.139C44.4094 10.0265 44.4938 10.0546 41.9063 7.53741C40.8656 6.51085 39.7828 5.54053 39.5156 5.38585C37.9547 4.44366 35.4938 4.21866 33.7219 4.83741ZM37.5469 7.94522C37.8141 8.08585 38.8969 9.02803 39.9375 10.0546C42.8766 12.9233 43.2281 13.078 47.1797 13.2046C49.6688 13.289 50.0625 13.3452 50.5688 13.6124C51.4547 14.0624 51.975 14.5687 52.3406 15.2999C52.6359 15.9046 52.6781 16.214 52.7485 18.703C52.875 22.6827 53.0578 23.1046 56.0953 26.2265C58.1906 28.364 58.3594 28.6733 58.3594 30.1077C58.3453 31.3171 57.9797 31.9077 55.9125 34.0171C53.0578 36.9421 52.875 37.3358 52.7485 41.3437C52.6359 44.4796 52.5375 44.803 51.4125 45.8015C50.5688 46.5468 50.0485 46.6593 47.1797 46.7296C45.1969 46.7858 44.6344 46.8562 43.875 47.1093C42.525 47.5593 42.1594 47.8265 40.0781 49.8655C37.8563 52.0312 37.2938 52.3687 36 52.3687C34.7063 52.3687 34.1438 52.0312 31.9219 49.8655C29.8406 47.8265 29.475 47.5593 28.125 47.1093C27.3656 46.8562 26.7328 46.7858 24.4688 46.7015C21.4313 46.603 21.2766 46.5468 20.2922 45.5343C19.4203 44.6202 19.2656 44.0718 19.2656 41.5546C19.2516 37.6874 18.9703 36.9843 16.1438 34.0874C14.0063 31.8937 13.6547 31.3171 13.6406 30.1077C13.6406 28.6733 13.8094 28.364 15.9047 26.2265C18.9422 23.0905 19.125 22.7108 19.2516 18.703C19.3219 16.214 19.3641 15.9046 19.6594 15.2999C20.025 14.5687 20.5453 14.0624 21.4313 13.6124C21.9375 13.3452 22.3313 13.289 24.8203 13.2046C28.7859 13.078 29.1094 12.9374 32.1469 9.95616C33.2438 8.88741 34.1578 8.01553 34.1859 8.01553C34.2141 8.01553 34.4953 7.9171 34.8047 7.8046C35.5078 7.53741 36.8859 7.60772 37.5469 7.94522ZM16.4531 45.2249C16.9313 46.7437 18.2672 48.3046 19.7016 49.078C20.8969 49.7108 22.0781 49.9218 24.6234 49.9218C26.6766 49.9218 26.8453 49.9499 27.5203 50.2733C28.9828 51.0046 29.2781 50.3718 24.2578 57.2905C21.8109 60.6655 19.7578 63.4218 19.7156 63.4218C19.6594 63.4218 18.9563 62.114 18.1406 60.5249C17.325 58.9218 16.4953 57.389 16.2844 57.0937C15.7078 56.264 15.0328 56.039 11.4609 55.4765C9.68907 55.1952 8.12813 54.928 8.00157 54.8718C7.8047 54.7874 8.57813 53.6483 11.9391 49.0358L16.1016 43.2983L16.1859 43.9874C16.2422 44.3671 16.3547 44.9296 16.4531 45.2249ZM59.9766 49.289C62.1281 52.2983 63.9281 54.8437 63.9985 54.928C64.0828 55.0265 63.0141 55.2374 60.6375 55.603C56.9531 56.1796 56.4047 56.3202 55.7859 56.9249C55.575 57.1218 54.6609 58.7108 53.7469 60.4265C52.8469 62.1421 52.0594 63.5483 52.0031 63.5202C51.9469 63.5062 49.95 60.7358 47.5453 57.3749L43.1859 51.2718L43.4813 50.9483C43.65 50.7655 44.1 50.4702 44.4938 50.2733C45.1547 49.9499 45.3375 49.9218 47.3766 49.9218C48.7406 49.9218 49.9359 49.8374 50.5266 49.7108C53.1 49.1624 55.2375 47.0108 55.7297 44.4655C55.8141 43.9874 55.9266 43.6499 55.9828 43.7062C56.025 43.7624 57.825 46.2655 59.9766 49.289Z" fill="#141414"/>
<path d="M32.6954 14.2031C26.972 15.4406 22.4298 19.4906 20.686 24.9609C20.0673 26.8734 19.9126 27.8719 19.9126 30.0234C19.9126 34.425 21.3751 38.0531 24.4407 41.2313C27.4782 44.3813 31.5985 46.125 36.0001 46.125C43.6782 46.125 50.2313 40.7672 51.8345 33.1875C52.1298 31.7531 52.172 28.5047 51.9048 27.1406C50.8642 21.8672 47.6157 17.6484 42.8204 15.3844C40.6548 14.3578 39.1782 14.0344 36.3517 13.9781C34.3829 13.9359 33.736 13.9781 32.6954 14.2031ZM39.0938 17.3813C43.7485 18.6047 47.3063 22.1344 48.6001 26.8031C48.9517 28.0969 49.022 31.0641 48.7407 32.4984C47.8126 37.0547 44.3813 40.9078 39.9798 42.3281C37.322 43.1859 34.7907 43.2 32.1751 42.3844C27.647 40.9781 24.2157 37.1531 23.2735 32.4984C22.922 30.7688 23.0345 28.0688 23.5407 26.3672C24.511 23.1328 26.8032 20.2781 29.7142 18.6469C30.6845 18.0984 32.7517 17.3672 33.9048 17.1703C35.0017 16.9734 38.011 17.1 39.0938 17.3813Z" fill="#141414"/>
<path d="M41.0906 24.2857C40.9219 24.4263 39.4594 26.2123 37.8281 28.2654C36.1828 30.3185 34.7906 32.006 34.7203 32.0342C34.65 32.0623 33.8625 31.4717 32.9766 30.7404C31.3875 29.4326 31.3312 29.3904 30.6422 29.3904C30.0516 29.3904 29.8687 29.4607 29.5172 29.7982C29.1937 30.1217 29.1094 30.3326 29.1094 30.7967C29.1094 31.1201 29.1797 31.4998 29.25 31.6404C29.4047 31.9217 33.7641 35.5638 34.2703 35.831C34.7062 36.0701 35.3109 36.042 35.7469 35.7467C36.1969 35.4654 43.1016 26.8732 43.425 26.2123C43.9031 25.1857 43.1578 24.0467 41.9766 24.0467C41.6109 24.0467 41.2594 24.1451 41.0906 24.2857Z" fill="#141414"/>
</svg>
