<svg width="72" height="72" viewBox="0 0 72 72" fill="none" xmlns="http://www.w3.org/2000/svg">
<path d="M33.1172 0.323448C31.2188 0.956261 29.7 2.25001 28.5609 4.17657C28.2375 4.73907 27.9141 5.20313 27.8578 5.20313C27.8016 5.20313 27.1125 5.04845 26.325 4.85157C23.5406 4.16251 18.0562 3.50157 17.0156 3.72657C15.7641 4.00782 15.525 5.99064 16.6922 6.44064C16.9031 6.52501 18.0141 6.65157 19.1531 6.73595C21.2344 6.89063 23.7234 7.27032 25.4672 7.6922C26.3953 7.9172 26.4375 7.93126 26.2547 8.21251C26.1281 8.42345 17.3672 23.6109 17.2406 23.85C17.2266 23.8641 16.5234 23.6953 15.6516 23.4703C13.5984 22.95 10.9828 22.7109 10.3359 22.9922C9.82969 23.1891 9.42188 23.8219 9.42188 24.3563C9.42188 24.8344 9.92812 25.5797 10.2937 25.65C10.4766 25.6922 11.2641 25.7906 12.0656 25.875C13.5844 26.0297 15.4266 26.3953 15.525 26.5641C15.5672 26.6063 14.7375 28.125 13.7109 29.925C11.7422 33.3703 11.3203 34.3547 11.1656 35.8734C10.9688 37.8844 11.8547 40.3734 13.2891 41.8359C14.1609 42.7359 13.7391 42.4688 22.1484 47.3203L29.1797 51.3703L31.0922 53.3531C32.1469 54.45 33.525 55.7438 34.1578 56.25L35.2969 57.1641V64.1672V71.1844L35.7047 71.5922C36.0281 71.9156 36.2391 72 36.7031 72C37.4344 72 37.7719 71.8172 38.0391 71.2969C38.3484 70.7063 38.3625 56.3063 38.0531 55.7016C37.9406 55.4906 37.3641 54.9563 36.7875 54.5203C34.425 52.7344 31.6969 49.7672 29.9953 47.1375C28.5609 44.9156 27.1969 41.9625 26.5078 39.5438C26.2125 38.5313 26.1844 38.2641 26.3109 37.7859C26.5078 37.0688 27.0703 36.4922 27.8156 36.2672C28.3078 36.1266 28.4906 36.1406 29.0109 36.3375C29.3625 36.4641 29.7281 36.675 29.8406 36.8156C29.9672 36.9422 30.9656 38.475 32.0766 40.2188C34.5234 44.0297 34.4531 43.9313 34.8328 44.1281C35.4516 44.4656 36.5203 44.1984 36.7875 43.6359C36.8578 43.4953 36.9422 38.2078 36.9844 31.8797L37.0547 20.3625L37.5047 19.9547C38.1516 19.3922 38.6156 19.3078 39.2203 19.6313C40.2328 20.1656 40.2188 20.0531 40.2188 27.8859V34.8891L40.5562 35.2266C41.2594 35.9297 42.3141 35.8313 42.8484 35.0297L43.1719 34.5516V25.9172C43.1719 18.0984 43.2 17.2266 43.4109 16.875C43.9172 16.0031 45.0422 15.8625 45.7594 16.5797L46.1953 17.0156L46.2656 25.9313L46.3359 34.8469L46.6734 35.2125C47.3062 35.8875 48.5156 35.8172 49.0078 35.0719C49.1906 34.7906 49.2188 33.8203 49.2188 27.7453C49.2188 21.0516 49.2328 20.7281 49.5 20.2922C49.7812 19.8281 50.4281 19.4063 50.8641 19.4063C51.2719 19.4063 52.0031 19.9266 52.2422 20.3766C52.425 20.7422 52.4531 21.7406 52.4531 27.7031C52.4531 35.2828 52.4531 35.2266 53.2828 35.5781C53.8594 35.8172 54.5766 35.6625 54.9984 35.2125C55.3359 34.8609 55.3359 34.7906 55.4062 31.6547C55.4906 28.1391 55.5328 27.9141 56.3766 27.5625C56.9953 27.3094 57.7125 27.4922 58.1484 28.0125L58.5141 28.4484L58.4578 35.9859C58.4016 44.2828 58.4156 44.1281 57.4453 47.0531C56.5453 49.7813 54.9562 52.4813 53.0156 54.6188L52.0312 55.6875V63.4359V71.1844L52.4391 71.5922C52.7625 71.9156 52.9734 72 53.4375 72C53.7609 72 54.1406 71.9297 54.3094 71.8453C54.9562 71.4938 54.9844 71.1984 54.9844 63.8016C54.9844 56.9109 54.9844 56.8547 55.2797 56.5875C55.4484 56.4469 55.8844 55.9406 56.25 55.4766C58.3312 52.8469 59.8078 49.95 60.6656 46.8563C60.9891 45.6609 61.4531 44.7891 66.15 36.6609C68.9625 31.7672 71.4234 27.4219 71.5922 27C71.8172 26.4234 71.9156 25.8328 71.9719 24.6516C72.0422 22.8234 71.7891 21.7406 70.9453 20.3203C70.0453 18.7875 69.2016 18.1547 64.0406 15.1875C61.4391 13.6828 59.1187 12.3891 58.9078 12.3188C57.9937 12.0375 57.0938 12.7125 57.0938 13.6969C57.0938 14.0203 57.1922 14.4141 57.3047 14.5828C57.4172 14.7375 59.6391 16.1016 62.2547 17.5922C67.5562 20.6438 68.2172 21.15 68.7375 22.5422C69.1453 23.625 69.1594 25.1297 68.7516 26.0156C68.5969 26.3672 66.9094 29.3625 64.9969 32.6672L61.5234 38.6859L61.4531 33.1594C61.3828 27.6891 61.3828 27.6328 61.0453 27C60.2578 25.4813 58.9359 24.6094 57.2766 24.4969C56.7281 24.4688 56.0812 24.4969 55.8562 24.5813L55.4344 24.7219L55.3781 22.3172C55.3359 20.1656 55.2937 19.8141 54.9984 19.1672C54.5906 18.2391 53.4516 17.1563 52.5375 16.8047C51.8062 16.5234 50.4984 16.4391 49.6266 16.6359C49.1344 16.7344 49.1063 16.7203 49.0219 16.2844C48.8953 15.6656 48.1781 14.5828 47.5875 14.1328C45.7313 12.7125 43.1297 12.8391 41.5266 14.4422C41.0344 14.9344 40.5703 15.7219 40.3172 16.4813C40.2469 16.6781 40.1344 16.7063 39.7687 16.6219C38.9531 16.4391 37.6312 16.5234 36.9 16.8047C36 17.1422 34.8469 18.2391 34.4391 19.1672L34.1016 19.8984L34.0594 28.8141L34.0172 37.7297L33.2859 36.5484C31.7953 34.1438 30.4875 33.2859 28.3359 33.2859C26.775 33.2859 25.7766 33.6797 24.7359 34.7203C23.2594 36.2109 22.9078 38.0953 23.6812 40.5703C24.1453 42.0328 25.0172 44.2969 25.5375 45.3094L25.9031 46.0266L25.0031 45.5203C20.3625 42.9188 16.0031 40.2891 15.525 39.8109C14.8359 39.1359 14.4 38.3063 14.175 37.2094C13.8375 35.6484 13.6828 35.9578 22.9781 19.8563C27.6469 11.7563 31.725 4.85157 32.0344 4.50001C32.9062 3.51563 33.8625 3.05157 35.2266 2.98126C35.9719 2.93907 36.5484 2.99532 36.9281 3.12189C37.2375 3.23438 39.6562 4.57032 42.3 6.08907C47.6016 9.1547 47.7141 9.19688 48.5438 8.45157C48.9375 8.10001 49.0078 7.94532 49.0078 7.39689C49.0078 6.89063 48.9375 6.6797 48.6562 6.42657C48.1641 5.96251 38.8969 0.646889 38.0391 0.337509C37.5609 0.168762 36.8156 0.0703201 35.7188 0.0421982C34.3266 1.52588e-05 33.9609 0.0421982 33.1172 0.323448Z" fill="#141414"/>
<path d="M10.2656 4.17659C7.10156 4.5844 1.20937 6.37034 0.3375 7.18597C0.084375 7.42503 0 7.65003 0 8.11409C0 8.87347 0.309375 9.36565 0.885937 9.54847C1.40625 9.71722 1.60312 9.67503 3.52969 8.95784C5.0625 8.38128 8.02969 7.57972 9.9 7.24222C11.3625 6.96097 11.7422 6.76409 11.9531 6.10315C12.1359 5.58284 11.9672 4.79534 11.6016 4.50003C11.3484 4.28909 10.6875 4.1344 10.2656 4.17659Z" fill="#141414"/>
<path d="M52.0175 9.54844C51.3003 10.2656 51.5113 11.4609 52.4253 11.8969C52.8753 12.1078 53.0019 12.1078 53.4941 11.9391C55.0831 11.3766 54.7316 9.14062 53.0581 9.14062C52.5519 9.14062 52.355 9.225 52.0175 9.54844Z" fill="#141414"/>
<path d="M10.6172 13.725C6.75 14.1047 4.62656 14.5547 1.71562 15.6375C0.3375 16.1578 0 16.4953 0 17.3953C0 17.8594 0.084375 18.0985 0.3375 18.3516C0.9 18.9 1.33594 18.9422 2.53125 18.5063C6.56719 17.0156 10.8844 16.3828 14.5828 16.7344C16.5797 16.9172 17.0297 16.7906 17.3812 15.961C17.775 15.0047 17.2547 14.1188 16.1437 13.9078C15.4406 13.7813 11.4328 13.6406 10.6172 13.725Z" fill="#141414"/>
<path d="M2.03906 24.6798C0.351562 25.4391 0 25.7766 0 26.6626C0 27.1829 0.084375 27.3798 0.407812 27.7173C1.0125 28.3219 1.50469 28.2516 3.41719 27.3516C4.73906 26.7329 5.09062 26.4938 5.2875 26.1423C5.58281 25.5657 5.44219 24.8344 4.96406 24.3844C4.40156 23.8641 3.69844 23.9344 2.03906 24.6798Z" fill="#141414"/>
</svg>
