<svg width="101" height="94" viewBox="0 0 101 94" fill="none" xmlns="http://www.w3.org/2000/svg">
<path d="M21.647 12.1375C21.647 12.1375 27.3299 7.22017 29.9974 6.31556C29.9974 6.31556 37.4431 2.04765 46.5358 2.00126C46.5358 2.00126 55.6052 1.83889 62.4015 5.20219L60.0356 6.5939C60.0356 6.5939 53.0769 3.04504 40.9225 4.76148C40.9225 4.76148 32.4097 6.17639 25.7758 11.4185L22.2733 14.2019L21.647 12.1375Z" fill="white"/>
<path d="M64.8346 22.4355V4.76074L58.7109 8.28641V22.4355H64.8346Z" stroke="white" stroke-width="7" stroke-miterlimit="10" stroke-linecap="round" stroke-linejoin="round"/>
<path d="M69.9137 57.1612H55.6716C54.3495 57.1612 53.2593 56.071 53.2593 54.7488V24.8503C53.2593 23.5282 54.3495 22.438 55.6716 22.438H69.9137C71.2358 22.438 72.326 23.5282 72.326 24.8503V54.7488C72.326 56.071 71.259 57.1612 69.9137 57.1612Z" fill="white"/>
<path d="M65.2764 4.76074L81.722 8.35599V22.4355" stroke="white" stroke-width="7.9309" stroke-miterlimit="10" stroke-linecap="round" stroke-linejoin="round"/>
<path d="M68.7329 9.37598C72.0035 10.0718 75.2508 10.7445 78.5214 11.4403" stroke="white" stroke-width="6" stroke-miterlimit="10" stroke-linecap="round" stroke-linejoin="round"/>
<path d="M68.7329 11.6514C72.0035 12.3472 75.2508 13.0199 78.5214 13.7157" stroke="white" stroke-width="6" stroke-miterlimit="10" stroke-linecap="round" stroke-linejoin="round"/>
<path d="M68.7329 14.0649C72.0035 14.7608 75.2508 15.4335 78.5214 16.1293" stroke="white" stroke-width="6" stroke-miterlimit="10" stroke-linecap="round" stroke-linejoin="round"/>
<path d="M76.0608 21.7648L72.0711 21.4633C71.6304 21.4401 71.3057 21.0458 71.3521 20.6051L71.3753 20.2108C71.3985 19.7701 71.7928 19.4453 72.2335 19.4917L76.2231 19.7933C76.6638 19.8164 76.9886 20.2108 76.9422 20.6515L76.919 21.0458C76.8726 21.4633 76.5015 21.788 76.0608 21.7648Z" fill="white"/>
<path d="M80.2594 22.9938L89.6768 21.6253C89.6768 21.6253 91.2309 21.3238 91.4397 22.6459L93.6664 22.4371C93.6664 22.4371 94.5943 22.4603 94.8262 23.2953C94.8262 23.2953 94.803 23.6433 95.754 23.5041L97.6793 23.2258C97.6793 23.2258 98.4447 23.2953 98.6303 24.1304H100.764C100.764 24.1304 101.391 24.6407 100.602 25.1973L98.8854 25.3597C98.8854 25.3597 98.7231 25.4989 98.7231 25.9396C98.7231 25.9396 98.4911 27.3081 97.3081 27.2153L95.3597 27.5632C95.3597 27.5632 95.1278 29.1173 93.9912 29.1173L91.718 29.4653C91.718 29.4653 91.5092 31.3441 90.883 31.4136C90.883 31.4136 90.4654 32.0399 88.1691 32.0399L87.9603 35.8207C87.9603 35.8207 87.8212 36.679 86.8006 36.8181L85.4552 37.0269C85.4552 37.0269 84.6666 39.6711 85.9655 40.251C85.9655 40.251 86.1975 40.9469 88.6794 41.4108C88.6794 41.4108 90.7902 41.8283 90.6278 44.3566V48.6941C90.6278 48.6941 90.6974 50.0394 88.9809 49.9698H76.5017C76.5017 49.9698 75.2956 49.9466 75.5739 47.0472C75.5739 47.0472 75.4348 42.8489 76.0842 42.8257C76.0842 42.8257 76.4786 42.2458 76.9193 42.1066C76.9193 42.1066 77.0352 38.4186 77.4992 37.9547C77.4992 37.9547 78.8445 33.9651 78.2878 33.3389L76.3626 30.7874L76.2698 26.4963C76.2698 26.4963 76.7105 23.5041 80.2594 22.9938Z" fill="white"/>
<path d="M80.979 49.9693C80.979 49.9693 77.0358 59.7345 69.4044 64.8374C69.4044 64.8374 64.6029 68.4791 62.8169 68.8502V71.2857C62.8169 71.2857 69.9611 68.1543 73.7884 63.8864C73.7884 63.8864 79.6336 59.0154 83.2753 49.9461C86.8938 40.9 80.979 49.9693 80.979 49.9693Z" fill="white"/>
<path d="M43.1688 72.0969C43.1688 72.0969 32.9164 71.3315 24.5196 64.2106C24.5196 64.2106 17.8161 58.7365 15.6589 53.3784H13.4321C13.4321 53.3784 17.8161 65.4167 32.6612 71.2851C32.6612 71.2851 39.4575 74.37 43.1688 74.4164" fill="white"/>
<path d="M1.3951 51.8237L6.59089 52.9602C6.59089 52.9602 7.65789 53.3082 10.0238 53.2618H32.7322C32.7322 53.2618 33.3585 54.4215 34.6111 54.12L37.9048 54.1664C37.9048 54.1664 38.5311 54.0504 38.6239 53.401H40.7811C40.7811 53.401 42.2888 52.9834 42.2888 51.3366V32.7573C42.2888 32.7573 42.5903 30.5537 39.4821 30.6929L7.84345 30.4609L2.06777 31.2264C2.06777 31.2264 0.188935 31.6671 0.142544 33.2908V49.9217C0.142544 49.8985 -0.0894125 50.9887 1.3951 51.8237Z" fill="white"/>
<path d="M13.458 29.6979C13.458 29.6979 13.0868 30.4402 13.6203 30.4634L15.6615 30.4865H11.0456C11.7183 26.9377 14.0842 21.626 14.0842 21.626C14.3858 20.3967 11.9734 19.3529 11.9734 19.3529C9.95543 18.7266 8.98122 14.7602 8.98122 14.7602C8.93483 11.7681 11.0456 9.6573 11.0456 9.6573C12.2286 8.17281 12.7389 9.6109 12.7389 9.6109L13.0404 11.3737C13.342 14.4587 14.2234 13.902 14.2234 13.902L16.311 13.9484L17.262 12.7654L16.3342 9.21659C16.1254 7.56973 17.8883 8.54393 17.8883 8.54393C21.5996 9.51812 22.2259 14.2731 22.2259 14.2731C22.3882 16.5463 21.2285 17.822 21.2285 17.822C19.7207 19.5152 20.4862 21.0229 20.4862 21.0229L23.0145 30.4865L16.9605 30.5097C16.8909 30.2314 15.8007 25.1517 15.1048 24.479L13.458 29.6979Z" fill="white"/>
<path d="M36.0031 30.6478C36.0031 30.6478 35.9104 27.0758 35.4928 26.032V24.8258L36.2583 23.8748V21.4394C36.2583 21.4394 36.0263 20.2796 34.2635 20.3724V10.6072L34.9593 8.38047L34.6578 3.4399C34.6578 3.4399 34.5186 2.025 32.9645 2.37293H31.1089C31.1089 2.37293 30.1811 2.30334 30.0187 6.31611V9.00674C30.0187 9.00674 30.3898 9.93455 30.3898 11.1407V20.4188C30.3898 20.4188 28.511 20.5115 28.4414 21.8337V23.6197L29.2301 24.8258L28.6502 28.3747L28.4414 30.6246" fill="white"/>
<path d="M43.5892 13.7156H43.1485L42.499 14.365H40.4114C40.4114 14.365 39.3908 14.4346 39.5531 12.2311V10.0971C39.5531 10.0971 39.53 9.1925 41.7799 9.14611C41.7799 9.14611 43.0789 8.91416 43.1485 10.0971H43.7979V8.68221C43.7979 8.68221 44.285 7.66162 45.5608 7.66162C45.5608 7.66162 51.1509 7.82399 53.4705 9.65641C53.4705 9.65641 56.6018 13.0661 56.5323 14.7129C56.5323 14.7129 56.6018 16.1974 55.2565 15.3624C55.2565 15.3624 52.1019 12.3239 51.1973 12.695C51.1973 12.695 49.6432 12.7414 49.8288 14.2258L49.388 14.7361L50.0839 40.2044C50.0839 40.2044 50.2231 42.0832 48.2979 42.3152H45.7464C45.7464 42.3152 43.4732 42.176 43.8907 39.3926L44.8185 14.8985C44.7953 14.8753 43.6819 15.1537 43.5892 13.7156Z" fill="white"/>
<path d="M88.8658 45.5143H77.5232C77.3608 45.5143 77.2217 45.3751 77.2217 45.2128V44.0066C77.2217 43.8442 77.3608 43.7051 77.5232 43.7051H88.8658C89.0282 43.7051 89.1674 43.8442 89.1674 44.0066V45.2128C89.1674 45.3751 89.0282 45.5143 88.8658 45.5143Z" fill="#640D5F"/>
<path d="M89.8625 23.6638C89.8625 23.6638 90.0481 22.8752 88.4476 23.2463L79.5405 24.6844C79.5405 24.6844 77.8704 24.9395 77.9632 27.4214V30.2048L79.842 33.0114C79.842 33.0114 80.3291 33.7073 79.5173 35.7717L78.4271 39.8076V42.1967H85.409C85.409 42.1967 85.8033 42.1271 85.0842 41.64C85.0842 41.64 83.5533 40.3179 83.7157 39.2741L84.6667 33.8697L84.9682 32.3852C84.9682 32.3852 85.3394 31.179 87.1486 30.9703L89.4682 30.5296C89.4682 30.5296 90.3032 30.3904 90.2336 29.277L89.8625 23.6638ZM82.2312 29.8569L79.6565 30.0657C79.5405 30.0657 79.4245 29.9729 79.4013 29.8569L79.3781 29.4626C79.3781 29.3466 79.4709 29.2306 79.5869 29.2074L82.1616 28.9987C82.2776 28.9987 82.3935 29.0915 82.4167 29.2074L82.4399 29.6018C82.4399 29.7409 82.3472 29.8569 82.2312 29.8569ZM82.2312 27.7925L79.6565 28.0013C79.5405 28.0013 79.4245 27.9085 79.4013 27.7925L79.3781 27.3982C79.3781 27.2822 79.4709 27.1663 79.5869 27.1431L82.1616 26.9343C82.2776 26.9343 82.3935 27.0271 82.4167 27.1431L82.4399 27.5374C82.4399 27.6766 82.3472 27.7925 82.2312 27.7925Z" fill="#640D5F"/>
<path d="M95.2212 24.6848L95.2908 26.3781L97.3552 26.1229V24.3833L95.2212 24.6848Z" fill="#D1D3D4"/>
<path d="M69.8925 24.1515H56.0216C54.5371 23.9891 54.8386 25.2649 54.8386 25.2649L54.8154 34.8676H70.7739V25.5432C70.8667 24.0819 69.8925 24.1515 69.8925 24.1515ZM61.0782 28.5586C61.0086 29.0689 60.5679 29.1848 60.5679 29.1848H57.7613V31.9914C57.5757 32.5945 56.9494 32.5017 56.9494 32.5017C56.4391 32.4322 56.3231 31.9914 56.3231 31.9914V27.7699H57.7381H60.5447C61.1942 27.9323 61.0782 28.5586 61.0782 28.5586Z" fill="#640D5F"/>
<path d="M54.8145 36.5845H70.657V54.2824C70.657 54.2824 70.7266 55.6277 69.2653 55.3726H55.5103C55.5103 55.3726 54.5593 55.2334 54.8145 53.3778V36.5845Z" fill="#640D5F"/>
<path d="M56.5088 39.1592V45.2131" stroke="white" stroke-width="6" stroke-miterlimit="10" stroke-linecap="round" stroke-linejoin="round"/>
<path d="M46.2094 14.7837H47.6243L48.7841 39.5329C48.7841 39.5329 48.8073 40.8319 48.0187 40.8319H46.2094C46.2094 40.8319 44.9801 41.1334 45.444 38.35L46.2094 14.7837Z" fill="#640D5F"/>
<path d="M40.666 10.6746L42.0114 10.3267V13.1101L40.8052 13.3188L40.666 10.6746Z" fill="#D1D3D4"/>
<path d="M31.6626 3.74121C31.6626 3.74121 31.1755 6.94214 31.106 7.66119C31.106 7.66119 31.2451 9.30805 31.6626 9.86473L31.8714 10.7693V20.2098H32.7296V10.8389L33.4951 8.24107C33.4951 8.24107 33.6575 7.19729 33.4951 6.73339L33.124 3.7876H31.6626V3.74121Z" fill="#640D5F"/>
<path d="M29.6689 21.8813H34.8647V23.3658C34.8647 23.3658 33.9137 24.1081 33.9601 24.9663C33.9601 24.9663 33.9369 27.0307 34.5864 28.4688V30.4404H32.8003V27.0075C32.8003 27.0075 32.3364 26.474 31.8029 27.0075V30.4404H29.9009V28.7007C29.9009 28.7007 30.62 26.5204 30.5968 25.2446C30.5968 25.2446 30.8287 23.9225 29.6689 23.4586V21.8813Z" fill="#640D5F"/>
<path d="M28.5564 36.5146H12.3428V47.0916H28.5564V36.5146Z" fill="#00AEEF"/>
<path d="M32.9188 31.7139H8.72588C8.44753 31.7139 8.23877 31.9458 8.23877 32.201V51.2674C8.23877 51.5457 8.47073 51.7545 8.72588 51.7545H32.9188C33.1971 51.7545 33.4059 51.5225 33.4059 51.2674V32.201C33.4291 31.9458 33.1971 31.7139 32.9188 31.7139ZM30.6688 47.9273C30.6688 48.484 30.2281 48.9247 29.6714 48.9247H11.5325C10.9758 48.9247 10.5351 48.484 10.5351 47.9273V35.4251C10.5351 34.8684 10.9758 34.4277 11.5325 34.4277H29.6714C30.2281 34.4277 30.6688 34.8684 30.6688 35.4251V47.9273Z" fill="black"/>
<path d="M40.9674 50.4092V33.6159C40.9674 33.6159 41.1298 32.0386 39.1813 32.1082H34.6118V51.8009H40.0396C40.0396 51.7777 41.0834 51.9633 40.9674 50.4092ZM39.5061 48.8319C39.5061 49.0639 39.3205 49.2494 39.0885 49.2494H36.1659C35.934 49.2494 35.7484 49.0639 35.7484 48.8319V48.5072C35.7484 48.2752 35.934 48.0897 36.1659 48.0897H39.0885C39.3205 48.0897 39.5061 48.2752 39.5061 48.5072V48.8319ZM39.5061 46.2109C39.5061 46.4428 39.3205 46.6284 39.0885 46.6284H36.1659C35.934 46.6284 35.7484 46.4428 35.7484 46.2109V45.8861C35.7484 45.6542 35.934 45.4686 36.1659 45.4686H39.0885C39.3205 45.4686 39.5061 45.6542 39.5061 45.8861V46.2109ZM36.4443 42.7548C36.769 42.7548 37.0473 43.0099 37.0473 43.3579C37.0473 43.6826 36.7922 43.9609 36.4443 43.9609C36.0963 43.9609 35.8412 43.7058 35.8412 43.3579C35.8412 43.0331 36.0963 42.7548 36.4443 42.7548ZM35.8412 40.6672C35.8412 40.3425 36.0963 40.0641 36.4443 40.0641C36.7922 40.0641 37.0473 40.3193 37.0473 40.6672C37.0473 40.9919 36.7922 41.2703 36.4443 41.2703C36.0963 41.2703 35.8412 40.9919 35.8412 40.6672ZM39.1349 43.9377C38.8102 43.9377 38.5319 43.6826 38.5319 43.3347C38.5319 43.0099 38.787 42.7316 39.1349 42.7316C39.4597 42.7316 39.738 42.9867 39.738 43.3347C39.738 43.6826 39.4597 43.9377 39.1349 43.9377ZM39.1349 41.2703C38.8102 41.2703 38.5319 41.0151 38.5319 40.6672C38.5319 40.3425 38.787 40.0641 39.1349 40.0641C39.4597 40.0641 39.738 40.3193 39.738 40.6672C39.738 40.9919 39.4597 41.2703 39.1349 41.2703ZM39.738 37.6286C39.738 37.8838 39.5293 38.1157 39.2509 38.1157H36.1891C35.934 38.1157 35.702 37.907 35.702 37.6286V36.0746C35.702 35.8194 35.9108 35.5875 36.1891 35.5875H39.2509C39.5061 35.5875 39.738 35.7962 39.738 36.0746V37.6286Z" fill="black"/>
<path d="M6.33432 32.0864V50.9441L2.18232 50.225C2.18232 50.225 1.41687 50.0859 1.69522 48.0215V33.9652C1.69522 33.9652 1.48646 32.5503 2.78541 32.5503L6.33432 32.0864Z" fill="black"/>
<path d="M11.6226 10.8604L12.3417 14.5949C12.3417 14.5949 12.5736 15.3835 14.1277 15.2443C14.1277 15.2443 15.8906 15.5227 16.1225 15.4531C16.1225 15.4531 17.8158 14.8036 18.6045 13.3191C18.6045 13.3191 18.906 13.2495 18.3725 11.3939L17.9318 9.70068C17.9318 9.70068 18.9292 10.1878 19.7642 11.4171C19.7642 11.4171 21.4575 13.5047 20.6225 15.4531C20.6225 15.4531 20.2745 17.0536 19.1843 18.1901C19.1843 18.1901 18.4885 19.489 19.1611 21.2055L21.4343 30.2052H20.5065L18.5813 22.69C18.5813 22.69 18.5581 21.5998 17.4911 21.855C17.4911 21.855 17.1895 22.4812 17.7694 23.7106L19.4163 30.2052H18.5581L16.3777 22.2957C16.3777 22.2957 16.0298 20.1385 14.1973 19.0715C14.1973 19.0715 11.7154 18.0973 11.1819 16.4505C11.1819 16.4505 10.5324 15.9402 10.3932 14.015C10.3237 14.0382 10.5092 12.1362 11.6226 10.8604Z" fill="black"/>
<path d="M60.2667 60.1992H56.7642V84.067H60.2667V60.1992Z" fill="white"/>
<path d="M55.7737 93.3734L54.4977 90.0294C57.4603 89.0908 59.7337 87.9614 61.3177 86.6414C62.931 85.3508 64.031 84.0014 64.6177 82.5934C65.2337 81.1854 65.5417 79.8361 65.5417 78.5454C65.5417 77.7241 65.4537 76.9321 65.2777 76.1694C65.1017 75.4068 64.7937 74.5414 64.3537 73.5734C63.9137 72.6054 63.2977 71.4028 62.5057 69.9654L65.7177 68.3374C66.8323 70.2441 67.6243 72.0481 68.0937 73.7494C68.5923 75.4508 68.8417 76.9468 68.8417 78.2374C68.8417 80.0854 68.5337 81.7574 67.9177 83.2534C67.331 84.7494 66.539 86.0694 65.5417 87.2134C64.5737 88.3868 63.503 89.3841 62.3297 90.2054C61.1857 91.0268 60.027 91.7014 58.8537 92.2294C57.7097 92.7574 56.683 93.1388 55.7737 93.3734Z" fill="white"/>
<path d="M38.3701 79.5663V76.203C38.3701 74.8577 37.6279 74.1851 36.1665 74.1851H30.4141V76.8525H34.3109C35.1227 76.8525 35.5171 77.27 35.5171 78.0818V79.5663H30.4141V82.2802H39.9938V79.5663H38.3701Z" fill="white"/>
<path d="M53.2388 70.7528C52.9605 70.4744 52.659 70.3353 52.2646 70.3353C51.8935 70.3353 51.5688 70.4744 51.2904 70.7528C51.0121 71.0311 50.8961 71.3559 50.8961 71.727C50.8961 72.0981 51.0353 72.4228 51.2904 72.7012C51.5456 72.9795 51.8703 73.1187 52.2646 73.1187C52.6358 73.1187 52.9605 72.9795 53.2388 72.7012C53.5172 72.4228 53.6332 72.0981 53.6332 71.727C53.6332 71.3559 53.494 71.0079 53.2388 70.7528ZM49.9219 70.0105C49.6435 69.7554 49.3188 69.6162 48.9477 69.6162C48.5765 69.6162 48.2518 69.7554 47.9735 70.0105C47.6951 70.2889 47.5791 70.5904 47.5791 70.9847C47.5791 71.3559 47.7183 71.6806 47.9735 71.9589C48.2518 72.2373 48.5534 72.3764 48.9477 72.3764C49.342 72.3764 49.6667 72.2373 49.9219 71.9821C50.2002 71.7038 50.3162 71.379 50.3162 71.0079C50.3394 70.5904 50.2002 70.2657 49.9219 70.0105ZM46.489 71.1703C46.2106 70.8919 45.8859 70.7528 45.5147 70.7528C45.1436 70.7528 44.8189 70.8919 44.5405 71.1703C44.2622 71.4486 44.1462 71.7734 44.1462 72.1445C44.1462 72.5156 44.2854 72.8403 44.5405 73.1187C44.7957 73.397 45.1204 73.5362 45.5147 73.5362C45.9091 73.5362 46.2106 73.397 46.489 73.1187C46.7673 72.8403 46.9065 72.5156 46.9065 72.1445C46.9065 71.7734 46.7673 71.4254 46.489 71.1703ZM52.9373 74.2089V78.3376C52.9373 79.1494 52.5198 79.5669 51.7079 79.5669H50.409V74.2089H47.6487V79.5669H45.1668V74.2089H43.8447C43.8447 74.3016 43.8215 75.7397 42.3833 75.7629V79.5669H39.2983V82.2808H52.8909C54.7697 82.2808 55.6976 81.3762 55.6976 79.5669V74.2089H52.9373Z" fill="white"/>
<path d="M53.2379 70.7528C52.9595 70.4744 52.658 70.3353 52.2637 70.3353C51.8925 70.3353 51.5678 70.4744 51.2894 70.7528C51.0111 71.0311 50.8951 71.3559 50.8951 71.727C50.8951 72.0981 51.0343 72.4228 51.2894 72.7012C51.5446 72.9795 51.8693 73.1187 52.2637 73.1187C52.6348 73.1187 52.9595 72.9795 53.2379 72.7012C53.5162 72.4228 53.6322 72.0981 53.6322 71.727C53.6322 71.3559 53.493 71.0079 53.2379 70.7528ZM49.9209 70.0105C49.6426 69.7554 49.3178 69.6162 48.9467 69.6162C48.5756 69.6162 48.2508 69.7554 47.9725 70.0105C47.6941 70.2889 47.5782 70.5904 47.5782 70.9847C47.5782 71.3559 47.7173 71.6806 47.9725 71.9589C48.2508 72.2373 48.5524 72.3764 48.9467 72.3764C49.341 72.3764 49.6658 72.2373 49.9209 71.9821C50.1993 71.7038 50.3152 71.379 50.3152 71.0079C50.3384 70.5904 50.1993 70.2657 49.9209 70.0105ZM46.488 71.1703C46.2096 70.8919 45.8849 70.7528 45.5138 70.7528C45.1426 70.7528 44.8179 70.8919 44.5396 71.1703C44.2612 71.4486 44.1452 71.7734 44.1452 72.1445C44.1452 72.5156 44.2844 72.8403 44.5396 73.1187C44.7947 73.397 45.1194 73.5362 45.5138 73.5362C45.9081 73.5362 46.2096 73.397 46.488 73.1187C46.7663 72.8403 46.9055 72.5156 46.9055 72.1445C46.9055 71.7734 46.7663 71.4254 46.488 71.1703ZM52.9363 74.2089V78.3376C52.9363 79.1494 52.5188 79.5669 51.707 79.5669H50.408V74.2089H47.6478V79.5669H45.1658V74.2089H43.8437C43.8437 74.3016 43.8205 75.7397 42.3824 75.7629V79.5669H39.2974V82.2808H52.8899C54.7688 82.2808 55.6966 81.3762 55.6966 79.5669V74.2089H52.9363Z" fill="white"/>
</svg>
