<svg width="101" height="91" viewBox="0 0 101 91" fill="none" xmlns="http://www.w3.org/2000/svg">
<path d="M64.8406 22.4313V4.76006L58.7183 8.28504V22.4313H64.8406Z" stroke="#231F20" stroke-width="7" stroke-miterlimit="10" stroke-linecap="round" stroke-linejoin="round"/>
<path d="M69.9205 57.1496H55.6814C54.3595 57.1496 53.2695 56.0596 53.2695 54.7378V24.8451C53.2695 23.5232 54.3595 22.4332 55.6814 22.4332H69.9205C71.2423 22.4332 72.3323 23.5232 72.3323 24.8451V54.7378C72.3323 56.0596 71.2655 57.1496 69.9205 57.1496Z" fill="#231F20"/>
<path d="M65.2822 4.76006L81.7244 8.35461V22.4313" stroke="#231F20" stroke-width="7.9309" stroke-miterlimit="10" stroke-linecap="round" stroke-linejoin="round"/>
<path d="M68.7368 9.37516C72.0067 10.0709 75.2534 10.7434 78.5233 11.4391" stroke="#231F20" stroke-width="6" stroke-miterlimit="10" stroke-linecap="round" stroke-linejoin="round"/>
<path d="M68.7368 11.6492C72.0067 12.3449 75.2534 13.0175 78.5233 13.7132" stroke="#231F20" stroke-width="6" stroke-miterlimit="10" stroke-linecap="round" stroke-linejoin="round"/>
<path d="M68.7368 14.0613C72.0067 14.757 75.2534 15.4295 78.5233 16.1253" stroke="#231F20" stroke-width="6" stroke-miterlimit="10" stroke-linecap="round" stroke-linejoin="round"/>
<path d="M76.0661 21.7609L72.0773 21.4594C71.6367 21.4362 71.312 21.042 71.3584 20.6013L71.3816 20.2071C71.4048 19.7665 71.7991 19.4418 72.2397 19.4882L76.2285 19.7897C76.6691 19.8128 76.9938 20.2071 76.9474 20.6477L76.9242 21.042C76.8778 21.4594 76.5068 21.7841 76.0661 21.7609Z" fill="#231F20"/>
<path d="M80.2633 22.9894L89.6787 21.6211C89.6787 21.6211 91.2325 21.3196 91.4412 22.6415L93.6676 22.4328C93.6676 22.4328 94.5952 22.456 94.8271 23.2908C94.8271 23.2908 94.8039 23.6387 95.7547 23.4995L97.6795 23.2213C97.6795 23.2213 98.4448 23.2908 98.6304 24.1257H100.764C100.764 24.1257 101.39 24.6359 100.602 25.1925L98.8855 25.3548C98.8855 25.3548 98.7231 25.4939 98.7231 25.9346C98.7231 25.9346 98.4912 27.3028 97.3085 27.21L95.3605 27.5579C95.3605 27.5579 95.1286 29.1117 93.9922 29.1117L91.7195 29.4595C91.7195 29.4595 91.5108 31.338 90.8847 31.4076C90.8847 31.4076 90.4672 32.0337 88.1714 32.0337L87.9626 35.8138C87.9626 35.8138 87.8235 36.6718 86.8031 36.811L85.4581 37.0197C85.4581 37.0197 84.6696 39.6634 85.9682 40.2432C85.9682 40.2432 86.2001 40.9389 88.6816 41.4027C88.6816 41.4027 90.7919 41.8202 90.6296 44.3479V48.6846C90.6296 48.6846 90.6991 50.0296 88.983 49.9601H76.5064C76.5064 49.9601 75.3005 49.9369 75.5788 47.038C75.5788 47.038 75.4397 42.8405 76.089 42.8173C76.089 42.8173 76.4832 42.2376 76.9239 42.0984C76.9239 42.0984 77.0398 38.4111 77.5036 37.9473C77.5036 37.9473 78.8487 33.9585 78.2921 33.3324L76.3673 30.7814L76.2745 26.4911C76.2745 26.4911 76.7152 23.4995 80.2633 22.9894Z" fill="#231F20"/>
<path d="M80.9825 49.9593C80.9825 49.9593 77.0401 59.7225 69.4104 64.8245C69.4104 64.8245 64.6099 68.4654 62.8242 68.8365V71.2715C62.8242 71.2715 69.967 68.1408 73.7934 63.8737C73.7934 63.8737 79.6375 59.0036 83.2784 49.9361C86.8962 40.8917 80.9825 49.9593 80.9825 49.9593Z" fill="#231F20"/>
<path d="M43.1817 72.083C43.1817 72.083 32.9314 71.3177 24.5363 64.1981C24.5363 64.1981 17.8342 58.7252 15.6775 53.3681H13.4512C13.4512 53.3681 17.8342 65.4041 32.6763 71.2713C32.6763 71.2713 39.4711 74.3556 43.1817 74.402" fill="#231F20"/>
<path d="M1.41486 51.8139L6.60958 52.9502C6.60958 52.9502 7.67635 53.2981 10.0418 53.2517H32.7455C32.7455 53.2517 33.3717 54.4112 34.624 54.1098L37.917 54.1561C37.917 54.1561 38.5432 54.0402 38.636 53.3909H40.7927C40.7927 53.3909 42.3001 52.9734 42.3001 51.3269V32.7512C42.3001 32.7512 42.6016 30.5481 39.494 30.6872L7.86187 30.4553L2.08739 31.2206C2.08739 31.2206 0.208942 31.6612 0.162561 33.2846V49.9123C0.162561 49.8891 -0.0693476 50.979 1.41486 51.8139Z" fill="#231F20"/>
<path d="M13.4736 29.6919C13.4736 29.6919 13.1026 30.434 13.636 30.4572L15.6767 30.4804H11.0618C11.7343 26.9322 14.0998 21.6216 14.0998 21.6216C14.4013 20.3925 11.9894 19.3489 11.9894 19.3489C9.97183 18.7228 8.99782 14.7572 8.99782 14.7572C8.95144 11.7656 11.0618 9.65522 11.0618 9.65522C12.2445 8.17102 12.7547 9.60884 12.7547 9.60884L13.0562 11.3713C13.3577 14.4557 14.2389 13.8991 14.2389 13.8991L16.3261 13.9455L17.2769 12.7628L16.3493 9.2146C16.1406 7.56807 17.9031 8.54207 17.9031 8.54207C21.6136 9.51608 22.2397 14.2702 22.2397 14.2702C22.402 16.5428 21.2425 17.8183 21.2425 17.8183C19.7351 19.5112 20.5004 21.0186 20.5004 21.0186L23.0282 30.4804L16.9754 30.5036C16.9059 30.2253 15.8159 25.1466 15.1202 24.474L13.4736 29.6919Z" fill="#231F20"/>
<path d="M36.0157 30.6421C36.0157 30.6421 35.923 27.0707 35.5055 26.0271V24.8212L36.2708 23.8704V21.4354C36.2708 21.4354 36.0389 20.2758 34.2764 20.3686V10.6054L34.9722 8.37905L34.6707 3.43944C34.6707 3.43944 34.5315 2.02481 32.9778 2.37267H31.1225C31.1225 2.37267 30.1949 2.3031 30.0325 6.31508V9.00519C30.0325 9.00519 30.4036 9.93282 30.4036 11.1387V20.415C30.4036 20.415 28.5251 20.5078 28.4556 21.8296V23.6153L29.244 24.8212L28.6643 28.3694L28.4556 30.6189" fill="#231F20"/>
<path d="M21.6602 12.1356C21.6602 12.1356 27.3419 7.21915 30.0088 6.31472C30.0088 6.31472 37.453 2.04764 46.5438 2.00126C46.5438 2.00126 55.6114 1.83892 62.4062 5.20156L60.0408 6.593C60.0408 6.593 53.0836 3.04484 40.9316 4.76094C40.9316 4.76094 32.4207 6.17557 25.7881 11.4167L22.2863 14.1995L21.6602 12.1356Z" fill="#231F20"/>
<path d="M43.5986 13.7132H43.158L42.5086 14.3626H40.4215C40.4215 14.3626 39.4011 14.4321 39.5634 12.229V10.0955C39.5634 10.0955 39.5402 9.19105 41.7897 9.14467C41.7897 9.14467 43.0884 8.91276 43.158 10.0955H43.8073V8.68086C43.8073 8.68086 44.2943 7.66047 45.5698 7.66047C45.5698 7.66047 51.1588 7.8228 53.4778 9.65486C53.4778 9.65486 56.6086 13.0639 56.539 14.7104C56.539 14.7104 56.6086 16.1946 55.2635 15.3598C55.2635 15.3598 52.1096 12.3218 51.2051 12.6928C51.2051 12.6928 49.6514 12.7392 49.8369 14.2234L49.3963 14.7336L50.092 40.1969C50.092 40.1969 50.2311 42.0754 48.3063 42.3073H45.7553C45.7553 42.3073 43.4826 42.1681 43.9001 39.3853L44.8277 14.8959C44.8045 14.8728 43.6913 15.151 43.5986 13.7132Z" fill="#231F20"/>
<path d="M88.8673 45.5063H77.5271C77.3647 45.5063 77.2256 45.3672 77.2256 45.2048V43.9989C77.2256 43.8366 77.3647 43.6974 77.5271 43.6974H88.8673C89.0296 43.6974 89.1688 43.8366 89.1688 43.9989V45.2048C89.1688 45.3672 89.0296 45.5063 88.8673 45.5063Z" fill="#FF9D00"/>
<path d="M89.864 23.6608C89.864 23.6608 90.0495 22.8724 88.4493 23.2434L79.5441 24.6812C79.5441 24.6812 77.8743 24.9363 77.9671 27.4177V30.2006L79.8456 33.0067C79.8456 33.0067 80.3326 33.7024 79.5209 35.7664L78.4309 39.8015V42.1902H85.4113C85.4113 42.1902 85.8056 42.1206 85.0867 41.6336C85.0867 41.6336 83.5561 40.3117 83.7184 39.2681L84.6692 33.8647L84.9707 32.3805C84.9707 32.3805 85.3418 31.1746 87.1506 30.9659L89.4697 30.5253C89.4697 30.5253 90.3046 30.3861 90.235 29.273L89.864 23.6608ZM82.2342 29.8527L79.66 30.0615C79.5441 30.0615 79.4281 29.9687 79.4049 29.8527L79.3817 29.4585C79.3817 29.3426 79.4745 29.2266 79.5905 29.2034L82.1646 28.9947C82.2806 28.9947 82.3965 29.0875 82.4197 29.2034L82.4429 29.5976C82.4429 29.7368 82.3502 29.8527 82.2342 29.8527ZM82.2342 27.7888L79.66 27.9975C79.5441 27.9975 79.4281 27.9047 79.4049 27.7888L79.3817 27.3945C79.3817 27.2786 79.4745 27.1626 79.5905 27.1394L82.1646 26.9307C82.2806 26.9307 82.3965 27.0235 82.4197 27.1394L82.4429 27.5337C82.4429 27.6728 82.3502 27.7888 82.2342 27.7888Z" fill="#FF9D00"/>
<path d="M95.2217 24.6811L95.2912 26.374L97.3552 26.1189V24.3796L95.2217 24.6811Z" fill="#414042"/>
<path d="M69.8962 24.1477H56.0282C54.544 23.9854 54.8455 25.2609 54.8455 25.2609L54.8223 34.8618H70.7775V25.5392C70.8702 24.0781 69.8962 24.1477 69.8962 24.1477ZM61.0838 28.5539C61.0142 29.0641 60.5736 29.1801 60.5736 29.1801H57.7675V31.9862C57.582 32.5891 56.9558 32.4964 56.9558 32.4964C56.4456 32.4268 56.3297 31.9862 56.3297 31.9862V27.7655H57.7443H60.5504C61.1997 27.9278 61.0838 28.5539 61.0838 28.5539Z" fill="#FF9D00"/>
<path d="M54.8223 36.5784H70.6615V54.2729C70.6615 54.2729 70.7311 55.618 69.2701 55.3629H55.518C55.518 55.3629 54.5672 55.2237 54.8223 53.3685V36.5784Z" fill="#FF9D00"/>
<path d="M56.5166 39.1519V45.2046" stroke="#231F20" stroke-width="6" stroke-miterlimit="10" stroke-linecap="round" stroke-linejoin="round"/>
<path d="M46.219 14.7801H47.6336L48.7932 39.5245C48.7932 39.5245 48.8164 40.8232 48.0279 40.8232H46.219C46.219 40.8232 44.9899 41.1247 45.4537 38.3418L46.219 14.7801Z" fill="#FF9D00"/>
<path d="M40.6772 10.6743L42.0223 10.3264V13.1093L40.8164 13.318L40.6772 10.6743Z" fill="#414042"/>
<path d="M31.6786 3.74086C31.6786 3.74086 31.1916 6.94116 31.1221 7.66007C31.1221 7.66007 31.2612 9.30661 31.6786 9.86318L31.8874 10.7676V20.2062H32.7454V10.8372L33.5107 8.23984C33.5107 8.23984 33.673 7.19626 33.5107 6.73245L33.1397 3.78723H31.6786V3.74086Z" fill="#FF9D00"/>
<path d="M29.6841 21.8767H34.8788V23.3609C34.8788 23.3609 33.928 24.103 33.9744 24.961C33.9744 24.961 33.9512 27.025 34.6005 28.4628V30.434H32.8148V27.0018C32.8148 27.0018 32.351 26.4684 31.8176 27.0018V30.434H29.916V28.6947C29.916 28.6947 30.6349 26.5148 30.6117 25.2393C30.6117 25.2393 30.8436 23.9175 29.6841 23.4537V21.8767Z" fill="#FF9D00"/>
<path d="M28.5707 36.5084H12.3604V47.0833H28.5707V36.5084Z" fill="#00AEEF"/>
<path d="M32.9308 31.7088H8.74287C8.46458 31.7088 8.25586 31.9407 8.25586 32.1958V51.2585C8.25586 51.5367 8.48777 51.7455 8.74287 51.7455H32.9308C33.209 51.7455 33.4178 51.5136 33.4178 51.2585V32.1958C33.441 31.9407 33.209 31.7088 32.9308 31.7088ZM30.6813 47.919C30.6813 48.4756 30.2406 48.9162 29.6841 48.9162H11.5489C10.9924 48.9162 10.5517 48.4756 10.5517 47.919V35.4193C10.5517 34.8627 10.9924 34.4221 11.5489 34.4221H29.6841C30.2406 34.4221 30.6813 34.8627 30.6813 35.4193V47.919Z" fill="white"/>
<path d="M40.9778 50.3996V33.6096C40.9778 33.6096 41.1401 32.0326 39.1921 32.1022H34.6235V51.791H40.0502C40.0502 51.7678 41.0937 51.9534 40.9778 50.3996ZM39.5168 48.8226C39.5168 49.0545 39.3312 49.2401 39.0993 49.2401H36.1773C35.9454 49.2401 35.7599 49.0545 35.7599 48.8226V48.498C35.7599 48.2661 35.9454 48.0805 36.1773 48.0805H39.0993C39.3312 48.0805 39.5168 48.2661 39.5168 48.498V48.8226ZM39.5168 46.2021C39.5168 46.434 39.3312 46.6195 39.0993 46.6195H36.1773C35.9454 46.6195 35.7599 46.434 35.7599 46.2021V45.8774C35.7599 45.6455 35.9454 45.46 36.1773 45.46H39.0993C39.3312 45.46 39.5168 45.6455 39.5168 45.8774V46.2021ZM36.4556 42.7467C36.7803 42.7467 37.0586 43.0018 37.0586 43.3497C37.0586 43.6743 36.8035 43.9526 36.4556 43.9526C36.1077 43.9526 35.8526 43.6975 35.8526 43.3497C35.8526 43.025 36.1077 42.7467 36.4556 42.7467ZM35.8526 40.6595C35.8526 40.3349 36.1077 40.0566 36.4556 40.0566C36.8035 40.0566 37.0586 40.3117 37.0586 40.6595C37.0586 40.9842 36.8035 41.2625 36.4556 41.2625C36.1077 41.2625 35.8526 40.9842 35.8526 40.6595ZM39.1457 43.9294C38.8211 43.9294 38.5428 43.6743 38.5428 43.3265C38.5428 43.0018 38.7979 42.7235 39.1457 42.7235C39.4704 42.7235 39.7487 42.9786 39.7487 43.3265C39.7487 43.6743 39.4704 43.9294 39.1457 43.9294ZM39.1457 41.2625C38.8211 41.2625 38.5428 41.0074 38.5428 40.6595C38.5428 40.3349 38.7979 40.0566 39.1457 40.0566C39.4704 40.0566 39.7487 40.3117 39.7487 40.6595C39.7487 40.9842 39.4704 41.2625 39.1457 41.2625ZM39.7487 37.6216C39.7487 37.8767 39.54 38.1086 39.2617 38.1086H36.2005C35.9454 38.1086 35.7135 37.8999 35.7135 37.6216V36.0678C35.7135 35.8127 35.9222 35.5808 36.2005 35.5808H39.2617C39.5168 35.5808 39.7487 35.7895 39.7487 36.0678V37.6216Z" fill="white"/>
<path d="M6.35385 32.0803V50.9343L2.20272 50.2154C2.20272 50.2154 1.43742 50.0763 1.71571 48.0123V33.9588C1.71571 33.9588 1.507 32.5442 2.80568 32.5442L6.35385 32.0803Z" fill="white"/>
<path d="M11.6424 10.8591L12.3613 14.5928C12.3613 14.5928 12.5932 15.3813 14.147 15.2421C14.147 15.2421 15.9095 15.5204 16.1414 15.4508C16.1414 15.4508 17.8343 14.8015 18.6228 13.3173C18.6228 13.3173 18.9243 13.2477 18.3909 11.3925L17.9502 9.69956C17.9502 9.69956 18.9474 10.1866 19.7823 11.4157C19.7823 11.4157 21.4752 13.5028 20.6404 15.4508C20.6404 15.4508 20.2925 17.051 19.2025 18.1873C19.2025 18.1873 18.5068 19.486 19.1793 21.2021L21.452 30.2001H20.5244L18.5996 22.6863C18.5996 22.6863 18.5764 21.5964 17.5096 21.8515C17.5096 21.8515 17.2081 22.4776 17.7879 23.7067L19.4344 30.2001H18.5764L16.3965 22.2921C16.3965 22.2921 16.0486 20.1354 14.2165 19.0686C14.2165 19.0686 11.7351 18.0946 11.2017 16.448C11.2017 16.448 10.5524 15.9378 10.4133 14.013C10.3437 14.0362 10.5292 12.1346 11.6424 10.8591Z" fill="white"/>
<path d="M60.2723 60.1867H56.7705V84.0499H60.2723V60.1867Z" fill="#231F20"/>
<path d="M57.2934 90.28L56.2494 87.544C58.6734 86.776 60.5334 85.852 61.8294 84.772C63.1494 83.716 64.0494 82.612 64.5294 81.46C65.0334 80.308 65.2854 79.204 65.2854 78.148C65.2854 77.476 65.2134 76.828 65.0694 76.204C64.9254 75.58 64.6734 74.872 64.3134 74.08C63.9534 73.288 63.4494 72.304 62.8014 71.128L65.4294 69.796C66.3414 71.356 66.9894 72.832 67.3734 74.224C67.7814 75.616 67.9854 76.84 67.9854 77.896C67.9854 79.408 67.7334 80.776 67.2294 82C66.7494 83.224 66.1014 84.304 65.2854 85.24C64.4934 86.2 63.6174 87.016 62.6574 87.688C61.7214 88.36 60.7734 88.912 59.8134 89.344C58.8774 89.776 58.0374 90.088 57.2934 90.28Z" fill="#231F20"/>
<path d="M38.3802 79.5503V76.1876C38.3802 74.8426 37.6381 74.1701 36.1771 74.1701H30.4258V76.837H34.3218C35.1335 76.837 35.5277 77.2544 35.5277 78.0661V79.5503H30.4258V82.2636H40.0035V79.5503H38.3802Z" fill="#231F20"/>
<path d="M53.2462 70.7385C52.9679 70.4602 52.6664 70.321 52.2722 70.321C51.9011 70.321 51.5765 70.4602 51.2982 70.7385C51.0199 71.0168 50.904 71.3414 50.904 71.7125C50.904 72.0835 51.0431 72.4082 51.2982 72.6865C51.5533 72.9648 51.878 73.1039 52.2722 73.1039C52.6432 73.1039 52.9679 72.9648 53.2462 72.6865C53.5245 72.4082 53.6405 72.0835 53.6405 71.7125C53.6405 71.3414 53.5013 70.9936 53.2462 70.7385ZM49.9299 69.9964C49.6517 69.7413 49.327 69.6021 48.9559 69.6021C48.5849 69.6021 48.2602 69.7413 47.9819 69.9964C47.7036 70.2747 47.5877 70.5761 47.5877 70.9704C47.5877 71.3414 47.7268 71.6661 47.9819 71.9444C48.2602 72.2227 48.5617 72.3618 48.9559 72.3618C49.3502 72.3618 49.6748 72.2227 49.9299 71.9676C50.2082 71.6893 50.3242 71.3646 50.3242 70.9936C50.3474 70.5761 50.2082 70.2515 49.9299 69.9964ZM46.4977 71.1559C46.2194 70.8776 45.8948 70.7385 45.5237 70.7385C45.1527 70.7385 44.828 70.8776 44.5497 71.1559C44.2714 71.4342 44.1555 71.7589 44.1555 72.1299C44.1555 72.501 44.2946 72.8256 44.5497 73.1039C44.8048 73.3822 45.1295 73.5214 45.5237 73.5214C45.918 73.5214 46.2194 73.3822 46.4977 73.1039C46.776 72.8256 46.9152 72.501 46.9152 72.1299C46.9152 71.7589 46.776 71.411 46.4977 71.1559ZM52.9447 74.1939V78.3218C52.9447 79.1335 52.5273 79.5509 51.7156 79.5509H50.4169V74.1939H47.6573V79.5509H45.1758V74.1939H43.854C43.854 74.2866 43.8308 75.7245 42.393 75.7476V79.5509H39.3086V82.2642H52.8984C54.7768 82.2642 55.7044 81.3598 55.7044 79.5509V74.1939H52.9447Z" fill="#231F20"/>
<path d="M53.2462 70.7385C52.9679 70.4602 52.6664 70.321 52.2722 70.321C51.9011 70.321 51.5765 70.4602 51.2982 70.7385C51.0199 71.0168 50.904 71.3414 50.904 71.7125C50.904 72.0835 51.0431 72.4082 51.2982 72.6865C51.5533 72.9648 51.878 73.1039 52.2722 73.1039C52.6432 73.1039 52.9679 72.9648 53.2462 72.6865C53.5245 72.4082 53.6405 72.0835 53.6405 71.7125C53.6405 71.3414 53.5013 70.9936 53.2462 70.7385ZM49.9299 69.9964C49.6517 69.7413 49.327 69.6021 48.9559 69.6021C48.5849 69.6021 48.2602 69.7413 47.9819 69.9964C47.7036 70.2747 47.5877 70.5761 47.5877 70.9704C47.5877 71.3414 47.7268 71.6661 47.9819 71.9444C48.2602 72.2227 48.5617 72.3618 48.9559 72.3618C49.3502 72.3618 49.6748 72.2227 49.9299 71.9676C50.2082 71.6893 50.3242 71.3646 50.3242 70.9936C50.3474 70.5761 50.2082 70.2515 49.9299 69.9964ZM46.4977 71.1559C46.2194 70.8776 45.8948 70.7385 45.5237 70.7385C45.1527 70.7385 44.828 70.8776 44.5497 71.1559C44.2714 71.4342 44.1555 71.7589 44.1555 72.1299C44.1555 72.501 44.2946 72.8256 44.5497 73.1039C44.8048 73.3822 45.1295 73.5214 45.5237 73.5214C45.918 73.5214 46.2194 73.3822 46.4977 73.1039C46.776 72.8256 46.9152 72.501 46.9152 72.1299C46.9152 71.7589 46.776 71.411 46.4977 71.1559ZM52.9447 74.1939V78.3218C52.9447 79.1335 52.5273 79.5509 51.7156 79.5509H50.4169V74.1939H47.6573V79.5509H45.1758V74.1939H43.854C43.854 74.2866 43.8308 75.7245 42.393 75.7476V79.5509H39.3086V82.2642H52.8984C54.7768 82.2642 55.7044 81.3598 55.7044 79.5509V74.1939H52.9447Z" fill="#231F20"/>
</svg>
