<svg width="14" height="15" viewBox="0 0 14 15" fill="none" xmlns="http://www.w3.org/2000/svg">
<path d="M9 7.50033H3M3 7.50033L4.33333 8.83366M3 7.50033L4.33333 6.16699" stroke="#FF0000" stroke-width="1.5" stroke-linecap="round" stroke-linejoin="round"/>
<path d="M7 14.156C5.96467 14.1247 5.34667 14.0093 4.91933 13.5813C4.40667 13.0693 4.34267 12.284 4.33467 10.834M9.66667 14.166C11.1167 14.158 11.902 14.094 12.414 13.5813C13 12.996 13 12.0527 13 10.1673V4.83398C13 2.94865 13 2.00532 12.414 1.41998C11.8287 0.833984 10.8853 0.833984 9 0.833984H8.33333C6.448 0.833984 5.50467 0.833984 4.91933 1.41998C4.40667 1.93198 4.34267 2.71732 4.33467 4.16732M1 5.83398V9.16732C1 10.7387 1 11.524 1.488 12.0127C1.976 12.5013 2.762 12.5007 4.33333 12.5007M1.488 2.98865C1.976 2.50065 2.762 2.50065 4.33333 2.50065" stroke="#FF0000" stroke-width="1.5" stroke-linecap="round"/>
</svg>
