<svg width="24" height="24" viewBox="0 0 24 24" fill="none" xmlns="http://www.w3.org/2000/svg">
<path d="M21.2501 9.5H19.7501M4.25006 9.5H5.75006M12.7501 1V2.5M6.73956 3.49L7.79956 4.551M18.7601 3.49L17.6991 4.551M13.4056 6.2135C8.99606 10.0625 4.24856 14.9035 2.56206 16.6485C2.16706 17.057 2.04106 17.6525 2.26856 18.1725C2.39256 18.455 2.53906 18.7635 2.69056 19.026C2.84206 19.2885 3.03606 19.5695 3.21906 19.818C3.55506 20.2755 4.13406 20.4635 4.68506 20.326C7.03956 19.7375 13.6061 18.047 19.1441 16.153" stroke="#F36B14" stroke-width="1.5" stroke-linecap="round" stroke-linejoin="round"/>
<path d="M10.8061 8.5963C10.8061 8.5963 11.8516 9.6423 13.6241 12.7123C15.3966 15.7823 15.7796 17.2108 15.7796 17.2108M11.3481 18.6783L11.6451 19.7873C11.7231 20.0785 11.743 20.3822 11.7037 20.6811C11.6643 20.98 11.5664 21.2682 11.4157 21.5293C11.2649 21.7904 11.0642 22.0192 10.825 22.2027C10.5858 22.3862 10.3128 22.5208 10.0216 22.5988C9.73043 22.6768 9.42671 22.6967 9.12782 22.6573C8.82893 22.6179 8.54072 22.5201 8.27965 22.3693C8.01858 22.2186 7.78975 22.0179 7.60625 21.7787C7.42274 21.5395 7.28814 21.2665 7.21013 20.9753L6.96313 20.0513M13.0231 5.5498C13.0231 5.5498 14.2216 6.8603 16.6061 10.9908C18.9906 15.1213 19.5266 16.8143 19.5266 16.8143" stroke="#F36B14" stroke-width="1.5" stroke-linecap="round" stroke-linejoin="round"/>
</svg>
