<svg width="18" height="17" viewBox="0 0 18 17" fill="none" xmlns="http://www.w3.org/2000/svg">
<path d="M9.252 15.006C9.8849 14.9627 10.5125 14.8617 11.127 14.704C11.886 14.9322 12.687 14.9838 13.469 14.855C13.5002 14.8512 13.5316 14.8489 13.563 14.848C13.842 14.848 14.208 15.008 14.742 15.345V14.791C14.7422 14.6945 14.7683 14.5998 14.8176 14.5168C14.8668 14.4338 14.9374 14.3655 15.022 14.319C15.2547 14.1877 15.4697 14.04 15.667 13.876C16.445 13.226 16.884 12.358 16.884 11.44C16.884 11.137 16.836 10.835 16.741 10.547C16.977 10.113 17.165 9.66001 17.305 9.18801C17.755 9.85301 17.997 10.638 18 11.44C18 12.688 17.412 13.852 16.393 14.703C16.2223 14.845 16.044 14.9757 15.858 15.095V16.393C15.858 16.839 15.336 17.096 14.968 16.83C14.6193 16.5734 14.2589 16.3332 13.888 16.11C13.7808 16.0482 13.67 15.9931 13.556 15.945C13.2464 15.9908 12.9339 16.0139 12.621 16.014C11.351 16.014 10.177 15.637 9.252 15.006ZM2.531 12.411C0.927 11.068 0 9.23701 0 7.27501C0 3.26701 3.832 0.0620117 8.511 0.0620117C13.191 0.0620117 17.024 3.26601 17.024 7.27501C17.024 11.283 13.191 14.487 8.511 14.487C7.985 14.487 7.46667 14.447 6.956 14.367C6.736 14.418 5.854 14.935 4.584 15.85C4.124 16.182 3.472 15.862 3.472 15.303V13.09C3.14262 12.8864 2.82846 12.6591 2.532 12.41M6.987 13.002C7.02567 13.002 7.06467 13.005 7.104 13.011C7.564 13.087 8.033 13.1253 8.511 13.126C12.464 13.126 15.627 10.481 15.627 7.27401C15.627 4.06801 12.464 1.42301 8.512 1.42301C4.56 1.42301 1.395 4.07001 1.395 7.27501C1.395 8.82501 2.135 10.285 3.441 11.378C3.77033 11.6527 4.129 11.8993 4.517 12.118C4.62225 12.1764 4.71011 12.2617 4.7716 12.3652C4.83309 12.4687 4.86601 12.5866 4.867 12.707V13.983C5.872 13.318 6.533 13.002 6.987 13.002Z" fill="#F36B14"/>
</svg>
