<svg width="20" height="20" viewBox="0 0 20 20" fill="none" xmlns="http://www.w3.org/2000/svg">
<path fill-rule="evenodd" clip-rule="evenodd" d="M14.6278 13.422C14.8103 13.3307 15.0199 13.3095 15.217 13.3625C15.4141 13.4155 15.5848 13.539 15.6969 13.7095L15.7453 13.7945L17.4119 17.1278C17.4714 17.2467 17.5016 17.3781 17.4999 17.511C17.4983 17.6439 17.4649 17.7745 17.4025 17.8918C17.3401 18.0092 17.2505 18.1099 17.1413 18.1856C17.032 18.2613 16.9062 18.3098 16.7744 18.327L16.6669 18.3337H3.3336C3.20066 18.3337 3.06964 18.3019 2.95147 18.241C2.83331 18.1801 2.73144 18.0918 2.65436 17.9835C2.57728 17.8752 2.52724 17.75 2.5084 17.6184C2.48957 17.4868 2.5025 17.3526 2.5461 17.227L2.58777 17.127L4.25444 13.7937C4.34785 13.6006 4.51212 13.4509 4.71307 13.3759C4.91401 13.3009 5.13615 13.3062 5.33326 13.3908C5.53037 13.4754 5.68727 13.6327 5.7713 13.8301C5.85534 14.0274 5.86004 14.2496 5.78444 14.4503L5.74527 14.5395L4.68194 16.667H15.3186L14.2553 14.5395C14.1566 14.3419 14.1404 14.1132 14.2102 13.9036C14.2801 13.6941 14.4303 13.5209 14.6278 13.422ZM10.0003 1.66699C11.5474 1.66699 13.0311 2.28157 14.1251 3.37554C15.219 4.4695 15.8336 5.95323 15.8336 7.50033C15.8336 9.48533 14.7594 11.0978 13.6478 12.242C13.0338 12.8658 12.3587 13.4264 11.6328 13.9153L11.3219 14.1203L11.0453 14.2945L10.9211 14.3695L10.7069 14.4928C10.2669 14.7428 9.7336 14.7428 9.2936 14.4928L9.07944 14.3687L8.8211 14.2112L8.6786 14.1203L8.36777 13.9153C7.64182 13.4264 6.96677 12.8658 6.35277 12.242C5.2411 11.0978 4.16694 9.48533 4.16694 7.50033C4.16694 5.95323 4.78152 4.4695 5.87548 3.37554C6.96944 2.28157 8.45317 1.66699 10.0003 1.66699ZM10.0003 3.33366C8.8952 3.33366 7.83539 3.77265 7.05399 4.55405C6.27259 5.33545 5.8336 6.39526 5.8336 7.50033C5.8336 8.86366 6.57527 10.0795 7.54777 11.0803C8.13274 11.6712 8.77919 12.1978 9.4761 12.6512L9.75944 12.832C9.84721 12.8859 9.92749 12.9342 10.0003 12.977L10.2419 12.832L10.5244 12.6512C11.2213 12.1978 11.8678 11.6712 12.4528 11.0803C13.4253 10.0803 14.1669 8.86366 14.1669 7.50033C14.1669 6.39526 13.7279 5.33545 12.9465 4.55405C12.1651 3.77265 11.1053 3.33366 10.0003 3.33366ZM10.0003 5.00033C10.6633 5.00033 11.2992 5.26372 11.768 5.73256C12.2369 6.2014 12.5003 6.83728 12.5003 7.50033C12.5003 8.16337 12.2369 8.79925 11.768 9.26809C11.2992 9.73693 10.6633 10.0003 10.0003 10.0003C9.33723 10.0003 8.70134 9.73693 8.2325 9.26809C7.76366 8.79925 7.50027 8.16337 7.50027 7.50033C7.50027 6.83728 7.76366 6.2014 8.2325 5.73256C8.70134 5.26372 9.33723 5.00033 10.0003 5.00033ZM10.0003 6.66699C9.77926 6.66699 9.56729 6.75479 9.41101 6.91107C9.25473 7.06735 9.16694 7.27931 9.16694 7.50033C9.16694 7.72134 9.25473 7.9333 9.41101 8.08958C9.56729 8.24586 9.77926 8.33366 10.0003 8.33366C10.2213 8.33366 10.4332 8.24586 10.5895 8.08958C10.7458 7.9333 10.8336 7.72134 10.8336 7.50033C10.8336 7.27931 10.7458 7.06735 10.5895 6.91107C10.4332 6.75479 10.2213 6.66699 10.0003 6.66699Z" fill="#F36B14"/>
</svg>
