<svg width="48" height="48" viewBox="0 0 48 48" fill="none" xmlns="http://www.w3.org/2000/svg">
<path d="M38.2154 30.6461C38.2154 39.2308 31.2 46.2461 22.6154 46.2461C14.0308 46.2461 7.01538 39.2308 7.01538 30.6461C7.01538 22.0615 14.0308 15.0461 22.6154 15.0461C31.2 15.0461 38.2154 22.0615 38.2154 30.6461Z" fill="#DAEAF8"/>
<path opacity="0.1" d="M10.6155 40.6155C12.0001 41.8155 13.6616 42.7385 15.5078 43.3847C23.6309 46.1539 32.5847 41.8155 35.3539 33.6924C37.2001 28.3385 36.0001 22.7078 32.5847 18.6462C37.3847 22.7078 39.5078 29.3539 37.3847 35.7232C34.6155 43.8462 25.6616 48.1847 17.5386 45.4155C14.677 44.4001 12.3693 42.7385 10.6155 40.6155Z" fill="#010101"/>
<path opacity="0.1" d="M32.4924 18.8308C32.5847 18.8308 32.677 18.7385 32.7693 18.7385C33.1385 19.1078 33.5077 19.477 33.877 19.8462C34.8924 20.8616 35.7231 22.0616 36.4616 23.3539C36 24.277 35.077 24.8308 33.9693 24.9231C30.1847 25.2001 29.1693 20.1231 32.4924 18.8308ZM27.0462 45.5078V45.6001C26.677 45.6924 26.3077 45.7847 25.9385 45.877C23.8154 46.3385 21.5077 46.3385 19.2 45.877C18.7385 44.9539 18.6462 43.8462 19.0154 42.7385C19.2924 41.8154 19.8462 41.1693 20.5847 40.6154C23.8154 38.1231 28.4308 41.6308 27.0462 45.5078Z" fill="#010101"/>
<path opacity="0.1" d="M26.4924 33.9692C28.1238 33.9692 29.4463 32.6467 29.4463 31.0154C29.4463 29.384 28.1238 28.0615 26.4924 28.0615C24.8611 28.0615 23.5386 29.384 23.5386 31.0154C23.5386 32.6467 24.8611 33.9692 26.4924 33.9692Z" fill="#010101"/>
<path opacity="0.1" d="M20.1232 19.2924C19.1078 18.9232 17.9078 19.477 17.5386 20.5847C16.7078 23.077 20.4924 24.3693 21.3232 21.877C21.7847 20.8616 21.2309 19.6616 20.1232 19.2924ZM37.477 33.1385C37.477 33.1385 37.5693 33.1385 37.5693 33.2308C37.6616 33.2308 37.8463 33.3232 37.9386 33.4155C37.8463 34.1539 37.5693 34.9847 37.3847 35.7232C37.1078 36.4616 36.8309 37.1078 36.5539 37.7539C36.5539 37.8462 36.4616 37.8462 36.4616 37.9385C36.277 37.9385 36.0924 37.8462 36.0001 37.8462C34.4309 37.2924 34.0616 35.4462 34.5232 34.5232C34.6155 34.3385 34.7078 34.2462 34.8001 34.0616C35.354 33.2308 36.4616 32.8616 37.477 33.1385ZM10.2463 21.0462C11.8155 21.6001 12.6463 23.2616 12.0924 24.8308C11.9078 25.3847 11.5386 25.8462 11.1693 26.2155C10.0616 27.1385 8.58472 27.0462 7.56934 26.3078C7.66164 26.0308 7.75395 25.8462 7.75395 25.5693C7.84626 25.3847 7.93857 25.1078 7.93857 24.9232C8.58472 23.5385 9.32318 22.2462 10.2463 21.0462ZM10.3386 40.2462C9.41549 39.1385 8.67703 37.8462 8.21549 36.5539C8.86164 35.4462 9.96934 34.9847 11.077 35.2616C14.1232 36.0001 13.3847 40.4308 10.3386 40.2462Z" fill="#010101"/>
<path opacity="0.1" d="M11.2615 35.2615C13.1077 35.9076 13.5692 38.3076 12.0923 39.5999C13.4769 37.1999 10.3384 34.6153 8.12305 36.4615C8.67689 35.4461 10.0615 34.8922 11.2615 35.2615ZM25.9384 45.8769C26.8615 42.5538 23.723 39.6922 20.5846 40.6153C23.6307 38.2153 28.4307 41.4461 27.0461 45.5076V45.5999V45.6922C26.9538 45.6922 26.8615 45.7845 26.7692 45.7845C26.7692 45.7845 26.7692 45.7845 26.6769 45.7845C26.4923 45.8768 26.3077 45.8769 26.123 45.8769C26.0307 45.8769 26.0307 45.8769 25.9384 45.8769ZM27.4154 28.2461C28.9846 28.7999 29.723 30.4615 29.2615 31.9384C28.8923 32.9538 28.0615 33.6922 27.0461 33.8768C27.4154 33.5076 27.6923 33.1384 27.8769 32.6768C28.4307 31.1076 27.6 29.5384 26.0307 28.9845C25.5692 28.7999 25.0154 28.7999 24.5538 28.8922C25.2923 28.1538 26.4 27.8768 27.4154 28.2461ZM20.123 19.2922C21.8769 19.9384 21.9692 22.4307 20.123 23.0768C21.0461 21.9692 20.5846 20.3076 19.2923 19.8461C18.8307 19.6615 18.3692 19.6615 18 19.8461C18.5538 19.2922 19.3846 19.0153 20.123 19.2922Z" fill="#010101"/>
<path opacity="0.1" d="M16.2462 32.2155C16.9599 32.2155 17.5385 31.6369 17.5385 30.9232C17.5385 30.2094 16.9599 29.6309 16.2462 29.6309C15.5324 29.6309 14.9539 30.2094 14.9539 30.9232C14.9539 31.6369 15.5324 32.2155 16.2462 32.2155Z" fill="#010101"/>
<path opacity="0.1" d="M16.7078 29.7231C17.354 30.0001 17.7232 30.6462 17.5386 31.3847C17.4463 31.7539 17.077 32.0308 16.8001 32.2155C16.8924 32.1231 16.9847 31.9385 17.077 31.7539C17.354 31.1078 16.9847 30.3693 16.2463 30.0924C15.9693 30.0001 15.6924 30.0001 15.4155 30.0924C15.6001 29.6308 16.154 29.5385 16.7078 29.7231ZM32.677 18.7385C33.0463 19.1078 33.4155 19.477 33.7847 19.8462H33.6924C31.9386 19.9385 30.6463 21.4154 30.7386 23.1693C29.9078 21.6001 30.7386 19.477 32.4001 18.8308C32.4924 18.8308 32.5847 18.8308 32.677 18.7385ZM37.477 33.1385C37.477 33.1385 37.5693 33.1385 37.5693 33.2308C36.6463 33.3231 35.8155 33.877 35.4463 34.8924C35.077 36.0001 35.5386 37.1078 36.4616 37.7539C36.4616 37.8462 36.3693 37.8462 36.3693 37.9385C36.1847 37.9385 36.0001 37.8462 35.9078 37.8462C34.3386 37.2924 33.9693 35.4462 34.4309 34.5231C34.5232 34.3385 34.6155 34.2462 34.7078 34.0616C35.3539 33.2308 36.4616 32.8616 37.477 33.1385ZM11.1693 26.2154C10.9847 26.3078 9.32318 27.6001 7.56934 26.3078C7.66164 26.0308 7.75395 25.8462 7.75395 25.5693C7.84626 25.3847 7.93857 25.1078 7.93857 24.9231C8.76934 25.9385 9.96934 26.4924 11.1693 26.2154Z" fill="#010101"/>
<g opacity="0.3">
<path d="M34.5232 20.6769C33.1386 19.4769 31.477 18.5538 29.6309 17.9076C14.7693 12.7384 2.58471 30.5538 12.5539 42.6461C7.75395 38.5846 5.63087 31.9384 7.75394 25.5692C10.5232 17.4461 19.477 13.1076 27.6001 15.8769C30.4616 16.7999 32.7693 18.5538 34.5232 20.6769Z" fill="white"/>
</g>
<path d="M40.8923 12.8309C41.2615 13.5694 40.8 14.4925 39.8769 14.4925H31.2C31.0154 14.4925 30.8307 14.4002 30.6461 14.4002C30.2769 14.2155 30.0923 13.8463 30.0923 13.3848V5.354H39.9692C40.8 5.354 41.3538 6.27708 40.9846 7.01554L39.6923 9.41554C39.5077 9.78477 39.5077 10.154 39.6923 10.5232L40.8923 12.8309Z" fill="#70C493"/>
<path opacity="0.1" d="M40.5231 12.8309C40.8924 13.5694 40.4308 14.4925 39.5078 14.4925H38.5847C38.9539 14.2155 39.0462 13.6617 38.7693 13.2002L37.6616 11.0771C37.477 10.8002 37.477 10.4309 37.6616 10.0617L38.8616 7.84631C39.2308 7.20016 38.7693 6.36939 37.9385 6.36939H29.7231V5.354H39.6001C40.4308 5.354 40.9847 6.27708 40.6155 7.01554L39.3231 9.41554C39.1385 9.78477 39.1385 10.154 39.3231 10.5232L40.5231 12.8309Z" fill="#010101"/>
<path d="M34.5231 4.43071V10.9846C34.5231 11.5384 34.0615 11.9999 33.5077 11.9999H26.9539V3.41533H33.5077C34.0615 3.32302 34.5231 3.78456 34.5231 4.43071Z" fill="#70C493"/>
<path opacity="0.1" d="M34.3385 4.43071V10.9846C34.3385 11.5384 33.877 11.9999 33.3231 11.9999H33.1385V5.81533C33.1385 5.26148 32.677 4.79994 32.1231 4.79994H26.7693V3.41533H33.3231C33.877 3.32302 34.3385 3.78456 34.3385 4.43071Z" fill="#010101"/>
<path d="M40.3385 9.96927C40.3385 9.87696 40.3385 9.87697 40.3385 9.78466L41.6308 7.38466C42 6.7385 42 6.00004 41.6308 5.35389C41.2615 4.70773 40.6154 4.3385 39.8769 4.3385H35.4462C35.4462 3.23081 34.5231 2.40004 33.5077 2.40004H27.3231V1.9385C27.3231 1.29235 26.8615 0.830811 26.2154 0.830811C25.6615 0.830811 25.1077 1.38466 25.1077 1.9385V14.3077C24.2769 14.2154 23.3538 14.1231 22.5231 14.1231C13.3846 14.1231 6 21.5077 6 30.6462C6 39.7847 13.3846 47.1693 22.5231 47.1693C31.6615 47.1693 39.0462 39.7847 39.0462 30.6462C39.0462 23.1693 34.0615 16.8923 27.3231 14.8616V12.9231H29.0769V13.477C29.0769 14.2154 29.4462 14.9539 30.0923 15.2308C30.3692 15.4154 30.7385 15.5077 31.1077 15.5077H39.8769C40.6154 15.5077 41.2615 15.1385 41.6308 14.4923C42 13.8462 42 13.1077 41.6308 12.4616L40.3385 9.96927ZM31.0154 12.9231H33.5077C34.6154 12.9231 35.4462 12 35.4462 10.9847V6.36927H39.8769C39.9692 6.36927 40.0615 6.36927 40.0615 6.46158C40.0615 6.55389 40.0615 6.55389 40.0615 6.64619L38.7692 8.95389C38.4 9.60004 38.4 10.3385 38.7692 10.9847L40.0615 13.3847C40.0615 13.477 40.0615 13.477 40.0615 13.5693C40.0615 13.5693 39.9692 13.6616 39.8769 13.6616H31.1077H31.0154C31.0154 13.6616 30.9231 13.5693 30.9231 13.477V12.9231H31.0154ZM27.8769 4.2462H33.5077C33.6 4.2462 33.6 4.3385 33.6 4.3385C33.6 5.90773 33.6 9.23081 33.6 10.8C33.6 10.8923 33.5077 10.8923 33.5077 10.8923C31.3846 10.8923 29.9077 10.8923 27.8769 10.8923V4.2462ZM22.6154 45.3231C14.4923 45.3231 7.93846 38.7693 7.93846 30.6462C7.93846 22.5231 14.4923 15.9693 22.6154 15.9693C23.5385 15.9693 24.3692 16.0616 25.2 16.1539V22.1539C25.2 22.4308 25.4769 22.7077 25.7538 22.7077H26.7692C27.0462 22.7077 27.3231 22.4308 27.3231 22.1539V16.8C33.0462 18.7385 37.2 24.277 37.2 30.6462C37.2923 38.7693 30.6462 45.3231 22.6154 45.3231Z" fill="#F36B14"/>
</svg>
