<svg width="48" height="48" viewBox="0 0 48 48" fill="none" xmlns="http://www.w3.org/2000/svg">
<path d="M3.396 37.125H7.854" stroke="#F36B14" stroke-linecap="round" stroke-linejoin="round"/>
<path d="M19.1348 38.625H34.1153M20.6303 40.125H24.5775M26.6303 40.125H31.9253M23.6228 41.625H27.378" stroke="#F05542" stroke-linecap="round" stroke-linejoin="round"/>
<path fill-rule="evenodd" clip-rule="evenodd" d="M16.0043 18.2476C15.962 18.2481 15.9202 18.2569 15.8813 18.2737C15.8425 18.2904 15.8073 18.3147 15.7779 18.3451C15.7484 18.3755 15.7253 18.4114 15.7099 18.4508C15.6944 18.4902 15.6869 18.5323 15.6878 18.5746C15.6878 18.7973 15.5925 18.8986 15.3713 18.8986C14.9363 18.8911 14.9363 19.5489 15.3713 19.5421C15.5843 19.5421 15.6878 19.6021 15.6878 19.8526C15.6818 20.2876 16.3373 20.2876 16.3313 19.8526C16.3313 19.6246 16.4378 19.5421 16.6493 19.5421C17.0843 19.5496 17.0843 18.8926 16.6493 18.8986C16.362 18.8986 16.3313 18.7351 16.3313 18.5746C16.3319 18.5315 16.3239 18.4887 16.3076 18.4487C16.2914 18.4088 16.2674 18.3725 16.2369 18.342C16.2064 18.3115 16.1701 18.2875 16.1301 18.2713C16.0902 18.255 16.0474 18.247 16.0043 18.2476Z" fill="#F05542"/>
<path fill-rule="evenodd" clip-rule="evenodd" d="M14.0551 24.1456C13.9576 24.1456 13.8803 24.2281 13.8818 24.3256C13.8818 24.4479 13.8293 24.5034 13.7078 24.5034C13.4693 24.5034 13.4693 24.8596 13.7078 24.8558C13.8248 24.8558 13.8818 24.8889 13.8818 25.0269C13.8781 25.2654 14.2381 25.2654 14.2343 25.0269C14.2343 24.9016 14.2943 24.8566 14.4098 24.8566C14.6483 24.8566 14.6483 24.4996 14.4098 24.5034C14.2523 24.5034 14.2351 24.4133 14.2351 24.3248C14.2354 24.3011 14.2309 24.2776 14.222 24.2557C14.213 24.2338 14.1998 24.2139 14.183 24.1972C14.1662 24.1804 14.1462 24.1672 14.1242 24.1584C14.1023 24.1495 14.0787 24.1452 14.0551 24.1456ZM15.7523 9.15308C15.7214 9.15327 15.6908 9.15965 15.6624 9.1718C15.634 9.18395 15.6082 9.20164 15.5867 9.22385C15.5652 9.24606 15.5483 9.27231 15.5371 9.30112C15.5259 9.32992 15.5205 9.36066 15.5213 9.39157C15.5213 9.55432 15.4516 9.62782 15.2903 9.62782C14.9738 9.62032 14.9738 10.1011 15.2903 10.0966C15.4456 10.0966 15.5213 10.1393 15.5213 10.3231C15.5168 10.6396 15.9946 10.6396 15.9901 10.3231C15.9901 10.1566 16.0681 10.0966 16.2218 10.0966C16.5391 10.1041 16.5391 9.62332 16.2218 9.62782C16.0126 9.62782 15.9901 9.50782 15.9901 9.39157C15.9905 9.36024 15.9846 9.32918 15.9728 9.30016C15.961 9.27113 15.9435 9.24472 15.9213 9.22256C15.8992 9.20041 15.8728 9.18292 15.8438 9.17111C15.8147 9.15931 15.7836 9.15345 15.7523 9.15385V9.15308Z" fill="#F36B14"/>
<path fill-rule="evenodd" clip-rule="evenodd" d="M30.5543 8.69631C30.531 8.69661 30.508 8.70151 30.4867 8.71073C30.4653 8.71996 30.446 8.73332 30.4298 8.75006C30.4136 8.76679 30.4009 8.78657 30.3924 8.80824C30.3839 8.82991 30.3798 8.85308 30.3803 8.87635C30.3803 8.9986 30.3278 9.0541 30.2063 9.0541C29.967 9.0541 29.967 9.41033 30.2063 9.40658C30.3233 9.40658 30.3803 9.4396 30.3803 9.5776C30.3765 9.8161 30.7365 9.8161 30.7328 9.5776C30.7328 9.45235 30.792 9.40736 30.9075 9.40736C31.1468 9.40736 31.1468 9.05035 30.9075 9.0541C30.75 9.0541 30.7335 8.96407 30.7335 8.87557C30.7338 8.85189 30.7294 8.82839 30.7204 8.80645C30.7115 8.78452 30.6982 8.76462 30.6815 8.7479C30.6647 8.73119 30.6447 8.71799 30.6227 8.70913C30.6008 8.70028 30.578 8.69591 30.5543 8.69631Z" fill="#F05542"/>
<path fill-rule="evenodd" clip-rule="evenodd" d="M37.557 13.3343C37.5261 13.3344 37.4955 13.3408 37.4671 13.3529C37.4386 13.3651 37.4129 13.3828 37.3914 13.405C37.3699 13.4272 37.353 13.4535 37.3418 13.4823C37.3306 13.5111 37.3252 13.5418 37.326 13.5728C37.326 13.7348 37.257 13.809 37.0957 13.809C36.7785 13.8015 36.7785 14.2815 37.0957 14.2778C37.251 14.2778 37.326 14.3205 37.326 14.5035C37.3215 14.8208 37.8 14.8208 37.7955 14.5035C37.7955 14.3378 37.8727 14.2778 38.0265 14.2778C38.3437 14.2853 38.3437 13.8045 38.0265 13.809C37.818 13.809 37.7955 13.689 37.7955 13.5728C37.796 13.5413 37.7902 13.51 37.7784 13.4809C37.7665 13.4517 37.749 13.4252 37.7267 13.403C37.7045 13.3807 37.678 13.3632 37.6488 13.3514C37.6197 13.3396 37.5884 13.3338 37.557 13.3343Z" fill="#F36B14"/>
<path fill-rule="evenodd" clip-rule="evenodd" d="M35.595 19.3155C35.4975 19.3155 35.4202 19.3979 35.4217 19.4954C35.4217 19.6169 35.3692 19.6732 35.2477 19.6732C35.0092 19.6732 35.0092 20.0294 35.2477 20.0257C35.3647 20.0257 35.4217 20.0587 35.4217 20.1967C35.418 20.4352 35.778 20.4352 35.7742 20.1967C35.7742 20.0714 35.8342 20.0265 35.9497 20.0265C36.1882 20.0265 36.1882 19.6694 35.9497 19.6732C35.7922 19.6732 35.775 19.5832 35.775 19.4947C35.7753 19.471 35.7708 19.4475 35.7619 19.4255C35.7529 19.4036 35.7397 19.3837 35.7229 19.367C35.7061 19.3503 35.6861 19.3371 35.6642 19.3282C35.6422 19.3194 35.6187 19.3151 35.595 19.3155ZM35.3452 25.1932C35.3029 25.1937 35.2611 25.2025 35.2223 25.2193C35.1834 25.236 35.1482 25.2603 35.1188 25.2907C35.0894 25.3211 35.0663 25.357 35.0508 25.3964C35.0353 25.4358 35.0278 25.4779 35.0287 25.5202C35.0287 25.7429 34.9335 25.8442 34.7122 25.8442C34.2772 25.8367 34.2772 26.4937 34.7122 26.4877C34.9252 26.4877 35.0287 26.5469 35.0287 26.7982C35.0227 27.2332 35.6782 27.2332 35.6722 26.7982C35.6722 26.5694 35.7787 26.4877 35.9902 26.4877C36.4252 26.4952 36.4252 25.8382 35.9902 25.8442C35.703 25.8442 35.6722 25.6799 35.6722 25.5202C35.6728 25.4771 35.6648 25.4343 35.6486 25.3943C35.6324 25.3544 35.6083 25.3181 35.5778 25.2876C35.5473 25.2571 35.511 25.2331 35.4711 25.2169C35.4311 25.2006 35.3883 25.1926 35.3452 25.1932Z" fill="#F05542"/>
<path fill-rule="evenodd" clip-rule="evenodd" d="M17.4487 13.2622C17.4178 13.2625 17.3874 13.2689 17.359 13.2811C17.3307 13.2933 17.305 13.311 17.2836 13.3332C17.2622 13.3554 17.2454 13.3817 17.2342 13.4104C17.223 13.4392 17.2177 13.4699 17.2184 13.5007C17.2184 13.6627 17.1487 13.737 16.9874 13.737C16.6702 13.7295 16.6702 14.2095 16.9874 14.2057C17.1427 14.2057 17.2184 14.2485 17.2184 14.4315C17.2139 14.7487 17.6909 14.7487 17.6872 14.4315C17.6872 14.265 17.7644 14.2057 17.9189 14.2057C18.2354 14.2132 18.2354 13.7325 17.9189 13.737C17.7089 13.737 17.6865 13.617 17.6865 13.5007C17.687 13.4693 17.6812 13.4381 17.6694 13.409C17.6576 13.3799 17.6402 13.3535 17.618 13.3313C17.5958 13.309 17.5694 13.2914 17.5403 13.2796C17.5113 13.2677 17.4801 13.2618 17.4487 13.2622ZM23.2042 6.45972C23.1804 6.46011 23.1568 6.4652 23.135 6.47469C23.1131 6.48417 23.0933 6.49788 23.0767 6.51501C23.0602 6.53215 23.0471 6.55235 23.0384 6.57452C23.0296 6.5967 23.0253 6.62041 23.0257 6.64424C23.0257 6.77024 22.9717 6.82726 22.8472 6.82726C22.6019 6.82351 22.6019 7.19248 22.8472 7.18948C22.9672 7.18948 23.0257 7.22251 23.0257 7.36426C23.0227 7.60876 23.3917 7.60876 23.3879 7.36426C23.3879 7.23526 23.4479 7.18948 23.5672 7.18948C23.8117 7.19323 23.8117 6.82351 23.5672 6.82726C23.4052 6.82726 23.3872 6.73424 23.3872 6.64424C23.3875 6.62009 23.383 6.59613 23.3739 6.57375C23.3648 6.55137 23.3514 6.53103 23.3343 6.51392C23.3173 6.4968 23.297 6.48326 23.2746 6.47409C23.2523 6.46492 23.2284 6.46029 23.2042 6.46049V6.45972Z" fill="#F36B14"/>
<path d="M20.4698 24.5175C18.9308 25.9598 17.9625 28.0575 17.9625 30.3945C17.9625 31.4183 18.1575 32.4315 18.528 33.378C19.683 30.4245 22.4213 28.4955 25.4618 28.494C28.5053 28.494 31.2443 30.429 32.3963 33.3848C32.769 32.4353 32.961 31.4205 32.9618 30.3945C32.9618 28.0253 31.9665 25.9013 30.39 24.4575" stroke="#F36B14" stroke-miterlimit="100" stroke-linejoin="round"/>
<path d="M21.5325 27.4531C21.9802 27.2573 22.44 27.0961 22.905 26.9701M24.9637 26.6453C26.4562 26.5711 27.963 26.8403 29.3617 27.4538M23.8635 26.7488C23.6992 26.7706 24.027 26.7188 23.8635 26.7488Z" stroke="#F36B14" stroke-miterlimit="100" stroke-linecap="round" stroke-linejoin="round"/>
<path d="M20.2125 21.4351C20.2208 24.1193 20.994 26.8193 22.4258 29.1563C23.3933 28.7603 24.414 28.4963 25.4618 28.4941C26.5163 28.4941 27.5595 28.6996 28.5315 29.0971C29.9588 26.7578 30.7103 24.1193 30.7118 21.4351C30.7043 17.1616 29.079 13.0763 25.7265 10.1318C23.154 12.3991 21.2775 15.3391 20.547 18.5191M20.3093 19.7821C20.2845 19.9073 20.262 20.0326 20.241 20.1586" stroke="#F36B14" stroke-miterlimit="100" stroke-linecap="round" stroke-linejoin="round"/>
<path d="M11.9009 30.2679C12.6716 30.0097 13.4979 29.9652 14.2918 30.139C15.0858 30.3128 15.8178 30.6985 16.4102 31.2551C17.0025 31.8116 17.4329 32.5182 17.6558 33.2999C17.8787 34.0815 17.8857 34.9089 17.6759 35.6941C18.1612 34.5699 19.2839 33.7321 20.4832 33.9781C20.6609 34.7026 20.9392 35.1279 21.2482 35.4571C20.8447 35.0533 20.6018 34.5166 20.5646 33.947C20.5274 33.3774 20.6985 32.8137 21.0461 32.3609C21.3936 31.908 21.8938 31.5969 22.4537 31.4855C23.0135 31.3741 23.5948 31.4699 24.0892 31.7551L24.0967 33.0016V28.6929C24.8617 28.4049 25.6552 28.4506 26.4644 28.6929V34.3374L26.4719 31.6734C27.3944 31.1409 28.6589 31.3104 29.4119 32.0634C29.6305 32.2819 29.8039 32.5414 29.9222 32.8269C30.0405 33.1125 30.1013 33.4185 30.1013 33.7276C30.1013 34.0367 30.0405 34.3428 29.9222 34.6283C29.8039 34.9139 29.6305 35.1733 29.4119 35.3919C29.8402 34.9989 29.9144 34.4761 30.2024 33.9549C31.4024 33.7081 32.7974 34.4311 33.2834 35.5546C33.1183 34.9358 33.1961 34.2773 33.5009 33.7141M34.4519 32.7346C35.0279 32.4023 35.7123 32.3123 36.3546 32.4844C36.997 32.6566 37.5446 33.0768 37.8772 33.6526C38.5702 34.8526 38.1592 36.4276 36.9599 37.1199H9.45744C8.55819 35.5914 8.66469 33.5926 9.57894 32.1159M10.3792 31.1746C10.4729 31.0674 10.5719 30.9639 10.6762 30.8656" stroke="#F36B14" stroke-linecap="round" stroke-linejoin="round"/>
<path d="M28.2871 18.6218C28.2881 18.9793 28.2187 19.3335 28.0826 19.6642C27.9465 19.9948 27.7465 20.2953 27.4941 20.5485C27.2417 20.8017 26.9418 21.0026 26.6116 21.1397C26.2814 21.2767 25.9273 21.3473 25.5698 21.3473C24.8461 21.3477 24.1518 21.0609 23.6392 20.55C23.1267 20.039 22.8378 19.3455 22.8361 18.6218C22.8375 17.8977 23.1261 17.2038 23.6387 16.6924C24.1512 16.181 24.8458 15.8938 25.5698 15.894C26.4473 15.894 27.2236 16.3073 27.7193 16.95" stroke="#F36B14" stroke-miterlimit="34.178" stroke-linecap="round" stroke-linejoin="round"/>
<path d="M39.462 37.125H43.848" stroke="#F36B14" stroke-linecap="round" stroke-linejoin="round"/>
</svg>
