<svg width="32" height="32" viewBox="0 0 32 32" fill="none" xmlns="http://www.w3.org/2000/svg">
<path d="M4 24.042C4 20.128 5.382 14.909 12.207 9.25502H20.221C27.047 14.909 28.573 20.128 28.573 24.042V23.697V24.477C28.573 28.091 23.499 31 17.196 31H15.376C9.074 31 4 28.09 4 24.477V23.697V24.042ZM12.347 7.49002C11.199 6.43802 10.555 5.01202 10.555 3.52602V3.57202C10.555 3.00902 10.825 2.48902 11.264 2.20802C11.703 1.92602 12.244 1.92602 12.682 2.20802C13.121 2.48902 13.392 3.00902 13.392 3.57202H13.389C13.389 3.00902 13.659 2.48902 14.099 2.20802C14.537 1.92602 15.079 1.92602 15.517 2.20802C15.956 2.48902 16.227 3.00902 16.227 3.57202H16.225C16.225 3.00902 16.495 2.48902 16.935 2.20802C17.373 1.92602 17.915 1.92602 18.353 2.20802C18.792 2.48902 19.063 3.00902 19.063 3.57202H19.06C19.06 3.00902 19.33 2.48902 19.77 2.20802C20.208 1.92602 20.749 1.92602 21.188 2.20802C21.627 2.48902 21.898 3.00902 21.897 3.57202V3.52602C21.897 5.01202 21.252 6.43802 20.105 7.49002" fill="#F05542"/>
<path d="M22.5732 21C22.5732 24.312 19.8742 27 16.5562 27C13.2362 27 10.5742 24.312 10.5742 21C10.5742 17.69 13.2362 15 16.5562 15C19.8742 15 22.5732 17.69 22.5732 21Z" fill="#F8B84E"/>
<path fill-rule="evenodd" clip-rule="evenodd" d="M14.0918 17.538V18.538H15.1188C16.3268 18.538 16.7758 19.276 16.7758 20.03C16.7758 20.785 16.3258 21.52 15.1188 21.52H14.0918V22.52H15.1188C16.7888 22.52 17.7758 21.266 17.7758 20.03C17.7758 18.794 16.7878 17.538 15.1188 17.538H14.0918Z" fill="#2B4255"/>
<path fill-rule="evenodd" clip-rule="evenodd" d="M14.115 19.53V20.53H19.085V19.53H14.115ZM14.115 17.53V18.53H19.085V17.53H14.115ZM14.762 21.515L14.062 22.231L17.44 25.5309L18.139 24.815L14.762 21.515Z" fill="#2B4255"/>
<path fill-rule="evenodd" clip-rule="evenodd" d="M12.061 7.21503V9.38703H20.383V7.21503" fill="#2B4255"/>
</svg>
