<svg width="22" height="22" viewBox="0 0 22 22" fill="none" xmlns="http://www.w3.org/2000/svg">
<path d="M18.1429 12.4286V11C18.1429 10.6211 17.9923 10.2578 17.7244 9.98985C17.4565 9.72194 17.0932 9.57143 16.7143 9.57143H2.42857C2.04969 9.57143 1.68633 9.72194 1.41842 9.98985C1.15051 10.2578 1 10.6211 1 11V19.5714C1 19.9503 1.15051 20.3137 1.41842 20.5816C1.68633 20.8495 2.04969 21 2.42857 21H16.7143C17.0932 21 17.4565 20.8495 17.7244 20.5816C17.9923 20.3137 18.1429 19.9503 18.1429 19.5714V18.1429M18.1429 12.4286H12.4286C11.6708 12.4286 10.9441 12.7296 10.4083 13.2654C9.87245 13.8012 9.57143 14.528 9.57143 15.2857C9.57143 16.0435 9.87245 16.7702 10.4083 17.306C10.9441 17.8418 11.6708 18.1429 12.4286 18.1429H18.1429M18.1429 12.4286C18.9006 12.4286 19.6273 12.7296 20.1632 13.2654C20.699 13.8012 21 14.528 21 15.2857C21 16.0435 20.699 16.7702 20.1632 17.306C19.6273 17.8418 18.9006 18.1429 18.1429 18.1429M5.28571 9.57143V5.28571C5.28571 4.14907 5.73724 3.05898 6.54097 2.25526C7.3447 1.45153 8.43479 1 9.57143 1C10.7081 1 11.7982 1.45153 12.6019 2.25526C13.4056 3.05898 13.8571 4.14907 13.8571 5.28571V9.57143M17.4286 15.2857H18.8571M14.5714 15.2857H16M11.7143 15.2857H13.1429" stroke="#F36B14"/>
</svg>
