<svg width="31" height="40" viewBox="0 0 31 40" fill="none" xmlns="http://www.w3.org/2000/svg">
<path d="M29.9998 7.95719V36C29.9998 38.2091 28.209 40 25.9998 40H4C1.79086 40 0 38.2091 0 36V4C0 1.79086 1.79086 0 4 0H21.3367L29.9998 7.95719Z" fill="#F04438"/>
<path d="M20.0745 26.9636C19.0764 26.9636 17.8274 27.1377 17.4187 27.1989C15.7274 25.4327 15.2462 24.4288 15.138 24.1611C15.2847 23.7843 15.795 22.3526 15.8676 20.5138C15.9033 19.5932 15.7089 18.9053 15.2894 18.4692C14.8707 18.0339 14.3638 18 14.2185 18C13.7089 18 12.8539 18.2577 12.8539 19.9834C12.8539 21.4808 13.5521 23.0696 13.745 23.4802C12.7283 26.4406 11.6367 28.4671 11.405 28.8839C7.31948 30.4221 7 31.9094 7 32.3309C7 33.0884 7.53946 33.5406 8.44305 33.5406C10.6384 33.5406 12.6418 29.8549 12.9731 29.2149C14.5323 28.5936 16.6192 28.2088 17.1497 28.117C18.6715 29.5666 20.4314 29.9533 21.1623 29.9533C21.7122 29.9533 22.9999 29.9533 22.9999 28.6293C23 27.3998 21.4241 26.9636 20.0745 26.9636ZM19.9687 27.8328C21.1545 27.8328 21.4679 28.2249 21.4679 28.4323C21.4679 28.5624 21.4185 28.9869 20.7829 28.9869C20.213 28.9869 19.2289 28.6575 18.2607 27.9428C18.6645 27.8897 19.2619 27.8328 19.9687 27.8328ZM14.1562 18.8425C14.2644 18.8425 14.3355 18.8773 14.3942 18.9587C14.7353 19.4319 14.4603 20.9782 14.1256 22.1883C13.8025 21.1507 13.56 19.5587 13.9012 18.9986C13.9678 18.8892 14.0441 18.8425 14.1562 18.8425ZM13.5803 28.1046C14.0097 27.2373 14.4908 25.9733 14.7529 25.2584C15.2774 26.1363 15.9829 26.9514 16.3909 27.3933C15.1205 27.6611 14.1594 27.9287 13.5803 28.1046ZM7.8528 32.4467C7.82452 32.4131 7.82034 32.3424 7.84165 32.2575C7.88635 32.0796 8.22792 31.1977 10.6985 30.0925C10.3447 30.6498 9.79169 31.4459 9.18415 32.0407C8.75649 32.441 8.42348 32.644 8.19437 32.644C8.11241 32.644 7.99948 32.6217 7.8528 32.4467Z" fill="white"/>
<g filter="url(#filter0_d_443_58)">
<path d="M30.0001 7.95719H22.3369C21.7846 7.95719 21.3369 7.50947 21.3369 6.95719V0L30.0001 7.95719Z" fill="#FECDCA"/>
</g>
<defs>
<filter id="filter0_d_443_58" x="18.3369" y="-1" width="12.6631" height="11.957" filterUnits="userSpaceOnUse" color-interpolation-filters="sRGB">
<feFlood flood-opacity="0" result="BackgroundImageFix"/>
<feColorMatrix in="SourceAlpha" type="matrix" values="0 0 0 0 0 0 0 0 0 0 0 0 0 0 0 0 0 0 127 0" result="hardAlpha"/>
<feOffset dx="-1" dy="1"/>
<feGaussianBlur stdDeviation="1"/>
<feComposite in2="hardAlpha" operator="out"/>
<feColorMatrix type="matrix" values="0 0 0 0 0 0 0 0 0 0 0 0 0 0 0 0 0 0 0.2 0"/>
<feBlend mode="normal" in2="BackgroundImageFix" result="effect1_dropShadow_443_58"/>
<feBlend mode="normal" in="SourceGraphic" in2="effect1_dropShadow_443_58" result="shape"/>
</filter>
</defs>
</svg>
