<svg width="22" height="22" viewBox="0 0 22 22" fill="none" xmlns="http://www.w3.org/2000/svg">
<path d="M15.9959 8.013H16.0039M16.0039 6.009V3.505M6.50164 21H3.71757C3.39456 21 3.06956 20.954 2.77255 20.827C1.80652 20.412 1.31551 19.863 1.08751 19.52C1.02563 19.425 0.995225 19.3129 1.00061 19.1997C1.00599 19.0864 1.04689 18.9777 1.11751 18.889C2.23754 17.401 4.8336 16.503 6.50164 16.503M6.50664 21H9.28971C9.61372 21 9.93773 20.954 10.2347 20.827C11.2018 20.412 11.6918 19.863 11.9208 19.52C11.9827 19.425 12.0131 19.3129 12.0077 19.1997C12.0023 19.0864 11.9614 18.9777 11.8908 18.889C10.7707 17.401 8.17468 16.503 6.50664 16.503M21 5.792C21 8.438 18.7599 10.584 15.9959 10.584C15.6705 10.584 15.3479 10.554 15.0279 10.494C14.7978 10.451 14.6838 10.43 14.6028 10.442C14.5228 10.454 14.4088 10.514 14.1828 10.636C13.5355 10.9811 12.7904 11.0971 12.0688 10.965C12.3428 10.627 12.5288 10.222 12.6118 9.788C12.6618 9.523 12.5378 9.265 12.3518 9.076C11.4833 8.20339 10.9945 7.02314 10.9918 5.792C10.9918 3.146 13.2318 1 15.9959 1C18.7599 1 21 3.146 21 5.792ZM9.28471 11.289C9.28365 12.0249 8.99043 12.7303 8.4695 13.2501C7.94857 13.7698 7.24255 14.0615 6.50664 14.061C6.14208 14.0615 5.78099 13.9902 5.44398 13.8512C5.10697 13.7122 4.80065 13.5082 4.54249 13.2508C4.28434 12.9934 4.07941 12.6876 3.93942 12.351C3.79942 12.0144 3.7271 11.6535 3.72657 11.289C3.72697 10.9244 3.79919 10.5634 3.93913 10.2267C4.07907 9.88995 4.28397 9.58411 4.54214 9.3266C4.8003 9.06909 5.10668 8.86496 5.44375 8.72587C5.78082 8.58679 6.142 8.51547 6.50664 8.516C7.24273 8.51547 7.94889 8.80729 8.46985 9.3273C8.99081 9.84731 9.28392 10.5529 9.28471 11.289Z" stroke="#F36B14" stroke-width="1.5" stroke-linecap="round" stroke-linejoin="round"/>
</svg>
