<svg width="20" height="21" viewBox="0 0 20 21" fill="none" xmlns="http://www.w3.org/2000/svg">
<path d="M15.833 17.7913C16.054 17.7913 16.266 17.7035 16.4223 17.5473C16.5785 17.391 16.6663 17.179 16.6663 16.958V15.9197C16.6697 13.5813 13.3547 11.7497 9.99967 11.7497C6.64467 11.7497 3.33301 13.5813 3.33301 15.9197V16.958C3.33301 17.179 3.42081 17.391 3.57709 17.5473C3.73337 17.7035 3.94533 17.7913 4.16634 17.7913H15.833ZM13.003 6.21134C13.003 6.60574 12.9253 6.99629 12.7744 7.36067C12.6235 7.72505 12.4022 8.05613 12.1234 8.33502C11.8445 8.6139 11.5134 8.83513 11.149 8.98606C10.7846 9.13699 10.3941 9.21467 9.99967 9.21467C9.60527 9.21467 9.21473 9.13699 8.85035 8.98606C8.48597 8.83513 8.15488 8.6139 7.876 8.33502C7.59711 8.05613 7.37589 7.72505 7.22496 7.36067C7.07402 6.99629 6.99634 6.60574 6.99634 6.21134C6.99634 5.41481 7.31276 4.6509 7.876 4.08766C8.43923 3.52443 9.20314 3.20801 9.99967 3.20801C10.7962 3.20801 11.5601 3.52443 12.1234 4.08766C12.6866 4.6509 13.003 5.41481 13.003 6.21134Z" stroke="#F36B14" stroke-width="1.5" stroke-linecap="round" stroke-linejoin="round"/>
</svg>
