<svg width="53" height="54" viewBox="0 0 53 54" fill="none" xmlns="http://www.w3.org/2000/svg">
<path d="M35.4167 5.965V12.1425C34.4367 12.2388 33.6667 13.0612 33.6667 14.0587V15.4325C33.6667 16.4388 34.4367 17.2525 35.4167 17.3487V19.9912H22.2917V14.7237C23.2717 14.6275 24.0417 13.805 24.0417 12.8075V11.4338C24.0417 10.4275 23.2717 9.61375 22.2917 9.5175V1.625C22.2917 1.14375 21.898 0.75 21.4167 0.75C20.9355 0.75 20.5417 1.14375 20.5417 1.625V9.5H17.0417V1.625C17.0417 1.14375 16.648 0.75 16.1667 0.75C15.6855 0.75 15.2917 1.14375 15.2917 1.625V9.5175C14.3117 9.61375 13.5417 10.4362 13.5417 11.4338V12.8075C13.5417 13.8137 14.3117 14.6275 15.2917 14.7237V30.5087C14.3117 30.605 13.5417 31.4275 13.5417 32.425V33.7988C13.5417 34.805 14.3117 35.6187 15.2917 35.715V44.4825H11.7742C11.678 43.5025 10.8555 42.7325 9.858 42.7325H8.48425C7.478 42.7325 6.66425 43.5025 6.568 44.4825H1.29175C0.810498 44.4825 0.416748 44.8763 0.416748 45.3575C0.416748 45.8387 0.810498 46.2325 1.29175 46.2325H6.54175V49.7325H1.29175C0.810498 49.7325 0.416748 50.1263 0.416748 50.6075C0.416748 51.0887 0.810498 51.4825 1.29175 51.4825H6.55925C6.6555 52.4625 7.478 53.2325 8.4755 53.2325H9.84925C10.8555 53.2325 11.6692 52.4625 11.7655 51.4825H25.783V51.29C25.783 52.3575 26.6492 53.2325 27.7255 53.2325H29.0992C30.1055 53.2325 30.9192 52.4625 31.0155 51.4825H52.033C52.5142 51.4825 52.908 51.0887 52.908 50.6075C52.908 50.1263 52.5142 49.7325 52.033 49.7325H31.033V46.2325H52.033C52.5142 46.2325 52.908 45.8387 52.908 45.3575C52.908 44.8763 52.5142 44.4825 52.033 44.4825H45.033V42.1375C47.1592 41.1225 48.6205 38.9175 48.533 36.38C48.4193 33.1863 45.7155 30.5437 42.5217 30.4825C39.0917 30.4212 36.2917 33.195 36.2917 36.6075C36.2917 39.0487 37.7267 41.1488 39.7917 42.1375V44.4825H31.0242C30.928 43.5025 30.1055 42.7325 29.108 42.7325H27.7342C26.728 42.7325 25.9142 43.5025 25.818 44.4825H22.3005V35.715C23.2805 35.6187 24.0505 34.7962 24.0505 33.7988V32.425C24.0505 31.4188 23.2805 30.605 22.3005 30.5087V26.9912H37.2017C40.0892 26.9912 42.4255 24.655 42.4255 21.7675V17.3487C43.4055 17.2525 44.1755 16.43 44.1755 15.4325V14.0587C44.1755 13.0525 43.4055 12.2388 42.4255 12.1425V7.75H52.0505C52.5317 7.75 52.9255 7.35625 52.9255 6.875C52.9255 6.39375 52.5317 6 52.0505 6H42.4342C41.463 6 40.6755 6.7875 40.6755 7.75875V12.125H37.1755V5.965C37.1755 4.04875 38.733 2.5 40.6405 2.5H52.0505C52.5317 2.5 52.9255 2.10625 52.9255 1.625C52.9255 1.14375 52.5317 0.75 52.0505 0.75H40.6405C37.7617 0.75 35.4255 3.08625 35.4255 5.965H35.4167ZM17.0417 30.5V14.75H20.5417V30.5H17.0417ZM15.2917 11.4425C15.2917 11.3375 15.3792 11.25 15.4842 11.25H22.108C22.213 11.25 22.3005 11.3375 22.3005 11.4425V12.8162C22.3005 12.9213 22.213 13.0087 22.108 13.0087H15.4842C15.3792 13.0087 15.2917 12.9213 15.2917 12.8162V11.4425ZM9.84925 51.5H8.4755C8.3705 51.5 8.283 51.4125 8.283 51.3075V44.6838C8.283 44.5788 8.3705 44.4913 8.4755 44.4913H9.84925C9.95425 44.4913 10.0417 44.5788 10.0417 44.6838V51.3075C10.0417 51.4125 9.95425 51.5 9.84925 51.5ZM11.7917 49.75V46.25H25.7917V49.75H11.7917ZM38.0417 36.625C38.0417 34.21 40.0017 32.25 42.4167 32.25C44.8317 32.25 46.7917 34.21 46.7917 36.625C46.7917 39.04 44.8317 41 42.4167 41C40.0017 41 38.0417 39.04 38.0417 36.625ZM41.5417 42.68C41.8305 42.7237 42.1192 42.75 42.4167 42.75C42.7142 42.75 43.003 42.7237 43.2917 42.68V44.5H41.5417V42.68ZM27.5417 44.6925C27.5417 44.5875 27.6292 44.5 27.7342 44.5H29.108C29.213 44.5 29.3005 44.5875 29.3005 44.6925V51.3162C29.3005 51.4212 29.213 51.5087 29.108 51.5087H27.7342C27.6292 51.5087 27.5417 51.4212 27.5417 51.3162V44.6925ZM17.0417 44.5V35.75H20.5417V44.5H17.0417ZM22.2917 33.8075C22.2917 33.9125 22.2042 34 22.0992 34H15.4755C15.3705 34 15.283 33.9125 15.283 33.8075V32.4338C15.283 32.3287 15.3705 32.2413 15.4755 32.2413H22.0992C22.2042 32.2413 22.2917 32.3287 22.2917 32.4338V33.8075ZM37.193 25.25H22.2917V21.75H35.3992C36.3705 21.75 37.1667 20.9625 37.1667 19.9825V17.375H40.6667V21.7763C40.6667 23.6925 39.1092 25.25 37.193 25.25ZM42.4167 15.4325C42.4167 15.5375 42.3292 15.625 42.2242 15.625H35.6005C35.4955 15.625 35.408 15.5375 35.408 15.4325V14.0587C35.408 13.9537 35.4955 13.8663 35.6005 13.8663H42.2242C42.3292 13.8663 42.4167 13.9537 42.4167 14.0587V15.4325Z" fill="white"/>
</svg>
