<svg width="18" height="18" viewBox="0 0 18 18" fill="none" xmlns="http://www.w3.org/2000/svg">
<path d="M10.7385 9.57452L9.79565 10.5173L11.2099 11.9315L12.1527 10.9887L10.7385 9.57452Z" fill="#F36B14"/>
<path d="M10.1109 9.98738C11.9722 8.14873 11.9722 5.16773 10.1109 3.32909C8.24951 1.49044 5.23165 1.49041 3.37028 3.32906C1.50891 5.1677 1.50894 8.14873 3.37031 9.98738C5.23168 11.826 8.24951 11.826 10.1109 9.98738Z" stroke="#F36B14" stroke-linecap="round" stroke-linejoin="round"/>
<path d="M13.2945 11.1512C12.7754 10.6268 11.9339 10.6266 11.4149 11.1509C10.896 11.6751 10.8961 12.5252 11.4152 13.0495L14.7035 16.3711C15.2226 16.8955 16.0642 16.8956 16.5832 16.3714C17.1022 15.8472 17.102 14.9971 16.5829 14.4728L13.2945 11.1512Z" fill="#F36B14"/>
<path d="M12.3542 10.7532C12.0142 10.7532 11.6762 10.8845 11.4155 11.1478C11.1656 11.4005 11.0254 11.7415 11.0254 12.0968C11.0254 12.4522 11.1656 12.7932 11.4155 13.0458L11.5682 13.1992L13.4742 11.3285L13.2942 11.1478C13.0342 10.8845 12.6942 10.7532 12.3542 10.7532ZM13.9429 11.8025L12.0382 13.6738L13.9848 15.6405L15.8908 13.7685L13.9429 11.8025ZM16.3595 14.2425L14.4528 16.1138L14.7049 16.3672C15.2249 16.8938 16.0628 16.8938 16.5835 16.3672C17.1042 15.8418 17.1042 14.9952 16.5835 14.4692L16.3595 14.2425Z" fill="#F8B84E"/>
<path d="M13.9427 11.8025L12.0381 13.6738L13.9847 15.6405L15.8907 13.7685L13.9427 11.8025Z" fill="#25B39E"/>
<path d="M10.1109 9.98738C11.9722 8.14873 11.9722 5.16773 10.1109 3.32909C8.24951 1.49044 5.23165 1.49041 3.37028 3.32906C1.50891 5.1677 1.50894 8.14873 3.37031 9.98738C5.23168 11.826 8.24951 11.826 10.1109 9.98738Z" fill="#E9EDED" stroke="#F36B14" stroke-linecap="round" stroke-linejoin="round"/>
</svg>
