<svg width="120" height="86" viewBox="0 0 120 86" fill="none" xmlns="http://www.w3.org/2000/svg">
<path d="M101.645 21.7649C96.9395 9.34307 86.3263 3.61203 73.6835 6.82843C63.3412 9.46003 58.4246 18.232 52.9303 21.3813C44.9606 25.9617 32.9657 24.2142 22.5635 33.497C15.9669 39.3829 16.7349 52.8745 22.9389 62.565C27.8417 70.2139 40.3286 77.7715 51.7389 70.7677C67.2875 61.2148 61.6989 47.3585 68.6897 42.601C76.404 37.3498 85.2395 44.0939 96.7577 38.3956C101.337 36.12 104.295 28.7601 101.645 21.7649Z" fill="white"/>
<path opacity="0.7" d="M101.645 21.7649C96.9395 9.34307 86.3263 3.61203 73.6835 6.82843C63.3412 9.46003 58.4246 18.232 52.9303 21.3813C44.9606 25.9617 32.9657 24.2142 22.5635 33.497C15.9669 39.3829 16.7349 52.8745 22.9389 62.565C27.8417 70.2139 40.3286 77.7715 51.7389 70.7677C67.2875 61.2148 61.6989 47.3585 68.6897 42.601C76.404 37.3498 85.2395 44.0939 96.7577 38.3956C101.337 36.12 104.295 28.7601 101.645 21.7649Z" fill="white"/>
<path d="M39.2039 81.0568C47.8953 81.0568 54.9411 80.5401 54.9411 79.9027C54.9411 79.2653 47.8953 78.7485 39.2039 78.7485C30.5126 78.7485 23.4668 79.2653 23.4668 79.9027C23.4668 80.5401 30.5126 81.0568 39.2039 81.0568Z" fill="white"/>
<path d="M14.9365 77.5892H104.196" stroke="#263238" stroke-width="1.25903" stroke-linecap="round" stroke-linejoin="round"/>
<path d="M96.2549 57.0645H93.3184V56.8031C93.3182 56.6812 93.3428 56.5606 93.3906 56.4486C93.4385 56.3366 93.5086 56.2356 93.5967 56.1517C93.6848 56.0679 93.789 56.0029 93.903 55.9608C94.0169 55.9187 94.1382 55.9004 94.2595 55.9069L95.4098 55.9706C95.638 55.9829 95.8527 56.0825 96.0099 56.2489C96.1671 56.4152 96.2548 56.6357 96.2549 56.865V57.0645Z" fill="white"/>
<mask id="mask0_494_205" style="mask-type:luminance" maskUnits="userSpaceOnUse" x="93" y="55" width="4" height="3">
<path d="M96.2549 57.0645H93.3184V56.8031C93.3182 56.6812 93.3428 56.5606 93.3906 56.4486C93.4385 56.3366 93.5086 56.2356 93.5967 56.1517C93.6848 56.0679 93.789 56.0029 93.903 55.9608C94.0169 55.9187 94.1382 55.9004 94.2595 55.9069L95.4098 55.9706C95.638 55.9829 95.8527 56.0825 96.0099 56.2489C96.1671 56.4152 96.2548 56.6357 96.2549 56.865V57.0645Z" fill="white"/>
</mask>
<g mask="url(#mask0_494_205)">
<path opacity="0.8" d="M96.2549 57.0645H93.3184V56.8031C93.3182 56.6812 93.3428 56.5606 93.3906 56.4486C93.4385 56.3366 93.5086 56.2356 93.5967 56.1517C93.6848 56.0679 93.789 56.0029 93.903 55.9608C94.0169 55.9187 94.1382 55.9004 94.2595 55.9069L95.4098 55.9706C95.638 55.9829 95.8527 56.0825 96.0099 56.2489C96.1671 56.4152 96.2548 56.6357 96.2549 56.865V57.0645Z" fill="white"/>
</g>
<path d="M96.2549 57.0645H93.3184V56.8031C93.3182 56.6812 93.3428 56.5606 93.3906 56.4486C93.4385 56.3366 93.5086 56.2356 93.5967 56.1517C93.6848 56.0679 93.789 56.0029 93.903 55.9608C94.0169 55.9187 94.1382 55.9004 94.2595 55.9069L95.4098 55.9706C95.638 55.9829 95.8527 56.0825 96.0099 56.2489C96.1671 56.4152 96.2548 56.6357 96.2549 56.865V57.0645Z" stroke="#263238" stroke-width="1.25903" stroke-linecap="round" stroke-linejoin="round"/>
<path d="M88.327 50.974C88.3218 50.8622 88.2737 50.7567 88.193 50.6795C88.1122 50.6023 88.0049 50.5593 87.8933 50.5594H84.9259C84.8145 50.5597 84.7074 50.6029 84.6267 50.68C84.546 50.7571 84.4979 50.8623 84.4922 50.974L85.2002 57.1797H89.6299L88.327 50.974Z" fill="white" stroke="#263238" stroke-width="1.25903" stroke-linecap="round" stroke-linejoin="round"/>
<path d="M96.3859 41.4349H95.2802L94.0391 53.1481H95.1431C95.2341 53.1459 95.3214 53.111 95.389 53.0498C95.4567 52.9886 95.5002 52.905 95.5116 52.8144L96.6859 41.7668C96.6917 41.7245 96.6882 41.6814 96.6756 41.6406C96.663 41.5998 96.6417 41.5623 96.6131 41.5306C96.5845 41.499 96.5493 41.474 96.5101 41.4575C96.4708 41.4409 96.4285 41.4332 96.3859 41.4349Z" fill="white" stroke="#263238" stroke-width="1.25903" stroke-linecap="round" stroke-linejoin="round"/>
<path d="M94.6769 53.148H78.1049C78.0626 53.1489 78.0205 53.1406 77.9817 53.1236C77.9429 53.1066 77.9082 53.0814 77.88 53.0497C77.8518 53.018 77.8308 52.9806 77.8185 52.9399C77.8061 52.8993 77.8026 52.8565 77.8083 52.8144L78.9809 41.7616C78.992 41.6713 79.0352 41.588 79.1026 41.527C79.17 41.466 79.257 41.4315 79.3478 41.4297H95.9198C95.962 41.4285 96.004 41.4366 96.0428 41.4534C96.0817 41.4702 96.1164 41.4952 96.1446 41.5268C96.1728 41.5584 96.1939 41.5957 96.2062 41.6363C96.2186 41.6768 96.2221 41.7196 96.2163 41.7616L95.0438 52.8144C95.0327 52.9049 94.9895 52.9884 94.9222 53.0496C94.8548 53.1109 94.7678 53.1458 94.6769 53.148Z" fill="white"/>
<mask id="mask1_494_205" style="mask-type:luminance" maskUnits="userSpaceOnUse" x="77" y="41" width="20" height="13">
<path d="M94.6769 53.148H78.1049C78.0626 53.1489 78.0205 53.1406 77.9817 53.1236C77.9429 53.1066 77.9082 53.0814 77.88 53.0497C77.8518 53.018 77.8308 52.9806 77.8185 52.9399C77.8061 52.8993 77.8026 52.8565 77.8083 52.8144L78.9809 41.7616C78.992 41.6713 79.0352 41.588 79.1026 41.527C79.17 41.466 79.257 41.4315 79.3478 41.4297H95.9198C95.962 41.4285 96.004 41.4366 96.0428 41.4534C96.0817 41.4702 96.1164 41.4952 96.1446 41.5268C96.1728 41.5584 96.1939 41.5957 96.2062 41.6363C96.2186 41.6768 96.2221 41.7196 96.2163 41.7616L95.0438 52.8144C95.0327 52.9049 94.9895 52.9884 94.9222 53.0496C94.8548 53.1109 94.7678 53.1458 94.6769 53.148Z" fill="white"/>
</mask>
<g mask="url(#mask1_494_205)">
<path opacity="0.4" d="M94.6769 53.148H78.1049C78.0626 53.1489 78.0205 53.1406 77.9817 53.1236C77.9429 53.1066 77.9082 53.0814 77.88 53.0497C77.8518 53.018 77.8308 52.9806 77.8185 52.9399C77.8061 52.8993 77.8026 52.8565 77.8083 52.8144L78.9809 41.7616C78.992 41.6713 79.0352 41.588 79.1026 41.527C79.17 41.466 79.257 41.4315 79.3478 41.4297H95.9198C95.962 41.4285 96.004 41.4366 96.0428 41.4534C96.0817 41.4702 96.1164 41.4952 96.1446 41.5268C96.1728 41.5584 96.1939 41.5957 96.2062 41.6363C96.2186 41.6768 96.2221 41.7196 96.2163 41.7616L95.0438 52.8144C95.0327 52.9049 94.9895 52.9884 94.9222 53.0496C94.8548 53.1109 94.7678 53.1458 94.6769 53.148Z" fill="white"/>
</g>
<path d="M94.6769 53.148H78.1049C78.0626 53.1489 78.0205 53.1406 77.9817 53.1236C77.9429 53.1066 77.9082 53.0814 77.88 53.0497C77.8518 53.018 77.8308 52.9806 77.8185 52.9399C77.8061 52.8993 77.8026 52.8565 77.8083 52.8144L78.9809 41.7616C78.992 41.6713 79.0352 41.588 79.1026 41.527C79.17 41.466 79.257 41.4315 79.3478 41.4297H95.9198C95.962 41.4285 96.004 41.4366 96.0428 41.4534C96.0817 41.4702 96.1164 41.4952 96.1446 41.5268C96.1728 41.5584 96.1939 41.5957 96.2062 41.6363C96.2186 41.6768 96.2221 41.7196 96.2163 41.7616L95.0438 52.8144C95.0327 52.9049 94.9895 52.9884 94.9222 53.0496C94.8548 53.1109 94.7678 53.1458 94.6769 53.148Z" stroke="#263238" stroke-width="1.25903" stroke-linecap="round" stroke-linejoin="round"/>
<path d="M89.7922 56.6964H84.3425C84.2789 56.6964 84.2178 56.7218 84.1728 56.7669C84.1278 56.8121 84.1025 56.8733 84.1025 56.9372C84.1025 57.0012 84.1278 57.0627 84.1727 57.1081C84.2177 57.1535 84.2787 57.1793 84.3425 57.1797H89.7905C89.8544 57.1793 89.9154 57.1535 89.9603 57.1081C90.0053 57.0627 90.0305 57.0012 90.0305 56.9372C90.0305 56.8736 90.0055 56.8127 89.9609 56.7675C89.9162 56.7224 89.8556 56.6969 89.7922 56.6964Z" fill="white" stroke="#263238" stroke-width="1.25903" stroke-linecap="round" stroke-linejoin="round"/>
<path d="M94.3661 52.0713H78.7387C78.7018 52.0721 78.6651 52.0649 78.6313 52.0502C78.5974 52.0354 78.5671 52.0135 78.5425 51.9859C78.5179 51.9582 78.4995 51.9256 78.4887 51.8901C78.4779 51.8547 78.4749 51.8173 78.4799 51.7806L79.5084 42.1366C79.5179 42.0575 79.5556 41.9845 79.6145 41.9311C79.6734 41.8777 79.7496 41.8474 79.829 41.8459H95.4513C95.4881 41.8454 95.5247 41.8528 95.5584 41.8676C95.5921 41.8825 95.6223 41.9044 95.6468 41.932C95.6714 41.9596 95.6897 41.9921 95.7007 42.0274C95.7116 42.0627 95.7148 42.0999 95.7101 42.1366L94.6816 51.7806C94.6719 51.8587 94.6348 51.9308 94.5771 51.9841C94.5193 52.0373 94.4445 52.0682 94.3661 52.0713Z" fill="white"/>
<mask id="mask2_494_205" style="mask-type:luminance" maskUnits="userSpaceOnUse" x="78" y="41" width="18" height="12">
<path d="M94.3661 52.0713H78.7387C78.7018 52.0721 78.6651 52.0649 78.6313 52.0502C78.5974 52.0354 78.5671 52.0135 78.5425 51.9859C78.5179 51.9582 78.4995 51.9256 78.4887 51.8901C78.4779 51.8547 78.4749 51.8173 78.4799 51.7806L79.5084 42.1366C79.5179 42.0575 79.5556 41.9845 79.6145 41.9311C79.6734 41.8777 79.7496 41.8474 79.829 41.8459H95.4513C95.4881 41.8454 95.5247 41.8528 95.5584 41.8676C95.5921 41.8825 95.6223 41.9044 95.6468 41.932C95.6714 41.9596 95.6897 41.9921 95.7007 42.0274C95.7116 42.0627 95.7148 42.0999 95.7101 42.1366L94.6816 51.7806C94.6719 51.8587 94.6348 51.9308 94.5771 51.9841C94.5193 52.0373 94.4445 52.0682 94.3661 52.0713Z" fill="white"/>
</mask>
<g mask="url(#mask2_494_205)">
<path opacity="0.8" d="M94.3661 52.0713H78.7387C78.7018 52.0721 78.6651 52.0649 78.6313 52.0502C78.5974 52.0354 78.5671 52.0135 78.5425 51.9859C78.5179 51.9582 78.4995 51.9256 78.4887 51.8901C78.4779 51.8547 78.4749 51.8173 78.4799 51.7806L79.5084 42.1366C79.5179 42.0575 79.5556 41.9845 79.6145 41.9311C79.6734 41.8777 79.7496 41.8474 79.829 41.8459H95.4513C95.4881 41.8454 95.5247 41.8528 95.5584 41.8676C95.5921 41.8825 95.6223 41.9044 95.6468 41.932C95.6714 41.9596 95.6897 41.9921 95.7007 42.0274C95.7116 42.0627 95.7148 42.0999 95.7101 42.1366L94.6816 51.7806C94.6719 51.8587 94.6348 51.9308 94.5771 51.9841C94.5193 52.0373 94.4445 52.0682 94.3661 52.0713Z" fill="white"/>
</g>
<path d="M94.3661 52.0713H78.7387C78.7018 52.0721 78.6651 52.0649 78.6313 52.0502C78.5974 52.0354 78.5671 52.0135 78.5425 51.9859C78.5179 51.9582 78.4995 51.9256 78.4887 51.8901C78.4779 51.8547 78.4749 51.8173 78.4799 51.7806L79.5084 42.1366C79.5179 42.0575 79.5556 41.9845 79.6145 41.9311C79.6734 41.8777 79.7496 41.8474 79.829 41.8459H95.4513C95.4881 41.8454 95.5247 41.8528 95.5584 41.8676C95.5921 41.8825 95.6223 41.9044 95.6468 41.932C95.6714 41.9596 95.6897 41.9921 95.7007 42.0274C95.7116 42.0627 95.7148 42.0999 95.7101 42.1366L94.6816 51.7806C94.6719 51.8587 94.6348 51.9308 94.5771 51.9841C94.5193 52.0373 94.4445 52.0682 94.3661 52.0713Z" stroke="#263238" stroke-width="1.25903" stroke-linecap="round" stroke-linejoin="round"/>
<path d="M59.1123 58.7397H60.3894V77.3312C60.3894 77.3992 60.3625 77.4644 60.3146 77.5124C60.2667 77.5605 60.2018 77.5875 60.134 77.5875H59.3694C59.3017 77.5875 59.2367 77.5605 59.1888 77.5124C59.1409 77.4644 59.114 77.3992 59.114 77.3312V58.7397H59.1123Z" fill="white" stroke="#263238" stroke-width="1.25903" stroke-linecap="round" stroke-linejoin="round"/>
<path d="M98.6519 57.0645H87.5811V58.7397H98.6519V57.0645Z" fill="white"/>
<mask id="mask3_494_205" style="mask-type:luminance" maskUnits="userSpaceOnUse" x="87" y="57" width="12" height="2">
<path d="M98.6519 57.0645H87.5811V58.7397H98.6519V57.0645Z" fill="white"/>
</mask>
<g mask="url(#mask3_494_205)">
<path opacity="0.4" d="M98.6519 57.0645H87.5811V58.7397H98.6519V57.0645Z" fill="white"/>
</g>
<path d="M98.6519 57.0645H87.5811V58.7397H98.6519V57.0645Z" stroke="#263238" stroke-width="1.25903" stroke-linecap="round" stroke-linejoin="round"/>
<path d="M67.0283 58.7397H68.3055V77.3312C68.3055 77.3992 68.2786 77.4644 68.2306 77.5124C68.1827 77.5605 68.1178 77.5875 68.05 77.5875H67.2855C67.2518 77.5877 67.2184 77.5813 67.1872 77.5685C67.156 77.5557 67.1276 77.5369 67.1037 77.5131C67.0798 77.4892 67.0609 77.4609 67.0479 77.4297C67.035 77.3985 67.0283 77.365 67.0283 77.3312V58.7397Z" fill="white" stroke="#263238" stroke-width="1.25903" stroke-linecap="round" stroke-linejoin="round"/>
<path d="M96.6377 58.7397H97.9148V77.3312C97.9148 77.3992 97.8879 77.4644 97.84 77.5124C97.7921 77.5605 97.7272 77.5875 97.6594 77.5875H96.8948C96.8271 77.5875 96.7621 77.5605 96.7142 77.5124C96.6663 77.4644 96.6394 77.3992 96.6394 77.3312V58.7397H96.6377Z" fill="white" stroke="#263238" stroke-width="1.25903" stroke-linecap="round" stroke-linejoin="round"/>
<path d="M90.7388 57.0645H58.373V58.7397H90.7388V57.0645Z" fill="white"/>
<mask id="mask4_494_205" style="mask-type:luminance" maskUnits="userSpaceOnUse" x="58" y="57" width="33" height="2">
<path d="M90.7388 57.0645H58.373V58.7397H90.7388V57.0645Z" fill="white"/>
</mask>
<g mask="url(#mask4_494_205)">
<path opacity="0.7" d="M90.7388 57.0645H58.373V58.7397H90.7388V57.0645Z" fill="white"/>
</g>
<path d="M90.7388 57.0645H58.373V58.7397H90.7388V57.0645Z" stroke="#263238" stroke-width="1.25903" stroke-linecap="round" stroke-linejoin="round"/>
<path d="M88.7244 58.7397H89.9998V77.3312C89.9998 77.3992 89.9729 77.4644 89.925 77.5124C89.8771 77.5605 89.8121 77.5875 89.7444 77.5875H88.9712C88.9035 77.5875 88.8385 77.5605 88.7906 77.5124C88.7427 77.4644 88.7158 77.3992 88.7158 77.3312V58.7397H88.7244Z" fill="white" stroke="#263238" stroke-width="1.25903" stroke-linecap="round" stroke-linejoin="round"/>
<path d="M88.1472 56.3748H78.9072V57.0645H88.1472V56.3748Z" fill="white"/>
<mask id="mask5_494_205" style="mask-type:luminance" maskUnits="userSpaceOnUse" x="78" y="56" width="11" height="2">
<path d="M88.1472 56.3748H78.9072V57.0645H88.1472V56.3748Z" fill="white"/>
</mask>
<g mask="url(#mask5_494_205)">
<path opacity="0.4" d="M88.1472 56.3748H78.9072V57.0645H88.1472V56.3748Z" fill="white"/>
</g>
<path d="M88.1472 56.3748H78.9072V57.0645H88.1472V56.3748Z" stroke="#263238" stroke-width="1.25903" stroke-linecap="round" stroke-linejoin="round"/>
<path d="M19.3835 77.5892H34.7812V57.0318H19.3835V77.5892Z" fill="white"/>
<mask id="mask6_494_205" style="mask-type:luminance" maskUnits="userSpaceOnUse" x="19" y="57" width="16" height="21">
<path d="M19.3845 77.5892H34.7822V57.0318H19.3845V77.5892Z" fill="white"/>
</mask>
<g mask="url(#mask6_494_205)">
<path opacity="0.7" d="M19.3845 77.5892H34.7822V57.0318H19.3845V77.5892Z" fill="white"/>
</g>
<path d="M19.3835 77.5892H34.7812V57.0318H19.3835V77.5892Z" stroke="#263238" stroke-width="1.25903" stroke-linecap="round" stroke-linejoin="round"/>
<path d="M16.4455 77.5892H19.3838L19.3838 57.0318H16.4455L16.4455 77.5892Z" fill="white"/>
<mask id="mask7_494_205" style="mask-type:luminance" maskUnits="userSpaceOnUse" x="16" y="57" width="4" height="21">
<path d="M16.4455 77.5892H19.3838L19.3838 57.0318H16.4455L16.4455 77.5892Z" fill="white"/>
</mask>
<g mask="url(#mask7_494_205)">
<path opacity="0.3" d="M16.4455 77.5892H19.3838L19.3838 57.0318H16.4455L16.4455 77.5892Z" fill="white"/>
</g>
<path d="M16.4455 77.5892H19.3838L19.3838 57.0318H16.4455L16.4455 77.5892Z" stroke="#263238" stroke-width="1.25903" stroke-linecap="round" stroke-linejoin="round"/>
<path d="M20.3831 63.5488H33.7031V58.5557H20.3831V63.5488Z" fill="white" stroke="#263238" stroke-width="1.25903" stroke-linecap="round" stroke-linejoin="round"/>
<path d="M20.3831 69.0854H33.7031V64.0923H20.3831V69.0854Z" fill="white" stroke="#263238" stroke-width="1.25903" stroke-linecap="round" stroke-linejoin="round"/>
<path d="M20.3831 74.6239H33.7031V69.6307H20.3831V74.6239Z" fill="white" stroke="#263238" stroke-width="1.25903" stroke-linecap="round" stroke-linejoin="round"/>
<path d="M26.4873 61.06C26.4873 61.1702 26.5199 61.2779 26.5809 61.3696C26.6419 61.4612 26.7287 61.5326 26.8302 61.5748C26.9317 61.617 27.0434 61.628 27.1511 61.6065C27.2588 61.585 27.3578 61.532 27.4355 61.454C27.5132 61.3761 27.5661 61.2768 27.5875 61.1687C27.6089 61.0606 27.5979 60.9485 27.5559 60.8467C27.5138 60.7449 27.4427 60.6578 27.3513 60.5966C27.26 60.5354 27.1526 60.5027 27.0427 60.5027C26.9698 60.5027 26.8976 60.5171 26.8302 60.5451C26.7628 60.5731 26.7016 60.6142 26.65 60.6659C26.5984 60.7177 26.5575 60.7791 26.5296 60.8467C26.5017 60.9143 26.4873 60.9868 26.4873 61.06Z" fill="white" stroke="#263238" stroke-width="1.25903" stroke-linecap="round" stroke-linejoin="round"/>
<path d="M26.4873 66.5897C26.487 66.7 26.5193 66.8079 26.5801 66.8998C26.6409 66.9917 26.7275 67.0634 26.829 67.1058C26.9305 67.1483 27.0422 67.1595 27.15 67.1382C27.2579 67.1169 27.357 67.064 27.4349 66.9861C27.5127 66.9083 27.5658 66.809 27.5874 66.7008C27.6089 66.5927 27.598 66.4805 27.556 66.3786C27.5141 66.2767 27.4429 66.1895 27.3515 66.1282C27.2601 66.0669 27.1527 66.0342 27.0427 66.0342C26.8957 66.0342 26.7547 66.0927 26.6506 66.1968C26.5465 66.3009 26.4878 66.4422 26.4873 66.5897Z" fill="white" stroke="#263238" stroke-width="1.25903" stroke-linecap="round" stroke-linejoin="round"/>
<path d="M26.4873 72.1282C26.4873 72.2384 26.5199 72.3462 26.5809 72.4378C26.6419 72.5295 26.7287 72.6009 26.8302 72.6431C26.9317 72.6852 27.0434 72.6963 27.1511 72.6748C27.2588 72.6533 27.3578 72.6002 27.4355 72.5223C27.5132 72.4443 27.5661 72.345 27.5875 72.2369C27.6089 72.1288 27.5979 72.0168 27.5559 71.9149C27.5138 71.8131 27.4427 71.7261 27.3513 71.6648C27.26 71.6036 27.1526 71.5709 27.0427 71.5709C26.9698 71.5709 26.8976 71.5853 26.8302 71.6133C26.7628 71.6414 26.7016 71.6824 26.65 71.7341C26.5984 71.7859 26.5575 71.8473 26.5296 71.9149C26.5017 71.9826 26.4873 72.055 26.4873 72.1282Z" fill="white" stroke="#263238" stroke-width="1.25903" stroke-linecap="round" stroke-linejoin="round"/>
<path d="M86.0878 18.6964H80.9141V50.5267H86.0878C86.4625 50.5269 86.8336 50.453 87.1799 50.3093C87.5262 50.1656 87.8409 49.9548 88.106 49.689C88.371 49.4232 88.5813 49.1076 88.7248 48.7603C88.8682 48.4129 88.9421 48.0406 88.9421 47.6646V21.5584C88.9421 21.1824 88.8682 20.8101 88.7248 20.4628C88.5813 20.1154 88.371 19.7998 88.106 19.534C87.8409 19.2682 87.5262 19.0575 87.1799 18.9137C86.8336 18.77 86.4625 18.6961 86.0878 18.6964Z" fill="#263238" stroke="#263238" stroke-width="1.25903" stroke-linecap="round" stroke-linejoin="round"/>
<path d="M85.0096 18.6964H41.5645C39.9891 18.6964 38.7119 19.9777 38.7119 21.5584V47.6663C38.7119 49.247 39.9891 50.5284 41.5645 50.5284H85.0096C86.5851 50.5284 87.8622 49.247 87.8622 47.6663V21.5584C87.8622 19.9777 86.5851 18.6964 85.0096 18.6964Z" fill="white" stroke="#263238" stroke-width="1.25903" stroke-linecap="round" stroke-linejoin="round"/>
<path d="M84.0083 19.7748H83.5678C83.1512 19.7748 82.8135 20.1137 82.8135 20.5316V20.9737C82.8135 21.3917 83.1512 21.7305 83.5678 21.7305H84.0083C84.4249 21.7305 84.7626 21.3917 84.7626 20.9737V20.5316C84.7626 20.1137 84.4249 19.7748 84.0083 19.7748Z" fill="#999999" stroke="#263238" stroke-width="1.25903" stroke-linecap="round" stroke-linejoin="round"/>
<mask id="mask8_494_205" style="mask-type:luminance" maskUnits="userSpaceOnUse" x="41" y="19" width="3" height="3">
<path d="M43.2516 20.7535C43.2516 20.9472 43.1944 21.1364 43.0871 21.2974C42.9799 21.4584 42.8274 21.5838 42.6491 21.6579C42.4708 21.7319 42.2745 21.7512 42.0853 21.7133C41.896 21.6754 41.7222 21.582 41.5859 21.4449C41.4495 21.3079 41.3568 21.1334 41.3193 20.9434C41.2819 20.7534 41.3014 20.5566 41.3755 20.3778C41.4496 20.199 41.5749 20.0463 41.7355 19.9389C41.8962 19.8316 42.0849 19.7745 42.2779 19.7748C42.4059 19.7748 42.5327 19.8002 42.6509 19.8494C42.7692 19.8986 42.8766 19.9707 42.9671 20.0616C43.0575 20.1525 43.1292 20.2604 43.178 20.3791C43.2268 20.4979 43.2519 20.6251 43.2516 20.7535Z" fill="white"/>
</mask>
<g mask="url(#mask8_494_205)">
<path opacity="0.5" d="M43.2516 20.7535C43.2516 20.9472 43.1944 21.1364 43.0871 21.2974C42.9799 21.4584 42.8274 21.5838 42.6491 21.6579C42.4708 21.7319 42.2745 21.7512 42.0853 21.7133C41.896 21.6754 41.7222 21.582 41.5859 21.4449C41.4495 21.3079 41.3568 21.1334 41.3193 20.9434C41.2819 20.7534 41.3014 20.5566 41.3755 20.3778C41.4496 20.199 41.5749 20.0463 41.7355 19.9389C41.8962 19.8316 42.0849 19.7745 42.2779 19.7748C42.4059 19.7748 42.5327 19.8002 42.6509 19.8494C42.7692 19.8986 42.8766 19.9707 42.9671 20.0616C43.0575 20.1525 43.1292 20.2604 43.178 20.3791C43.2268 20.4979 43.2519 20.6251 43.2516 20.7535Z" fill="black"/>
</g>
<path d="M43.2516 20.7535C43.2516 20.9472 43.1944 21.1364 43.0871 21.2974C42.9799 21.4584 42.8274 21.5838 42.6491 21.6579C42.4708 21.7319 42.2745 21.7512 42.0853 21.7133C41.896 21.6754 41.7222 21.582 41.5859 21.4449C41.4495 21.3079 41.3568 21.1334 41.3193 20.9434C41.2819 20.7534 41.3014 20.5566 41.3755 20.3778C41.4496 20.199 41.5749 20.0463 41.7355 19.9389C41.8962 19.8316 42.0849 19.7745 42.2779 19.7748C42.4059 19.7748 42.5327 19.8002 42.6509 19.8494C42.7692 19.8986 42.8766 19.9707 42.9671 20.0616C43.0575 20.1525 43.1292 20.2604 43.178 20.3791C43.2268 20.4979 43.2519 20.6251 43.2516 20.7535Z" stroke="#263238" stroke-width="1.25903" stroke-linecap="round" stroke-linejoin="round"/>
<mask id="mask9_494_205" style="mask-type:luminance" maskUnits="userSpaceOnUse" x="47" y="19" width="3" height="3">
<path d="M48.3338 21.7322C48.8725 21.7322 49.3093 21.294 49.3093 20.7535C49.3093 20.213 48.8725 19.7748 48.3338 19.7748C47.7951 19.7748 47.3584 20.213 47.3584 20.7535C47.3584 21.294 47.7951 21.7322 48.3338 21.7322Z" fill="white"/>
</mask>
<g mask="url(#mask9_494_205)">
<path opacity="0.5" d="M48.3338 21.7322C48.8725 21.7322 49.3093 21.294 49.3093 20.7535C49.3093 20.213 48.8725 19.7748 48.3338 19.7748C47.7951 19.7748 47.3584 20.213 47.3584 20.7535C47.3584 21.294 47.7951 21.7322 48.3338 21.7322Z" fill="white" stroke="#263238" stroke-width="1.25903" stroke-linecap="round" stroke-linejoin="round"/>
</g>
<path d="M48.3338 21.7322C48.8725 21.7322 49.3093 21.294 49.3093 20.7535C49.3093 20.213 48.8725 19.7748 48.3338 19.7748C47.7951 19.7748 47.3584 20.213 47.3584 20.7535C47.3584 21.294 47.7951 21.7322 48.3338 21.7322Z" stroke="#263238" stroke-width="1.25903" stroke-linecap="round" stroke-linejoin="round"/>
<path d="M45.3055 21.7322C45.8442 21.7322 46.2809 21.294 46.2809 20.7535C46.2809 20.213 45.8442 19.7748 45.3055 19.7748C44.7668 19.7748 44.3301 20.213 44.3301 20.7535C44.3301 21.294 44.7668 21.7322 45.3055 21.7322Z" stroke="#263238" stroke-width="1.25903" stroke-linecap="round" stroke-linejoin="round"/>
<path d="M85.0095 22.8106H41.5661C40.7055 22.8106 40.0078 23.5106 40.0078 24.3741V47.6646C40.0078 48.5281 40.7055 49.2281 41.5661 49.2281H85.0095C85.8701 49.2281 86.5678 48.5281 86.5678 47.6646V24.3741C86.5678 23.5106 85.8701 22.8106 85.0095 22.8106Z" fill="white"/>
<mask id="mask10_494_205" style="mask-type:luminance" maskUnits="userSpaceOnUse" x="40" y="22" width="47" height="28">
<path d="M85.0095 22.8106H41.5661C40.7055 22.8106 40.0078 23.5106 40.0078 24.3741V47.6646C40.0078 48.5281 40.7055 49.2281 41.5661 49.2281H85.0095C85.8701 49.2281 86.5678 48.5281 86.5678 47.6646V24.3741C86.5678 23.5106 85.8701 22.8106 85.0095 22.8106Z" fill="white"/>
</mask>
<g mask="url(#mask10_494_205)">
<path opacity="0.3" d="M85.0095 22.8106H41.5661C40.7055 22.8106 40.0078 23.5106 40.0078 24.3741V47.6646C40.0078 48.5281 40.7055 49.2281 41.5661 49.2281H85.0095C85.8701 49.2281 86.5678 48.5281 86.5678 47.6646V24.3741C86.5678 23.5106 85.8701 22.8106 85.0095 22.8106Z" fill="black"/>
</g>
<path d="M85.0095 22.8106H41.5661C40.7055 22.8106 40.0078 23.5106 40.0078 24.3741V47.6646C40.0078 48.5281 40.7055 49.2281 41.5661 49.2281H85.0095C85.8701 49.2281 86.5678 48.5281 86.5678 47.6646V24.3741C86.5678 23.5106 85.8701 22.8106 85.0095 22.8106Z" stroke="#263238" stroke-width="1.25903" stroke-linecap="round" stroke-linejoin="round"/>
<path d="M53.3482 23.8925H41.5642C41.3001 23.8925 41.0859 24.1074 41.0859 24.3724V47.6646C41.0859 47.9297 41.3001 48.1445 41.5642 48.1445H53.3482C53.6124 48.1445 53.8265 47.9297 53.8265 47.6646V24.3724C53.8265 24.1074 53.6124 23.8925 53.3482 23.8925Z" fill="#999999" stroke="#263238" stroke-width="1.25903" stroke-linecap="round" stroke-linejoin="round"/>
<path d="M69.8602 23.8925H56.5642C56.3001 23.8925 56.0859 24.1074 56.0859 24.3724V47.6646C56.0859 47.9297 56.3001 48.1445 56.5642 48.1445H69.8602C70.1244 48.1445 70.3385 47.9297 70.3385 47.6646V24.3724C70.3385 24.1074 70.1244 23.8925 69.8602 23.8925Z" fill="white"/>
<mask id="mask11_494_205" style="mask-type:luminance" maskUnits="userSpaceOnUse" x="56" y="23" width="15" height="26">
<path d="M69.8602 23.8925H56.5642C56.3001 23.8925 56.0859 24.1074 56.0859 24.3724V47.6646C56.0859 47.9297 56.3001 48.1445 56.5642 48.1445H69.8602C70.1244 48.1445 70.3385 47.9297 70.3385 47.6646V24.3724C70.3385 24.1074 70.1244 23.8925 69.8602 23.8925Z" fill="white"/>
</mask>
<g mask="url(#mask11_494_205)">
<path opacity="0.8" d="M69.8602 23.8925H56.5642C56.3001 23.8925 56.0859 24.1074 56.0859 24.3724V47.6646C56.0859 47.9297 56.3001 48.1445 56.5642 48.1445H69.8602C70.1244 48.1445 70.3385 47.9297 70.3385 47.6646V24.3724C70.3385 24.1074 70.1244 23.8925 69.8602 23.8925Z" fill="white"/>
</g>
<path d="M69.8602 23.8925H56.5642C56.3001 23.8925 56.0859 24.1074 56.0859 24.3724V47.6646C56.0859 47.9297 56.3001 48.1445 56.5642 48.1445H69.8602C70.1244 48.1445 70.3385 47.9297 70.3385 47.6646V24.3724C70.3385 24.1074 70.1244 23.8925 69.8602 23.8925Z" stroke="#263238" stroke-width="1.25903" stroke-linecap="round" stroke-linejoin="round"/>
<path d="M84.3278 23.8925H73.5809C73.4653 23.893 73.3545 23.9394 73.2729 24.0216C73.1913 24.1038 73.1455 24.2151 73.1455 24.3311V25.6521H84.7632V24.3311C84.7632 24.2151 84.7174 24.1038 84.6358 24.0216C84.5542 23.9394 84.4434 23.893 84.3278 23.8925Z" fill="white" stroke="#263238" stroke-width="1.25903" stroke-linecap="round" stroke-linejoin="round"/>
<path d="M83.2969 24.424H84.3323" stroke="#263238" stroke-width="1.25903" stroke-linecap="round" stroke-linejoin="round"/>
<path d="M83.2969 24.7714H84.3323" stroke="#263238" stroke-width="1.25903" stroke-linecap="round" stroke-linejoin="round"/>
<path d="M84.3323 25.1171H83.2969" stroke="#263238" stroke-width="1.25903" stroke-linecap="round" stroke-linejoin="round"/>
<path d="M78.9552 25.6521L78.6861 24.5564C78.6394 24.367 78.5308 24.1986 78.3776 24.0783C78.2244 23.958 78.0355 23.8926 77.8409 23.8925H73.5809C73.4653 23.893 73.3545 23.9394 73.2729 24.0216C73.1913 24.1038 73.1455 24.2151 73.1455 24.3311V30.9308C73.1455 31.0466 73.1914 31.1577 73.273 31.2397C73.3547 31.3216 73.4655 31.3676 73.5809 31.3676H84.3278C84.4433 31.3676 84.554 31.3216 84.6357 31.2397C84.7174 31.1577 84.7632 31.0466 84.7632 30.9308V25.6521H78.9552Z" fill="#999999" stroke="#263238" stroke-width="1.25903" stroke-linecap="round" stroke-linejoin="round"/>
<path d="M40.9044 46.7152H45.3821C45.4832 46.7152 45.5638 46.6722 45.5638 46.6188V41.9576C45.5638 41.9043 45.4832 41.8613 45.3821 41.8613H40.9044C40.8049 41.8613 40.7227 41.9043 40.7227 41.9576V46.612C40.7227 46.6722 40.7998 46.7152 40.9044 46.7152Z" fill="white"/>
<mask id="mask12_494_205" style="mask-type:luminance" maskUnits="userSpaceOnUse" x="40" y="41" width="6" height="6">
<path d="M40.9044 46.7152H45.3821C45.4832 46.7152 45.5638 46.6722 45.5638 46.6188V41.9576C45.5638 41.9043 45.4832 41.8613 45.3821 41.8613H40.9044C40.8049 41.8613 40.7227 41.9043 40.7227 41.9576V46.612C40.7227 46.6722 40.7998 46.7152 40.9044 46.7152Z" fill="white"/>
</mask>
<g mask="url(#mask12_494_205)">
<path opacity="0.3" d="M40.9044 46.7152H45.3821C45.4832 46.7152 45.5638 46.6722 45.5638 46.6188V41.9576C45.5638 41.9043 45.4832 41.8613 45.3821 41.8613H40.9044C40.8049 41.8613 40.7227 41.9043 40.7227 41.9576V46.612C40.7227 46.6722 40.7998 46.7152 40.9044 46.7152Z" fill="black"/>
</g>
<path d="M40.9044 46.7152H45.3821C45.4832 46.7152 45.5638 46.6722 45.5638 46.6188V41.9576C45.5638 41.9043 45.4832 41.8613 45.3821 41.8613H40.9044C40.8049 41.8613 40.7227 41.9043 40.7227 41.9576V46.612C40.7227 46.6722 40.7998 46.7152 40.9044 46.7152Z" stroke="#263238" stroke-width="1.25903" stroke-linecap="round" stroke-linejoin="round"/>
<path d="M46.5098 46.7152H50.9876C51.087 46.7152 51.1693 46.6722 51.1693 46.6188V41.9576C51.1693 41.9043 51.087 41.8613 50.9876 41.8613H46.5098C46.4087 41.8613 46.3281 41.9043 46.3281 41.9576V46.612C46.3281 46.6722 46.4087 46.7152 46.5098 46.7152Z" fill="white" stroke="#263238" stroke-width="1.25903" stroke-linecap="round" stroke-linejoin="round"/>
<path d="M43.0626 41.0598H47.5403C47.6414 41.0598 47.722 41.0168 47.722 40.9635V36.3023C47.722 36.249 47.6414 36.206 47.5403 36.206H43.0626C42.9631 36.206 42.8809 36.249 42.8809 36.3023V40.9635C42.8809 41.0168 42.9631 41.0598 43.0626 41.0598Z" fill="white" stroke="#263238" stroke-width="1.25903" stroke-linecap="round" stroke-linejoin="round"/>
<path d="M48.668 41.0598H53.1423C53.2418 41.0598 53.324 41.0168 53.324 40.9635V36.3023C53.324 36.249 53.2418 36.206 53.1423 36.206H48.668C48.5669 36.206 48.4863 36.249 48.4863 36.3023V40.9635C48.4863 41.0168 48.5669 41.0598 48.668 41.0598Z" fill="white" stroke="#263238" stroke-width="1.25903" stroke-linecap="round" stroke-linejoin="round"/>
<path d="M42.6309 35.4044H47.1086C47.2098 35.4044 47.2921 35.3614 47.2921 35.3081V30.6469C47.2921 30.5936 47.2098 30.5506 47.1086 30.5506H42.6309C42.5315 30.5506 42.4492 30.5936 42.4492 30.6469V35.3081C42.4492 35.3614 42.5315 35.4044 42.6309 35.4044Z" fill="white"/>
<mask id="mask13_494_205" style="mask-type:luminance" maskUnits="userSpaceOnUse" x="42" y="30" width="6" height="6">
<path d="M42.6309 35.4044H47.1086C47.2098 35.4044 47.2921 35.3614 47.2921 35.3081V30.6469C47.2921 30.5936 47.2098 30.5506 47.1086 30.5506H42.6309C42.5315 30.5506 42.4492 30.5936 42.4492 30.6469V35.3081C42.4492 35.3614 42.5315 35.4044 42.6309 35.4044Z" fill="white"/>
</mask>
<g mask="url(#mask13_494_205)">
<path opacity="0.5" d="M42.6309 35.4044H47.1086C47.2098 35.4044 47.2921 35.3614 47.2921 35.3081V30.6469C47.2921 30.5936 47.2098 30.5506 47.1086 30.5506H42.6309C42.5315 30.5506 42.4492 30.5936 42.4492 30.6469V35.3081C42.4492 35.3614 42.5315 35.4044 42.6309 35.4044Z" fill="white"/>
</g>
<path d="M42.6309 35.4044H47.1086C47.2098 35.4044 47.2921 35.3614 47.2921 35.3081V30.6469C47.2921 30.5936 47.2098 30.5506 47.1086 30.5506H42.6309C42.5315 30.5506 42.4492 30.5936 42.4492 30.6469V35.3081C42.4492 35.3614 42.5315 35.4044 42.6309 35.4044Z" stroke="#263238" stroke-width="1.25903" stroke-linecap="round" stroke-linejoin="round"/>
<path d="M48.2364 35.4044H52.7141C52.8153 35.4044 52.8958 35.3614 52.8958 35.3081V30.6469C52.8958 30.5936 52.8153 30.5506 52.7141 30.5506H48.2364C48.1353 30.5506 48.0547 30.5936 48.0547 30.6469V35.3081C48.0547 35.3614 48.1353 35.4044 48.2364 35.4044Z" fill="white" stroke="#263238" stroke-width="1.25903" stroke-linecap="round" stroke-linejoin="round"/>
<path d="M42.6309 29.756H47.1086C47.2098 29.756 47.2921 29.713 47.2921 29.6597V24.9916C47.2921 24.9383 47.2098 24.8953 47.1086 24.8953H42.6309C42.5315 24.8953 42.4492 24.9383 42.4492 24.9916V29.6528C42.4492 29.7061 42.5315 29.756 42.6309 29.756Z" fill="white" stroke="#263238" stroke-width="1.25903" stroke-linecap="round" stroke-linejoin="round"/>
<path d="M48.2364 29.756H52.7141C52.8153 29.756 52.8958 29.713 52.8958 29.6597V24.9916C52.8958 24.9383 52.8153 24.8953 52.7141 24.8953H48.2364C48.1353 24.8953 48.0547 24.9383 48.0547 24.9916V29.6528C48.0547 29.7061 48.1353 29.756 48.2364 29.756Z" fill="white"/>
<mask id="mask14_494_205" style="mask-type:luminance" maskUnits="userSpaceOnUse" x="48" y="24" width="5" height="6">
<path d="M48.2364 29.756H52.7141C52.8153 29.756 52.8958 29.713 52.8958 29.6597V24.9916C52.8958 24.9383 52.8153 24.8953 52.7141 24.8953H48.2364C48.1353 24.8953 48.0547 24.9383 48.0547 24.9916V29.6528C48.0547 29.7061 48.1353 29.756 48.2364 29.756Z" fill="white"/>
</mask>
<g mask="url(#mask14_494_205)">
<path opacity="0.7" d="M48.2364 29.756H52.7141C52.8153 29.756 52.8958 29.713 52.8958 29.6597V24.9916C52.8958 24.9383 52.8153 24.8953 52.7141 24.8953H48.2364C48.1353 24.8953 48.0547 24.9383 48.0547 24.9916V29.6528C48.0547 29.7061 48.1353 29.756 48.2364 29.756Z" fill="white"/>
</g>
<path d="M48.2364 29.756H52.7141C52.8153 29.756 52.8958 29.713 52.8958 29.6597V24.9916C52.8958 24.9383 52.8153 24.8953 52.7141 24.8953H48.2364C48.1353 24.8953 48.0547 24.9383 48.0547 24.9916V29.6528C48.0547 29.7061 48.1353 29.756 48.2364 29.756Z" stroke="#263238" stroke-width="1.25903" stroke-linecap="round" stroke-linejoin="round"/>
<path d="M83.3776 42.4839H72.6325C72.5168 42.4848 72.4061 42.5313 72.3243 42.6134C72.2426 42.6955 72.1962 42.8065 72.1953 42.9225V49.5359C72.1953 49.5935 72.2066 49.6506 72.2286 49.7038C72.2506 49.757 72.2828 49.8054 72.3233 49.8461C72.3639 49.8868 72.4121 49.9191 72.4652 49.9412C72.5182 49.9632 72.575 49.9745 72.6325 49.9745H83.3776C83.4934 49.9741 83.6043 49.9277 83.6862 49.8456C83.7681 49.7634 83.8143 49.6521 83.8147 49.5359V42.9277C83.8152 42.8697 83.8042 42.8123 83.7825 42.7585C83.7607 42.7048 83.7286 42.656 83.688 42.6147C83.6474 42.5735 83.5991 42.5407 83.5458 42.5183C83.4925 42.4958 83.4354 42.4842 83.3776 42.4839Z" fill="#263238" stroke="#263238" stroke-width="1.25903" stroke-linecap="round" stroke-linejoin="round"/>
<path d="M82.654 42.2741H71.9088C71.7932 42.2741 71.6823 42.3201 71.6003 42.402C71.5184 42.4838 71.4721 42.595 71.4717 42.711V44.0319H83.0911V42.711C83.0907 42.595 83.0444 42.4838 82.9625 42.402C82.8805 42.3201 82.7696 42.2741 82.654 42.2741Z" fill="white" stroke="#263238" stroke-width="1.25903" stroke-linecap="round" stroke-linejoin="round"/>
<path d="M81.624 42.8073H82.6594" stroke="#263238" stroke-width="1.25903" stroke-linecap="round" stroke-linejoin="round"/>
<path d="M81.624 43.1531H82.6594" stroke="#263238" stroke-width="1.25903" stroke-linecap="round" stroke-linejoin="round"/>
<path d="M82.6594 43.4988H81.624" stroke="#263238" stroke-width="1.25903" stroke-linecap="round" stroke-linejoin="round"/>
<path d="M77.2814 44.0319L77.014 42.938C76.9672 42.7486 76.8586 42.5802 76.7055 42.4599C76.5523 42.3396 76.3634 42.2742 76.1688 42.2741H71.9088C71.7932 42.2741 71.6823 42.3201 71.6003 42.402C71.5184 42.4838 71.4721 42.595 71.4717 42.711V49.3106C71.4721 49.4268 71.5183 49.5381 71.6002 49.6203C71.6821 49.7024 71.793 49.7488 71.9088 49.7492H82.654C82.7699 49.7492 82.8811 49.703 82.9631 49.6208C83.045 49.5385 83.0911 49.427 83.0911 49.3106V44.0319H77.2814Z" fill="#999999" stroke="#263238" stroke-width="1.25903" stroke-linecap="round" stroke-linejoin="round"/>
<path d="M82.944 32.4942H72.1972C72.1252 32.4924 72.054 32.5083 71.9897 32.5408C71.9254 32.5732 71.87 32.621 71.8286 32.68C71.7805 32.7529 71.7549 32.8385 71.7549 32.9259V39.5239C71.7549 39.6399 71.8007 39.7512 71.8823 39.8334C71.9639 39.9156 72.0747 39.962 72.1903 39.9625H82.9372C83.0528 39.962 83.1636 39.9156 83.2452 39.8334C83.3268 39.7512 83.3726 39.6399 83.3726 39.5239V32.9328C83.3726 32.818 83.3277 32.7077 83.2476 32.6257C83.1675 32.5437 83.0585 32.4965 82.944 32.4942Z" fill="#263238" stroke="#263238" stroke-width="1.25903" stroke-linecap="round" stroke-linejoin="round"/>
<path d="M82.654 32.1777H71.9088C71.7932 32.1777 71.6823 32.2237 71.6003 32.3056C71.5184 32.3875 71.4721 32.4986 71.4717 32.6146V33.9356H83.0911V32.6146C83.0907 32.4986 83.0444 32.3875 82.9625 32.3056C82.8805 32.2237 82.7696 32.1777 82.654 32.1777Z" fill="white" stroke="#263238" stroke-width="1.25903" stroke-linecap="round" stroke-linejoin="round"/>
<path d="M81.624 32.7109H82.6594" stroke="#263238" stroke-width="1.25903" stroke-linecap="round" stroke-linejoin="round"/>
<path d="M81.624 33.0566H82.6594" stroke="#263238" stroke-width="1.25903" stroke-linecap="round" stroke-linejoin="round"/>
<path d="M82.6594 33.4023H81.624" stroke="#263238" stroke-width="1.25903" stroke-linecap="round" stroke-linejoin="round"/>
<path d="M77.2814 33.9356L77.014 32.8417C76.9672 32.6522 76.8586 32.4839 76.7055 32.3635C76.5523 32.2432 76.3634 32.1778 76.1688 32.1777H71.9088C71.7932 32.1777 71.6823 32.2237 71.6003 32.3056C71.5184 32.3875 71.4721 32.4986 71.4717 32.6146V39.216C71.4717 39.3323 71.5177 39.4439 71.5997 39.5261C71.6817 39.6084 71.7929 39.6546 71.9088 39.6546H82.654C82.7699 39.6546 82.8811 39.6084 82.9631 39.5261C83.045 39.4439 83.0911 39.3323 83.0911 39.216V33.9356H77.2814Z" fill="#999999" stroke="#263238" stroke-width="1.25903" stroke-linecap="round" stroke-linejoin="round"/>
<path d="M42.3682 52.5116H46.846C46.9471 52.5116 47.0277 52.4686 47.0277 52.4152V47.754C47.0277 47.7007 46.9471 47.6577 46.846 47.6577H42.3682C42.2688 47.6577 42.1865 47.7007 42.1865 47.754V52.4152C42.1865 52.4686 42.2688 52.5116 42.3682 52.5116Z" fill="white" stroke="#263238" stroke-width="1.25903" stroke-linecap="round" stroke-linejoin="round"/>
<path d="M76.8461 48.0877H66.0993C65.9833 48.0877 65.8721 48.1339 65.7901 48.2162C65.7082 48.2984 65.6621 48.41 65.6621 48.5263V49.8455H77.2815V48.5263C77.2815 48.4103 77.2357 48.299 77.1541 48.2168C77.0725 48.1346 76.9617 48.0882 76.8461 48.0877Z" fill="white" stroke="#263238" stroke-width="1.25903" stroke-linecap="round" stroke-linejoin="round"/>
<path d="M75.8145 48.6209H76.8499" stroke="#263238" stroke-width="1.25903" stroke-linecap="round" stroke-linejoin="round"/>
<path d="M75.8145 48.9667H76.8499" stroke="#263238" stroke-width="1.25903" stroke-linecap="round" stroke-linejoin="round"/>
<path d="M76.8499 49.3124H75.8145" stroke="#263238" stroke-width="1.25903" stroke-linecap="round" stroke-linejoin="round"/>
<path d="M71.4718 49.8455L71.2044 48.7516C71.1577 48.5622 71.0491 48.3938 70.8959 48.2735C70.7427 48.1532 70.5538 48.0878 70.3593 48.0877H66.0993C65.9833 48.0877 65.8721 48.1339 65.7901 48.2162C65.7082 48.2984 65.6621 48.41 65.6621 48.5263V55.1242C65.6621 55.2406 65.7082 55.3521 65.7901 55.4344C65.8721 55.5166 65.9833 55.5628 66.0993 55.5628H76.8461C76.9617 55.5624 77.0725 55.516 77.1541 55.4338C77.2357 55.3516 77.2815 55.2403 77.2815 55.1242V49.8455H71.4718Z" fill="#999999" stroke="#263238" stroke-width="1.25903" stroke-linecap="round" stroke-linejoin="round"/>
<path d="M84.7627 17.4631H85.5718" stroke="#263238" stroke-width="1.25903" stroke-linecap="round" stroke-linejoin="round"/>
<path d="M81.624 17.4631H83.8149" stroke="#263238" stroke-width="1.25903" stroke-linecap="round" stroke-linejoin="round"/>
<path d="M58.0557 17.4631H79.7105" stroke="#263238" stroke-width="1.25903" stroke-linecap="round" stroke-linejoin="round"/>
<path d="M55.6094 17.4631H56.9037" stroke="#263238" stroke-width="1.25903" stroke-linecap="round" stroke-linejoin="round"/>
<path d="M67.8342 43.8256C67.8479 43.6536 67.8565 43.4816 67.8565 43.3096C67.8565 43.1376 67.8479 42.9656 67.8342 42.7936L66.2399 42.5872C66.156 41.9796 65.9663 41.3916 65.6794 40.85L66.8571 39.732C66.674 39.4354 66.4688 39.1531 66.2434 38.8874L64.8308 39.6597C64.4064 39.2185 63.9087 38.8547 63.3599 38.5847L63.6565 36.9989C63.3351 36.866 63.0038 36.7584 62.6656 36.6772L61.9799 38.1358C61.3784 38.028 60.7626 38.028 60.1611 38.1358L59.4754 36.6772C59.1372 36.7584 58.806 36.866 58.4845 36.9989L58.7811 38.5847C58.2324 38.8547 57.7346 39.2185 57.3102 39.6597L55.8856 38.884C55.6583 39.1501 55.4519 39.4336 55.2685 39.732L56.4376 40.8396C56.1494 41.3808 55.959 41.969 55.8754 42.5768L54.2811 42.7832C54.2674 42.9552 54.2588 43.1272 54.2588 43.2992C54.2588 43.4712 54.2674 43.6432 54.2811 43.8152L55.8754 44.0234C55.9593 44.6306 56.1497 45.2181 56.4376 45.7588L55.2685 46.8682C55.4504 47.1652 55.655 47.4476 55.8805 47.7128L57.2931 46.9388C57.717 47.3805 58.2148 47.7444 58.7639 48.0138L58.4674 49.5996C58.7888 49.7331 59.12 49.8412 59.4582 49.923L60.1439 48.4627C60.7455 48.5705 61.3613 48.5705 61.9628 48.4627L62.6485 49.923C62.9867 49.8412 63.318 49.7331 63.6394 49.5996L63.3428 48.0138C63.8919 47.7444 64.3897 47.3805 64.8136 46.9388L66.2262 47.7128C66.4517 47.4472 66.6568 47.1648 66.8399 46.8682L65.6708 45.7588C65.9595 45.221 66.1521 44.6365 66.2399 44.032L67.8342 43.8256ZM61.0576 39.4052C61.653 39.4062 62.2401 39.5448 62.7735 39.8103C63.3068 40.0758 63.7721 40.461 64.1331 40.936L61.6336 42.0935C61.4537 42.0075 61.2569 41.9629 61.0576 41.9629C60.8583 41.9629 60.6616 42.0075 60.4816 42.0935L57.9822 40.936C58.3434 40.4612 58.8087 40.0761 59.342 39.8107C59.8753 39.5452 60.4623 39.4065 61.0576 39.4052ZM57.1731 43.3027C57.1729 42.7996 57.2702 42.3014 57.4594 41.8355L59.7205 43.4351C59.7394 43.6276 59.7995 43.8137 59.8965 43.9808C59.9935 44.1479 60.1253 44.292 60.2828 44.4035L60.5331 47.1555C59.6035 47.0291 58.7511 46.5692 58.1334 45.8609C57.5157 45.1526 57.1745 44.2438 57.1731 43.3027ZM61.5822 47.1606L61.8325 44.4086C61.9903 44.2975 62.1223 44.1534 62.2194 43.9863C62.3165 43.8191 62.3763 43.6329 62.3948 43.4403L64.6559 41.8407C64.8805 42.3911 64.9763 42.9859 64.936 43.5793C64.8958 44.1727 64.7205 44.7489 64.4237 45.2638C64.1269 45.7787 63.7165 46.2184 63.2239 46.5493C62.7313 46.8802 62.1697 47.0935 61.5822 47.1727V47.1606Z" fill="#263238" stroke="#263238" stroke-width="1.25903" stroke-linecap="round" stroke-linejoin="round"/>
<path d="M61.6236 43.3027C61.624 43.415 61.5911 43.5249 61.5291 43.6185C61.4672 43.7121 61.3789 43.7851 61.2756 43.8283C61.1722 43.8715 61.0584 43.883 60.9486 43.8613C60.8387 43.8396 60.7378 43.7857 60.6585 43.7064C60.5792 43.6271 60.5252 43.5259 60.5032 43.4158C60.4812 43.3056 60.4923 43.1914 60.5351 43.0876C60.5778 42.9838 60.6504 42.895 60.7434 42.8326C60.8365 42.7702 60.9459 42.7368 61.0579 42.7368C61.2076 42.7368 61.3513 42.7964 61.4573 42.9025C61.5634 43.0085 61.6232 43.1525 61.6236 43.3027Z" fill="white" stroke="#263238" stroke-width="1.25903" stroke-linecap="round" stroke-linejoin="round"/>
<path d="M67.812 32.066C67.8223 31.9421 67.8274 31.8183 67.8274 31.691C67.8274 31.5637 67.8274 31.4416 67.812 31.3178L66.672 31.1698C66.6123 30.7354 66.4765 30.315 66.2709 29.928L67.1074 29.1351C66.9766 28.923 66.8299 28.7212 66.6686 28.5314L65.6572 29.0852C65.354 28.7689 64.9977 28.5087 64.6046 28.3164L64.8172 27.1812C64.5889 27.0874 64.3539 27.0109 64.1143 26.9524L63.6206 27.9947C63.1903 27.9167 62.7497 27.9167 62.3194 27.9947L61.8274 26.9524C61.5844 27.0086 61.346 27.0833 61.1143 27.176L61.3269 28.3112C60.9343 28.5035 60.5785 28.7638 60.276 29.08L59.2663 28.5262C59.1045 28.7156 58.9577 28.9174 58.8274 29.1299L59.6572 29.928C59.4523 30.3153 59.3166 30.7356 59.256 31.1698L58.116 31.3178C58.1074 31.4416 58.1006 31.5654 58.1006 31.691C58.1006 31.8166 58.1006 31.9421 58.116 32.066L59.256 32.2139C59.3166 32.6481 59.4523 33.0684 59.6572 33.4557L58.8223 34.2486C58.953 34.4603 59.0997 34.6615 59.2612 34.8506L60.2709 34.2985C60.5743 34.6137 60.9298 34.8739 61.3217 35.0674L61.1092 36.2008C61.3393 36.2964 61.5766 36.3735 61.8189 36.4313L62.3109 35.389C62.7413 35.4646 63.1816 35.4646 63.612 35.389L64.1057 36.4313C64.3474 36.3732 64.5841 36.2962 64.8137 36.2008L64.6012 35.0674C64.9936 34.8739 65.3497 34.6138 65.6537 34.2985L66.6634 34.8506C66.8243 34.6611 66.971 34.4599 67.1023 34.2486L66.2657 33.4557C66.4713 33.0687 66.6071 32.6483 66.6669 32.2139L67.812 32.066ZM62.9674 28.9046C63.3925 28.9048 63.8117 29.003 64.1928 29.1918C64.5739 29.3806 64.9066 29.6549 65.1652 29.9934L63.3789 30.8207C63.2503 30.7595 63.1098 30.7277 62.9674 30.7277C62.8251 30.7277 62.6846 30.7595 62.556 30.8207L60.768 29.9934C61.0268 29.6548 61.3598 29.3804 61.7412 29.1916C62.1226 29.0028 62.5422 28.9046 62.9674 28.9046ZM60.1886 31.691C60.1886 31.3312 60.2584 30.9748 60.3943 30.6418L62.0109 31.7856C62.0247 31.9226 62.0678 32.055 62.1374 32.1738C62.2069 32.2925 62.3012 32.3948 62.4137 32.4736L62.5852 34.4447C61.9219 34.3527 61.3142 34.0233 60.8738 33.5173C60.4335 33.0113 60.1901 32.3627 60.1886 31.691ZM63.3412 34.443L63.5212 32.4719C63.6332 32.3926 63.7272 32.2902 63.7966 32.1715C63.8661 32.0529 63.9095 31.9207 63.924 31.7839L65.5389 30.6401C65.699 31.0334 65.7671 31.4583 65.7381 31.8822C65.7091 32.306 65.5837 32.7176 65.3715 33.0853C65.1593 33.4529 64.866 33.767 64.514 34.0032C64.1621 34.2395 63.7608 34.3917 63.3412 34.4482V34.443Z" fill="#757575" stroke="#263238" stroke-width="1.25903" stroke-linecap="round" stroke-linejoin="round"/>
<path d="M62.968 32.0969C63.1915 32.0969 63.3726 31.9152 63.3726 31.691C63.3726 31.4668 63.1915 31.2851 62.968 31.2851C62.7446 31.2851 62.5635 31.4668 62.5635 31.691C62.5635 31.9152 62.7446 32.0969 62.968 32.0969Z" fill="white" stroke="#263238" stroke-width="1.25903" stroke-linecap="round" stroke-linejoin="round"/>
<path d="M55.3838 48.3715C55.3838 48.289 55.3958 48.1995 55.3958 48.1238C55.3958 48.0482 55.3958 47.9518 55.3838 47.8744L54.6244 47.7747C54.5849 47.4852 54.4943 47.205 54.3569 46.9474L54.9141 46.4193C54.8273 46.2779 54.7299 46.1433 54.6226 46.0168L53.9489 46.3849C53.7467 46.1735 53.5095 45.9989 53.2478 45.8689L53.3883 45.1138C53.2356 45.0497 53.0779 44.9979 52.9169 44.959L52.5878 45.647C52.4447 45.6207 52.2995 45.6075 52.1541 45.6075C52.0086 45.6076 51.8635 45.6209 51.7204 45.647L51.3929 44.959C51.2314 44.9982 51.0732 45.0499 50.9198 45.1138L51.0621 45.8689C50.8001 45.9985 50.5628 46.1732 50.3609 46.3849L49.6872 46.0168C49.5794 46.1429 49.482 46.2775 49.3958 46.4193L49.9529 46.9474C49.815 47.2049 49.7238 47.4851 49.6838 47.7747L48.9244 47.8744C48.9244 47.957 48.9141 48.0464 48.9141 48.1238C48.9141 48.2012 48.9141 48.2958 48.9244 48.3715L49.6838 48.4713C49.7238 48.7609 49.815 49.041 49.9529 49.2986L49.3941 49.8266C49.4814 49.9681 49.5794 50.1026 49.6872 50.2291L50.3609 49.861C50.5623 50.0733 50.7997 50.2481 51.0621 50.377L50.9198 51.1321C51.0732 51.196 51.2314 51.2478 51.3929 51.2869L51.7204 50.5903C51.8635 50.6165 52.0086 50.6297 52.1541 50.6299C52.2995 50.6299 52.4447 50.6167 52.5878 50.5903L52.9169 51.2869C53.0779 51.2481 53.2356 51.1963 53.3883 51.1321L53.2478 50.377C53.5098 50.2476 53.7472 50.073 53.9489 49.861L54.6226 50.2291C54.7299 50.1026 54.8273 49.9681 54.9141 49.8266L54.3569 49.2986C54.4943 49.0409 54.5849 48.7608 54.6244 48.4713L55.3838 48.3715ZM52.1541 46.268C52.4375 46.2678 52.7172 46.3332 52.9714 46.4591C53.2256 46.585 53.4475 46.768 53.6198 46.9938L52.4283 47.5459C52.3427 47.5048 52.249 47.4837 52.1541 47.484C52.0592 47.4841 51.9655 47.5052 51.8798 47.5459L50.6883 46.9938C50.8609 46.7682 51.0828 46.5855 51.337 46.4596C51.5911 46.3338 51.8707 46.2682 52.1541 46.268ZM50.3026 48.1273C50.3028 47.8872 50.3493 47.6495 50.4398 47.4272L51.5164 48.1892C51.5257 48.2811 51.5545 48.37 51.6009 48.4498C51.6474 48.5296 51.7103 48.5985 51.7855 48.6519L51.9055 49.966C51.4614 49.9056 51.0541 49.6856 50.7594 49.3468C50.4646 49.0081 50.3023 48.5735 50.3026 48.1238V48.1273ZM52.4044 49.966L52.5244 48.6519C52.5993 48.5984 52.662 48.5295 52.7081 48.4497C52.7543 48.3698 52.7828 48.281 52.7918 48.1892L53.8701 47.4272C53.9761 47.6895 54.021 47.9727 54.0013 48.2551C53.9816 48.5374 53.8978 48.8116 53.7564 49.0565C53.615 49.3014 53.4197 49.5107 53.1853 49.6683C52.951 49.8259 52.6839 49.9277 52.4044 49.966Z" fill="white" stroke="#263238" stroke-width="1.25903" stroke-linecap="round" stroke-linejoin="round"/>
<path d="M52.4231 48.1239C52.4231 48.1773 52.4073 48.2295 52.3777 48.2739C52.3481 48.3183 52.3061 48.3529 52.2569 48.3733C52.2077 48.3938 52.1536 48.3991 52.1014 48.3887C52.0492 48.3783 52.0012 48.3526 51.9636 48.3148C51.926 48.277 51.9003 48.2289 51.8899 48.1765C51.8796 48.1242 51.8849 48.0699 51.9053 48.0205C51.9256 47.9712 51.9601 47.929 52.0044 47.8993C52.0486 47.8697 52.1007 47.8538 52.1539 47.8538C52.2253 47.8538 52.2937 47.8823 52.3442 47.9329C52.3947 47.9836 52.4231 48.0522 52.4231 48.1239Z" stroke="#263238" stroke-width="1.25903" stroke-linecap="round" stroke-linejoin="round"/>
<path d="M31.8583 49.6667L39.8211 49.0062L35.6691 65.5698L29.3863 75.4598L26.8525 74.132C26.8525 74.132 29.8045 66.8461 31.9628 64.1749C31.9628 64.1749 32.4223 58.8859 32.8405 56.1167C32.8405 56.1167 32.0571 52.2484 31.8583 49.6667Z" fill="#858585"/>
<mask id="mask15_494_205" style="mask-type:luminance" maskUnits="userSpaceOnUse" x="26" y="49" width="14" height="27">
<path d="M31.8583 49.6667L39.8211 49.0062L35.6691 65.5698L29.3863 75.4598L26.8525 74.132C26.8525 74.132 29.8045 66.8461 31.9628 64.1749C31.9628 64.1749 32.4223 58.8859 32.8405 56.1167C32.8405 56.1167 32.0571 52.2484 31.8583 49.6667Z" fill="white"/>
</mask>
<g mask="url(#mask15_494_205)">
<path d="M37.3901 49.2075L33.9427 49.493C33.9427 49.493 33.6684 53.0757 36.3118 55.8019L37.5427 58.0913L38.7684 53.1996L37.3901 49.2075Z" fill="#263238" stroke="#263238" stroke-width="1.25903" stroke-linecap="round" stroke-linejoin="round"/>
</g>
<path d="M31.8583 49.6667L39.8211 49.0062L35.6691 65.5698L29.3863 75.4598L26.8525 74.132C26.8525 74.132 29.8045 66.8461 31.9628 64.1749C31.9628 64.1749 32.4223 58.8859 32.8405 56.1167C32.8405 56.1167 32.0571 52.2484 31.8583 49.6667Z" stroke="#263238" stroke-width="1.25903" stroke-linecap="round" stroke-linejoin="round"/>
<path d="M31.8858 65.3685C31.7367 65.4503 31.6 65.5528 31.4795 65.673" stroke="#263238" stroke-width="1.25903" stroke-linecap="round" stroke-linejoin="round"/>
<path d="M32.5033 64.1026C32.5033 64.1026 34.0565 63.8308 34.377 64.9144C34.629 65.7624 33.4976 64.9643 32.3799 65.1931" stroke="#263238" stroke-width="1.25903" stroke-linecap="round" stroke-linejoin="round"/>
<path d="M34.378 49.6547L40.7414 48.7276L44.8934 61.8237L48.3665 73.616L45.5105 74.734C45.5105 74.734 42.1471 67.4378 41.3722 63.4628C41.3722 63.4628 38.2677 58.1584 37.1654 55.611C36.2907 54.8868 35.587 53.9769 35.105 52.9469C34.623 51.917 34.3747 50.7925 34.378 49.6547Z" fill="#999999" stroke="#263238" stroke-width="1.25903" stroke-linecap="round" stroke-linejoin="round"/>
<path d="M40.2568 55.5061C40.5348 55.5377 40.8002 55.6395 41.0283 55.8019" stroke="#263238" stroke-width="1.25903" stroke-linecap="round" stroke-linejoin="round"/>
<path d="M39.6619 53.9959C39.2025 54.3864 37.3596 54.5412 37.7916 55.2962C38.0488 55.7452 38.7654 55.556 39.5316 55.4992" stroke="#263238" stroke-width="1.25903" stroke-linecap="round" stroke-linejoin="round"/>
<path d="M41.7979 63.1825C41.7979 63.1825 42.7373 62.5857 43.4933 63.1825" stroke="#263238" stroke-width="1.25903" stroke-linecap="round" stroke-linejoin="round"/>
<path d="M30.201 79.3642L24.7256 76.251L24.8764 75.8916L25.0942 75.9569C25.0942 75.9569 25.449 75.4409 26.3302 74.3608C26.5752 73.5933 26.9416 72.8703 27.4153 72.2194C27.4153 72.2194 30.8902 73.3253 30.3296 74.6394L29.5873 75.938C29.9269 76.5143 30.299 77.0708 30.7016 77.6047C30.7016 77.6047 31.5176 78.131 31.7302 78.1757C31.827 78.1902 31.9197 78.2253 32.0019 78.2787C32.0842 78.3322 32.154 78.4027 32.2068 78.4854C32.2596 78.5682 32.2941 78.6614 32.308 78.7587C32.3219 78.856 32.3148 78.9552 32.2873 79.0495L32.4982 79.0942L32.3644 79.4692L30.201 79.3642Z" fill="white" stroke="#263238" stroke-width="1.25903" stroke-linecap="round" stroke-linejoin="round"/>
<path d="M28.6285 72.7061C28.2328 72.5196 27.8264 72.357 27.4113 72.2194C26.9376 72.8703 26.5713 73.5933 26.3262 74.3608C27.7919 75.2724 28.6285 72.7061 28.6285 72.7061Z" fill="white"/>
<mask id="mask16_494_205" style="mask-type:luminance" maskUnits="userSpaceOnUse" x="26" y="72" width="3" height="3">
<path d="M28.6285 72.7061C28.2328 72.5196 27.8264 72.357 27.4113 72.2194C26.9376 72.8703 26.5713 73.5933 26.3262 74.3608C27.7919 75.2724 28.6285 72.7061 28.6285 72.7061Z" fill="white"/>
</mask>
<g mask="url(#mask16_494_205)">
<path opacity="0.5" d="M28.6285 72.7061C28.2328 72.5196 27.8264 72.357 27.4113 72.2194C26.9376 72.8703 26.5713 73.5933 26.3262 74.3608C27.7919 75.2724 28.6285 72.7061 28.6285 72.7061Z" fill="black"/>
</g>
<path d="M28.6285 72.7061C28.2328 72.5196 27.8264 72.357 27.4113 72.2194C26.9376 72.8703 26.5713 73.5933 26.3262 74.3608C27.7919 75.2724 28.6285 72.7061 28.6285 72.7061Z" stroke="#263238" stroke-width="1.25903" stroke-linecap="round" stroke-linejoin="round"/>
<path d="M29.7791 76.2321C29.6907 76.362 29.5691 76.4657 29.4271 76.5322C29.285 76.5988 29.1277 76.6258 28.9717 76.6105" stroke="#263238" stroke-width="1.25903" stroke-linecap="round" stroke-linejoin="round"/>
<path d="M30.0895 76.7C30.0895 76.7 30.0089 77.0766 29.4209 77.2418" stroke="#263238" stroke-width="1.25903" stroke-linecap="round" stroke-linejoin="round"/>
<path d="M30.403 77.1713C30.403 77.1713 30.5076 77.5393 29.875 77.8799" stroke="#263238" stroke-width="1.25903" stroke-linecap="round" stroke-linejoin="round"/>
<path d="M30.8301 78.9136L31.8929 78.991" stroke="#263238" stroke-width="1.25903" stroke-linecap="round" stroke-linejoin="round"/>
<path d="M26.0996 76.5314L30.2242 78.8689L30.5962 78.3941" stroke="#263238" stroke-width="1.25903" stroke-linecap="round" stroke-linejoin="round"/>
<path d="M25.4707 76.1753L25.7553 76.337" stroke="#263238" stroke-width="1.25903" stroke-linecap="round" stroke-linejoin="round"/>
<path d="M45.0586 74.3229C45.0586 74.3229 48.1443 72.3827 48.7889 73.6572L49.2929 75.0659C49.2929 75.0659 51.7752 75.4443 52.5312 75.2809C52.625 75.2556 52.7232 75.2506 52.8192 75.2662C52.9151 75.2819 53.0066 75.3178 53.0877 75.3716C53.1687 75.4255 53.2375 75.496 53.2893 75.5785C53.3411 75.661 53.3749 75.7536 53.3883 75.8502L53.5992 75.8055L53.63 76.2028L46.3735 78.991L46.202 78.647L46.3923 78.5231C46.3923 78.5231 46.2363 77.9211 45.9809 76.5434C45.5565 75.8577 45.2451 75.108 45.0586 74.3229Z" fill="white" stroke="#263238" stroke-width="1.25903" stroke-linecap="round" stroke-linejoin="round"/>
<path d="M46.2157 73.7089C45.8181 73.8901 45.4317 74.0951 45.0586 74.3229C45.246 75.1069 45.558 75.8555 45.9826 76.54C47.6215 76.0119 46.2157 73.7089 46.2157 73.7089Z" fill="white"/>
<mask id="mask17_494_205" style="mask-type:luminance" maskUnits="userSpaceOnUse" x="45" y="73" width="2" height="4">
<path d="M46.2157 73.7089C45.8181 73.8901 45.4317 74.0951 45.0586 74.3229C45.246 75.1069 45.558 75.8555 45.9826 76.54C47.6215 76.0119 46.2157 73.7089 46.2157 73.7089Z" fill="white"/>
</mask>
<g mask="url(#mask17_494_205)">
<path opacity="0.5" d="M46.2157 73.7089C45.8181 73.8901 45.4317 74.0951 45.0586 74.3229C45.246 75.1069 45.558 75.8555 45.9826 76.54C47.6215 76.0119 46.2157 73.7089 46.2157 73.7089Z" fill="black"/>
</g>
<path d="M46.2157 73.7089C45.8181 73.8901 45.4317 74.0951 45.0586 74.3229C45.246 75.1069 45.558 75.8555 45.9826 76.54C47.6215 76.0119 46.2157 73.7089 46.2157 73.7089Z" stroke="#263238" stroke-width="1.25903" stroke-linecap="round" stroke-linejoin="round"/>
<path d="M52.7588 76.1066L53.0982 75.9758" stroke="#263238" stroke-width="1.25903" stroke-linecap="round" stroke-linejoin="round"/>
<path d="M48.1162 77.8884L52.3282 76.2716" stroke="#263238" stroke-width="1.25903" stroke-linecap="round" stroke-linejoin="round"/>
<path d="M46.6904 78.4354L47.2921 78.205" stroke="#263238" stroke-width="1.25903" stroke-linecap="round" stroke-linejoin="round"/>
<path d="M49.637 75.1141C49.678 75.2656 49.6777 75.4253 49.636 75.5766C49.5944 75.7279 49.513 75.8652 49.4004 75.9741" stroke="#263238" stroke-width="1.25903" stroke-linecap="round" stroke-linejoin="round"/>
<path d="M50.1924 75.1794C50.1924 75.1794 50.4256 75.4856 50.1719 76.0394" stroke="#263238" stroke-width="1.25903" stroke-linecap="round" stroke-linejoin="round"/>
<path d="M50.7549 75.2449C50.7549 75.2449 51.0977 75.4031 50.9503 76.1049" stroke="#263238" stroke-width="1.25903" stroke-linecap="round" stroke-linejoin="round"/>
<path d="M29.9488 31.9077C29.323 32.641 28.9124 33.5342 28.7625 34.4877C28.4933 36.1114 27.2196 39.5738 27.6293 39.8318C28.0391 40.0898 31.8928 42.9278 31.8928 42.9278L33.5831 41.3574L31.1831 38.2889L32.3728 33.0739L29.9488 31.9077Z" fill="white"/>
<mask id="mask18_494_205" style="mask-type:luminance" maskUnits="userSpaceOnUse" x="27" y="31" width="7" height="12">
<path d="M29.9488 31.9077C29.323 32.641 28.9124 33.5342 28.7625 34.4877C28.4933 36.1114 27.2196 39.5738 27.6293 39.8318C28.0391 40.0898 31.8928 42.9278 31.8928 42.9278L33.5831 41.3574L31.1831 38.2889L32.3728 33.0739L29.9488 31.9077Z" fill="white"/>
</mask>
<g mask="url(#mask18_494_205)">
<path opacity="0.3" d="M29.9488 31.9077C29.323 32.641 28.9124 33.5342 28.7625 34.4877C28.4933 36.1114 27.2196 39.5738 27.6293 39.8318C28.0391 40.0898 31.8928 42.9278 31.8928 42.9278L33.5831 41.3574L31.1831 38.2889L32.3728 33.0739L29.9488 31.9077Z" fill="black"/>
</g>
<path d="M29.9488 31.9077C29.323 32.641 28.9124 33.5342 28.7625 34.4877C28.4933 36.1114 27.2196 39.5738 27.6293 39.8318C28.0391 40.0898 31.8928 42.9278 31.8928 42.9278L33.5831 41.3574L31.1831 38.2889L32.3728 33.0739L29.9488 31.9077Z" stroke="#263238" stroke-width="1.25903" stroke-linecap="round" stroke-linejoin="round"/>
<path d="M28.3213 39.1489C28.5797 38.902 28.8999 38.73 29.2479 38.6509C29.5959 38.5719 29.9587 38.5888 30.2979 38.7" stroke="#263238" stroke-width="1.25903" stroke-linecap="round" stroke-linejoin="round"/>
<path d="M24.792 46.8786C25.2567 47.3162 25.829 47.6222 26.4502 47.7653C27.0715 47.9083 27.7194 47.8833 28.3279 47.6928C28.9364 47.5023 29.4835 47.1532 29.9134 46.681C30.3433 46.2089 30.6406 45.6307 30.7748 45.0055L58.5291 35.3958C59.0191 35.805 59.6085 36.0762 60.2371 36.1819C60.8658 36.2876 61.5111 36.2239 62.1072 35.9974C62.7033 35.7709 63.2288 35.3896 63.6299 34.8926C64.031 34.3955 64.2934 33.8005 64.3903 33.1684V32.735L61.7143 33.6621L60.3154 32.4426L60.6154 30.8946L63.2914 29.9692V29.5358C62.8267 29.0977 62.2543 28.7913 61.6328 28.648C61.0113 28.5047 60.3631 28.5296 59.7543 28.7201C59.1456 28.9106 58.5982 29.26 58.1682 29.7324C57.7381 30.2048 57.4409 30.7834 57.3068 31.4089L29.5526 41.0185C29.0626 40.6094 28.4732 40.3381 27.8446 40.2324C27.2159 40.1267 26.5705 40.1904 25.9745 40.4169C25.3784 40.6435 24.8529 41.0247 24.4518 41.5218C24.0507 42.0188 23.7883 42.6138 23.6914 43.2459V43.688L26.3674 42.7609L27.7663 43.9786L27.468 45.5266L24.792 46.44V46.8786Z" fill="#CBF2D6" stroke="#263238" stroke-width="1.25903" stroke-linecap="round" stroke-linejoin="round"/>
<path d="M60.2451 32.3807L60.6154 30.4646L63.2914 29.5375C62.8267 29.0994 62.2543 28.793 61.6328 28.6497C61.0113 28.5064 60.3631 28.5313 59.7543 28.7218C59.1456 28.9123 58.5982 29.2617 58.1682 29.7341C57.7381 30.2065 57.4409 30.7851 57.3068 31.4106L29.5526 41.0202C29.0626 40.6111 28.4732 40.3398 27.8446 40.2341C27.2159 40.1284 26.5705 40.1921 25.9745 40.4187C25.3784 40.6452 24.8529 41.0265 24.4518 41.5235C24.0507 42.0205 23.7883 42.6155 23.6914 43.2476L26.3674 42.3223L27.8383 43.6019L27.468 45.5197L24.792 46.4399C25.2567 46.8776 25.829 47.1836 26.4502 47.3266C27.0715 47.4697 27.7194 47.4447 28.3279 47.2542C28.9364 47.0637 29.4835 46.7146 29.9134 46.2424C30.3433 45.7703 30.6406 45.192 30.7748 44.5669L58.5291 34.9572C59.0196 35.3665 59.6097 35.6376 60.239 35.7428C60.8682 35.8481 61.5141 35.7837 62.1104 35.5562C62.7067 35.3287 63.232 34.9463 63.6326 34.4482C64.0332 33.9501 64.2947 33.3541 64.3903 32.7212L61.7143 33.6621L60.2451 32.3807Z" fill="#858585" stroke="#263238" stroke-width="1.25903" stroke-linecap="round" stroke-linejoin="round"/>
<path d="M39.2572 26.3917C39.2572 26.3917 38.7206 25.3218 38.6418 24.9331C38.5852 24.6579 38.6966 24.0834 38.6418 23.8082C38.5098 23.1632 37.6132 21.3865 37.6132 21.3865C37.5766 21.3101 37.5211 21.2444 37.452 21.1956L36.9172 21.844H35.4858L33.3018 24.7405L34.3766 27.348L34.0612 27.723C34.2549 27.9139 34.3766 28.024 34.3766 28.024L34.0612 29.916L37.1469 30.229L37.2275 29.025H38.1652C38.2914 29.0245 38.4124 28.974 38.5017 28.8844C38.591 28.7949 38.6413 28.6735 38.6418 28.5468V26.9077L39.072 26.7856C39.1118 26.7745 39.1486 26.755 39.1802 26.7284C39.2117 26.7018 39.2371 26.6686 39.2547 26.6312C39.2723 26.5938 39.2816 26.5531 39.282 26.5117C39.2824 26.4704 39.274 26.4294 39.2572 26.3917Z" fill="white" stroke="#263238" stroke-width="1.25903" stroke-linecap="round" stroke-linejoin="round"/>
<path d="M34.3767 28.0187L34.9013 26.9867C34.9013 26.9867 33.7698 26.5825 34.0047 25.5677C34.2396 24.5529 35.1841 25.4147 35.1841 25.4147H35.4858L35.7533 24.2416C35.7533 24.2416 36.4098 23.5347 36.3636 23.287C36.3281 23.107 36.2811 22.9295 36.223 22.7555C36.223 22.7555 38.3453 22.4305 38.0693 21.1783C37.7933 19.9261 34.9458 20.4009 34.9458 20.4009C34.9458 20.4009 34.1058 18.8976 31.9476 21.8199C31.9476 21.8199 30.3738 22.7211 31.5241 24.6131C32.3245 25.8671 33.2834 27.0118 34.3767 28.0187Z" fill="#263238" stroke="#263238" stroke-width="1.25903" stroke-linecap="round" stroke-linejoin="round"/>
<path d="M35.4855 23.0927C35.4855 23.0927 33.8363 26.3951 32.4323 26.6394L31.9746 26.0167C31.9746 26.0167 32.0552 25.4887 32.9449 25.4147C32.9449 25.4147 33.7849 25.0432 34.7792 23.2871L35.4855 23.0927Z" fill="#858585" stroke="#263238" stroke-width="1.25903" stroke-linecap="round" stroke-linejoin="round"/>
<path d="M37.1416 26.6393C37.2568 26.7674 37.4011 26.8656 37.5623 26.9255C37.7235 26.9854 37.8968 27.0053 38.0673 26.9833" stroke="#263238" stroke-width="1.25903" stroke-linecap="round" stroke-linejoin="round"/>
<path d="M38.0669 24.6132C38.0669 24.7594 38.0104 24.8798 37.9418 24.8798C37.8732 24.8798 37.8184 24.7594 37.8184 24.6132C37.8184 24.467 37.8749 24.3466 37.9418 24.3466C38.0086 24.3466 38.0669 24.4652 38.0669 24.6132Z" fill="#263238"/>
<path d="M38.0678 23.6018C37.8968 23.5644 37.718 23.5889 37.5633 23.6711C37.4086 23.7532 37.2879 23.8878 37.2227 24.0507" stroke="#263238" stroke-width="1.25903" stroke-linecap="round" stroke-linejoin="round"/>
<path d="M31.9421 25.4714C31.9133 25.51 31.8751 25.5407 31.8312 25.5605C31.7874 25.5803 31.7392 25.5886 31.6913 25.5846C31.6433 25.5807 31.5972 25.5646 31.5571 25.5379C31.517 25.5112 31.4844 25.4747 31.4621 25.4319C30.917 24.3844 29.7993 21.5705 32.7976 20.1807C36.3616 18.5295 38.2713 20.7793 38.2713 20.7793L39.2193 20.8808L39.4713 21.3228L32.3399 24.94L31.9421 25.4714Z" fill="white" stroke="#263238" stroke-width="1.25903" stroke-linecap="round" stroke-linejoin="round"/>
<path d="M32.7704 30.4285C32.9206 30.1273 33.1492 29.8723 33.4319 29.6907C33.7147 29.509 34.0411 29.4074 34.3767 29.3965C35.5612 29.3415 37.3801 29.5049 37.8464 30.6418C37.8464 30.6418 40.4024 31.3831 40.9921 33.2046C41.5818 35.0261 40.7418 43.4179 40.7418 43.4179C40.7418 43.4179 41.4961 46.7754 41.0281 49.0131C41.0281 49.0131 38.4395 49.9041 31.4281 50.0451C31.4281 50.0451 30.9138 45.6987 31.207 44.1558C31.207 44.1558 29.1618 33.3043 29.9521 31.8957C30.7424 30.487 32.7704 30.4285 32.7704 30.4285Z" fill="#263238" stroke="#263238" stroke-width="1.25903" stroke-miterlimit="10"/>
<path d="M34.1042 38.583C32.0111 38.5349 30.9242 39.0526 30.4082 39.443C30.5111 40.131 30.6156 40.7881 30.7151 41.3849C31.0373 41.1166 31.8859 40.819 34.0511 40.776C36.3675 40.7356 38.6762 41.0565 40.8945 41.7272C40.9425 41.1441 40.9956 40.4509 41.0436 39.7131C39.8728 39.4 36.7271 38.6415 34.1042 38.583Z" fill="white" stroke="#263238" stroke-width="1.25903" stroke-linecap="round" stroke-linejoin="round"/>
<path d="M40.7417 43.4214C40.7417 43.4214 40.7571 43.2614 40.7828 42.9811C39.8023 42.7351 37.0406 42.1039 34.392 42.0437C32.2183 41.9938 31.3166 42.4616 30.9531 42.7833C31.1023 43.6329 31.2034 44.1679 31.2034 44.1679C31.1828 44.2728 31.1674 44.3915 31.1537 44.5119C31.5651 44.2745 32.4514 44.044 34.3388 44.0062C36.5916 43.9684 38.8373 44.2704 41.0006 44.9023C40.8788 44.032 40.7417 43.4214 40.7417 43.4214Z" fill="white" stroke="#263238" stroke-width="1.25903" stroke-linecap="round" stroke-linejoin="round"/>
<path d="M36.6855 30.4852C36.833 30.5213 36.9821 30.5626 37.1347 30.6091" stroke="#7F7F7F" stroke-width="0.944269" stroke-linecap="round" stroke-linejoin="round"/>
<path d="M33.583 30.284C34.4617 30.1688 35.3535 30.202 36.2213 30.3821" stroke="#7F7F7F" stroke-width="0.944269" stroke-linecap="round" stroke-linejoin="round"/>
<path d="M38.664 37.324C38.5535 35.7654 38.8526 34.205 39.5315 32.7987C40.6698 30.3907 41.5886 35.2376 41.5886 35.2376C41.5886 35.2376 42.8932 37.3016 43.2069 38.7774C43.2069 38.7774 44.3263 37.6852 48.9155 37.324L49.4538 39.2607C49.4538 39.2607 43.1298 42.3773 41.7978 42.14C40.812 41.9783 38.664 37.324 38.664 37.324Z" fill="white" stroke="#263238" stroke-width="1.25903" stroke-linecap="round" stroke-linejoin="round"/>
<path d="M40.9298 38.012C40.9279 38.2045 40.944 38.3969 40.9778 38.5864" stroke="#263238" stroke-width="1.25903" stroke-linecap="round" stroke-linejoin="round"/>
<path d="M39.751 37.324C39.751 37.324 40.6733 35.2944 41.1567 35.432C41.4995 35.5335 41.1327 36.3401 40.9853 37.324" stroke="#263238" stroke-width="1.25903" stroke-linecap="round" stroke-linejoin="round"/>
<path d="M48.3672 37.1348C48.3672 37.1348 49.1095 38.4282 49.0735 39.7784L49.9735 39.2882C49.9735 39.2882 49.8843 37.6422 49.2552 37.0883L48.3672 37.1348Z" fill="#263238" stroke="#263238" stroke-width="1.25903" stroke-linecap="round" stroke-linejoin="round"/>
<path d="M49.0732 37.3756L50.5441 37.1348C50.6586 36.9003 50.8372 36.7033 51.0591 36.5669C51.281 36.4304 51.537 36.3601 51.7972 36.3642C52.3 36.379 52.8013 36.3021 53.2767 36.1372C53.2907 36.1314 53.306 36.1293 53.3211 36.131C53.3362 36.1327 53.3506 36.1381 53.363 36.1469C53.3755 36.1556 53.3856 36.1673 53.3923 36.1809C53.3991 36.1946 53.4024 36.2097 53.4018 36.2249C53.4018 36.4348 53.2441 36.8355 52.2172 36.9284C52.2172 36.9284 53.1447 37.4943 53.4018 37.2724C53.4698 37.206 53.5548 37.1597 53.6474 37.1388C53.74 37.1178 53.8365 37.123 53.9264 37.1537C53.9264 37.1537 53.9572 37.8778 53.4464 37.9071C53.4464 37.9071 53.3264 38.3766 52.9321 38.368C52.9321 38.368 52.6612 38.7499 52.4521 38.6897C52.2441 38.7339 52.0292 38.7339 51.8212 38.6897C51.4321 38.6226 51.0121 38.5383 51.0121 38.5383L49.6407 38.9683L49.0732 37.3756Z" fill="#263238" stroke="#263238" stroke-width="1.25903" stroke-linecap="round" stroke-linejoin="round"/>
<path d="M53.2764 37.5493C53.2764 37.5493 53.2953 37.8452 53.0793 37.8933C52.8633 37.9415 53.1341 38.2012 52.3936 38.4265" stroke="#7F7F7F" stroke-width="0.944269" stroke-linecap="round" stroke-linejoin="round"/>
<path d="M43.2221 39.3656C43.2357 39.7601 43.1871 40.1542 43.0781 40.5335" stroke="#263238" stroke-width="1.25903" stroke-linecap="round" stroke-linejoin="round"/>
<path d="M49.7915 38.1444C49.7266 37.8786 49.6263 37.6229 49.4932 37.3842" stroke="#7F7F7F" stroke-width="0.944269" stroke-linecap="round" stroke-linejoin="round"/>
<path d="M49.8976 38.6518C49.8839 38.5692 49.8685 38.4798 49.8496 38.3955" stroke="#7F7F7F" stroke-width="0.944269" stroke-linecap="round" stroke-linejoin="round"/>
</svg>
