<svg width="16" height="16" viewBox="0 0 16 16" fill="none" xmlns="http://www.w3.org/2000/svg">
<path d="M7 4.83301C6.91159 4.83301 6.82681 4.86813 6.7643 4.93064C6.70179 4.99315 6.66667 5.07794 6.66667 5.16634C6.66667 5.25475 6.70179 5.33953 6.7643 5.40204C6.82681 5.46456 6.91159 5.49967 7 5.49967H9C9.08841 5.49967 9.17319 5.46456 9.2357 5.40204C9.29821 5.33953 9.33333 5.25475 9.33333 5.16634C9.33333 5.07794 9.29821 4.99315 9.2357 4.93064C9.17319 4.86813 9.08841 4.83301 9 4.83301H7ZM6.33333 8.49967C6.33333 8.67649 6.2631 8.84605 6.13807 8.97108C6.01305 9.0961 5.84348 9.16634 5.66667 9.16634C5.48986 9.16634 5.32029 9.0961 5.19526 8.97108C5.07024 8.84605 5 8.67649 5 8.49967C5 8.32286 5.07024 8.15329 5.19526 8.02827C5.32029 7.90325 5.48986 7.83301 5.66667 7.83301C5.84348 7.83301 6.01305 7.90325 6.13807 8.02827C6.2631 8.15329 6.33333 8.32286 6.33333 8.49967ZM6.33333 10.833C6.33333 11.0098 6.2631 11.1794 6.13807 11.3044C6.01305 11.4294 5.84348 11.4997 5.66667 11.4997C5.48986 11.4997 5.32029 11.4294 5.19526 11.3044C5.07024 11.1794 5 11.0098 5 10.833C5 10.6562 5.07024 10.4866 5.19526 10.3616C5.32029 10.2366 5.48986 10.1663 5.66667 10.1663C5.84348 10.1663 6.01305 10.2366 6.13807 10.3616C6.2631 10.4866 6.33333 10.6562 6.33333 10.833ZM8 9.16634C8.17681 9.16634 8.34638 9.0961 8.4714 8.97108C8.59643 8.84605 8.66667 8.67649 8.66667 8.49967C8.66667 8.32286 8.59643 8.15329 8.4714 8.02827C8.34638 7.90325 8.17681 7.83301 8 7.83301C7.82319 7.83301 7.65362 7.90325 7.5286 8.02827C7.40357 8.15329 7.33333 8.32286 7.33333 8.49967C7.33333 8.67649 7.40357 8.84605 7.5286 8.97108C7.65362 9.0961 7.82319 9.16634 8 9.16634ZM8.66667 10.833C8.66667 11.0098 8.59643 11.1794 8.4714 11.3044C8.34638 11.4294 8.17681 11.4997 8 11.4997C7.82319 11.4997 7.65362 11.4294 7.5286 11.3044C7.40357 11.1794 7.33333 11.0098 7.33333 10.833C7.33333 10.6562 7.40357 10.4866 7.5286 10.3616C7.65362 10.2366 7.82319 10.1663 8 10.1663C8.17681 10.1663 8.34638 10.2366 8.4714 10.3616C8.59643 10.4866 8.66667 10.6562 8.66667 10.833ZM10.3333 9.16634C10.5101 9.16634 10.6797 9.0961 10.8047 8.97108C10.9298 8.84605 11 8.67649 11 8.49967C11 8.32286 10.9298 8.15329 10.8047 8.02827C10.6797 7.90325 10.5101 7.83301 10.3333 7.83301C10.1565 7.83301 9.98695 7.90325 9.86193 8.02827C9.7369 8.15329 9.66667 8.32286 9.66667 8.49967C9.66667 8.67649 9.7369 8.84605 9.86193 8.97108C9.98695 9.0961 10.1565 9.16634 10.3333 9.16634Z" fill="#949292"/>
<path fill-rule="evenodd" clip-rule="evenodd" d="M5.33333 2.33301C5.42174 2.33301 5.50652 2.36813 5.56904 2.43064C5.63155 2.49315 5.66667 2.57794 5.66667 2.66634V3.33301H10.3333V2.66634C10.3333 2.57794 10.3685 2.49315 10.431 2.43064C10.4935 2.36813 10.5783 2.33301 10.6667 2.33301C10.7551 2.33301 10.8399 2.36813 10.9024 2.43064C10.9649 2.49315 11 2.57794 11 2.66634V3.33501C11.1631 3.33634 11.3084 3.34212 11.436 3.35234C11.6793 3.37234 11.8927 3.41434 12.09 3.51434C12.4035 3.67427 12.6584 3.92935 12.818 4.24301C12.9187 4.44034 12.9607 4.65367 12.9807 4.89634C13 5.13301 13 5.42434 13 5.78567V10.8803C13 11.2417 13 11.5337 12.9807 11.769C12.9607 12.0123 12.9187 12.2257 12.818 12.423C12.6582 12.7364 12.4034 12.9913 12.09 13.151C11.8927 13.2517 11.6793 13.2937 11.4367 13.3137C11.2 13.333 10.9087 13.333 10.548 13.333H5.45267C5.09133 13.333 4.79933 13.333 4.564 13.3137C4.32067 13.2937 4.10733 13.2517 3.91 13.151C3.59634 12.9914 3.34126 12.7365 3.18133 12.423C3.08133 12.2257 3.03933 12.0123 3.01933 11.7697C3 11.533 3 11.241 3 10.8797V5.78634C3 5.46967 3 5.20767 3.01333 4.98834L3.01933 4.89767C3.03933 4.65434 3.08133 4.44101 3.18133 4.24367C3.34115 3.92991 3.59624 3.67482 3.91 3.51501C4.10733 3.41501 4.32067 3.37301 4.56333 3.35301C4.69178 3.34279 4.83733 3.33701 5 3.33567V2.66634C5 2.57794 5.03512 2.49315 5.09763 2.43064C5.16014 2.36813 5.24493 2.33301 5.33333 2.33301ZM5 4.33301V4.00167C4.87254 4.00273 4.74514 4.00784 4.618 4.01701C4.41667 4.03301 4.30067 4.06367 4.21267 4.10834C4.02434 4.20424 3.87124 4.35735 3.77533 4.54567C3.73067 4.63367 3.7 4.74967 3.684 4.95101C3.66667 5.15701 3.66667 5.42101 3.66667 5.79967V6.16634H12.3333V5.79967C12.3333 5.42101 12.3333 5.15701 12.316 4.95101C12.3 4.74967 12.2693 4.63367 12.2247 4.54567C12.1288 4.35735 11.9757 4.20424 11.7873 4.10834C11.6993 4.06367 11.5833 4.03301 11.382 4.01701C11.2549 4.00784 11.1275 4.00273 11 4.00167V4.33301C11 4.42141 10.9649 4.5062 10.9024 4.56871C10.8399 4.63122 10.7551 4.66634 10.6667 4.66634C10.5783 4.66634 10.4935 4.63122 10.431 4.56871C10.3685 4.5062 10.3333 4.42141 10.3333 4.33301V3.99967H5.66667V4.33301C5.66667 4.42141 5.63155 4.5062 5.56904 4.56871C5.50652 4.63122 5.42174 4.66634 5.33333 4.66634C5.24493 4.66634 5.16014 4.63122 5.09763 4.56871C5.03512 4.5062 5 4.42141 5 4.33301ZM12.3333 6.83301H3.66667V10.8663C3.66667 11.245 3.66667 11.5097 3.684 11.715C3.7 11.9163 3.73067 12.0323 3.77533 12.1203C3.87124 12.3087 4.02434 12.4618 4.21267 12.5577C4.30067 12.6023 4.41667 12.633 4.618 12.649C4.824 12.6663 5.088 12.6663 5.46667 12.6663H10.5333C10.912 12.6663 11.1767 12.6663 11.382 12.649C11.5833 12.633 11.6993 12.6023 11.7873 12.5577C11.9757 12.4618 12.1288 12.3087 12.2247 12.1203C12.2693 12.0323 12.3 11.9163 12.316 11.715C12.3333 11.5097 12.3333 11.245 12.3333 10.8663V6.83301Z" fill="#949292"/>
</svg>
