<svg width="22" height="16" viewBox="0 0 22 16" fill="none" xmlns="http://www.w3.org/2000/svg">
<path d="M1 1.44269C1 1.32528 1.07024 1.21268 1.19526 1.12966C1.32029 1.04664 1.48986 1 1.66667 1H20.3333C20.5101 1 20.6797 1.04664 20.8047 1.12966C20.9298 1.21268 21 1.32528 21 1.44269V11.6246C21 11.6827 20.9828 11.7403 20.9493 11.794C20.9158 11.8477 20.8666 11.8965 20.8047 11.9376C20.7428 11.9787 20.6693 12.0113 20.5885 12.0336C20.5076 12.0558 20.4209 12.0673 20.3333 12.0673H15.7333C15.6422 12.0672 15.5519 12.0795 15.4682 12.1035C15.3845 12.1275 15.3091 12.1626 15.2467 12.2067L11.4856 14.8606C11.4232 14.9046 11.348 14.9397 11.2645 14.9637C11.181 14.9876 11.091 15 11 15C10.909 15 10.819 14.9876 10.7355 14.9637C10.652 14.9397 10.5768 14.9046 10.5144 14.8606L6.75333 12.2067C6.69088 12.1626 6.61547 12.1275 6.53177 12.1035C6.44806 12.0795 6.35783 12.0672 6.26667 12.0673H1.66667C1.48986 12.0673 1.32029 12.0206 1.19526 11.9376C1.07024 11.8546 1 11.742 1 11.6246V1.44269Z" stroke="#F36B14" stroke-width="1.5"/>
<path d="M11 4L12.425 6.575L15 8L12.425 9.425L11 12L9.575 9.425L7 8L9.575 6.575L11 4Z" stroke="#F36B14" stroke-width="1.5" stroke-linecap="round" stroke-linejoin="round"/>
</svg>
