<svg width="48" height="48" viewBox="0 0 48 48" fill="none" xmlns="http://www.w3.org/2000/svg">
<path d="M24 2.25C19.6538 2.25 15.5156 3.60205 12.0366 6.15967C11.7026 6.40576 11.6309 6.87451 11.8755 7.2085C12.0234 7.40918 12.2505 7.51465 12.4805 7.51465C12.6357 7.51465 12.791 7.46777 12.9243 7.36963C16.1455 5.00098 19.9746 3.75 24 3.75C27.0615 3.75 29.9722 4.46338 32.6514 5.86816C33.0161 6.06006 33.4717 5.91943 33.6636 5.55322C33.8569 5.18701 33.7148 4.73291 33.3486 4.54102C30.4937 3.04248 27.2607 2.25 24 2.25ZM44.25 22.5C44.25 19.2393 43.4575 16.0063 41.959 13.1514C41.7671 12.7852 41.3115 12.646 40.9468 12.8364C40.5806 13.0283 40.4385 13.4824 40.6318 13.8486C42.0366 16.5278 42.75 19.4385 42.75 22.5C42.75 32.8389 34.3389 41.25 24 41.25C13.6611 41.25 5.25 32.8389 5.25 22.5C5.25 18.4746 6.50098 14.6455 8.86963 11.4243C9.11426 11.0903 9.04248 10.6216 8.7085 10.3755C8.37891 10.1338 7.90869 10.2012 7.65967 10.5366C5.10205 14.0156 3.75 18.1538 3.75 22.5C3.75 31.3302 9.43982 38.8378 17.3383 41.6011L14.4697 44.4697C14.1768 44.7627 14.1768 45.2373 14.4697 45.5303C14.6162 45.6768 14.8081 45.75 15 45.75C15.1919 45.75 15.3838 45.6768 15.5303 45.5303L18.9688 42.0917C20.5808 42.5061 22.2604 42.75 24 42.75C25.7396 42.75 27.4192 42.5061 29.0312 42.0917L32.4697 45.5303C32.6162 45.6768 32.8081 45.75 33 45.75C33.1919 45.75 33.3838 45.6768 33.5303 45.5303C33.8232 45.2373 33.8232 44.7627 33.5303 44.4697L30.6617 41.6011C38.5602 38.8378 44.25 31.3302 44.25 22.5Z" fill="#F36B14"/>
<path d="M24 38.2501C32.6851 38.2501 39.75 31.1851 39.75 22.5001C39.75 18.427 38.183 14.7225 35.6369 11.9237L36.3105 11.2501H39C39.1992 11.2501 39.3896 11.171 39.5303 11.0304L44.0303 6.53036C44.2441 6.31649 44.3086 5.99276 44.1929 5.71297C44.0771 5.43319 43.8032 5.25008 43.5 5.25008H41.25V3.00008C41.25 2.69686 41.0669 2.42293 40.7871 2.30721C40.5088 2.19295 40.1851 2.25448 39.9697 2.46981L35.4697 6.96981C35.3291 7.11043 35.25 7.30086 35.25 7.50008V10.1895L34.5764 10.8632C31.7776 8.3171 28.0731 6.75008 24 6.75008C15.3149 6.75008 8.25 13.815 8.25 22.5001C8.25 31.1851 15.3149 38.2501 24 38.2501ZM36.75 7.81063L39.75 4.81063V6.00008C39.75 6.41463 40.0854 6.75008 40.5 6.75008H41.6895L38.6895 9.75008H36.75V7.81063ZM24 8.25008C27.6593 8.25008 30.9899 9.64837 33.516 11.9235L31.3958 14.0437C29.4161 12.3101 26.8323 11.2501 24 11.2501C17.7964 11.2501 12.75 16.2965 12.75 22.5001C12.75 28.7037 17.7964 33.7501 24 33.7501C30.2036 33.7501 35.25 28.7037 35.25 22.5001C35.25 19.6678 34.19 17.084 32.4564 15.1043L34.5765 12.9841C36.8517 15.5102 38.25 18.8408 38.25 22.5001C38.25 30.3575 31.8574 36.7501 24 36.7501C16.1426 36.7501 9.75 30.3575 9.75 22.5001C9.75 14.6427 16.1426 8.25008 24 8.25008ZM29.25 22.5001C29.25 25.3946 26.8945 27.7501 24 27.7501C21.1055 27.7501 18.75 25.3946 18.75 22.5001C18.75 19.6056 21.1055 17.2501 24 17.2501C25.1768 17.2501 26.2529 17.6535 27.1295 18.3101L23.4697 21.9698C23.1768 22.2628 23.1768 22.7374 23.4697 23.0304C23.6162 23.1768 23.8081 23.2501 24 23.2501C24.1919 23.2501 24.3838 23.1768 24.5303 23.0304L28.19 19.3706C28.8466 20.2472 29.25 21.3233 29.25 22.5001ZM28.1898 17.2497C27.035 16.3259 25.5906 15.7501 24 15.7501C20.2778 15.7501 17.25 18.7779 17.25 22.5001C17.25 26.2223 20.2778 29.2501 24 29.2501C27.7222 29.2501 30.75 26.2223 30.75 22.5001C30.75 20.9094 30.1741 19.4651 29.2504 18.3103L31.396 16.1646C32.8596 17.8705 33.75 20.0815 33.75 22.5001C33.75 27.8761 29.376 32.2501 24 32.2501C18.624 32.2501 14.25 27.8761 14.25 22.5001C14.25 17.1241 18.624 12.7501 24 12.7501C26.4185 12.7501 28.6295 13.6405 30.3354 15.1041L28.1898 17.2497ZM9.68106 8.18114C9.38818 8.47402 9.38818 8.9489 9.68106 9.24178C9.97394 9.53466 10.4488 9.53466 10.7418 9.24178C11.0347 8.9489 11.0347 8.47402 10.7418 8.18114C10.4488 7.88827 9.97394 7.88827 9.68106 8.18114Z" fill="#F36B14"/>
</svg>
