<svg width="58" height="47" viewBox="0 0 58 47" fill="none" xmlns="http://www.w3.org/2000/svg">
<path d="M26.5117 3.34423C22.7717 5.875 20.208 8.58654 18.8206 11.4788C17.4332 14.3109 16.7395 17.0224 16.7395 19.6135C16.7395 22.3853 17.4935 24.8558 19.0016 27.025C20.5699 29.134 22.2891 30.9718 24.1591 32.5385C25.0036 33.4423 25.4259 34.4365 25.4259 35.5212C25.4259 36.7865 25.0036 38.082 24.1591 39.4077C23.3146 40.7333 22.1986 41.9686 20.8112 43.1135C19.4238 44.2583 17.7951 45.1923 15.9251 45.9154C14.1154 46.6385 12.2153 47 10.2246 47C8.29433 47 6.66562 46.5179 5.33853 45.5538C4.07176 44.5897 3.04628 43.4147 2.26209 42.0288C1.4779 40.6429 0.904833 39.1968 0.542898 37.6904C0.180964 36.1237 -3.03688e-06 34.7378 -2.93152e-06 33.5327C-2.62599e-06 30.0378 0.633383 26.6936 1.90015 23.5C3.16693 20.2462 4.88611 17.2032 7.05772 14.3712C9.22933 11.5391 11.7629 8.94808 14.6583 6.59808C17.5538 4.18782 20.6001 2.04872 23.7972 0.180771L26.5117 3.34423ZM58 3.16347C54.3203 5.69423 51.7566 8.40577 50.3089 11.2981C48.9215 14.1301 48.2278 16.8417 48.2278 19.4327C48.2278 22.2045 48.9818 24.675 50.4899 26.8442C52.0582 28.9532 53.7774 30.791 55.6474 32.3577C56.4919 33.2615 56.9142 34.2558 56.9142 35.3404C56.9142 36.6058 56.4919 37.9013 55.6474 39.2269C54.8029 40.5526 53.6869 41.7878 52.2995 42.9327C50.9121 44.0776 49.2834 45.0115 47.4134 45.7346C45.6037 46.4577 43.7036 46.8192 41.7129 46.8192C39.7826 46.8192 38.1841 46.3372 36.9173 45.3731C35.6505 44.409 34.5949 43.234 33.7504 41.8481C32.9662 40.4622 32.3931 39.016 32.0312 37.5096C31.7296 35.9429 31.5788 34.5571 31.5788 33.3519C31.5788 29.8571 32.2122 26.5128 33.4789 23.3192C34.7457 20.0654 36.4649 17.0224 38.6365 14.1904C40.8081 11.3583 43.3115 8.76731 46.1466 6.41731C49.0421 4.00706 52.0884 1.86795 55.2855 4.83321e-06L58 3.16347Z" fill="#ECEAEA"/>
</svg>
