<svg width="16" height="16" viewBox="0 0 16 16" fill="none" xmlns="http://www.w3.org/2000/svg">
<path d="M8.8 4.4C8.8 3.82218 8.68619 3.25003 8.46507 2.71619C8.24395 2.18236 7.91985 1.69731 7.51127 1.28873C7.10269 0.880152 6.61764 0.556051 6.08381 0.33493C5.54997 0.113809 4.97782 0 4.4 0C3.82218 0 3.25003 0.113809 2.71619 0.33493C2.18236 0.556051 1.69731 0.880152 1.28873 1.28873C0.880152 1.69731 0.556051 2.18236 0.33493 2.71619C0.113809 3.25003 -8.61013e-09 3.82218 0 4.4C1.73889e-08 5.56695 0.46357 6.68611 1.28873 7.51127C2.11389 8.33643 3.23305 8.8 4.4 8.8C5.56695 8.8 6.68611 8.33643 7.51127 7.51127C8.33643 6.68611 8.8 5.56695 8.8 4.4ZM4.8 4.8L4.8008 6.8032C4.8008 6.90929 4.75866 7.01103 4.68364 7.08604C4.60863 7.16106 4.50689 7.2032 4.4008 7.2032C4.29471 7.2032 4.19297 7.16106 4.11796 7.08604C4.04294 7.01103 4.0008 6.90929 4.0008 6.8032V4.8H1.9968C1.89071 4.8 1.78897 4.75786 1.71396 4.68284C1.63894 4.60783 1.5968 4.50609 1.5968 4.4C1.5968 4.29391 1.63894 4.19217 1.71396 4.11716C1.78897 4.04214 1.89071 4 1.9968 4H4V2C4 1.89391 4.04214 1.79217 4.11716 1.71716C4.19217 1.64214 4.29391 1.6 4.4 1.6C4.50609 1.6 4.60783 1.64214 4.68284 1.71716C4.75786 1.79217 4.8 1.89391 4.8 2V4H6.8024C6.90849 4 7.01023 4.04214 7.08524 4.11716C7.16026 4.19217 7.2024 4.29391 7.2024 4.4C7.2024 4.50609 7.16026 4.60783 7.08524 4.68284C7.01023 4.75786 6.90849 4.8 6.8024 4.8H4.8ZM13.4 2.8H9.3496C9.21257 2.37741 9.02195 1.97413 8.7824 1.6H13.4C14.0896 1.6 14.7509 1.87393 15.2385 2.36152C15.7261 2.84912 16 3.51044 16 4.2V9.7032C15.9998 10.1803 15.8102 10.6378 15.4728 10.9752L10.976 15.4728C10.8089 15.6399 10.6104 15.7725 10.392 15.863C10.1736 15.9534 9.93958 16 9.7032 16H4.2C3.51044 16 2.84912 15.7261 2.36152 15.2385C1.87393 14.7509 1.6 14.0896 1.6 13.4V8.7824C1.9704 9.02 2.3736 9.2112 2.8 9.3496V13.4C2.8 14.1728 3.4272 14.8 4.2 14.8H9.6V12.2C9.59996 11.5359 9.85404 10.8969 10.3101 10.4142C10.7662 9.93149 11.3898 9.6416 12.0528 9.604L12.2 9.6H14.8V4.2C14.8 3.8287 14.6525 3.4726 14.3899 3.21005C14.1274 2.9475 13.7713 2.8 13.4 2.8ZM13.9512 10.8H12.2C11.8485 10.8 11.5099 10.9323 11.2514 11.1704C10.993 11.4086 10.8335 11.7353 10.8048 12.0856L10.8 12.2V13.9512L13.9512 10.8Z" fill="#777777" fill-opacity="0.6"/>
</svg>
