<svg width="32" height="32" viewBox="0 0 32 32" fill="none" xmlns="http://www.w3.org/2000/svg">
<path d="M8.209 27.7755L7 31H8.5L10.886 29.4095" fill="#5A5B5D"/>
<path d="M23.7908 27.7755L24.9998 31H23.4998L21.1138 29.4095" fill="#5A5B5D"/>
<path d="M6.95186 7.236L6.04736 6.809C7.85736 2.9765 11.7634 0.5 15.9999 0.5C20.2249 0.5 24.1269 2.9675 25.9414 6.7855L25.0379 7.2145C23.3884 3.743 19.8409 1.5 15.9999 1.5C12.1489 1.5 8.59686 3.7515 6.95186 7.236Z" fill="#5A5B5D"/>
<path d="M14.193 5.6295C13.279 4.628 11.963 4 10.5 4C7.7385 4 5.5 6.2385 5.5 9C5.5 9.616 5.6115 10.206 5.8155 10.751M26.185 10.751C26.3885 10.206 26.5 9.616 26.5 9C26.5 6.2385 24.2615 4 21.5 4C20.037 4 18.721 4.628 17.807 5.6295M15.5 26.5V28.475C15.665 28.483 15.828 28.5 15.995 28.5H16.0045C16.1715 28.5 16.3345 28.483 16.4995 28.475V26.5H15.5Z" fill="#E7B532"/>
<path d="M16 30.5C22.9036 30.5 28.5 24.9036 28.5 18C28.5 11.0964 22.9036 5.5 16 5.5C9.09644 5.5 3.5 11.0964 3.5 18C3.5 24.9036 9.09644 30.5 16 30.5Z" fill="#134681"/>
<path d="M16 5.5C12.8025 5.5 9.887 6.702 7.6765 8.6765C5.702 10.887 4.5 13.8025 4.5 17C4.5 23.9035 10.0965 29.5 17 29.5C20.1975 29.5 23.113 28.298 25.3235 26.3235C27.298 24.113 28.5 21.1975 28.5 18C28.5 11.0965 22.9035 5.5 16 5.5Z" fill="#205FA6"/>
<path d="M16 28.5C21.799 28.5 26.5 23.799 26.5 18C26.5 12.201 21.799 7.5 16 7.5C10.201 7.5 5.5 12.201 5.5 18C5.5 23.799 10.201 28.5 16 28.5Z" fill="#B3B4B8"/>
<path d="M15 8.5C12.355 8.5 9.9455 9.485 8.0995 11.099C6.4855 12.9455 5.5 15.355 5.5 18C5.5 23.799 10.201 28.5 16 28.5C18.645 28.5 21.0545 27.5145 22.901 25.901C24.5145 24.0545 25.5 21.645 25.5 19C25.5 13.201 20.799 8.5 15 8.5Z" fill="#DBDCDE"/>
<path d="M15.0693 18.62L11.5649 24.7529L12.4332 25.249L15.9376 19.1161L15.0693 18.62Z" fill="#205FA6"/>
<path d="M16.5 11.9995H15.5V17H16.5V11.9995Z" fill="#205FA6"/>
<path d="M16.5 9.5V7.525C16.333 7.5175 16.169 7.5 16 7.5C15.831 7.5 15.667 7.5175 15.5 7.525V9.5H16.5ZM24.5 17.5V18.5H26.475C26.483 18.333 26.5 18.169 26.5 18C26.5 17.831 26.4825 17.667 26.475 17.5H24.5ZM7.5 17.5H5.525C5.5175 17.667 5.5 17.831 5.5 18C5.5 18.169 5.5175 18.333 5.525 18.5H7.5V17.5ZM10.3435 11.636L8.946 10.239C8.699 10.4635 8.4635 10.699 8.239 10.946L9.6365 12.343L10.3435 11.636ZM21.6565 24.364L23.054 25.761C23.301 25.5365 23.5365 25.301 23.761 25.054L22.3635 23.657L21.6565 24.364ZM22.364 12.343L23.7615 10.946C23.537 10.699 23.3015 10.4635 23.0545 10.239L21.657 11.636L22.364 12.343ZM9.636 23.657L8.2385 25.054C8.463 25.301 8.6985 25.5365 8.9455 25.761L10.343 24.364L9.636 23.657Z" fill="#E7B532"/>
<path d="M16 19.5C15.173 19.5 14.5 18.827 14.5 18C14.5 17.173 15.173 16.5 16 16.5C16.827 16.5 17.5 17.173 17.5 18C17.5 18.827 16.827 19.5 16 19.5ZM16 17.5C15.724 17.5 15.5 17.7245 15.5 18C15.5 18.2755 15.724 18.5 16 18.5C16.276 18.5 16.5 18.2755 16.5 18C16.5 17.7245 16.276 17.5 16 17.5Z" fill="#424344"/>
<path d="M7.6185 27.926L6.532 30.824C6.4745 30.9775 6.496 31.1495 6.589 31.2845C6.6825 31.4195 6.836 31.5 7 31.5H8.5C8.5985 31.5 8.6955 31.4705 8.7775 31.416L10.9395 29.9745C12.4955 30.6345 14.206 31 16 31C17.794 31 19.5045 30.6345 21.0605 29.9745L23.2225 31.416C23.3045 31.4705 23.4015 31.5 23.5 31.5H25C25.164 31.5 25.3175 31.4195 25.411 31.285C25.5045 31.15 25.5255 30.978 25.468 30.8245L24.3815 27.9265C27.2035 25.54 29 21.9765 29 18C29 15.2855 28.1625 12.7635 26.734 10.6765C26.907 10.136 27 9.5745 27 9C27 6.984 25.906 5.2225 24.284 4.265C22.192 1.872 19.177 0.5 16 0.5C12.823 0.5 9.808 1.872 7.716 4.265C6.094 5.2225 5 6.984 5 9C5 9.5745 5.093 10.1365 5.266 10.6765C3.8375 12.7635 3 15.2855 3 18C3 21.9765 4.7965 25.5395 7.6185 27.926ZM8.3485 30.5H7.7215L8.445 28.5695C8.906 28.9 9.388 29.2025 9.8915 29.4715L8.3485 30.5ZM24.2785 30.5H23.6515L22.1085 29.4715C22.6115 29.2025 23.0935 28.9 23.5545 28.5695L24.2785 30.5ZM26 9C26 9.218 25.9805 9.433 25.95 9.6455C24.1595 7.517 21.701 5.9705 18.8995 5.33C19.654 4.796 20.563 4.5 21.5 4.5C23.9815 4.5 26 6.519 26 9ZM16 1.5C18.1985 1.5 20.311 2.223 22.034 3.527C21.858 3.51 21.68 3.5 21.5 3.5C20.0475 3.5 18.654 4.086 17.627 5.1055C17.0935 5.0385 16.5515 5 16 5C15.4485 5 14.9065 5.0385 14.373 5.1055C13.346 4.086 11.9525 3.5 10.5 3.5C10.32 3.5 10.142 3.51 9.966 3.527C11.689 2.223 13.8015 1.5 16 1.5ZM6 9C6 6.519 8.0185 4.5 10.5 4.5C11.437 4.5 12.346 4.796 13.1005 5.33C10.299 5.971 7.84 7.517 6.05 9.6455C6.0195 9.433 6 9.218 6 9ZM16 6C22.6165 6 28 11.3835 28 18C28 24.6165 22.6165 30 16 30C9.3835 30 4 24.6165 4 18C4 11.3835 9.3835 6 16 6Z" fill="black"/>
<path d="M16 29C22.0655 29 27 24.0655 27 18C27 11.9345 22.0655 7 16 7C9.9345 7 5 11.9345 5 18C5 24.0655 9.9345 29 16 29ZM6.0255 17.5C6.144 15.1205 7.094 12.9615 8.5955 11.3025L9.636 12.343L10.343 11.636L9.3025 10.5955C10.9615 9.0935 13.12 8.1435 15.5 8.025V9.5H16.5V8.0255C18.88 8.144 21.0385 9.094 22.6975 10.596L21.657 11.6365L22.364 12.3435L23.4045 11.303C24.9065 12.962 25.856 15.1205 25.9745 17.5005H24.5V18.5005H25.9745C25.856 20.88 24.906 23.039 23.4045 24.698L22.364 23.6575L21.657 24.3645L22.6975 25.405C21.0385 26.9065 18.88 27.856 16.5 27.9745V26.5H15.5V27.9745C13.12 27.856 10.9615 26.906 9.3025 25.404L10.343 24.3635L9.636 23.6565L8.5955 24.697C7.0935 23.038 6.144 20.8795 6.0255 18.4995H7.5V17.4995L6.0255 17.5Z" fill="black"/>
<path d="M12.4339 25.248L15.7339 19.473C15.8204 19.4885 15.9089 19.5 15.9999 19.5C16.8269 19.5 17.4999 18.827 17.4999 18C17.4999 17.349 17.0804 16.799 16.4999 16.592V11.9995H15.4999V16.592C14.9194 16.799 14.4999 17.349 14.4999 18C14.4999 18.373 14.6419 18.7105 14.8679 18.973L11.5659 24.752L12.4339 25.248ZM15.9999 17.5C16.2759 17.5 16.4999 17.7245 16.4999 18C16.4999 18.2755 16.2759 18.5 15.9999 18.5C15.7239 18.5 15.4999 18.2755 15.4999 18C15.4999 17.7245 15.7239 17.5 15.9999 17.5Z" fill="black"/>
</svg>
