<svg width="65" height="64" viewBox="0 0 65 64" fill="none" xmlns="http://www.w3.org/2000/svg">
<path fill-rule="evenodd" clip-rule="evenodd" d="M57.6839 51.2L22.7399 16.256C22.6119 16.128 22.5479 15.936 22.5799 15.776C23.0279 13.28 22.2279 10.72 20.4359 8.92802C18.9639 7.45602 17.0119 6.62402 14.9319 6.62402C14.6439 6.62402 14.3559 6.65602 14.0679 6.68802L18.8039 11.424C18.8999 11.52 18.9639 11.648 18.9639 11.808C18.9639 11.936 18.8999 12.064 18.8039 12.16L12.6599 18.304C12.5639 18.4 12.4359 18.464 12.3079 18.464C12.1479 18.464 12.0199 18.4 11.9239 18.304L7.18794 13.568C6.89994 15.904 7.73194 18.24 9.42793 19.936C10.8679 21.408 12.8519 22.208 14.9319 22.208C15.3799 22.208 15.8279 22.176 16.2759 22.08C16.3079 22.08 16.3399 22.08 16.3719 22.08C16.4999 22.08 16.6279 22.144 16.7559 22.24L33.3959 38.88V38.912H33.4279L51.6999 57.184C52.4999 57.984 53.5559 58.432 54.7079 58.432C55.8279 58.432 56.8839 57.984 57.6839 57.184C58.4839 56.384 58.9319 55.328 58.9319 54.208C58.9319 53.056 58.4839 52 57.6839 51.2Z" fill="#174271"/>
<path fill-rule="evenodd" clip-rule="evenodd" d="M39.7642 31.776L51.9562 19.584C52.0522 19.52 52.1162 19.488 52.2122 19.456L57.3962 18.048L59.2202 11.296L54.2602 6.36798L47.5082 8.15998L46.1322 13.344C46.1002 13.44 46.0362 13.536 45.9722 13.6L33.7802 25.792L39.7642 31.776ZM51.2202 18.24C51.0922 18.24 50.9322 18.208 50.8362 18.08L47.4762 14.72C47.3482 14.592 47.2842 14.4 47.3482 14.208L48.5642 9.59998C48.6282 9.40798 48.7562 9.27998 48.9482 9.21598L53.5562 7.99998C53.7482 7.93598 53.9402 7.99998 54.0682 8.12798L57.4282 11.488C57.5882 11.648 57.6202 11.84 57.5882 12L56.3402 16.608C56.3082 16.8 56.1482 16.96 55.9562 16.992L51.3482 18.24C51.3162 18.24 51.2522 18.24 51.2202 18.24ZM32.2762 39.264L26.2922 33.28L14.1002 45.472C14.0362 45.536 13.9402 45.6 13.8442 45.632L8.66016 47.008L6.86816 53.76L11.7962 58.72L18.5482 56.896L19.9562 51.712C19.9882 51.616 20.0202 51.552 20.0842 51.456L32.2762 39.264ZM15.2202 46.976L18.5802 50.336C18.7402 50.464 18.7722 50.688 18.7402 50.848L17.4922 55.456C17.4602 55.648 17.3002 55.808 17.1082 55.84L12.5002 57.088C12.4682 57.088 12.4362 57.088 12.3722 57.088C12.2442 57.088 12.1162 57.024 11.9882 56.928L8.62817 53.568C8.50016 53.44 8.43616 53.248 8.50016 53.056L9.71617 48.448C9.78017 48.256 9.90817 48.128 10.1002 48.064L14.7082 46.848C14.9002 46.784 15.0922 46.848 15.2202 46.976Z" fill="#9AB8D4"/>
<path fill-rule="evenodd" clip-rule="evenodd" d="M50.6755 17.728C50.5475 17.728 50.4195 17.664 50.3235 17.568L46.9315 14.176C46.8035 14.048 46.7395 13.856 46.8035 13.664L48.0195 9.05603C48.0835 8.89603 48.2115 8.73603 48.4035 8.70403L53.0115 7.45602C53.2035 7.39202 53.3955 7.45602 53.5235 7.58402L56.9155 10.976C57.0435 11.104 57.1075 11.296 57.0435 11.488L55.7955 16.096C55.7635 16.288 55.6035 16.416 55.4435 16.48L50.8355 17.696C50.7715 17.728 50.7395 17.728 50.6755 17.728ZM54.1635 58.9761C52.7555 58.9761 51.4115 58.4001 50.4195 57.4081L32.4995 39.4881L20.4035 51.5841L18.9635 56.9281C18.9315 57.1201 18.7715 57.2801 18.6115 57.3121L11.2515 59.2961C11.1875 59.2961 11.1555 59.2961 11.1235 59.2961C10.9635 59.2961 10.8355 59.2641 10.7395 59.1361L5.36353 53.7601C5.20353 53.6321 5.17153 53.4401 5.20353 53.2481L7.18753 45.8881C7.21953 45.7281 7.37953 45.5681 7.57153 45.5361L12.9155 44.0961L25.0115 32L15.6355 22.656C15.2195 22.72 14.8035 22.752 14.3875 22.752C12.0195 22.752 9.81153 21.824 8.11553 20.16C5.93953 17.952 5.04353 14.816 5.77953 11.808C5.81153 11.616 5.97153 11.456 6.16353 11.424C6.32353 11.36 6.54753 11.424 6.67553 11.552L11.7635 16.64L17.1395 11.264L12.0515 6.17602C11.9235 6.04802 11.8595 5.82402 11.9235 5.66402C11.9555 5.47202 12.1155 5.31202 12.3075 5.28002C12.9795 5.12002 13.6835 5.02402 14.3875 5.02402C16.7555 5.02402 18.9635 5.95202 20.6595 7.61602C22.6115 9.60003 23.5395 12.384 23.1555 15.136L32.4995 24.512L44.5955 12.416L46.0355 7.07202C46.0675 6.88002 46.2275 6.72002 46.3875 6.68802L53.7475 4.70402C53.9395 4.67202 54.1315 4.70402 54.2595 4.86402L59.6355 10.24C59.7955 10.368 59.8275 10.56 59.7955 10.752L57.8115 18.112C57.7795 18.272 57.6195 18.432 57.4275 18.464L52.0835 19.904L39.9875 32L57.9075 49.9201C58.8995 50.9121 59.4755 52.2561 59.4755 53.6641C59.4755 55.0721 58.8995 56.4161 57.9075 57.4081C56.9155 58.4001 55.5715 58.9761 54.1635 58.9761ZM31.7315 38.7521L25.7475 32.768L13.5555 44.9601C13.4915 45.0241 13.4275 45.0561 13.3315 45.0881L8.14753 46.4641L6.32353 53.2481L11.2835 58.1761L18.0355 56.3521L19.4115 51.1681C19.4435 51.0721 19.4755 51.0081 19.5395 50.9441L31.7315 38.7521ZM33.2675 25.248L39.2515 31.232L51.4435 19.04C51.5075 18.976 51.5715 18.944 51.6675 18.912L56.8515 17.536L58.6755 10.752L53.7475 5.82402L46.9635 7.64802L45.5875 12.832C45.5555 12.928 45.5235 12.992 45.4595 13.056L33.2675 25.248ZM15.8275 21.536C15.9875 21.536 16.1155 21.6 16.2115 21.696L32.8835 38.3681L51.1555 56.6721C51.9555 57.4721 53.0435 57.8881 54.1635 57.8881C55.2835 57.8881 56.3715 57.4721 57.1715 56.6721C57.9715 55.8721 58.3875 54.7841 58.3875 53.6641C58.3875 52.5441 57.9715 51.4561 57.1715 50.6561L22.1955 15.712C22.0675 15.584 22.0355 15.424 22.0675 15.232C22.4835 12.736 21.6835 10.176 19.8915 8.38403C18.4195 6.91202 16.4675 6.11202 14.3875 6.11202C14.0995 6.11202 13.8115 6.11202 13.5235 6.14402L18.2595 10.88C18.3555 10.976 18.4195 11.104 18.4195 11.264C18.4195 11.392 18.3555 11.552 18.2595 11.648L12.1475 17.76C12.0515 17.856 11.8915 17.92 11.7635 17.92C11.6035 17.92 11.4755 17.856 11.3795 17.76L6.64353 13.024C6.38753 15.36 7.18753 17.696 8.88353 19.392C10.3555 20.864 12.3075 21.664 14.3875 21.664C14.8355 21.664 15.2835 21.632 15.7315 21.568C15.7635 21.536 15.7955 21.536 15.8275 21.536ZM11.8595 56.5761C11.6995 56.5761 11.5715 56.5121 11.4755 56.4161L8.08353 53.0241C7.95553 52.8961 7.89153 52.7041 7.95553 52.5121L9.20353 47.9041C9.23553 47.7121 9.39553 47.5841 9.55553 47.5201L14.1635 46.3041C14.3555 46.2401 14.5475 46.3041 14.6755 46.4321L18.0675 49.8241C18.1955 49.9521 18.2595 50.1441 18.1955 50.3361L16.9795 54.9441C16.9155 55.1041 16.7875 55.2641 16.5955 55.2961L11.9875 56.5441C11.9235 56.5441 11.8915 56.5761 11.8595 56.5761ZM9.07553 52.5121L11.9875 55.4241L16.0195 54.3681L17.0755 50.3361L14.1635 47.4241L10.1315 48.4801L9.07553 52.5121ZM47.9235 13.664L50.8355 16.576L54.8675 15.52L55.9235 11.488L53.0115 8.57603L48.9795 9.63203L47.9235 13.664Z" fill="black"/>
</svg>
