<svg width="30" height="31" viewBox="0 0 30 31" fill="none" xmlns="http://www.w3.org/2000/svg">
<path fill-rule="evenodd" clip-rule="evenodd" d="M14.5291 6.58066C9.09107 6.58066 4.68271 10.989 4.68271 16.427C4.68271 21.865 9.09107 26.2734 14.5291 26.2734C19.967 26.2734 24.3754 21.865 24.3754 16.427C24.3754 15.6557 24.2869 14.9064 24.12 14.1882C23.9832 13.5997 24.3495 13.0117 24.938 12.8749C25.5265 12.7381 26.1145 13.1044 26.2513 13.6929C26.4557 14.5723 26.5635 15.4878 26.5635 16.427C26.5635 23.0734 21.1755 28.4614 14.5291 28.4614C7.88263 28.4614 2.49463 23.0734 2.49463 16.427C2.49463 9.78057 7.88263 4.39258 14.5291 4.39258C15.0018 4.39258 15.4685 4.41989 15.9278 4.4731C16.528 4.54264 16.9582 5.08558 16.8887 5.68579C16.8191 6.28599 16.2762 6.71618 15.676 6.64664C15.3001 6.60309 14.9174 6.58066 14.5291 6.58066Z" fill="#091054"/>
<path fill-rule="evenodd" clip-rule="evenodd" d="M27.6023 3.44595C28.0498 4.01033 28.4534 6.14114 26.9111 7.28793C19.769 12.5988 16.862 18.0238 15.6381 21.4135C15.421 22.0148 14.9998 22.7989 14.3549 22.8815C13.5485 22.9847 12.9942 22.278 12.6269 21.7515L8.595 16.1017C8.05612 15.3291 7.64689 13.5027 8.82537 12.7118C9.61297 12.1832 10.4752 12.9562 11.0141 13.7287L13.6473 17.3271C15.609 13.3267 17.0041 9.6594 24.2616 4.01033C25.7132 2.88047 27.0164 2.70704 27.6023 3.44595Z" fill="#091054"/>
</svg>
