<svg width="24" height="25" viewBox="0 0 24 25" fill="none" xmlns="http://www.w3.org/2000/svg">
<path d="M13.8867 14.3164C13.1992 13.7305 12.4375 13.2812 11.6016 12.9688C10.7656 12.6562 9.89844 12.5 9 12.5C8.3125 12.5 7.64844 12.5898 7.00781 12.7695C6.36719 12.9492 5.76953 13.1992 5.21484 13.5195C4.66016 13.8398 4.15625 14.2305 3.70312 14.6914C3.25 15.1523 2.85938 15.6602 2.53125 16.2148C2.20312 16.7695 1.94922 17.3672 1.76953 18.0078C1.58984 18.6484 1.5 19.3125 1.5 20H0C0 19.0625 0.136719 18.1602 0.410156 17.293C0.683594 16.4258 1.07812 15.625 1.59375 14.8906C2.10938 14.1562 2.71875 13.5039 3.42188 12.9336C4.125 12.3633 4.92188 11.9141 5.8125 11.5859C4.92969 11.0078 4.24219 10.2812 3.75 9.40625C3.25781 8.53125 3.00781 7.5625 3 6.5C3 5.67188 3.15625 4.89453 3.46875 4.16797C3.78125 3.44141 4.20703 2.80469 4.74609 2.25781C5.28516 1.71094 5.92188 1.28125 6.65625 0.96875C7.39062 0.65625 8.17188 0.5 9 0.5C9.82812 0.5 10.6055 0.65625 11.332 0.96875C12.0586 1.28125 12.6953 1.70703 13.2422 2.24609C13.7891 2.78516 14.2188 3.42188 14.5312 4.15625C14.8438 4.89062 15 5.67188 15 6.5C15 7.01562 14.9375 7.51953 14.8125 8.01172C14.6875 8.50391 14.5 8.96875 14.25 9.40625C14 9.84375 13.707 10.2461 13.3711 10.6133C13.0352 10.9805 12.6406 11.3047 12.1875 11.5859C12.6953 11.7812 13.1797 12.0195 13.6406 12.3008C14.1016 12.582 14.5352 12.8984 14.9414 13.25L13.8867 14.3164ZM4.5 6.5C4.5 7.125 4.61719 7.70703 4.85156 8.24609C5.08594 8.78516 5.40625 9.26172 5.8125 9.67578C6.21875 10.0898 6.69531 10.4141 7.24219 10.6484C7.78906 10.8828 8.375 11 9 11C9.61719 11 10.1992 10.8828 10.7461 10.6484C11.293 10.4141 11.7695 10.0938 12.1758 9.6875C12.582 9.28125 12.9062 8.80469 13.1484 8.25781C13.3906 7.71094 13.5078 7.125 13.5 6.5C13.5 5.88281 13.3828 5.30078 13.1484 4.75391C12.9141 4.20703 12.5938 3.73047 12.1875 3.32422C11.7812 2.91797 11.3008 2.59375 10.7461 2.35156C10.1914 2.10938 9.60938 1.99219 9 2C8.375 2 7.79297 2.11719 7.25391 2.35156C6.71484 2.58594 6.23828 2.90625 5.82422 3.3125C5.41016 3.71875 5.08594 4.19922 4.85156 4.75391C4.61719 5.30859 4.5 5.89062 4.5 6.5ZM20.25 9.5C20.7656 9.5 21.25 9.59766 21.7031 9.79297C22.1562 9.98828 22.5508 10.2578 22.8867 10.6016C23.2227 10.9453 23.4922 11.3438 23.6953 11.7969C23.8984 12.25 24 12.7344 24 13.25C24 13.7656 23.9023 14.25 23.707 14.7031C23.5117 15.1562 23.2422 15.5547 22.8984 15.8984C22.5547 16.2422 22.1562 16.5117 21.7031 16.707C21.25 16.9023 20.7656 17 20.25 17C20.0703 17 19.8945 16.9883 19.7227 16.9648L12.8438 23.8438C12.6328 24.0547 12.3906 24.2148 12.1172 24.3242C11.8438 24.4336 11.5547 24.4922 11.25 24.5C10.9375 24.5 10.6445 24.4414 10.3711 24.3242C10.0977 24.207 9.85938 24.0469 9.65625 23.8438C9.45312 23.6406 9.29297 23.4023 9.17578 23.1289C9.05859 22.8555 9 22.5625 9 22.25C9 21.9531 9.05469 21.668 9.16406 21.3945C9.27344 21.1211 9.4375 20.875 9.65625 20.6562L16.5352 13.7773C16.5117 13.6055 16.5 13.4297 16.5 13.25C16.5 12.7344 16.5977 12.25 16.793 11.7969C16.9883 11.3438 17.2539 10.9492 17.5898 10.6133C17.9258 10.2773 18.3242 10.0078 18.7852 9.80469C19.2461 9.60156 19.7344 9.5 20.25 9.5ZM20.25 15.5C20.5625 15.5 20.8555 15.4414 21.1289 15.3242C21.4023 15.207 21.6406 15.0469 21.8438 14.8438C22.0469 14.6406 22.207 14.4023 22.3242 14.1289C22.4414 13.8555 22.5 13.5625 22.5 13.25C22.5 12.9297 22.4258 12.6094 22.2773 12.2891L20.5664 14H19.5V12.9336L21.2109 11.2227C20.8906 11.0742 20.5703 11 20.25 11C19.9375 11 19.6445 11.0586 19.3711 11.1758C19.0977 11.293 18.8594 11.4531 18.6562 11.6562C18.4531 11.8594 18.293 12.0977 18.1758 12.3711C18.0586 12.6445 18 12.9375 18 13.25C18 13.5703 18.0742 13.8906 18.2227 14.2109L10.7227 21.7227C10.5742 21.8711 10.5 22.0469 10.5 22.25C10.5 22.4531 10.5742 22.6289 10.7227 22.7773C10.8711 22.9258 11.0469 23 11.25 23C11.4531 23 11.6289 22.9258 11.7773 22.7773L19.2891 15.2773C19.6094 15.4258 19.9297 15.5 20.25 15.5Z" fill="#640D5F"/>
</svg>
